<svg width="44" height="38" viewBox="0 0 44 38" fill="none" xmlns="http://www.w3.org/2000/svg">
<path fill-rule="evenodd" clip-rule="evenodd" d="M22.7339 7.10661C23.6162 7.38196 23.8946 7.70243 24.6977 9.3671L25.3726 10.7657L29.3925 11.0924C31.6035 11.272 33.8714 11.4379 34.4323 11.4609C36.0582 11.5275 36.4651 11.7819 37.1392 13.1529C37.6792 14.2512 37.7884 14.6778 37.6652 15.2075C37.5475 15.7133 37.2157 16.2563 36.8819 16.4895C36.7383 16.5899 31.0108 19.1579 24.1542 22.1964C11.8202 27.662 11.6812 27.7209 11.0917 27.7274C10.41 27.735 9.95033 27.5476 9.46944 27.0659C9.1146 26.7104 8.3545 25.1716 8.28153 24.6611C8.20197 24.1044 8.44938 23.4194 8.91651 22.9029C9.25384 22.5299 13.9513 16.3056 14.2952 15.776C14.3975 15.6184 14.3296 15.4258 13.7371 14.193C13.1133 12.8951 13.0628 12.7463 13.0667 12.2178C13.0714 11.5807 13.275 11.1089 13.7186 10.7063C13.9397 10.5058 14.193 10.3565 15.675 9.69091C15.9418 9.57111 16.2483 9.43457 16.6017 9.278C17.1064 9.05437 17.7066 8.78986 18.4225 8.47483C18.6682 8.36671 18.8978 8.26598 19.1125 8.17224C19.4913 8.00685 19.8239 7.8632 20.1175 7.739C21.8666 6.99896 22.2304 6.94952 22.7339 7.10661ZM22.5958 17.7377C16.0417 20.6403 10.4425 23.1229 10.1533 23.2546C9.12221 23.724 9.01908 24.283 9.713 25.64C10.2027 26.5977 10.4586 26.8163 11.0899 26.8163C11.4268 26.8163 35.9347 16.008 36.2889 15.7033C36.6014 15.4344 36.7811 14.9803 36.7061 14.6491C36.6716 14.4969 36.4622 14.0068 36.2406 13.5601C35.7853 12.6418 35.4377 12.3617 34.8333 12.4261C34.6569 12.4448 29.15 14.8351 22.5958 17.7377ZM35.1791 18.8355C35.3655 19.0551 36.2083 20.6345 36.2083 20.7639C36.2083 20.9628 35.9046 21.188 35.6363 21.188C35.4294 21.188 35.3348 21.0717 34.8872 20.2677C34.6055 19.7615 34.375 19.2729 34.375 19.182C34.375 18.8319 34.9617 18.5791 35.1791 18.8355ZM37.1466 22.5731C37.2245 22.6577 37.4832 23.1015 37.7216 23.5593C38.0682 24.225 38.139 24.4343 38.0754 24.605C37.9684 24.892 37.6596 24.9934 37.4079 24.8242C37.2254 24.7016 36.3 23.0613 36.3 22.8605C36.3 22.7118 36.6552 22.4192 36.8358 22.4192C36.9288 22.4192 37.0687 22.4884 37.1466 22.5731ZM32.0294 23.7792C32.3111 24.2854 32.5417 24.774 32.5417 24.8649C32.5417 25.1216 32.2216 25.3516 31.954 25.2872C31.7853 25.2466 31.6166 25.0403 31.3086 24.4982C30.713 23.4501 30.6486 23.2439 30.8496 23.0307C30.9388 22.9362 31.1254 22.8589 31.2645 22.8589C31.4915 22.8589 31.5691 22.9522 32.0294 23.7792ZM26.0037 23.4172C26.0957 23.5308 26.3537 23.984 26.5771 24.4243C26.934 25.1275 26.9704 25.2523 26.877 25.449C26.798 25.6154 26.701 25.6731 26.5002 25.6731C26.1394 25.6731 26.0629 25.5839 25.5366 24.5504C25.0958 23.685 25.0891 23.6599 25.2408 23.4378C25.4373 23.15 25.7801 23.1407 26.0037 23.4172ZM38.9731 26.2034C39.1782 26.3182 40.0583 27.9116 40.0583 28.168C40.0583 28.3936 39.8002 28.6631 39.584 28.6631C39.384 28.6631 39.2165 28.4523 38.7394 27.6006C38.2662 26.7556 38.2171 26.4535 38.5204 26.2497C38.7561 26.0913 38.7703 26.0898 38.9731 26.2034ZM33.5859 26.7504C33.6584 26.8593 33.8923 27.2885 34.1057 27.7043C34.5219 28.5157 34.5455 28.8632 34.1915 28.971C33.8159 29.0854 33.6432 28.9267 33.1807 28.0424C32.7163 27.1547 32.6392 26.8459 32.835 26.658C33.0203 26.4802 33.4404 26.5319 33.5859 26.7504ZM27.8834 27.0582C28.2013 27.4155 28.8843 28.7771 28.8573 28.9994C28.823 29.281 28.4626 29.4844 28.219 29.3594C27.9713 29.2321 27.1364 27.6998 27.1348 27.3691C27.1326 26.943 27.6061 26.7463 27.8834 27.0582ZM22.3449 27.4539C22.5346 27.6794 23.2833 29.1934 23.2833 29.3513C23.2833 29.6092 22.9627 29.8366 22.6911 29.7711C22.5054 29.7265 22.3546 29.517 21.949 28.7412C21.4624 27.8104 21.4463 27.7582 21.5846 27.5558C21.744 27.3225 22.1848 27.2634 22.3449 27.4539ZM16.7454 27.9023C16.8373 28.0159 17.0954 28.4691 17.3188 28.9094C17.6756 29.6126 17.7121 29.7374 17.6187 29.9341C17.4905 30.204 17.0657 30.2423 16.8425 30.0043C16.5827 29.7271 15.8667 28.2176 15.922 28.064C16.0635 27.6722 16.4914 27.5882 16.7454 27.9023ZM41.0883 30.0483C41.1662 30.1329 41.4238 30.5744 41.6607 31.0294C42.0227 31.7251 42.0759 31.8892 41.9946 32.0604C41.8686 32.3257 41.478 32.4228 41.2684 32.2409C41.1818 32.1657 40.9077 31.7079 40.6594 31.2237C40.2603 30.4456 40.2202 30.3172 40.3144 30.1188C40.4428 29.8486 40.8688 29.8097 41.0883 30.0483ZM35.452 30.3561C35.5021 30.4166 35.7608 30.8695 36.027 31.3627C36.4995 32.2381 36.5073 32.2647 36.3575 32.4839C36.251 32.6399 36.1223 32.7085 35.9362 32.7085C35.6901 32.7085 35.6268 32.6343 35.1591 31.7979C34.8791 31.297 34.65 30.8084 34.65 30.7122C34.65 30.3545 35.2353 30.0945 35.452 30.3561ZM29.7295 30.6597C29.8331 30.6855 30.0835 31.0669 30.3898 31.6656C30.817 32.5005 30.8696 32.6588 30.7818 32.8435C30.6581 33.1041 30.4119 33.1905 30.1607 33.0615C29.953 32.9549 29.0583 31.3176 29.0583 31.0442C29.0583 30.8923 29.3841 30.5807 29.5142 30.6081C29.5408 30.6137 29.6377 30.6369 29.7295 30.6597ZM24.2699 31.1475C24.4925 31.4123 25.2083 32.9011 25.2083 33.0994C25.2083 33.3596 24.9177 33.5374 24.6127 33.464C24.4568 33.4264 24.2774 33.1824 23.9337 32.5406C23.4603 31.6564 23.3779 31.3338 23.5767 31.1431C23.7208 31.0049 24.1523 31.0076 24.2699 31.1475ZM18.589 31.4487C18.7572 31.5136 19.6167 33.1892 19.6167 33.4524C19.6167 33.7539 19.2434 33.9896 18.98 33.8544C18.7741 33.7486 17.875 32.1132 17.875 31.8443C17.875 31.5347 18.2593 31.3218 18.589 31.4487ZM43.2936 34.1376C43.8199 35.048 44 35.4193 44 35.5935C44 35.9433 43.4114 36.198 43.198 35.9404C43.1479 35.88 42.8892 35.427 42.623 34.9338C42.1505 34.0584 42.1427 34.0318 42.2925 33.8126C42.3984 33.6574 42.5279 33.588 42.7109 33.588C42.941 33.588 43.0178 33.6604 43.2936 34.1376ZM37.4621 34.1462C37.554 34.2598 37.812 34.713 38.0354 35.1534C38.3923 35.8565 38.4288 35.9813 38.3354 36.1781C38.2564 36.3445 38.1594 36.4021 37.9586 36.4021C37.6208 36.4021 37.4749 36.227 36.9493 35.1913C36.5546 34.4136 36.5483 34.3876 36.6993 34.1665C36.8957 33.8791 37.2385 33.8699 37.4621 34.1462ZM31.6508 34.3585C31.8767 34.4068 32.845 36.2659 32.767 36.5018C32.6837 36.7532 32.3389 36.8851 32.0939 36.7593C31.985 36.7034 31.6899 36.2611 31.4298 35.7639C31.0536 35.0446 30.9774 34.8274 31.0414 34.6559C31.1263 34.4279 31.3848 34.3018 31.6508 34.3585ZM26.2383 34.8851C26.4236 35.0865 27.225 36.6274 27.225 36.7825C27.225 36.9543 26.9221 37.1936 26.7049 37.1936C26.6032 37.1936 26.4563 37.1243 26.3784 37.0397C26.193 36.8383 25.3917 35.2975 25.3917 35.1424C25.3917 34.9706 25.6945 34.7312 25.9118 34.7312C26.0134 34.7312 26.1604 34.8005 26.2383 34.8851ZM20.5141 35.1424C20.7154 35.2199 21.6486 37.0967 21.5837 37.2933C21.5004 37.5447 21.1556 37.6766 20.9105 37.5508C20.7136 37.4497 19.8 35.8186 19.8 35.5683C19.8 35.4037 20.1252 35.0804 20.2812 35.0899C20.3442 35.0937 20.4491 35.1174 20.5141 35.1424ZM17.9465 14.891L15.3185 16.0507L13.1954 18.8886C12.0278 20.4494 11.0871 21.7376 11.105 21.7513C11.1507 21.786 32.4404 12.3566 32.4017 12.3187C32.3844 12.3017 30.7408 12.154 28.7494 11.9906L25.1286 11.6936L23.9577 12.2238L17.9465 14.891ZM14.2114 11.6177C14.4156 11.2965 14.6159 11.1986 19.3454 9.11092C21.0386 8.36358 21.9745 7.9966 22.1871 7.99686C22.798 7.99748 23.0662 8.25735 23.6187 9.38416C23.8966 9.95113 24.1808 10.5448 24.2502 10.7036L24.3765 10.9923L23.278 11.4871L17.7762 13.931C16.4001 14.5379 15.2456 15.0042 15.2106 14.9672C15.1757 14.9303 14.8946 14.3633 14.586 13.7074C13.9753 12.4091 13.9166 12.0816 14.2114 11.6177Z" fill="#D8DCE1"/>
<path d="M12.4939 0.133424C13.9833 0.391625 15.4841 1.1438 16.5778 2.17995C17.3775 2.93758 17.6421 3.31705 18.6279 5.12068L20.1175 7.739C19.8239 7.8632 19.4913 8.00685 19.1125 8.17224L17.7245 5.49189C17.254 4.63444 16.6725 3.69908 16.4323 3.41335C15.6146 2.44 14.5032 1.70743 13.1542 1.25241L12.4208 1.00503L6.71458 0.979261L1.00833 0.953582V2.27387V3.59416L6.58194 3.6187L12.1556 3.64332L12.841 3.96836C13.993 4.51475 14.4814 5.0892 15.5724 7.18145L16.6017 9.278C16.2483 9.43457 15.9418 9.57111 15.675 9.69091L14.469 7.18295C13.6864 5.7019 13.2044 5.15436 12.3495 4.7755L11.7792 4.52275L6.05421 4.49822C0.920238 4.47614 0.312305 4.45891 0.164631 4.33069C0.0156708 4.20132 0 4.00222 0 2.23623C0 0.457407 0.0148506 0.271934 0.16766 0.139228C0.320103 0.00687377 0.854336 -0.00561415 6.05724 0.00159719C10.5516 0.00775321 11.9325 0.0360709 12.4939 0.133424Z" fill="#D8DCE1"/>
<path d="M16.4323 3.41335C16.6725 3.69908 17.254 4.63444 17.7245 5.49189L19.1125 8.17224C18.8978 8.26598 18.6682 8.36671 18.4225 8.47483C17.7066 8.78986 17.1064 9.05437 16.6017 9.278L15.5724 7.18145C14.4814 5.0892 13.993 4.51475 12.841 3.96836L12.1556 3.64332L6.58194 3.6187L1.00833 3.59416V2.27387V0.953582L6.71458 0.979261L12.4208 1.00503L13.1542 1.25241C14.5032 1.70743 15.6146 2.44 16.4323 3.41335Z" fill="#D8DCE1"/>
<path d="M17.9465 14.891L15.3185 16.0507L13.1954 18.8886C12.0278 20.4494 11.0871 21.7376 11.105 21.7513C11.1507 21.786 32.4404 12.3566 32.4017 12.3187C32.3844 12.3017 30.7408 12.154 28.7494 11.9906L25.1286 11.6936L23.9577 12.2238L17.9465 14.891Z" fill="#D8DCE1"/>
<path d="M19.3454 9.11092C14.6159 11.1986 14.4156 11.2965 14.2114 11.6177C13.9166 12.0816 13.9753 12.4091 14.586 13.7074C14.8946 14.3633 15.1757 14.9303 15.2106 14.9672C15.2456 15.0042 16.4001 14.5379 17.7762 13.931L23.278 11.4871L24.3765 10.9923L24.2502 10.7036C24.1808 10.5448 23.8966 9.95113 23.6187 9.38416C23.0662 8.25735 22.798 7.99748 22.1871 7.99686C21.9745 7.9966 21.0386 8.36358 19.3454 9.11092Z" fill="#D8DCE1"/>
<path d="M22.5958 17.7377C16.0417 20.6403 10.4425 23.1229 10.1533 23.2546C9.12221 23.724 9.01908 24.283 9.713 25.64C10.2027 26.5977 10.4586 26.8163 11.0899 26.8163C11.4268 26.8163 35.9347 16.008 36.2889 15.7033C36.6014 15.4344 36.7811 14.9803 36.7061 14.6491C36.6716 14.4969 36.4622 14.0068 36.2406 13.5601C35.7853 12.6418 35.4377 12.3617 34.8333 12.4261C34.6569 12.4448 29.15 14.8351 22.5958 17.7377Z" fill="#D8DCE1"/>
</svg>
