<svg width="38" height="35" viewBox="0 0 38 35" fill="none" xmlns="http://www.w3.org/2000/svg">
<path d="M36.0329 17.8092L18.9954 2.80524L1.95796 17.8092C1.71925 18.0149 1.41033 18.1166 1.09825 18.0924C0.786163 18.0681 0.496086 17.9198 0.290951 17.6796C0.0858154 17.4394 -0.0178223 17.1266 0.0025177 16.8093C0.0228577 16.4919 0.165535 16.1955 0.399597 15.9844L18.2163 0.294927C18.4322 0.104713 18.7085 0 18.9943 0C19.2801 0 19.5563 0.104713 19.7723 0.294927L26.1221 5.8852V3.62109C26.1221 2.98092 26.3724 2.36697 26.8179 1.9143C27.2634 1.46164 27.8676 1.20733 28.4977 1.20733C29.1277 1.20733 29.7319 1.46164 30.1774 1.9143C30.6229 2.36697 30.8732 2.98092 30.8732 3.62109V10.0682L37.5913 15.9844C37.8289 16.1947 37.9748 16.4921 37.997 16.8115C38.0193 17.1309 37.9161 17.4462 37.7101 17.6885C37.2777 18.1906 36.5294 18.2461 36.0329 17.8092ZM23.7466 22.9312H14.2443V35H7.11767C6.48763 35 5.8834 34.7457 5.4379 34.293C4.99239 33.8404 4.74211 33.2264 4.74211 32.5862V20.7564C4.74211 20.0323 5.06044 19.3492 5.61156 18.8906L17.4893 8.99654C17.9137 8.64189 18.446 8.448 18.9954 8.448C19.5449 8.448 20.0772 8.64189 20.5015 8.99654L32.3793 18.8906C32.6515 19.1165 32.8707 19.4011 33.0211 19.7239C33.1715 20.0466 33.2492 20.3993 33.2488 20.7564V32.5862C33.2488 33.2264 32.9985 33.8404 32.553 34.293C32.1075 34.7457 31.5033 35 30.8732 35H23.7466V22.9312Z" fill="#D8DCE1"/>
</svg>
