<svg width="32" height="35" viewBox="0 0 32 35" fill="none" xmlns="http://www.w3.org/2000/svg">
<path d="M22.3931 20.7559C20.4065 22.0575 18.0831 22.7509 15.7081 22.7509C13.333 22.7509 11.0096 22.0575 9.02306 20.7559C6.46141 21.9602 4.27165 23.8326 2.68413 26.1761C1.09662 28.5197 0.17002 31.2477 0.00181338 34.0734C-0.00590738 34.1931 0.0110813 34.3132 0.0517236 34.426C0.0923659 34.5389 0.155793 34.6423 0.238063 34.7296C0.320407 34.816 0.419551 34.8846 0.529398 34.9313C0.639246 34.9779 0.757474 35.0016 0.876814 35.0009H30.5831C30.7024 35.0016 30.8206 34.9779 30.9305 34.9313C31.0403 34.8846 31.1395 34.816 31.2218 34.7296C31.3041 34.6423 31.3675 34.5389 31.4082 34.426C31.4488 34.3132 31.4658 34.1931 31.4581 34.0734C31.2858 31.2431 30.3526 28.5119 28.7571 26.1679C27.1616 23.8239 24.9629 21.9541 22.3931 20.7559Z" fill="#D8DCE1"/>
<path d="M15.709 21C21.508 21 26.209 16.299 26.209 10.5C26.209 4.70101 21.508 0 15.709 0C9.91 0 5.20898 4.70101 5.20898 10.5C5.20898 16.299 9.91 21 15.709 21Z" fill="#D8DCE1"/>
</svg>
