<svg width="56" height="35" viewBox="0 0 56 35" fill="none" xmlns="http://www.w3.org/2000/svg">
<path d="M7 21H54.25C54.724 21 55.1341 21.1732 55.4805 21.5195C55.8268 21.8659 56 22.276 56 22.75V35H49V28H7V35H0V1.75C0 1.27604 0.173177 0.865885 0.519531 0.519531C0.865885 0.173177 1.27604 0 1.75 0H5.25C5.72396 0 6.13411 0.173177 6.48047 0.519531C6.82682 0.865885 7 1.27604 7 1.75V21ZM22.75 12.25C22.75 10.3177 22.0664 8.66797 20.6992 7.30078C19.332 5.93359 17.6823 5.25 15.75 5.25C13.8177 5.25 12.168 5.93359 10.8008 7.30078C9.43359 8.66797 8.75 10.3177 8.75 12.25C8.75 14.1823 9.43359 15.832 10.8008 17.1992C12.168 18.5664 13.8177 19.25 15.75 19.25C17.6823 19.25 19.332 18.5664 20.6992 17.1992C22.0664 15.832 22.75 14.1823 22.75 12.25ZM56 19.25V17.5C56 14.6016 54.9746 12.127 52.9238 10.0762C50.873 8.02539 48.3984 7 45.5 7H26.25C25.776 7 25.3659 7.17318 25.0195 7.51953C24.6732 7.86589 24.5 8.27604 24.5 8.75V19.25H56Z" fill="#D8DCE1"/>
</svg>
