<svg width="45" height="37" viewBox="0 0 45 37" fill="none" xmlns="http://www.w3.org/2000/svg">
<path fill-rule="evenodd" clip-rule="evenodd" d="M22.9283 2.55358C23.0444 1.37406 23.8094 0.430512 24.9448 0.0666871C25.3853 -0.0744623 26.5442 0.021057 26.9857 0.234954C27.8824 0.669353 28.4904 1.54728 28.601 2.56766L28.6608 3.11852H29.8716C30.8963 3.11852 31.101 3.09618 31.2032 2.9732C31.4108 2.72349 32.4412 2.11092 33.0637 1.86721C34.7712 1.19866 36.6588 1.43133 37.8507 2.45727C38.3474 2.88472 38.8902 3.70824 39.0752 4.31481C39.2809 4.98953 39.2695 6.13881 39.0507 6.76963C38.5581 8.1899 37.3358 9.21185 35.8221 9.46911C34.4578 9.70091 32.6995 9.20933 31.476 8.25396L31.0212 7.89883H29.8307H28.6403V8.72452V9.5502H29.1614C29.5938 9.5502 29.7288 9.58853 29.9533 9.77523L30.2241 10.0002V11.7353V13.4704L30.4953 13.5638C32.1893 14.1471 34.4589 15.7418 35.5904 17.1439L35.9855 17.6333H39.8172C43.6175 17.6333 43.6522 17.6349 44.0365 17.8288C44.2496 17.9364 44.5451 18.1746 44.6931 18.3582L44.9622 18.6921L44.9886 21.5592C45.0144 24.3519 45.0102 24.4364 44.824 24.8163C44.7073 25.0545 44.494 25.2971 44.2763 25.4396L43.9196 25.6729L41.1853 25.7163L38.451 25.7598L38.4254 26.0205C38.348 26.8102 38.0999 27.9509 37.8367 28.728C36.4528 32.8138 33.0082 35.8656 28.7283 36.7981C27.7286 37.0159 25.3676 37.0696 24.2809 36.8993C21.6326 36.4842 19.4156 35.3705 17.5043 33.4952C15.632 31.6582 14.4492 29.4249 14.068 27.0066C13.99 26.512 13.9087 26.0138 13.8873 25.8993L13.8484 25.6911L12.5995 25.7402C11.1464 25.7972 10.4791 25.9663 9.67109 26.4821C9.04311 26.8832 8.71474 27.2503 8.41294 27.8892C8.19974 28.3405 8.18452 28.4675 8.14097 30.1557C8.09697 31.8655 8.08562 31.9575 7.8829 32.2494C7.76631 32.4174 7.53156 32.6491 7.36139 32.7642L7.05184 32.9737H4.0539C1.05903 32.9737 1.0556 32.9735 0.769724 32.7721C0.612312 32.6612 0.374743 32.4294 0.241793 32.2571L0 31.9438L0.000967872 29.8078C0.00167178 28.1127 0.0333477 27.5273 0.154244 26.9713C1.04812 22.8604 4.06375 19.6184 8.23177 18.2874C9.85279 17.7698 10.3474 17.7111 13.5179 17.6596L16.3893 17.6131L16.711 17.1964C17.5031 16.1703 19.029 14.9445 20.388 14.2425L21.2492 13.7976V12.0256C21.2492 10.837 21.2838 10.1787 21.3544 10.0258C21.5009 9.70804 21.86 9.5502 22.436 9.5502H22.9276L22.9024 8.74624L22.877 7.94228L21.6817 7.91821L20.4863 7.89413L20.0539 8.23067C19.1121 8.96362 17.9952 9.40984 16.8498 9.51057C15.9985 9.58549 15.2936 9.45495 14.5181 9.07861C12.0075 7.86041 11.4934 4.53262 13.5179 2.60477C15.1354 1.06455 17.8244 1.11288 19.9902 2.72106L20.5324 3.12365L21.7048 3.0994L22.877 3.07506L22.9283 2.55358ZM26.7964 2.18888C26.7021 2.03617 26.5256 1.84687 26.4041 1.76822C25.8697 1.42229 25.1374 1.56457 24.7596 2.08771L24.5488 2.37975L24.5231 5.96498L24.4975 9.5502H25.733H26.9685L26.9681 6.00843C26.9679 2.65118 26.9589 2.45223 26.7964 2.18888ZM19.2795 4.28318C18.8902 3.85321 18.2371 3.48313 17.4717 3.25863C16.7501 3.04708 15.8462 3.07524 15.31 3.32599C13.4982 4.17358 13.4459 6.75129 15.222 7.65946C15.7674 7.93829 16.6833 7.96575 17.4785 7.72717C18.3783 7.45721 18.765 7.24471 19.2448 6.75668L19.66 6.33436H21.2465H22.833V5.50867V4.68298H21.2373H19.6414L19.2795 4.28318ZM37.3938 4.46857C37.1929 4.05815 36.6817 3.53415 36.278 3.3246C36.0872 3.2256 35.7304 3.16389 35.2394 3.14503C34.0627 3.09975 32.938 3.5378 32.162 4.34358L31.8351 4.68298H30.2377H28.6403V5.50867V6.33436H30.2249H31.8094L32.3292 6.8064C32.933 7.35465 33.1321 7.46634 33.9508 7.71535C34.6192 7.91864 35.5478 7.9495 36.0035 7.78358C36.6032 7.56516 37.0573 7.1544 37.3515 6.56417C37.6059 6.05372 37.6317 5.93299 37.599 5.40394C37.5784 5.06889 37.4896 4.66421 37.3938 4.46857ZM28.6403 13.0485V12.1251V11.2016H25.7807H22.921V12.2105V13.2195L23.1377 13.1658C24.8195 12.7488 26.7915 12.6833 28.3558 12.9923L28.6403 13.0485ZM34.7098 18.6587C33.0708 16.5876 30.9424 15.2296 28.4643 14.6739C27.4125 14.438 25.5575 14.374 24.5399 14.5382C21.877 14.9683 19.3971 16.4191 17.7451 18.5134C17.4952 18.8302 17.1817 19.1318 17.0483 19.1839C16.8958 19.2434 15.6459 19.291 13.6822 19.3121C10.3311 19.3482 10.0263 19.3813 8.57889 19.867C5.03154 21.0574 2.41555 23.9258 1.75141 27.3536C1.6717 27.7649 1.62779 28.5905 1.62779 29.6786V31.3658H4.03489H6.44191L6.49048 29.823C6.52893 28.6 6.57688 28.1619 6.7218 27.7091C7.23785 26.096 8.72856 24.8102 10.6438 24.3264C11.2268 24.1792 11.6202 24.1519 13.1634 24.1519C14.9503 24.1519 14.9977 24.1565 15.2299 24.3539C15.4475 24.5387 15.4734 24.6293 15.5356 25.422C15.6222 26.5264 15.7518 27.2266 16.0316 28.1027C17.1219 31.516 20.0089 34.2075 23.5369 35.1C24.6936 35.3925 25.9619 35.4889 27.1264 35.3726C29.7971 35.106 31.7867 34.1788 33.6611 32.3272C35.5685 30.4431 36.471 28.5244 36.7609 25.7369C36.8644 24.7416 36.9085 24.5571 37.0872 24.3692L37.2939 24.1519H40.3141H43.3344V21.7183V19.2846H39.4246C37.1625 19.2846 35.422 19.2498 35.2945 19.2019C35.1733 19.1564 34.9103 18.912 34.7098 18.6587Z" fill="#762D36"/>
<path d="M26.4041 21.3126C26.7376 22.3193 27.1788 23.0132 28.1488 24.0569C29.0403 25.016 29.3642 25.6727 29.4147 26.6235C29.479 27.8331 29.1263 28.7089 28.2426 29.5345C27.0568 30.6424 25.3719 30.8738 23.9421 30.1252C22.6119 29.4288 21.8899 28.1426 21.9711 26.614C22.0048 25.9809 22.054 25.8024 22.3553 25.2212C22.5455 24.8546 22.7407 24.5422 22.7891 24.527C22.8376 24.5119 22.9668 24.6657 23.0761 24.8689C23.5129 25.6804 24.7426 26.7593 25.2308 26.7593C25.5219 26.7593 25.9069 26.4748 26.0023 26.1893C26.1037 25.8859 26.0627 25.7277 25.7675 25.2814C24.7632 23.7637 24.757 21.5466 25.7526 20.0192L26.0331 19.5888L26.1442 20.2262C26.2053 20.5767 26.3222 21.0656 26.4041 21.3126Z" fill="#762D36"/>
<path d="M28.6403 12.1251V13.0485L28.3558 12.9923C26.7915 12.6833 24.8195 12.7488 23.1377 13.1658L22.921 13.2195V12.2105V11.2016H25.7807H28.6403V12.1251Z" fill="#762D36"/>
</svg>
