<svg width="46" height="45" viewBox="0 0 46 45" fill="none" xmlns="http://www.w3.org/2000/svg">
<path fill-rule="evenodd" clip-rule="evenodd" d="M21.7419 0.124931C21.2391 0.302916 20.6306 0.925952 20.4544 1.4432C20.2455 2.05612 20.2491 5.82599 20.4591 6.44234C20.7355 7.25348 21.6405 7.89296 22.5119 7.89296C23.3834 7.89296 24.2884 7.25348 24.5647 6.44234C24.7747 5.82599 24.7784 2.05612 24.5695 1.4432C24.1906 0.331232 22.8824 -0.278701 21.7419 0.124931ZM7.34276 6.09059C6.88443 6.25293 6.20072 6.96856 6.07655 7.41599C6.02379 7.60575 5.98053 7.96102 5.98026 8.20549C5.97938 8.97344 6.25779 9.37523 7.93739 11.0298C9.5433 12.6118 9.85434 12.8174 10.6404 12.8174C11.7856 12.8174 12.8388 11.7642 12.8388 10.619C12.8388 9.83294 12.6332 9.52191 11.0512 7.916C9.36778 6.20711 8.99871 5.95579 8.18292 5.96221C7.91427 5.96432 7.53622 6.02209 7.34276 6.09059ZM35.9093 6.17924C35.5972 6.3348 35.0238 6.84905 33.9727 7.916C32.3907 9.52191 32.185 9.83294 32.185 10.619C32.185 11.7642 33.2383 12.8174 34.3835 12.8174C35.1695 12.8174 35.4806 12.6118 37.0865 11.0298C38.7661 9.37523 39.0445 8.97344 39.0436 8.20549C39.0428 7.47341 38.8922 7.10082 38.3969 6.60556C37.7019 5.91041 36.7694 5.75063 35.9093 6.17924ZM21.1489 11.2873C21.0522 11.3106 20.6565 11.3902 20.2695 11.4642C15.9156 12.2963 12.4225 15.7967 11.46 20.2921C11.2361 21.3376 11.2364 23.6463 11.4606 24.689C12.4349 29.2206 15.7871 32.573 20.3135 33.5424C21.3572 33.7659 23.6666 33.7659 24.7104 33.5424C29.2368 32.573 32.5889 29.2206 33.5633 24.689C33.7874 23.6463 33.7878 21.3376 33.5639 20.2921C32.6047 15.8121 29.2697 12.449 24.7983 11.4527C24.1598 11.3106 21.545 11.192 21.1489 11.2873ZM1.42837 20.4384C0.65821 20.711 0 21.6567 0 22.4905C0 23.3471 0.659705 24.2738 1.4646 24.5481C2.07752 24.757 5.84739 24.7533 6.46374 24.5434C7.27487 24.267 7.91435 23.362 7.91435 22.4905C7.91435 21.6191 7.27487 20.7141 6.46374 20.4377C5.86876 20.235 2.00172 20.2356 1.42837 20.4384ZM38.5685 20.4304C38.0677 20.614 37.6743 20.945 37.3973 21.4163C37.1894 21.77 37.1535 21.9281 37.1535 22.4905C37.1535 23.053 37.1894 23.2111 37.3973 23.5648C37.6819 24.049 38.0695 24.3684 38.5995 24.5553C39.1627 24.754 42.9713 24.7485 43.5593 24.5481C44.3642 24.2738 45.0239 23.3471 45.0239 22.4905C45.0239 21.634 44.3642 20.7073 43.5593 20.433C42.9908 20.2393 39.0956 20.2373 38.5685 20.4304ZM9.84897 32.3171C9.30904 32.5075 6.52952 35.228 6.20063 35.8879C5.77203 36.748 5.93181 37.6805 6.62695 38.3755C7.12222 38.8708 7.49481 39.0214 8.22688 39.0222C8.99484 39.0231 9.39662 38.7447 11.0512 37.0651C12.301 35.7963 12.5684 35.4786 12.6916 35.1159C12.9831 34.2576 12.8019 33.4597 12.1724 32.8301C11.5446 32.2023 10.702 32.0163 9.84897 32.3171ZM33.6134 32.31C32.8433 32.5826 32.185 33.5283 32.185 34.3621C32.185 35.1481 32.3907 35.4592 33.9727 37.0651C35.6273 38.7447 36.029 39.0231 36.797 39.0222C37.5291 39.0214 37.9017 38.8708 38.3969 38.3755C38.8922 37.8803 39.0428 37.5077 39.0436 36.7756C39.0445 36.0076 38.7661 35.6059 37.0865 33.9513C35.8177 32.7015 35.5 32.4341 35.1373 32.3109C34.6132 32.1329 34.1148 32.1326 33.6134 32.31ZM21.7756 37.2119C21.2741 37.3985 20.827 37.798 20.5777 38.282C20.3626 38.6996 20.3569 38.7603 20.3312 40.8969C20.3004 43.4514 20.3479 43.704 20.9781 44.3342C21.8587 45.2147 23.1645 45.2155 24.0439 44.336C24.6577 43.7222 24.7104 43.4617 24.7104 41.0407C24.7104 38.7902 24.6632 38.488 24.222 37.9096C23.7096 37.2377 22.5752 36.9142 21.7756 37.2119Z" fill="#762D36"/>
</svg>
