<svg width="40" height="45" viewBox="0 0 40 45" fill="none" xmlns="http://www.w3.org/2000/svg">
<path d="M39.2949 33.737C39.0661 34.1313 38.6902 34.4189 38.2497 34.5367C37.8093 34.6545 37.34 34.5929 36.9449 34.3655L33.3089 32.2717L33.8921 34.4415C34.0087 34.882 33.9458 35.3507 33.7173 35.7449C33.4888 36.139 33.1132 36.4264 32.673 36.5441C32.2329 36.6617 31.764 36.5999 31.3693 36.3723C30.9746 36.1447 30.6863 35.7698 30.5677 35.3299L29.0943 29.8456L24.8497 27.4023L22.4318 26.0104C22.3355 25.9549 22.2263 25.9257 22.1151 25.9258C22.0039 25.9259 21.8948 25.9552 21.7985 26.0108C21.7022 26.0664 21.6223 26.1463 21.5667 26.2426C21.5111 26.3389 21.4819 26.448 21.4818 26.5592V34.2278L25.5081 38.2432C25.8286 38.5662 26.0079 39.003 26.0067 39.458C26.0055 39.913 25.8238 40.3489 25.5016 40.6701C25.1794 40.9913 24.743 41.1717 24.288 41.1715C23.8331 41.1714 23.3967 40.9908 23.0747 40.6693L21.4818 39.0809V43.2675C21.4804 43.7229 21.2985 44.1592 20.976 44.4807C20.6534 44.8023 20.2166 44.9828 19.7612 44.9828C19.3057 44.9828 18.8689 44.8023 18.5464 44.4807C18.2238 44.1592 18.0419 43.7229 18.0405 43.2675V39.0809L16.4766 40.6412C15.8408 41.2743 14.8175 41.3494 14.1293 40.7735C13.9457 40.6212 13.796 40.4323 13.6897 40.2188C13.5834 40.0054 13.5229 39.772 13.5121 39.5338C13.5012 39.2955 13.5403 39.0577 13.6268 38.8354C13.7133 38.6132 13.8453 38.4115 14.0143 38.2432L18.0405 34.2278V26.5592C18.0405 26.448 18.0112 26.3389 17.9556 26.2426C17.9 26.1463 17.8201 26.0664 17.7238 26.0108C17.6276 25.9552 17.5184 25.9259 17.4072 25.9258C17.2961 25.9257 17.1869 25.9549 17.0905 26.0104L10.4281 29.8456L8.95468 35.3299C8.83581 35.7696 8.54747 36.1442 8.15285 36.3716C7.75824 36.599 7.28956 36.6607 6.84955 36.5431C6.40954 36.4255 6.03411 36.1383 5.80554 35.7443C5.57698 35.3504 5.51394 34.8819 5.63024 34.4415L6.21343 32.2717L2.57747 34.3655C2.38231 34.4784 2.16682 34.5519 1.94328 34.5816C1.71975 34.6113 1.49255 34.5966 1.27467 34.5385C1.05678 34.4804 0.852478 34.38 0.673417 34.2429C0.494356 34.1058 0.344045 33.9348 0.231067 33.7397C0.118088 33.5445 0.0446546 33.329 0.0149589 33.1055C-0.0147369 32.882 -0.000113278 32.6548 0.0579946 32.4369C0.116103 32.219 0.216557 32.0147 0.353622 31.8356C0.490687 31.6566 0.661679 31.5063 0.856834 31.3933L4.4928 29.3004L2.31667 28.7191C2.09855 28.661 1.89402 28.5605 1.71481 28.4232C1.53559 28.286 1.38521 28.1148 1.27227 27.9194C1.15934 27.7239 1.08606 27.5081 1.05665 27.2843C1.02724 27.0605 1.04226 26.8331 1.10087 26.6152C1.15947 26.3972 1.2605 26.1929 1.39817 26.014C1.53584 25.8352 1.70744 25.6852 1.90316 25.5728C2.09887 25.4603 2.31484 25.3876 2.53871 25.3587C2.76257 25.3298 2.98993 25.3454 3.20776 25.4046L8.70746 26.8735L15.3654 23.041C15.462 22.9854 15.5423 22.9053 15.5981 22.8088C15.6539 22.7123 15.6833 22.6027 15.6833 22.4913C15.6833 22.3798 15.6539 22.2703 15.5981 22.1738C15.5423 22.0773 15.462 21.9972 15.3654 21.9416L8.70746 18.1091L3.20776 19.578C2.98996 19.637 2.76265 19.6525 2.53885 19.6236C2.31505 19.5947 2.09914 19.5219 1.9035 19.4095C1.70786 19.297 1.53632 19.147 1.3987 18.9682C1.26108 18.7894 1.16008 18.5851 1.10149 18.3672C1.0429 18.1493 1.02787 17.9219 1.05726 17.6982C1.08664 17.4745 1.15987 17.2587 1.27274 17.0633C1.38561 16.8679 1.53592 16.6967 1.71505 16.5594C1.89418 16.4222 2.09862 16.3216 2.31667 16.2635L4.4928 15.6821L0.856834 13.5892C0.4627 13.3611 0.175349 12.9857 0.0579946 12.5456C-0.0593596 12.1056 0.00289628 11.637 0.231067 11.2428C0.459237 10.8487 0.834631 10.5614 1.27467 10.444C1.7147 10.3267 2.18333 10.3889 2.57747 10.6171L6.21343 12.7108L5.63024 10.541C5.51361 10.1006 5.57646 9.63182 5.805 9.23764C6.03353 8.84346 6.40909 8.55602 6.84928 8.43839C7.28947 8.32076 7.75835 8.38253 8.15305 8.61017C8.54775 8.8378 8.83604 9.2127 8.95468 9.65262L10.4281 15.1369L17.0906 18.9721C17.1869 19.0276 17.2961 19.0568 17.4072 19.0567C17.5184 19.0567 17.6276 19.0274 17.7238 18.9718C17.8201 18.9161 17.9 18.8362 17.9556 18.7399C18.0112 18.6437 18.0405 18.5345 18.0405 18.4233V10.7547L14.0143 6.73931C13.8452 6.57106 13.7133 6.36934 13.6268 6.1471C13.5403 5.92485 13.5012 5.68699 13.512 5.44875C13.5229 5.21052 13.5834 4.97718 13.6897 4.7637C13.796 4.55021 13.9457 4.3613 14.1293 4.20908C14.8175 3.63312 15.8408 3.70828 16.4766 4.34129L18.0405 5.90164V1.71506C18.042 1.25969 18.2239 0.823469 18.5465 0.501993C18.869 0.180516 19.3058 0 19.7612 0C20.2165 0 20.6534 0.180516 20.9759 0.501993C21.2984 0.823469 21.4803 1.25969 21.4818 1.71506V5.90164L23.0458 4.34129C23.6815 3.70828 24.7048 3.63312 25.3931 4.20908C25.5766 4.3613 25.7264 4.55021 25.8327 4.7637C25.939 4.97718 25.9995 5.21052 26.0103 5.44875C26.0211 5.68699 25.982 5.92485 25.8956 6.1471C25.8091 6.36934 25.6771 6.57106 25.5081 6.73931L21.4818 10.7547V18.4233C21.4819 18.5345 21.5111 18.6437 21.5667 18.7399C21.6223 18.8362 21.7022 18.9161 21.7985 18.9718C21.8948 19.0274 22.0039 19.0567 22.1151 19.0567C22.2263 19.0568 22.3355 19.0276 22.4318 18.9721L29.0943 15.1369L30.5677 9.65261C30.6863 9.21269 30.9746 8.83779 31.3693 8.61016C31.764 8.38253 32.2329 8.32075 32.6731 8.43839C33.1133 8.55602 33.4888 8.84345 33.7174 9.23763C33.9459 9.63181 34.0087 10.1005 33.8921 10.541L33.3089 12.7108L36.9449 10.6171C37.14 10.5041 37.3555 10.4307 37.5791 10.401C37.8026 10.3713 38.0298 10.3859 38.2477 10.444C38.4656 10.5021 38.6699 10.6026 38.8489 10.7396C39.028 10.8767 39.1783 11.0477 39.2913 11.2428C39.4043 11.438 39.4777 11.6535 39.5074 11.877C39.5371 12.1006 39.5225 12.3278 39.4644 12.5456C39.4062 12.7635 39.3058 12.9678 39.1687 13.1469C39.0317 13.326 38.8607 13.4763 38.6655 13.5892L35.0295 15.6821L37.2057 16.2635C37.4237 16.3216 37.6282 16.4222 37.8073 16.5594C37.9864 16.6967 38.1367 16.8679 38.2496 17.0633C38.3625 17.2587 38.4357 17.4745 38.4651 17.6982C38.4945 17.9219 38.4794 18.1493 38.4209 18.3672C38.3623 18.5851 38.2613 18.7894 38.1237 18.9682C37.986 19.147 37.8145 19.297 37.6188 19.4095C37.4232 19.5219 37.2073 19.5947 36.9835 19.6236C36.7597 19.6525 36.5324 19.637 36.3146 19.578L30.8149 18.1091L30.3983 18.3491L24.1569 21.9416C24.0603 21.9972 23.9801 22.0773 23.9243 22.1738C23.8684 22.2703 23.8391 22.3798 23.8391 22.4913C23.8391 22.6027 23.8684 22.7123 23.9243 22.8088C23.9801 22.9053 24.0603 22.9854 24.1569 23.041L27.025 24.6919L30.8149 26.8735L36.3146 25.4046C36.5325 25.3451 36.7601 25.3292 36.9841 25.3579C37.2082 25.3866 37.4244 25.4592 37.6204 25.5716C37.8163 25.6841 37.9881 25.8341 38.126 26.013C38.2638 26.192 38.365 26.3964 38.4236 26.6146C38.4823 26.8328 38.4973 27.0603 38.4678 27.2843C38.4382 27.5083 38.3648 27.7242 38.2517 27.9197C38.1385 28.1153 37.9879 28.2865 37.8084 28.4237C37.6289 28.5609 37.4241 28.6612 37.2057 28.7191L35.0295 29.3005L38.6655 31.3933C38.8611 31.5055 39.0325 31.6553 39.1701 31.8339C39.3076 32.0126 39.4085 32.2166 39.467 32.4344C39.5255 32.6522 39.5404 32.8793 39.5109 33.1028C39.4813 33.3264 39.4079 33.5419 39.2949 33.737Z" fill="#762D36"/>
</svg>
