<svg width="41" height="45" viewBox="0 0 41 45" fill="none" xmlns="http://www.w3.org/2000/svg">
<path fill-rule="evenodd" clip-rule="evenodd" d="M10.368 1.90568C12.5059 2.62018 14.1682 4.3484 14.7576 6.46981C14.8655 6.85815 14.928 7.20169 14.8963 7.23318C14.8648 7.26477 13.1953 7.29053 11.1864 7.29053C8.99321 7.29053 7.4616 7.32913 7.35281 7.38717C7.10614 7.51886 6.93836 8.02912 7.04764 8.3157C7.09565 8.44146 8.39306 9.53118 9.93912 10.7444C11.4816 11.9548 12.7841 12.9813 12.8336 13.0257C13.0896 13.2557 11.5605 14.2601 10.3537 14.6545C9.5791 14.9077 9.33906 14.9405 8.28932 14.9372C6.91114 14.9327 6.33009 14.792 5.12177 14.1698C4.5531 13.8771 4.12063 13.5519 3.58749 13.0163C2.75116 12.1763 2.30939 11.4905 1.92334 10.4332C1.68241 9.77314 1.65895 9.58232 1.65895 8.27769C1.65895 6.97306 1.68241 6.78224 1.92334 6.12223C2.30939 5.06488 2.75116 4.3791 3.58749 3.53903C4.58319 2.53884 5.94919 1.83539 7.29946 1.6274C8.08095 1.50706 9.58267 1.64319 10.368 1.90568ZM7.54693 3.93419C7.54693 2.78751 7.55217 2.75977 7.80775 2.55938C8.15074 2.29028 8.46284 2.30074 8.80345 2.59294C9.07695 2.82759 9.08121 2.84802 9.08121 3.93419C9.08121 5.02036 9.07695 5.0408 8.80345 5.27544C8.46284 5.56764 8.15074 5.57811 7.80775 5.30901C7.55217 5.10861 7.54693 5.08087 7.54693 3.93419ZM3.95493 4.79796C3.86237 4.5486 4.03629 4.07022 4.26861 3.93488C4.35681 3.88345 4.56151 3.84011 4.72365 3.83844C4.96072 3.83607 5.16899 3.98473 5.78775 4.59825C6.45184 5.25659 6.55707 5.40762 6.55707 5.70239C6.55707 6.15362 6.23229 6.5008 5.81022 6.5008C5.54672 6.5008 5.37171 6.37613 4.76354 5.7551C4.36196 5.34494 3.99808 4.91424 3.95493 4.79796ZM10.0216 5.72529C10.0216 5.4248 10.1238 5.27712 10.7954 4.60724C11.4416 3.96292 11.6221 3.83547 11.8888 3.83547C12.2742 3.83547 12.6942 4.21148 12.6942 4.55659C12.6942 4.85314 12.2804 5.42401 11.6246 6.0319C11.2381 6.39034 11.0436 6.5008 10.7993 6.5008C10.3555 6.5008 10.0216 6.16774 10.0216 5.72529ZM2.39966 8.27769C2.39966 7.98421 2.45925 7.85035 2.66049 7.6926C2.88598 7.5156 3.0593 7.48796 3.94176 7.48796C4.86916 7.48796 4.98685 7.50909 5.23175 7.71916C5.60146 8.03633 5.60146 8.51905 5.23175 8.83622C4.98685 9.04629 4.86916 9.06742 3.94176 9.06742C3.0593 9.06742 2.88598 9.03978 2.66049 8.86278C2.45925 8.70503 2.39966 8.57117 2.39966 8.27769ZM3.95493 11.7574C3.99808 11.6411 4.36196 11.2104 4.76354 10.8003C5.38735 10.1634 5.54246 10.0546 5.82744 10.0546C6.18825 10.0546 6.54925 10.3312 6.56845 10.6222C6.59745 11.0615 6.49292 11.2393 5.78468 11.9549C5.00467 12.7429 4.73474 12.8637 4.28742 12.6249C4.04174 12.4938 3.85881 12.0165 3.95493 11.7574ZM7.54693 12.6212C7.54693 11.4745 7.55217 11.4468 7.80775 11.2464C8.15074 10.9773 8.46284 10.9877 8.80345 11.2799C9.07695 11.5146 9.08121 11.535 9.08121 12.6212C9.08121 13.7074 9.07695 13.7278 8.80345 13.9624C8.46284 14.2546 8.15074 14.2651 7.80775 13.996C7.55217 13.7956 7.54693 13.7679 7.54693 12.6212Z" fill="#762D36"/>
<path fill-rule="evenodd" clip-rule="evenodd" d="M6.65605 0.133235C3.54285 0.758007 1.02059 3.15631 0.218606 6.25401C-0.0709273 7.37286 -0.0731049 9.01194 0.213558 10.2027C0.913685 13.1104 3.06049 15.3415 6.0175 16.2345C6.78572 16.4665 7.0812 16.5028 8.23983 16.5079C9.21998 16.5122 9.76084 16.4664 10.269 16.3361C11.2633 16.0811 12.8364 15.2906 13.5887 14.668L14.2357 14.1323L18.7065 17.6462L23.1773 21.1601L23.182 30.4638L23.1867 39.7676L19.4005 41.6537C17.3181 42.6911 15.5364 43.6088 15.441 43.693C15.1629 43.9387 15.2112 44.5464 15.5286 44.7954C15.7878 44.9987 15.8429 45 24.0459 45H32.3024L32.5453 44.7577C32.8187 44.4851 32.8631 44.0632 32.6499 43.7634C32.5737 43.6563 30.7697 42.704 28.641 41.6471L24.7705 39.7256V30.4876V21.2496L26.28 20.062L34.2236 13.8128C37.7624 11.0289 40.7357 8.66189 40.8309 8.55281C41.0665 8.28322 41.0537 7.73485 40.8062 7.48796C40.6104 7.2927 40.4763 7.29053 28.6049 7.29053H16.6015L16.3849 6.38649C15.6135 3.16579 13.084 0.745865 9.83964 0.124646C8.9545 -0.0448489 7.52416 -0.0409989 6.65605 0.133235ZM10.368 1.90568C12.5059 2.62018 14.1682 4.3484 14.7576 6.46981C14.8655 6.85815 14.928 7.20169 14.8963 7.23318C14.8648 7.26477 13.1953 7.29053 11.1864 7.29053C8.99321 7.29053 7.4616 7.32913 7.35281 7.38717C7.10614 7.51886 6.93836 8.02912 7.04764 8.3157C7.09565 8.44146 8.39306 9.53118 9.93912 10.7444C11.4816 11.9548 12.7841 12.9813 12.8336 13.0257C13.0896 13.2557 11.5605 14.2601 10.3537 14.6545C9.5791 14.9077 9.33906 14.9405 8.28932 14.9372C6.91114 14.9327 6.33009 14.792 5.12177 14.1698C4.5531 13.8771 4.12063 13.5519 3.58749 13.0163C2.75116 12.1763 2.30939 11.4905 1.92334 10.4332C1.68241 9.77314 1.65895 9.58232 1.65895 8.27769C1.65895 6.97306 1.68241 6.78224 1.92334 6.12223C2.30939 5.06488 2.75116 4.3791 3.58749 3.53903C4.58319 2.53884 5.94919 1.83539 7.29946 1.6274C8.08095 1.50706 9.58267 1.64319 10.368 1.90568ZM37.8366 8.90286C37.8366 8.92092 37.6558 9.08064 37.4347 9.25774L37.0327 9.57985L35.3251 9.66721C32.3025 9.8219 29.4812 10.26 26.4532 11.045C22.7406 12.0075 20.5165 12.4633 17.8204 12.8145C17.5607 12.8483 17.3329 12.8809 17.1301 12.91C16.4433 13.0084 16.0445 13.0655 15.6741 12.9876C15.1613 12.8797 14.703 12.5129 13.6101 11.6383C13.3771 11.4518 13.1153 11.2422 12.8179 11.0072C11.3889 9.87748 10.2195 8.93455 10.2195 8.91164C10.2195 8.88874 16.4334 8.86999 24.0281 8.86999C31.6228 8.86999 37.8366 8.88479 37.8366 8.90286ZM34.8126 11.323C34.2424 11.8313 24.1949 19.6695 24.0725 19.7015C23.9671 19.7289 22.7214 18.81 20.6236 17.157C18.8174 15.7339 17.3575 14.5516 17.3795 14.5298C17.4014 14.5078 18.0376 14.3997 18.7935 14.2892C20.724 14.0071 23.33 13.4755 25.3633 12.9489C28.8289 12.0516 30.796 11.666 33.2953 11.3943C34.8583 11.2245 34.9268 11.2212 34.8126 11.323ZM26.4532 42.3427L28.5814 43.41H24.0281H19.4747L21.7019 42.2862C23.2 41.5303 23.9939 41.181 24.1271 41.2189C24.2359 41.25 25.2827 41.7556 26.4532 42.3427Z" fill="#762D36"/>
<path d="M34.8126 11.323C34.2424 11.8313 24.1949 19.6695 24.0725 19.7015C23.9671 19.7289 22.7214 18.81 20.6236 17.157C18.8174 15.7339 17.3575 14.5516 17.3795 14.5298C17.4014 14.5078 18.0376 14.3997 18.7935 14.2892C20.724 14.0071 23.33 13.4755 25.3633 12.9489C28.8289 12.0516 30.796 11.666 33.2953 11.3943C34.8583 11.2245 34.9268 11.2212 34.8126 11.323Z" fill="#762D36"/>
<path d="M26.4532 42.3427L28.5814 43.41H24.0281H19.4747L21.7019 42.2862C23.2 41.5303 23.9939 41.181 24.1271 41.2189C24.2359 41.25 25.2827 41.7556 26.4532 42.3427Z" fill="#762D36"/>
</svg>
