<svg width="42" height="45" viewBox="0 0 42 45" fill="none" xmlns="http://www.w3.org/2000/svg">
<path fill-rule="evenodd" clip-rule="evenodd" d="M13.4568 0.132408C12.5286 0.415976 11.6879 1.26281 11.4468 2.1572C11.3699 2.44244 11.3418 4.50819 11.3418 9.8849V26.1453V31.1117H12.0063H12.6709V26.1453V9.91145C12.6709 2.63995 12.6719 2.59732 12.8588 2.21434C13.1194 1.68034 13.6041 1.37787 14.2766 1.32962L14.8031 1.29182L14.7338 1.67621C14.6957 1.88752 14.6646 2.63406 14.6646 3.33507V4.60963H15.3291H15.9937L16.018 3.19461C16.0418 1.80516 16.0463 1.77571 16.2685 1.56844C16.4717 1.37884 16.588 1.35432 17.4073 1.32768L18.3198 1.29797L18.1565 1.76719C18.0129 2.1797 17.9927 2.54098 17.9903 4.76346L17.9873 7.2906H18.6481H19.3087L19.3348 4.74772C19.3594 2.33819 19.3703 2.19219 19.5435 1.96233C19.9832 1.3784 20.0539 1.35968 21.9144 1.33269C23.7906 1.30553 24.0255 1.35607 24.4051 1.86897C24.5781 2.10279 24.5912 2.26356 24.6329 4.6818L24.6772 7.24665L25.3196 7.27249L25.962 7.29834V4.71247C25.962 2.63855 25.9357 2.0526 25.8291 1.75286C25.756 1.54735 25.6962 1.36434 25.6962 1.34623C25.6962 1.32812 26.0532 1.31335 26.4895 1.31335C27.902 1.31335 28 1.44415 28 3.33068V4.65358H28.6646H29.3291V3.20893C29.3291 2.4144 29.2902 1.66285 29.2427 1.53882L29.1563 1.31335H29.7329C30.5511 1.31335 31.1708 1.60861 31.486 2.14841C31.5502 2.25829 31.6052 2.99964 31.6329 4.12618V22.7492V35.5706L30.8133 35.6273C30.3625 35.6585 29.8442 35.7078 29.6614 35.7369L29.3291 35.7897V34.7692V33.7487H28.6646H28V35.0169V36.2849L27.4905 36.5717C27.2102 36.7294 26.7723 37.0134 26.5173 37.2029L26.0536 37.5473L25.6021 37.1447C25.1922 36.7791 24.9204 36.6536 24.0431 36.4243C23.9869 36.4096 23.9117 36.2664 23.8763 36.106C23.7459 35.5161 23.3468 34.8382 22.8187 34.3102C21.9845 33.4761 21.171 33.1343 20.0032 33.1269L19.3165 33.1226V30.1394V27.1562H18.6519H17.9873V30.3915V33.627L17.5974 33.8996L17.2074 34.1723L16.8764 33.9492C16.3607 33.6016 15.173 33.0759 14.4616 32.8805C11.8758 32.1704 9.16158 32.6024 6.91529 34.0817C5.36785 35.1007 4.00852 36.7845 3.39252 38.4452C3.00025 39.5027 2.90872 40.0405 2.86052 41.5706C2.80682 43.2735 2.76137 43.4255 2.25108 43.6086L1.94937 43.7168V44.3584V45H21H40.0506V44.346V43.6921L39.7184 43.6648L39.3861 43.6375L39.318 42.9343C38.9898 39.5412 36.7557 36.8129 33.5601 35.9031L33.0506 35.7579V22.8428L33.0314 4.56568C33.0718 2.36737 32.859 1.55183 32.0524 0.814254C31.1122 -0.0454147 31.6214 -0.00383766 22.1076 0.00205169C15.2355 0.00627092 13.7989 0.0278945 13.4568 0.132408ZM16.7737 35.4929C16.0128 34.9206 14.7809 34.3286 13.8793 34.1019C13.186 33.9275 11.8441 33.8196 11.2532 33.8907C9.29334 34.1265 7.83158 34.8328 6.46835 36.2025C5.57625 37.0989 5.21996 37.6196 4.73882 38.731C4.32635 39.6838 4.17537 40.5801 4.14568 42.2531L4.12025 43.6815H21.0665H38.0127V43.2822C38.0127 42.7091 37.7792 41.6689 37.4951 40.9764C36.7642 39.1946 35.1532 37.7545 33.2278 37.1617C32.2657 36.8654 30.4666 36.8658 29.5063 37.1623C28.6157 37.4375 27.9056 37.7997 27.1582 38.3603C26.8171 38.6162 26.4448 38.8539 26.3309 38.8885C25.9289 39.0109 25.5234 38.8524 24.9873 38.3634C24.3634 37.7945 23.9618 37.6598 23.2208 37.771L22.7076 37.8481L22.6556 37.1173C22.5397 35.4879 21.6269 34.5409 20.1011 34.4669C19.49 34.4373 19.3685 34.4605 18.8606 34.7034C18.4516 34.899 18.1884 35.1057 17.8987 35.4588C17.6794 35.7262 17.4722 35.9453 17.4382 35.9456C17.4043 35.946 17.1053 35.7422 16.7737 35.4929Z" fill="#762D36"/>
<path fill-rule="evenodd" clip-rule="evenodd" d="M21.3544 15.9049V9.92762V3.95038H22.019H22.6835V9.92762V15.9049H22.019H21.3544ZM28.0443 11.9054L28.021 8.93874L27.9976 5.97209H28.6634H29.3291V8.96458V11.9571L28.6867 11.9312L28.0443 11.9054ZM14.6203 10.8653C14.6203 8.57685 14.6484 6.67662 14.6828 6.64251C14.7173 6.6084 15.0263 6.59188 15.3695 6.60585L15.9937 6.63135L16.0167 10.8286L16.0397 15.0259H15.33H14.6203V10.8653ZM17.9873 9.92762V9.26837V8.60911H18.6519H19.3165V9.26837V9.92762H18.6519H17.9873ZM24.6329 9.92762V9.26837V8.60911H25.2975H25.962V9.26837V9.92762H25.2975H24.6329ZM28 23.0248V18.1463V13.2678H28.6646H29.3291V18.1463V23.0248H28.6646H28ZM24.6329 19.8604V16.8718V13.8832H25.2975H25.962V16.8718V19.8604H25.2975H24.6329ZM21.3544 19.1572V18.1903V17.2234H22.019H22.6835V18.1903V19.1572H22.019H21.3544ZM17.9873 25.6618V21.7503V17.8387H18.6519H19.3165V21.7503V25.6618H18.6519H17.9873ZM21.3544 21.7942V21.1311V20.468L21.9968 20.4938L22.6392 20.5197L22.6653 21.1569L22.6913 21.7942H22.0229H21.3544ZM24.6329 27.0829C24.6329 24.2386 24.6595 21.885 24.692 21.8528C24.7244 21.8206 25.0235 21.7942 25.3566 21.7942H25.962V27.0243V32.2544H25.2975H24.6329V27.0829ZM28 25.8377V25.1784V24.5191H28.6646H29.3291V25.1784V25.8377H28.6646H28ZM14.6203 25.8523C14.6203 25.5219 14.6484 25.2237 14.6828 25.1896C14.7173 25.1555 15.0263 25.1389 15.3695 25.1529L15.9937 25.1784L16.0197 25.8157L16.0458 26.453H15.333H14.6203V25.8523ZM22.019 29.969H21.3544V28.211V26.453H22.019H22.6835V28.211V29.969H22.019ZM5.31646 29.09V28.4307V27.7715H5.98101H6.64557V28.4307V29.09H5.98101H5.31646ZM14.6402 29.5326C14.6268 28.6882 14.6362 27.9448 14.6611 27.8805C14.6943 27.7948 14.8772 27.7706 15.35 27.7896L15.9937 27.8154V29.4416V31.0677H15.3291H14.6646L14.6402 29.5326ZM7.35443 31.1117V30.4524V29.7932H8.01899H8.68354V30.4524V31.1117H8.01899H7.35443ZM36.6835 33.0455V32.3863V31.727H37.3481H38.0127V32.3863V33.0455H37.3481H36.6835ZM0 33.7487V33.0895V32.4302H0.664557H1.32911V33.0895V33.7487H0.664557H0ZM35.3544 35.0672V34.408V33.7487H36.019H36.6835V34.408V35.0672H36.019H35.3544ZM1.32911 35.7704V35.1112V34.4519H1.99367H2.65823V35.1112V35.7704H1.99367H1.32911ZM40.6709 37.7042V37.045V36.3857H41.3354H42V37.045V37.7042H41.3354H40.6709Z" fill="#762D36"/>
<path fill-rule="evenodd" clip-rule="evenodd" d="M13.8793 34.1019C14.7809 34.3286 16.0128 34.9206 16.7737 35.4929C17.1053 35.7422 17.4043 35.946 17.4382 35.9456C17.4722 35.9453 17.6794 35.7262 17.8987 35.4588C18.1884 35.1057 18.4516 34.899 18.8606 34.7034C19.3685 34.4605 19.49 34.4373 20.1011 34.4669C21.6269 34.5409 22.5397 35.4879 22.6556 37.1173L22.7076 37.8481L23.2208 37.771C23.9618 37.6598 24.3634 37.7945 24.9873 38.3634C25.5234 38.8524 25.9289 39.0109 26.3309 38.8885C26.4448 38.8539 26.8171 38.6162 27.1582 38.3603C27.9056 37.7997 28.6157 37.4375 29.5063 37.1623C30.4666 36.8658 32.2657 36.8654 33.2278 37.1617C35.1532 37.7545 36.7642 39.1946 37.4951 40.9764C37.7792 41.6689 38.0127 42.7091 38.0127 43.2822V43.6815H21.0665H4.12025L4.14568 42.2531C4.17537 40.5801 4.32635 39.6838 4.73882 38.731C5.21996 37.6196 5.57625 37.0989 6.46835 36.2025C7.83158 34.8328 9.29334 34.1265 11.2532 33.8907C11.8441 33.8196 13.186 33.9275 13.8793 34.1019ZM6.0216 38.8909C6.77308 37.2954 8.10361 36.0284 9.72008 35.369C10.4667 35.0645 10.4848 35.0714 10.6617 35.7301C10.8162 36.3053 10.8035 36.4735 10.6055 36.4737C10.4001 36.4738 9.42997 36.9815 8.94937 37.3405C8.00924 38.0426 7.16348 39.2859 6.87825 40.3852C6.80303 40.6753 6.71415 41.2389 6.68075 41.6378L6.62005 42.363H5.95514H5.29023L5.34135 41.5805C5.40754 40.5666 5.61072 39.7634 6.0216 38.8909ZM26.6709 42.363V41.7037V41.0445H27.3354H28V41.7037V42.363H27.3354H26.6709ZM29.3291 42.363V41.7037V41.0445H32.6076H35.8861V41.7037V42.363H32.6076H29.3291Z" fill="#762D36"/>
</svg>
