<svg width="49" height="41" viewBox="0 0 49 41" fill="none" xmlns="http://www.w3.org/2000/svg">
<path fill-rule="evenodd" clip-rule="evenodd" d="M13.6727 0.0606686C13.5937 0.0891043 13.4322 0.199081 13.3136 0.305102C12.8964 0.678251 13.1046 2.08243 13.6946 2.8759C13.8142 3.03672 14.0497 3.34707 14.2179 3.56542C14.8772 4.42141 14.8078 5.49584 14.0367 6.37114C13.8189 6.6183 13.5359 7.04559 13.4077 7.32053C13.1638 7.84377 13.0295 8.75164 13.1349 9.16452C13.2156 9.48042 13.6899 9.72439 14.066 9.64322C14.434 9.56366 14.6152 9.2793 14.7266 8.60645C14.8135 8.08133 14.9391 7.84961 15.5853 7.0229C16.0535 6.42358 16.2856 5.70139 16.2856 4.84333C16.2856 3.90486 16.0309 3.20263 15.4252 2.4714C14.9605 1.9104 14.726 1.44856 14.726 1.09405C14.726 0.635691 14.5181 0.260377 14.1895 0.125261C14.014 0.0532298 13.8582 -0.00241751 13.8433 0.00163128C13.8285 0.00568007 13.7517 0.032327 13.6727 0.0606686ZM18.5085 0.0831722C18.0679 0.260472 17.9527 0.51338 18.0023 1.19424C18.0574 1.9507 18.3306 2.60792 18.8341 3.19556C19.4008 3.85674 19.5538 4.20701 19.5538 4.84333C19.5538 5.48229 19.4297 5.76297 18.7881 6.57546C18.2794 7.2195 17.9807 8.00139 17.9849 8.67791C17.9892 9.38288 18.3678 9.76883 18.9351 9.64633C19.3271 9.56168 19.5081 9.31678 19.6047 8.74034C19.7228 8.03547 19.8167 7.83068 20.2684 7.29351C21.5407 5.7802 21.5267 3.85815 20.2324 2.34814C19.811 1.85654 19.6097 1.4333 19.6097 1.03906C19.6097 0.569027 19.4413 0.276573 19.0867 0.13091C18.9038 0.0556781 18.7418 -0.00307651 18.727 0.000124861C18.7122 0.00342039 18.6138 0.0408011 18.5085 0.0831722ZM23.3737 0.0915523C22.5423 0.41169 22.7736 1.98582 23.8547 3.36354C24.7163 4.46142 24.7104 5.3548 23.835 6.38281C23.2909 7.02196 22.9479 7.79688 22.8887 8.52067C22.8424 9.08882 22.854 9.13063 23.1327 9.40472C23.509 9.77476 23.8459 9.77862 24.2134 9.41724C24.4194 9.21471 24.4933 9.05219 24.4933 8.8022C24.4933 8.33791 24.6954 7.90007 25.2033 7.26394C25.7881 6.53158 26.0312 5.94922 26.0942 5.12966C26.1613 4.25757 25.8896 3.30187 25.4055 2.70745C24.8212 1.98997 24.5752 1.52002 24.5005 0.978709C24.3988 0.241829 23.934 -0.124164 23.3737 0.0915523ZM9.40946 12.1339C8.57972 12.3295 8.19535 12.8925 8.13627 13.9983C8.10486 14.5867 8.06311 14.7762 7.97223 14.7419C7.57924 14.5936 6.16097 14.4754 5.3974 14.5274C3.94561 14.6261 2.87456 15.0714 2.01169 15.9352C0.716275 17.232 0.132344 18.9996 0.0148488 21.9801C-0.137981 25.8579 0.889022 28.4806 3.09145 29.8367C4.21891 30.5309 5.92838 30.7232 7.76434 30.3624C8.22781 30.2714 8.61812 30.2124 8.63172 30.2314C8.64532 30.2505 8.77564 30.5481 8.92129 30.8929C9.40841 32.0459 10.3778 33.3074 11.4636 34.201L11.8878 34.5502L8.39931 34.5507C6.29513 34.551 4.76952 34.5898 4.55473 34.6485C4.07843 34.7786 3.62961 35.1647 3.41512 35.6291C3.1852 36.1268 3.16519 37.8627 3.38122 38.5777C3.6774 39.5585 4.63373 40.4106 5.86642 40.792L6.53874 41H26.1212C44.8725 41 45.7279 40.9927 46.2754 40.8266C47.4591 40.4674 48.2583 39.8616 48.6908 38.9958C48.9328 38.5112 48.9629 38.3414 48.9937 37.2883C49.014 36.5973 48.9843 35.9756 48.9212 35.7686C48.7888 35.3343 48.1872 34.7848 47.6975 34.6511C47.4785 34.5913 46.1974 34.5504 44.5067 34.5491L41.6819 34.5471L42.4958 34.1186C44.0127 33.3199 45.5187 31.9972 46.4168 30.6747C46.7395 30.1996 46.8049 30.0249 46.8049 29.6385C46.8049 29.383 46.7398 29.05 46.6602 28.8987C46.5188 28.6297 46.5292 28.6003 47.1361 27.5617C48.1905 25.7568 48.7123 24.2019 48.9161 22.2583C49.0457 21.0228 48.9893 18.9222 48.81 18.3079C48.6971 17.9212 47.9704 17.1309 47.7277 17.1309C47.6455 17.1309 47.4948 16.7291 47.3014 15.9946C46.7223 13.7936 45.8886 12.488 44.8731 12.1915C44.2985 12.0237 43.9589 12.0774 43.2335 12.4507C42.0875 13.0405 41.7269 13.8462 41.6561 15.9752L41.6085 17.4087L41.1914 17.6073C40.6278 17.8756 40.1088 18.489 39.7887 19.2652C39.6426 19.6191 39.4608 19.9891 39.3846 20.0875C39.2493 20.2619 39.2314 20.2601 38.6804 20.0169C37.798 19.6275 37.5638 19.6646 35.1291 20.5787C33.9404 21.025 32.8288 21.4729 32.6587 21.5739C32.4462 21.7002 32.2401 21.9753 32.0001 22.4528L31.6508 23.1477L31.3517 23.0279L31.0528 22.9079L31.0049 18.0186C30.9694 14.4017 30.9265 13.0768 30.8395 12.9275C30.6539 12.6092 30.1693 12.2507 29.781 12.1447C29.3708 12.0327 9.8826 12.0223 9.40946 12.1339ZM29.377 17.9206V22.1941L28.9221 22.2611C28.6719 22.2981 28.3954 22.366 28.3076 22.4123C28.1789 22.48 28.0167 22.3346 27.4744 21.666C26.1871 20.0788 25.4981 19.6258 24.3929 19.6397C22.6976 19.6612 21.863 20.7369 22.1137 22.5773C22.2135 23.3105 22.7258 24.8696 23.1148 25.6246C23.3404 26.0623 23.3429 26.0878 23.1872 26.3828C22.932 26.866 22.9738 27.6532 23.2833 28.1977C23.9805 29.4243 25.7393 31.4393 26.8279 32.2585L27.1996 32.5381L26.6364 32.9824C25.9033 33.561 24.7328 34.1271 23.7838 34.3624C23.0982 34.5324 22.706 34.5502 19.6485 34.5502C15.9591 34.5502 15.4615 34.4996 14.2583 34.0025C13.0233 33.4923 11.8603 32.5475 11.0689 31.4117C10.5782 30.7072 10.2784 30.0585 10.0135 29.1276C9.80456 28.3935 9.80102 28.2795 9.76913 21.1426C9.75132 17.1605 9.75917 13.845 9.78656 13.7748C9.82802 13.6685 11.4716 13.6471 19.6067 13.6471H29.377V17.9206ZM44.6776 13.955C45.066 14.3616 45.9835 16.746 45.8152 16.9115C45.7635 16.9623 44.0964 17.122 43.5593 17.1276L43.2344 17.1309L43.2842 15.922C43.3395 14.5844 43.4859 14.1153 43.9208 13.8828C44.2746 13.6937 44.4434 13.7098 44.6776 13.955ZM7.59208 16.3044L8.07086 16.4248L8.09825 17.2869L8.12573 18.1491L7.5237 17.9567C7.10639 17.8234 6.64273 17.7611 6.01207 17.7537C5.20952 17.7442 5.05392 17.7703 4.69119 17.9745C4.21594 18.2421 3.76961 18.8542 3.57149 19.51C3.19851 20.745 3.14881 23.7674 3.48138 24.9931C3.79422 26.1462 4.3681 26.9298 5.10275 27.207C5.50877 27.3602 6.66294 27.3306 7.40219 27.1479C7.74739 27.0627 8.04817 27.0109 8.07039 27.0328C8.0927 27.0547 8.14019 27.4172 8.17591 27.8383L8.24084 28.604L7.86221 28.7043C7.22791 28.8722 5.80351 28.9786 5.24601 28.8996C2.77315 28.5493 1.45256 26.0358 1.63862 22.0338C1.70967 20.5066 1.82419 19.7811 2.14431 18.8308C2.59773 17.4847 3.50254 16.5563 4.67146 16.2379C5.27914 16.0723 6.80724 16.1072 7.59208 16.3044ZM47.2002 18.6991C47.3011 18.8185 47.3311 19.2506 47.3297 20.5587C47.3277 22.3841 47.2202 23.2129 46.8344 24.3811C46.5969 25.1 45.7709 26.8299 45.6658 26.8284C45.634 26.8279 45.3639 26.436 45.0655 25.9574C44.1036 24.4146 42.6611 22.7799 41.1386 21.5068L40.6913 21.1327L41.1489 20.2079C41.4005 19.6994 41.6666 19.2244 41.7399 19.1524C41.9724 18.9245 44.5639 18.585 46.2905 18.5563C46.9088 18.546 47.0957 18.5753 47.2002 18.6991ZM6.8804 19.4469C7.16653 19.5296 7.56277 19.686 7.76109 19.7946L8.12162 19.9919L8.09624 22.6309L8.07086 25.2698L7.59696 25.4427C7.0656 25.6367 6.05976 25.7552 5.69932 25.6662C4.9686 25.4859 4.61276 22.2455 5.09825 20.1919C5.30997 19.2961 5.73868 19.1169 6.8804 19.4469ZM25.0594 21.4508C25.3116 21.6115 26.6958 23.2086 26.6958 23.3389C26.6958 23.3831 26.642 23.4404 26.5761 23.4661C26.5103 23.4918 26.049 23.8141 25.5513 24.1823C25.0534 24.5506 24.6185 24.8519 24.5849 24.8519C24.5083 24.8519 24.0767 23.759 23.8709 23.0439C23.6881 22.409 23.6634 21.6043 23.8207 21.4178C24.0393 21.1589 24.6258 21.1746 25.0594 21.4508ZM38.4635 21.6923C39.8993 22.4034 41.4628 23.8036 42.8134 25.588C43.4902 26.4822 44.543 28.1812 44.9958 29.1097C45.2635 29.659 45.2176 29.766 44.2996 30.7332C42.7104 32.4076 39.8725 33.8443 37.1162 34.3696C35.6079 34.6571 33.116 34.5766 32.8372 34.2314C32.7906 34.1736 32.6843 33.7451 32.6009 33.279C32.3018 31.6085 32.2255 30.5006 32.2769 28.5807C32.3189 27.0127 32.3685 26.5183 32.5655 25.6993C32.8081 24.6914 33.296 23.3313 33.526 23.022C33.6402 22.8684 37.3867 21.3828 37.6864 21.3723C37.7535 21.3699 38.1032 21.514 38.4635 21.6923ZM30.0591 24.1928C30.4947 24.3999 30.9129 24.5694 30.9884 24.5694C31.0909 24.5694 31.1116 24.6471 31.0701 24.8754C31.0395 25.0438 30.9476 25.5416 30.8658 25.9818C30.6067 27.3773 30.5125 29.1726 30.6202 30.664C30.6743 31.413 30.7458 32.1325 30.779 32.2627C30.8339 32.4776 30.8182 32.4932 30.6109 32.431C29.6776 32.1509 28.2275 31.325 27.3249 30.5594C26.2232 29.6248 24.6849 27.6559 24.6849 27.1806C24.6849 26.9144 24.9915 26.6159 26.1691 25.735C27.1835 24.9763 28.9794 23.8162 29.1396 23.8162C29.2097 23.8162 29.6234 23.9856 30.0591 24.1928ZM30.3269 34.0266C31.6257 34.4909 31.5021 34.5502 29.2363 34.5502H27.2604L27.816 34.0948C28.1215 33.8445 28.4277 33.5724 28.4965 33.4904C28.6099 33.3553 28.6637 33.3599 29.071 33.5399C29.3183 33.6491 29.8835 33.8681 30.3269 34.0266ZM47.2692 36.2342C47.367 36.2952 47.3902 36.5391 47.3649 37.2449C47.3232 38.4118 47.1643 38.6742 46.2392 39.1053L45.608 39.3993L26.6 39.4256C13.4915 39.4437 7.386 39.4206 6.92809 39.3514C6.15532 39.2345 5.41559 38.8711 5.11922 38.4625C4.94648 38.2243 4.9052 38.0164 4.87753 37.2449C4.85225 36.5391 4.87542 36.2952 4.97329 36.2342C5.14201 36.129 47.1004 36.129 47.2692 36.2342Z" fill="#762D36"/>
<path d="M25.0594 21.4508C25.3116 21.6115 26.6958 23.2086 26.6958 23.3389C26.6958 23.3831 26.642 23.4404 26.5761 23.4661C26.5103 23.4918 26.049 23.8141 25.5513 24.1823C25.0534 24.5506 24.6185 24.8519 24.5849 24.8519C24.5083 24.8519 24.0767 23.759 23.8709 23.0439C23.6881 22.409 23.6634 21.6043 23.8207 21.4178C24.0393 21.1589 24.6258 21.1746 25.0594 21.4508Z" fill="#762D36"/>
<path d="M38.4635 21.6923C39.8993 22.4034 41.4628 23.8036 42.8134 25.588C43.4902 26.4822 44.543 28.1812 44.9958 29.1097C45.2635 29.659 45.2176 29.766 44.2996 30.7332C42.7104 32.4076 39.8725 33.8443 37.1162 34.3696C35.6079 34.6571 33.116 34.5766 32.8372 34.2314C32.7906 34.1736 32.6843 33.7451 32.6009 33.279C32.3018 31.6085 32.2255 30.5006 32.2769 28.5807C32.3189 27.0127 32.3685 26.5183 32.5655 25.6993C32.8081 24.6914 33.296 23.3313 33.526 23.022C33.6402 22.8684 37.3867 21.3828 37.6864 21.3723C37.7535 21.3699 38.1032 21.514 38.4635 21.6923Z" fill="#762D36"/>
<path d="M44.6776 13.955C45.066 14.3616 45.9835 16.746 45.8152 16.9115C45.7635 16.9623 44.0964 17.122 43.5593 17.1276L43.2344 17.1309L43.2842 15.922C43.3395 14.5844 43.4859 14.1153 43.9208 13.8828C44.2746 13.6937 44.4434 13.7098 44.6776 13.955Z" fill="#762D36"/>
<path d="M47.2692 36.2342C47.367 36.2952 47.3902 36.5391 47.3649 37.2449C47.3232 38.4118 47.1643 38.6742 46.2392 39.1053L45.608 39.3993L26.6 39.4256C13.4915 39.4437 7.386 39.4206 6.92809 39.3514C6.15532 39.2345 5.41559 38.8711 5.11922 38.4625C4.94648 38.2243 4.9052 38.0164 4.87753 37.2449C4.85225 36.5391 4.87542 36.2952 4.97329 36.2342C5.14201 36.129 47.1004 36.129 47.2692 36.2342Z" fill="#762D36"/>
<path d="M7.59208 16.3044L8.07086 16.4248L8.09825 17.2869L8.12573 18.1491L7.5237 17.9567C7.10639 17.8234 6.64273 17.7611 6.01207 17.7537C5.20952 17.7442 5.05392 17.7703 4.69119 17.9745C4.21594 18.2421 3.76961 18.8542 3.57149 19.51C3.19851 20.745 3.14881 23.7674 3.48138 24.9931C3.79422 26.1462 4.3681 26.9298 5.10275 27.207C5.50877 27.3602 6.66294 27.3306 7.40219 27.1479C7.74739 27.0627 8.04817 27.0109 8.07039 27.0328C8.0927 27.0547 8.14019 27.4172 8.17591 27.8383L8.24084 28.604L7.86221 28.7043C7.22791 28.8722 5.80351 28.9786 5.24601 28.8996C2.77315 28.5493 1.45256 26.0358 1.63862 22.0338C1.70967 20.5066 1.82419 19.7811 2.14431 18.8308C2.59773 17.4847 3.50254 16.5563 4.67146 16.2379C5.27914 16.0723 6.80724 16.1072 7.59208 16.3044Z" fill="#762D36"/>
</svg>
