<svg width="45" height="35" viewBox="0 0 45 35" fill="none" xmlns="http://www.w3.org/2000/svg">
<path fill-rule="evenodd" clip-rule="evenodd" d="M13.1444 0.0422696C9.49536 0.495036 6.66268 3.45281 6.36796 7.11793C6.31688 7.75287 6.32954 7.84076 6.50327 8.059C6.64193 8.23321 6.7739 8.29974 6.98087 8.29974C7.4363 8.29974 7.61672 8.0267 7.68521 7.23409C7.76566 6.30326 7.94423 5.66018 8.34947 4.84184C9.35046 2.82041 11.3129 1.51367 13.628 1.32677C14.4082 1.26383 14.683 1.08253 14.683 0.630901C14.683 0.0869159 14.218 -0.0909691 13.1444 0.0422696ZM13.0125 2.92178C10.9657 3.36308 9.39715 5.14438 9.18095 7.27314C9.13259 7.74971 9.14965 7.84855 9.31705 8.059C9.68422 8.52096 10.4628 8.25238 10.4628 7.66375C10.4628 6.50076 11.2668 5.15252 12.2916 4.59716C12.7657 4.34022 13.6076 4.09773 14.0256 4.09773C14.6408 4.09773 14.9267 3.33831 14.4514 2.96608C14.1815 2.75467 13.8368 2.74399 13.0125 2.92178ZM13.8033 5.66771C13.2059 5.84866 12.7238 6.24688 12.4517 6.78413C12.3739 6.93759 12.0559 8.43456 11.745 10.1107C11.1207 13.4761 11.1165 13.58 11.5737 14.3163C11.8011 14.6826 12.3195 15.0585 12.8316 15.2284C12.9126 15.2554 12.9125 15.3923 12.8308 15.8334C12.7405 16.3215 12.7465 16.476 12.8724 16.9073C13.1263 17.7771 13.7193 18.2154 14.9688 18.4569L15.4744 18.5546V19.907C15.4744 21.2006 15.4648 21.2746 15.2534 21.6078C14.7608 22.385 14.6809 23.3668 15.0423 24.2061L15.2043 24.5825H9.6683H4.13236L4.13148 24.3418C4.13016 23.9752 3.75359 23.2485 3.41957 22.9681C2.92078 22.5493 2.64893 22.4815 1.46883 22.4815C0.446822 22.4815 0.371033 22.4935 0.191143 22.6841L0 22.8867V28.7285V34.5703L0.21585 34.7851C0.418423 34.9869 0.489904 35 1.38706 35C2.51634 35 3.00835 34.863 3.46511 34.4213C4.05929 33.8467 4.08532 33.7434 4.11697 31.8302L4.14546 30.1048L9.83193 30.0794L15.5183 30.0539L16.0269 29.8495C16.7368 29.5642 17.5048 28.8357 17.8662 28.105C18.1162 27.5993 18.1553 27.4233 18.186 26.6624C18.2199 25.8196 18.2272 25.7936 18.4522 25.7121C19.5889 25.3006 20.308 24.3206 20.3088 23.1819C20.3092 22.4738 20.2098 22.1092 19.8715 21.5782C19.6201 21.1833 19.6067 21.1157 19.6067 20.2364V19.3105L19.8925 19.3631C20.0496 19.392 24.5501 20.226 29.8936 21.2165C37.3987 22.6078 39.708 23.0068 40.0438 22.9704C40.6195 22.9082 41.213 22.5337 41.516 22.0415C41.7232 21.7048 41.8508 21.1456 42.4238 18.0607C42.7904 16.0866 43.1113 14.4018 43.1366 14.3167C43.162 14.2316 43.5754 13.7071 44.0553 13.1512C44.5352 12.5952 44.9528 12.0414 44.9833 11.9204C45.0599 11.6165 44.8659 11.2978 44.5411 11.1933C44.313 11.1201 39.7071 10.2611 23.9149 7.34659C22.8752 7.15469 20.3051 6.68004 18.2034 6.29179C14.2879 5.56852 14.1809 5.55338 13.8033 5.66771ZM28.5183 9.5297C36.3591 10.9765 42.8414 12.1878 42.9234 12.2216C43.043 12.2707 42.5851 12.8447 40.6087 15.1233C39.2535 16.6855 38.0786 18.0144 37.9977 18.0764C37.5505 18.4191 37.3677 18.4039 33.6552 17.7155C22.0924 15.5715 18.7006 14.9529 18.5058 14.9529C18.0005 14.9529 17.732 15.7048 18.1143 16.0493C18.2521 16.1733 20.4108 16.6034 27.6319 17.9452C37.8968 19.8526 37.4567 19.7965 38.4172 19.3186C38.8695 19.0936 39.1126 18.8611 40.1488 17.6621C40.8118 16.8949 41.3669 16.28 41.3824 16.2955C41.4273 16.3401 40.5425 21.0161 40.4489 21.2294C40.4024 21.3352 40.2613 21.4891 40.1353 21.5713C39.8707 21.7438 40.4649 21.832 34.7733 20.7758C32.7907 20.4079 29.487 19.7966 27.4318 19.4174C25.3766 19.0382 21.6432 18.3488 19.1352 17.8855C16.6272 17.4221 14.5034 16.9983 14.4156 16.9438C14.1669 16.7891 14.0548 16.4548 14.1158 16.0497C14.2066 15.4468 14.2101 15.4453 15.0694 15.6152C15.662 15.7323 15.8811 15.7439 16.0503 15.6672C16.4931 15.4663 16.5538 14.8237 16.1543 14.5655C16.0463 14.4957 15.2853 14.3151 14.4632 14.1643C12.9547 13.8873 12.7164 13.7931 12.5716 13.4164C12.4828 13.1853 13.551 7.40331 13.7199 7.20057C13.8193 7.08142 14.0779 6.93164 14.231 6.90459C14.2482 6.90161 20.6775 8.08281 28.5183 9.5297ZM17.8702 18.9939L18.2879 19.0819V19.7531L18.288 20.4243L17.5625 20.4104L16.8371 20.3964L16.8117 19.5902L16.7863 18.784L17.1195 18.845C17.3027 18.8786 17.6405 18.9456 17.8702 18.9939ZM18.2544 21.8357C18.7024 22.0475 18.932 22.4258 18.9755 23.0245C19.0074 23.4643 18.9808 23.583 18.7825 23.8812C18.2644 24.6608 17.2254 24.7678 16.5646 24.1098C15.6637 23.2128 16.268 21.6936 17.5257 21.6936C17.761 21.6936 18.0889 21.7575 18.2544 21.8357ZM2.59767 24.0096L2.81352 24.2244V28.6997V33.1751L2.55652 33.431C2.3339 33.6526 2.23393 33.6869 1.80918 33.6869H1.31884V28.7408V23.7946H1.85033C2.2975 23.7946 2.4162 23.8288 2.59767 24.0096ZM16.8811 26.5112C16.8811 26.8499 16.8267 27.2565 16.7602 27.4149C16.5878 27.8259 16.1216 28.3256 15.7025 28.549C15.3443 28.7398 15.3138 28.7408 9.73741 28.7657L4.13236 28.7907V27.3432V25.8956H10.5067H16.8811V26.5112Z" fill="#762D36"/>
<path d="M17.8702 18.9939L18.2879 19.0819V19.7531L18.288 20.4243L17.5625 20.4104L16.8371 20.3964L16.8117 19.5902L16.7863 18.784L17.1195 18.845C17.3027 18.8786 17.6405 18.9456 17.8702 18.9939Z" fill="#762D36"/>
<path d="M16.8811 26.5112C16.8811 26.8499 16.8267 27.2565 16.7602 27.4149C16.5878 27.8259 16.1216 28.3256 15.7025 28.549C15.3443 28.7398 15.3138 28.7408 9.73741 28.7657L4.13236 28.7907V27.3432V25.8956H10.5067H16.8811V26.5112Z" fill="#762D36"/>
</svg>
