<svg width="39" height="45" viewBox="0 0 39 45" fill="none" xmlns="http://www.w3.org/2000/svg">
<path fill-rule="evenodd" clip-rule="evenodd" d="M29.2734 0.598999C27.211 2.02664 25.7334 3.36449 25.3637 4.13881C25.1828 4.51764 25.1374 4.55694 24.9318 4.51217C22.6245 4.0098 19.7437 3.94247 17.4696 4.33761C14.4072 4.86977 11.5612 6.10143 9.20261 7.91566C8.50585 8.45152 7.54509 9.28646 7.49756 9.39741C7.48483 9.4271 7.91236 9.36233 8.44759 9.2535C9.57205 9.02483 10.8973 8.91644 11.26 9.0236C11.506 9.09621 11.4968 9.10626 10.7672 9.55831C9.73157 10.2 8.32584 11.2038 7.04099 12.2191C4.0661 14.5699 1.86218 17.0612 0.706937 19.3788C0.354241 20.0864 -0.0498251 21.1219 0.00503292 21.1774C0.0244818 21.197 0.426978 20.9876 0.89942 20.7119C1.37195 20.4363 2.03661 20.0827 2.3764 19.9262C2.98813 19.6446 3.94845 19.3752 4.03374 19.4614C4.05808 19.486 3.94295 19.8055 3.77785 20.1716C2.95673 21.9921 2.62688 23.8471 2.70485 26.2062C2.78832 28.7302 3.27759 30.6121 4.48534 33.0534C6.09785 36.3133 7.90651 38.3791 10.8697 40.3457C14.3205 42.6359 18.7845 44.1851 23.7783 44.8256C24.5262 44.9215 25.2204 45 25.3209 45C25.4812 45 25.5332 44.8795 25.743 44.0219C26.4899 40.9668 26.4751 38.251 25.6996 36.1178C25.4443 35.4152 25.222 35.0098 24.4722 33.8791C22.9204 31.5389 21.986 29.2144 21.6008 26.7367C21.432 25.6506 21.5383 23.7136 21.8146 22.8377C22.0957 21.9472 22.5652 21.1423 23.1618 20.5286C23.6002 20.0776 24.4653 19.445 24.6436 19.445C24.6881 19.445 25.0007 19.7944 25.3381 20.2214C27.1416 22.5033 29.5124 24.1639 31.5669 24.584L32.092 24.6914L32.2816 25.3555C32.9841 27.8163 34.846 28.4544 37.4493 27.1266C38.0936 26.798 38.5388 26.2831 38.8041 25.5597C38.9605 25.1329 38.9953 24.8449 38.9998 23.9392C39.0069 22.4935 38.8451 22.0068 37.8631 20.5211C37.3424 19.7334 37.0709 19.2202 36.9031 18.7068C35.9629 15.8304 34.22 11.7203 33.1908 9.95239C32.717 9.13851 32.4561 8.75386 32.0468 8.26594C31.7017 7.85459 31.6706 7.74338 31.5018 6.31547C31.3213 4.78975 31.3595 2.38855 31.5752 1.70518L31.709 1.28097L31.476 1.43042C31.0195 1.72324 30.6255 2.04057 30.1305 2.51413C29.6457 2.9779 29.6299 2.98557 29.6692 2.73813C29.6916 2.59714 29.7742 2.06542 29.8527 1.55652C29.9313 1.04762 30.051 0.496251 30.119 0.331289C30.1868 0.166415 30.2288 0.0176674 30.2121 0.000748195C30.1954 -0.0160828 29.773 0.253126 29.2734 0.598999Z" fill="#762D36"/>
</svg>
