<svg width="34" height="45" viewBox="0 0 34 45" fill="none" xmlns="http://www.w3.org/2000/svg">
<path fill-rule="evenodd" clip-rule="evenodd" d="M15.8855 0.0485721C15.3137 0.127962 14.1999 0.448248 13.6831 0.681935C12.8168 1.0737 12.1495 1.53975 11.3584 2.30552C10.5302 3.10725 10.0628 3.74412 9.61933 4.67553C9.0283 5.91693 8.94517 6.34299 8.90039 8.35974L8.85993 10.184H7.4329C5.35392 10.184 4.62423 10.4182 3.63371 11.403C3.05766 11.9757 2.59418 12.8573 2.44865 13.6568C2.2653 14.6642 -0.0423368 40.8939 0.000591449 41.4829C0.11492 43.0538 1.26226 44.3603 2.96581 44.8594C3.39492 44.9851 4.84831 44.9996 16.9874 44.9996C31.808 44.9996 30.8639 45.0314 31.9212 44.4974C32.4574 44.2265 33.2177 43.5199 33.5123 43.0186C33.7891 42.5474 34 41.7556 34 41.1877C34 40.5512 31.6391 14.278 31.5261 13.6568C31.3102 12.4707 30.4379 11.2307 29.4371 10.6874C28.6985 10.2864 28.1096 10.184 26.5419 10.184H25.1148L25.0771 8.35974C25.0418 6.65527 25.0232 6.48638 24.7934 5.78813C24.3057 4.30636 23.7133 3.35992 22.6179 2.31299C21.3689 1.11915 20.0534 0.435852 18.4021 0.123478C17.7301 -0.00365132 16.5213 -0.0396098 15.8855 0.0485721ZM18.3572 2.58C20.4042 3.09722 22.0251 4.70076 22.5432 6.72086C22.6803 7.25549 22.717 7.69315 22.717 8.79142V10.184H17.0315H11.3459V8.79142C11.3459 7.68989 11.3825 7.2561 11.521 6.7162C12.0372 4.70279 13.6115 3.13459 15.6652 2.58791C16.3072 2.41691 17.6958 2.41287 18.3572 2.58ZM8.87774 15.6789C8.92702 19.0222 8.91027 18.9351 9.5638 19.2513C10.052 19.4875 10.4569 19.4173 10.8903 19.0214L11.2137 18.7258L11.2577 15.7078L11.3018 12.6897H16.9433H22.5848L22.6289 15.6789C22.678 19.0106 22.6641 18.9364 23.2958 19.2421C23.7291 19.4518 23.8466 19.4557 24.2966 19.2761C24.9654 19.0092 24.9593 19.0402 25.0089 15.6789L25.0529 12.6897L26.1548 12.663C27.6943 12.6256 27.9451 12.6741 28.4073 13.0991C28.6178 13.2926 28.8513 13.6159 28.9264 13.8176C29.0211 14.0721 29.427 18.253 30.2533 27.4862C30.908 34.8021 31.4437 40.9891 31.4437 41.2349C31.4437 41.6436 31.4116 41.714 31.0688 42.0558C30.846 42.278 30.5509 42.4694 30.3416 42.5273C29.8426 42.6655 4.04404 42.6655 3.54503 42.5273C3.33568 42.4694 3.04065 42.278 2.81781 42.0558C2.46689 41.7058 2.44292 41.6507 2.44292 41.1945C2.44292 40.1134 4.82415 14.1811 4.95594 13.8278C5.11337 13.4054 5.65936 12.8457 6.0205 12.7363C6.1618 12.6936 6.85253 12.6655 7.55552 12.6741L8.83367 12.6897L8.87774 15.6789Z" fill="#762D36"/>
</svg>
