<svg width="43" height="45" viewBox="0 0 43 45" fill="none" xmlns="http://www.w3.org/2000/svg">
<path fill-rule="evenodd" clip-rule="evenodd" d="M21.9068 0.146658C21.4092 0.482557 11.4177 8.79046 10.7831 9.39591C8.76549 11.3209 7.43537 13.7146 6.86431 16.4482C6.76821 16.908 6.6884 17.403 6.68691 17.5482C6.67816 18.4003 6.42514 17.7747 5.8525 15.4855C5.6632 14.7284 5.44808 14.3262 5.0019 13.895C3.52126 12.464 1.13811 12.8966 0.239205 14.7595C0.0292464 15.1946 -0.00208544 15.364 0.000102539 16.0522C0.00290315 16.9071 0.240868 18.3937 0.655008 20.1443C2.05487 26.0606 4.99928 31.6755 8.96958 35.9999L9.75139 36.8514L8.95391 38.2439C8.51527 39.0098 8.12537 39.6698 8.08747 39.7107C8.04949 39.7514 6.94106 39.1585 5.62416 38.3932C3.00839 36.8729 2.79905 36.7967 2.36417 37.2075C1.92263 37.6246 1.98749 38.2426 2.50971 38.5953C2.66514 38.7003 5.19471 40.1832 8.13097 41.8906C12.8555 44.6379 13.5133 44.9956 13.8492 44.9998C14.1597 45.0036 14.2671 44.9596 14.44 44.7576C14.7206 44.4294 14.7271 43.9098 14.4542 43.61C14.3459 43.491 13.2136 42.7905 11.9381 42.0532C10.6625 41.3161 9.60908 40.7052 9.59718 40.6956C9.58519 40.6861 9.91767 40.0802 10.3358 39.3491L11.0962 38.0201L11.8016 38.5714C14.0159 40.3023 15.1195 40.8829 20.798 43.3044C25.1628 45.1658 25.3368 45.2171 25.7299 44.7576C26.0355 44.4003 26.0223 43.87 25.7004 43.5776C25.5649 43.4544 23.7402 42.6327 21.5214 41.6958C19.3553 40.7811 17.1104 39.7951 16.5328 39.5046C14.3383 38.4013 12.3621 36.933 10.5348 35.0479C5.9612 30.33 2.7244 23.5318 1.7784 16.6573C1.65141 15.7342 1.71915 15.4504 2.15403 15.0824C2.47497 14.8108 2.7454 14.7395 3.15858 14.8175C3.69061 14.9178 4.00217 15.3184 4.22158 16.1842C5.34349 20.6117 7.11278 24.385 9.6405 27.7412C10.7188 29.1729 11.2396 29.7504 13.7256 32.2704C16.4736 35.056 16.6031 35.1484 17.7581 35.1484C18.3318 35.1484 18.5451 35.1069 18.9396 34.9185C20.1193 34.355 20.7642 33.1041 20.511 31.8704C20.4539 31.5921 20.3275 31.206 20.2302 31.0124C20.1248 30.8027 18.7875 29.3796 16.9223 27.4923C13.5123 24.0419 13.6091 24.1695 13.7114 23.2562C13.7651 22.7772 14.1262 22.2834 14.5936 22.0498C14.9998 21.8468 15.6819 21.8443 16.0679 22.0443C16.2274 22.1269 16.9879 22.8129 17.7581 23.5688C19.3706 25.1513 20.543 26.119 22.0903 27.1445C23.9465 28.3748 24.9324 28.8854 27.6955 30.0474C31.215 31.5274 33.8172 33.2186 36.333 35.6607C37.4701 36.7645 38.4243 37.8881 40.3226 40.3586C41.3814 41.7367 41.6761 42.0657 41.925 42.1484C42.2838 42.2674 42.673 42.1453 42.8795 41.8488C43.0334 41.6278 43.0414 41.1144 42.8949 40.86C42.6509 40.4367 39.4588 36.4008 38.7338 35.5992C36.7855 33.4449 34.0769 31.3015 31.608 29.9604C31.1868 29.7316 30.8422 29.5255 30.8422 29.5025C30.8422 29.4794 31.0388 29.2355 31.2792 28.9605C32.6694 27.3695 33.5823 25.7173 34.1731 23.723C34.4461 22.8011 36.7059 9.40436 36.7059 8.70739C36.7059 8.47128 36.6436 8.29414 36.509 8.1477C36.3529 7.97777 23.9172 0.701416 22.8167 0.135922C22.4575 -0.0486164 22.1913 -0.0454484 21.9068 0.146658ZM34.1751 13.6748C34.653 10.7824 34.8785 9.20785 34.8225 9.15241L23.995 2.82857C23.6454 2.62626 23.1576 2.34299 22.9111 2.1991L22.463 1.93748L17.6162 5.93923C14.9505 8.14022 12.4469 10.2375 12.0526 10.5999C10.7186 11.8259 9.53775 13.6602 8.95383 15.4131C8.79682 15.8843 8.68637 16.288 8.70825 16.3101C8.73022 16.3321 9.14094 16.2151 9.62107 16.0501C11.1145 15.5368 11.6382 15.4532 13.3821 15.4496C16.1222 15.4439 17.7409 15.8745 21.0897 17.5004C23.6128 18.7254 24.8181 19.1407 26.5975 19.3983C28.8545 19.7251 31.0274 19.3879 32.8417 18.4292L33.4418 18.1121L34.1751 13.6748ZM20.4274 19.1287C18.3722 18.1355 17.1893 17.6885 15.8903 17.4139C14.9166 17.2079 12.7971 17.1155 11.9818 17.2435C11.0651 17.3873 9.92432 17.7603 9.11346 18.1815L8.32789 18.5894L8.37603 19.7409C8.49461 22.5774 9.56383 25.0886 11.5372 27.1651C13.0515 28.7585 15.2261 30.1604 17.3642 30.9216L18.0206 31.1553L15.2889 28.3945C12.8145 25.894 12.5299 25.5763 12.2695 25.023C12.0038 24.459 11.9818 24.3448 11.9818 23.5302C11.9818 22.7134 12.0028 22.6053 12.2655 22.0689C12.6071 21.3714 13.2333 20.7533 13.9319 20.4241C14.3751 20.2153 14.5375 20.1883 15.3513 20.1883C16.6729 20.1883 16.9231 20.3232 18.5628 21.9199C20.1606 23.476 20.8321 24.0659 21.9757 24.9183C23.7333 26.2286 25.8466 27.4035 28.0324 28.2854L29.1172 28.7231L29.767 28.0197C31.5775 26.0599 32.6135 23.735 32.9938 20.7781L33.0538 20.3119L32.5825 20.4937C30.1404 21.4357 27.3368 21.5247 24.4533 20.752C23.3086 20.4452 22.3609 20.0631 20.4274 19.1287ZM18.3269 33.0771C18.2066 33.04 17.7734 32.9045 17.3642 32.7758C16.9551 32.6472 16.5612 32.5219 16.489 32.4976C16.4168 32.4732 16.5655 32.6522 16.8195 32.8952C17.3743 33.4264 17.7485 33.534 18.2273 33.3C18.5437 33.1454 18.5443 33.1439 18.3269 33.0771Z" fill="#762D36"/>
<path d="M15.8903 17.4139C17.1893 17.6885 18.3722 18.1355 20.4274 19.1287C22.3609 20.0631 23.3086 20.4452 24.4533 20.752C27.3368 21.5247 30.1404 21.4357 32.5825 20.4937L33.0538 20.3119L32.9938 20.7781C32.6135 23.735 31.5775 26.0599 29.767 28.0197L29.1172 28.7231L28.0324 28.2854C25.8466 27.4035 23.7333 26.2286 21.9757 24.9183C20.8321 24.0659 20.1606 23.476 18.5628 21.9199C16.9231 20.3232 16.6729 20.1883 15.3513 20.1883C14.5375 20.1883 14.3751 20.2153 13.9319 20.4241C13.2333 20.7533 12.6071 21.3714 12.2655 22.0689C12.0028 22.6053 11.9818 22.7134 11.9818 23.5302C11.9818 24.3448 12.0038 24.459 12.2695 25.023C12.5299 25.5763 12.8145 25.894 15.2889 28.3945L18.0206 31.1553L17.3642 30.9216C15.2261 30.1604 13.0515 28.7585 11.5372 27.1651C9.56383 25.0886 8.49461 22.5774 8.37603 19.7409L8.32789 18.5894L9.11346 18.1815C9.92432 17.7603 11.0651 17.3873 11.9818 17.2435C12.7971 17.1155 14.9166 17.2079 15.8903 17.4139Z" fill="#762D36"/>
</svg>
