<svg width="44" height="33" viewBox="0 0 44 33" fill="none" xmlns="http://www.w3.org/2000/svg">
<path d="M10.266 25.0199C10.1733 25.3916 10.0797 25.7139 10.058 25.7363C10.042 25.7528 9.87801 25.7185 9.62702 25.6519L12.3874 26.4668C12.1909 26.0565 11.9844 25.6277 11.7724 25.1902C11.69 25.0203 11.6108 24.8568 11.5347 24.6996L10.3278 24.3043C10.4059 24.3334 10.3892 24.5263 10.266 25.0199Z" fill="#762D36"/>
<path d="M33.9457 25.7401C33.8602 25.6519 33.5696 24.3549 33.6278 24.321L32.5113 24.6047C32.4212 24.7908 32.3267 24.9859 32.2276 25.1902C32.0348 25.5882 31.8465 25.9789 31.6661 26.3551L34.2547 25.6886C34.0728 25.7339 33.9594 25.7542 33.9457 25.7401Z" fill="#762D36"/>
<path d="M27.0366 7.77459C32.7342 8.3672 37.2548 9.70809 40.1042 11.6508C40.9892 12.2541 41.8731 13.1796 42.2007 13.846C42.5756 14.6084 42.5142 14.7038 41.9604 14.2197C36.9021 9.79831 24.2352 7.86264 13.12 9.81239C8.21957 10.672 4.32813 12.2225 2.03958 14.2272C1.48381 14.714 1.42129 14.6148 1.79933 13.846C3.05983 11.2823 8.04751 9.04378 14.6723 8.0683C16.0539 7.86491 16.9054 7.7779 19.2958 7.59595C20.378 7.51358 25.7098 7.63667 27.0366 7.77459Z" fill="#762D36"/>
<path fill-rule="evenodd" clip-rule="evenodd" d="M24.8875 16.7133C27.2083 16.9141 29.9146 17.6476 31.3181 18.4561C32.1653 18.9442 32.9083 19.7116 32.9083 20.0985C32.9083 20.2854 32.2696 21.7048 31.1033 24.1095L29.2983 27.8313L28.9721 27.5621C28.2487 26.965 26.6136 26.3625 24.8417 26.04C24.4009 25.9597 23.3809 25.9148 22 25.9148C20.6191 25.9148 19.5991 25.9597 19.1583 26.04C17.3864 26.3625 15.7513 26.965 15.0279 27.5621L14.7017 27.8313L12.8967 24.1095C11.7304 21.7048 11.0917 20.2854 11.0917 20.0985C11.0917 19.8755 11.2019 19.6957 11.5729 19.3135C12.5065 18.3518 14.2789 17.5769 16.6739 17.0833C19.1706 16.5687 21.8325 16.4488 24.8875 16.7133ZM21.2667 23.4114V21.1441V18.8769H22H22.7333V21.1441V23.4114H22H21.2667ZM17.418 19.6198C17.4173 19.5866 17.6539 19.5178 17.9438 19.4666C18.331 19.3982 18.5483 19.3243 18.6913 19.3969C18.9181 19.512 18.958 19.9951 19.1915 21.4512C19.3769 22.6073 19.5277 23.6237 19.5267 23.7099C19.5255 23.8302 19.3743 23.8929 18.8774 23.9792C18.5212 24.0411 18.2053 24.0666 18.1754 24.0358C18.1326 23.9917 17.4235 19.8576 17.418 19.6198ZM24.3833 23.8156C24.3833 23.7374 25.0256 19.7764 25.0731 19.5618C25.1274 19.3164 25.1395 19.3149 25.9112 19.4534C26.3921 19.5397 26.4917 19.5893 26.4917 19.7427C26.4917 19.9562 25.8428 24.0095 25.801 24.0572C25.7618 24.1019 24.3833 23.867 24.3833 23.8156ZM27.3167 24.7971C27.3167 24.7186 27.9202 22.6993 28.4277 21.08L28.6106 20.4963L29.0791 20.6397C29.6764 20.8225 29.975 20.9397 29.975 20.9914C29.975 21.0822 28.7001 25.2292 28.6592 25.2712C28.5885 25.344 27.3167 24.8948 27.3167 24.7971ZM14.051 21.0791C14.0256 21.0101 14.233 20.894 14.5903 20.7774C14.9096 20.6732 15.234 20.5855 15.3112 20.5826C15.4153 20.5787 15.618 21.1322 16.0961 22.7265L16.7406 24.8757L16.1441 25.0882C15.8161 25.2052 15.5006 25.3008 15.443 25.3008C15.3854 25.3008 15.058 24.3761 14.7153 23.2461C14.3727 22.116 14.0738 21.1408 14.051 21.0791Z" fill="#762D36"/>
<path fill-rule="evenodd" clip-rule="evenodd" d="M24.1542 27.4834C26.4402 27.771 28.6 28.7299 28.6 29.4574C28.6 30.1849 26.4402 31.1439 24.1542 31.4314C23.095 31.5646 20.905 31.5646 19.8458 31.4314C17.5598 31.1439 15.4 30.1849 15.4 29.4574C15.4 28.7541 17.5657 27.7693 19.727 27.4899C20.6881 27.3657 23.1891 27.362 24.1542 27.4834ZM21.2667 30.2132V29.4574V28.7017H22H22.7333V29.4574V30.2132H22H21.2667Z" fill="#762D36"/>
<path fill-rule="evenodd" clip-rule="evenodd" d="M18.5625 0.0866083C9.63692 0.656446 2.39195 3.43034 0.553667 6.98143C0.00898343 8.03363 0 8.14104 0 13.5866C0 19.0614 0.00577503 19.1284 0.575392 20.239C0.969558 21.0076 2.14198 22.2183 3.13748 22.8848C4.0689 23.5085 5.62421 24.2898 6.90498 24.7774C7.65339 25.0623 8.95346 25.4733 9.62702 25.6519C9.87801 25.7185 10.042 25.7528 10.058 25.7363C10.0797 25.7139 10.1733 25.3916 10.266 25.0199C10.3892 24.5263 10.4059 24.3334 10.3278 24.3043C10.269 24.2824 9.84958 24.1552 9.39583 24.0217C5.52943 22.8837 2.68547 21.1382 1.7787 19.3464C1.55888 18.9121 1.51708 18.7166 1.51708 18.1211C1.51708 17.2329 1.78539 16.6527 2.60141 15.7764C4.91929 13.287 10.4793 11.4119 17.5542 10.7338C19.4614 10.551 25.0273 10.5815 26.95 10.7851C33.8618 11.5175 39.1265 13.3362 41.3986 15.7764C42.2146 16.6527 42.4829 17.2329 42.4829 18.1211C42.4829 18.7166 42.4411 18.9121 42.2213 19.3464C41.3181 21.131 38.4593 22.8961 34.6958 23.9927C34.1413 24.1543 33.6606 24.302 33.6278 24.321C33.5696 24.3549 33.8602 25.6519 33.9457 25.7401C33.9594 25.7542 34.0728 25.7339 34.2547 25.6886C34.2914 25.6794 34.3309 25.6693 34.373 25.6581C34.9488 25.5058 35.9999 25.1762 36.866 24.8668C38.1183 24.4193 39.8607 23.5556 40.8575 22.8882C41.8575 22.2187 43.0297 21.0089 43.4246 20.239C43.9942 19.1284 44 19.0614 44 13.5866C44 8.1109 43.994 8.04251 43.4242 6.93561C43.0565 6.22124 41.896 5.00637 40.9901 4.38741C37.525 2.01982 31.9765 0.505106 25.2083 0.0791451C23.4853 -0.0293054 20.322 -0.0258098 18.5625 0.0866083ZM27.0417 1.72895C34.8568 2.54044 40.7322 4.90037 42.223 7.82683C42.4799 8.33092 42.487 8.38496 42.5174 10.0316L42.5485 11.7195L41.8764 11.1349C39.5958 9.1512 35.6202 7.5952 30.6625 6.74583C19.5915 4.84908 6.94531 6.83689 1.98614 11.2534L1.45136 11.7296L1.48253 10.0366C1.51296 8.38449 1.52002 8.33111 1.77696 7.82683C3.10906 5.21203 8.01891 3.00192 14.6723 2.02228C16.0539 1.81889 16.9054 1.73188 19.2958 1.54993C20.3791 1.46746 25.7103 1.59065 27.0417 1.72895ZM27.0366 7.77459C32.7342 8.3672 37.2548 9.70809 40.1042 11.6508C40.9892 12.2541 41.8731 13.1796 42.2007 13.846C42.5756 14.6084 42.5142 14.7038 41.9604 14.2197C36.9021 9.79831 24.2352 7.86264 13.12 9.81239C8.21957 10.672 4.32813 12.2225 2.03958 14.2272C1.48381 14.714 1.42129 14.6148 1.79933 13.846C3.05983 11.2823 8.04751 9.04378 14.6723 8.0683C16.0539 7.86491 16.9054 7.7779 19.2958 7.59595C20.378 7.51358 25.7098 7.63667 27.0366 7.77459ZM21.2667 12.8309V13.5866H22H22.7333V12.8309V12.0751H22H21.2667V12.8309ZM21.0375 15.0712C17.0408 15.1892 13.4958 16.0899 11.3926 17.5217C10.1931 18.3384 9.63087 19.1974 9.62702 20.2196C9.62517 20.7156 9.70906 20.93 11.5347 24.6996L11.7724 25.1902C11.9844 25.6277 12.1909 26.0565 12.3874 26.4668C13.2858 28.3424 13.975 29.8327 14.0204 30.0066C14.0822 30.243 14.3024 30.5962 14.5904 30.921C15.3651 31.7946 16.9516 32.4732 19.1583 32.8748C19.5991 32.9551 20.6191 33 22 33C23.3809 33 24.4009 32.9551 24.8417 32.8748C27.0484 32.4732 28.6349 31.7946 29.4096 30.921C29.6976 30.5962 29.9178 30.243 29.9796 30.0066C30.0259 29.8293 30.7417 28.283 31.6661 26.3551C31.8465 25.9789 32.0348 25.5882 32.2276 25.1902L32.5113 24.6047C34.2924 20.9264 34.3748 20.7114 34.373 20.2196C34.3674 18.7118 32.996 17.3885 30.3927 16.3788C28.0949 15.4876 24.4044 14.9718 21.0375 15.0712ZM24.8875 16.7133C27.2083 16.9141 29.9146 17.6476 31.3181 18.4561C32.1653 18.9442 32.9083 19.7116 32.9083 20.0985C32.9083 20.2854 32.2696 21.7048 31.1033 24.1095L29.2983 27.8313L28.9721 27.5621C28.2487 26.965 26.6136 26.3625 24.8417 26.04C24.4009 25.9597 23.3809 25.9148 22 25.9148C20.6191 25.9148 19.5991 25.9597 19.1583 26.04C17.3864 26.3625 15.7513 26.965 15.0279 27.5621L14.7017 27.8313L12.8967 24.1095C11.7304 21.7048 11.0917 20.2854 11.0917 20.0985C11.0917 19.8755 11.2019 19.6957 11.5729 19.3135C12.5065 18.3518 14.2789 17.5769 16.6739 17.0833C19.1706 16.5687 21.8325 16.4488 24.8875 16.7133ZM2.93333 18.1211V18.8769H3.66667H4.4V18.1211V17.3654H3.66667H2.93333V18.1211ZM39.6 18.1211V18.8769H40.3333H41.0667V18.1211V17.3654H40.3333H39.6V18.1211ZM24.1542 27.4834C26.4402 27.771 28.6 28.7299 28.6 29.4574C28.6 30.1849 26.4402 31.1439 24.1542 31.4314C23.095 31.5646 20.905 31.5646 19.8458 31.4314C17.5598 31.1439 15.4 30.1849 15.4 29.4574C15.4 28.7541 17.5657 27.7693 19.727 27.4899C20.6881 27.3657 23.1891 27.362 24.1542 27.4834Z" fill="#762D36"/>
</svg>
