<svg width="31" height="43" viewBox="0 0 31 43" fill="none" xmlns="http://www.w3.org/2000/svg">
<path fill-rule="evenodd" clip-rule="evenodd" d="M11.1506 0.098822C10.2639 0.252015 9.43758 0.527289 8.57353 0.957338C6.85114 1.81454 5.40059 3.25058 4.53654 4.95364C3.66563 6.67014 3.52061 7.57858 3.52017 11.3195L3.51982 14.1872L3.25316 14.2976C2.89105 14.4477 2.34314 15.0887 2.21693 15.5099C2.16007 15.6997 2.11357 16.0777 2.11357 16.3501C2.11357 16.7497 2.08589 16.8452 1.96996 16.8452C1.2997 16.8452 0.31366 17.6199 0.111072 18.3056C-0.0370239 18.8069 -0.0370239 23.3211 0.111072 23.8223C0.31366 24.5081 1.2997 25.2827 1.96996 25.2827C2.08589 25.2827 2.11357 25.3783 2.11357 25.7779C2.11357 26.0503 2.16007 26.4283 2.21693 26.6181C2.34314 27.0393 2.89105 27.6803 3.25316 27.8303L3.51982 27.9408L3.52017 30.8085C3.52061 34.5806 3.65447 35.4087 4.5521 37.1919C5.01097 38.1035 5.54368 38.8046 6.39631 39.6193C7.21158 40.3982 7.62906 40.6953 8.57353 41.169C10.3567 42.0633 11.2467 42.1872 15.5169 42.1353C18.9955 42.0931 19.4453 42.0439 20.9222 41.5451C25.1542 40.116 28.2772 36.3956 28.9135 32.0255C28.9643 31.6766 29.3657 27.2185 29.8056 22.1187C30.521 13.8257 30.6009 12.6977 30.5621 11.44C30.5277 10.3266 30.4718 9.84721 30.2934 9.13811C29.1507 4.59689 25.7076 1.25019 21.1194 0.22099C20.3133 0.0401991 20.0148 0.0275428 16.0442 0.00557015C12.8482 -0.0120959 11.6618 0.0104919 11.1506 0.098822ZM20.2194 1.50349C21.8271 1.7458 23.1628 2.26656 24.5566 3.19459C26.4798 4.4749 27.8459 6.256 28.6479 8.52894C29.0199 9.5831 29.1839 10.598 29.1839 11.8456C29.1839 12.8936 27.6875 30.7701 27.5037 31.9185C26.8167 36.2094 23.5746 39.5985 19.2522 40.5441C18.5933 40.6883 18.0903 40.7075 14.9895 40.7075C11.643 40.7075 11.4401 40.6983 10.7708 40.5148C8.29773 39.8368 6.39253 38.1529 5.46194 35.8226C5.00675 34.683 4.92607 33.9342 4.92607 30.8523V28.0952H6.33232H7.73857V30.7597C7.73857 32.2666 7.77935 33.6509 7.83253 33.9458C8.13944 35.6498 9.47221 37.1239 11.2542 37.7305C11.6955 37.8807 12.0437 37.8948 15.2532 37.8921C18.6208 37.8894 18.7985 37.881 19.472 37.6925C22.3017 36.9009 24.5234 34.5212 25.0502 31.7176C25.0983 31.4622 25.5169 26.894 25.9805 21.5663C26.7542 12.6758 26.8158 11.8134 26.7297 11.0771C26.359 7.90492 24.2723 5.4424 21.1419 4.48272L20.3509 4.24023L16.3549 4.20894C13.6644 4.18776 12.1712 4.20973 11.7846 4.27609C9.88284 4.60225 8.17293 6.2923 7.83253 8.18221C7.77935 8.47708 7.73857 9.86136 7.73857 11.3682V14.0327H6.33232H4.92607V11.2757C4.92607 9.19181 4.95903 8.32978 5.06098 7.74513C5.57233 4.81292 7.83938 2.36974 10.7269 1.63919C11.6775 1.39864 11.572 1.404 15.6487 1.3902C18.4976 1.38053 19.5824 1.40743 20.2194 1.50349ZM20.2388 5.71969C22.9333 6.23526 24.9485 8.39315 25.3207 11.1614C25.4085 11.8146 25.341 12.7512 24.5719 21.5453C24.1069 26.8615 23.6892 31.3776 23.6436 31.5811C23.3791 32.7611 22.7924 33.8033 21.8949 34.687C21.1211 35.449 20.3772 35.9115 19.3841 36.2482L18.681 36.4867L15.2532 36.4877L11.8255 36.4888L11.2384 36.2106C10.4215 35.8236 9.91237 35.3253 9.51704 34.5257L9.18877 33.8618L9.16152 30.9034L9.13436 27.9451L9.4063 27.8324C9.77298 27.6806 10.3208 27.0418 10.4477 26.6181C10.5046 26.4283 10.5511 26.0503 10.5511 25.7779C10.5511 25.3574 10.5752 25.2827 10.7112 25.2827C10.7993 25.2827 11.0559 25.2199 11.2814 25.143C11.7786 24.9735 12.4028 24.3204 12.5559 23.8093C12.7 23.3286 12.7 18.7994 12.5559 18.3186C12.4028 17.8076 11.7786 17.1544 11.2814 16.985C11.0559 16.9081 10.7993 16.8452 10.7112 16.8452C10.5752 16.8452 10.5511 16.7705 10.5511 16.3501C10.5511 16.0777 10.5046 15.6997 10.4477 15.5099C10.3208 15.0862 9.77298 14.4474 9.4063 14.2955L9.13436 14.1829L9.16152 11.2294L9.18877 8.2759L9.46694 7.68879C9.61987 7.36597 9.90657 6.92652 10.1039 6.71242C10.4926 6.29072 11.2907 5.82094 11.8359 5.69297C12.0235 5.64894 13.8446 5.60895 15.8827 5.60403C18.7442 5.59726 19.7365 5.62363 20.2388 5.71969ZM8.92905 15.6548C9.10624 15.8319 9.14482 15.9575 9.14482 16.3579V16.8452H6.33232H3.51982V16.3579C3.51982 15.9575 3.55841 15.8319 3.73559 15.6548L3.95128 15.439H6.33232H8.71337L8.92905 15.6548ZM11.0384 18.4673L11.2542 18.6829V21.064V23.445L11.0384 23.6607L10.8227 23.8765H6.33232H1.8419L1.62622 23.6607L1.41045 23.445V21.064V18.6829L1.62622 18.4673L1.8419 18.2515H6.33232H10.8227L11.0384 18.4673ZM3.03247 19.8735C2.89641 20.0095 2.8167 20.1897 2.8167 20.3609C2.8167 20.5321 2.89641 20.7122 3.03247 20.8482C3.16843 20.9843 3.34861 21.064 3.51982 21.064C3.69103 21.064 3.87121 20.9843 4.00717 20.8482C4.14323 20.7122 4.22295 20.5321 4.22295 20.3609C4.22295 20.1897 4.14323 20.0095 4.00717 19.8735C3.87121 19.7375 3.69103 19.6577 3.51982 19.6577C3.34861 19.6577 3.16843 19.7375 3.03247 19.8735ZM5.84497 19.8735C5.70891 20.0095 5.6292 20.1897 5.6292 20.3609C5.6292 20.5321 5.70891 20.7122 5.84497 20.8482C6.05889 21.0622 6.07427 21.064 7.73857 21.064C9.40287 21.064 9.41825 21.0622 9.63217 20.8482C9.76823 20.7122 9.84795 20.5321 9.84795 20.3609C9.84795 20.1897 9.76823 20.0095 9.63217 19.8735C9.41825 19.6595 9.40287 19.6577 7.73857 19.6577C6.07427 19.6577 6.05889 19.6595 5.84497 19.8735ZM9.14482 25.7701C9.14482 26.1704 9.10624 26.2961 8.92905 26.4732L8.71337 26.689H6.33232H3.95128L3.73559 26.4732C3.55841 26.2961 3.51982 26.1704 3.51982 25.7701V25.2827H6.33232H9.14482V25.7701Z" fill="#762D36"/>
</svg>
