<svg width="51" height="45" viewBox="0 0 51 45" fill="none" xmlns="http://www.w3.org/2000/svg">
<path d="M44.7579 2.83954C44.1816 1.1808 42.6072 0 40.7657 0H9.83999C7.99851 0 6.42411 1.1808 5.84777 2.83954L0 19.68V42.1714C0 43.7177 1.26514 44.9828 2.81143 44.9828H5.62285C7.18319 44.9828 8.43428 43.7177 8.43428 42.1714V39.36H42.1714V42.1714C42.1714 43.7177 43.4365 44.9828 44.9828 44.9828H47.7942C49.3546 44.9828 50.6057 43.7177 50.6057 42.1714V19.68L44.7579 2.83954ZM9.83999 30.9257C7.50651 30.9257 5.62285 29.042 5.62285 26.7085C5.62285 24.3751 7.50651 22.4914 9.83999 22.4914C12.1735 22.4914 14.0571 24.3751 14.0571 26.7085C14.0571 29.042 12.1735 30.9257 9.83999 30.9257ZM40.7657 30.9257C38.4322 30.9257 36.5485 29.042 36.5485 26.7085C36.5485 24.3751 38.4322 22.4914 40.7657 22.4914C43.0992 22.4914 44.9828 24.3751 44.9828 26.7085C44.9828 29.042 43.0992 30.9257 40.7657 30.9257ZM5.62285 16.8686L9.83999 4.21714H40.7657L44.9828 16.8686H5.62285Z" fill="#762D36"/>
</svg>
