<svg width="32" height="45" viewBox="0 0 32 45" fill="none" xmlns="http://www.w3.org/2000/svg">
<path fill-rule="evenodd" clip-rule="evenodd" d="M17.8311 0.23209C17.6244 0.439601 17.6 0.543687 17.6 1.21708V1.97007L17.1405 2.12341C16.611 2.3001 15.9449 2.75304 15.5924 3.17647C15.3644 3.45006 15.2946 3.4736 14.5383 3.53203C12.1824 3.71392 9.61986 4.66809 7.59991 6.11546C6.62042 6.81741 5.18918 8.25419 4.49308 9.23436C3.42127 10.7436 2.656 12.4477 2.18682 14.3697L1.94457 15.3624L1.88141 21.791C1.82099 27.9561 1.81007 28.2524 1.61496 29.0231C1.50306 29.4651 1.38955 29.9224 1.36273 30.0394C1.32056 30.2236 1.25365 30.2521 0.861647 30.2521C0.510494 30.2521 0.363483 30.3011 0.204612 30.4709L0 30.6897V37.6128V44.5359L0.231059 44.7679L0.462023 45H3.76659C7.03981 45 7.35567 44.9732 7.55153 44.6786C7.58955 44.6214 7.62127 41.4182 7.62212 37.5605L7.62353 30.5464L7.41431 30.3993C7.29863 30.3179 7.01176 30.2521 6.77233 30.2521H6.33958L6.08141 29.0467L5.82334 27.8414L5.85515 21.7437C5.88612 15.8288 5.89318 15.6243 6.09082 14.9204C7.24339 10.8158 10.6839 7.83955 14.6708 7.49817C15.3272 7.44192 15.3746 7.45109 15.5393 7.66636C15.6895 7.86252 15.7138 8.07656 15.7156 9.2198L15.7176 10.5456L14.8976 10.7152C12.5237 11.206 10.5402 12.8685 9.63106 15.1294C9.11624 16.4096 9.13224 15.9276 9.13817 29.9685C9.14231 39.6724 9.17177 43.0437 9.25421 43.2684C9.48085 43.8859 9.93619 44.399 10.5072 44.6807L11.0588 44.9527H18.3059H25.5529L26.0348 44.6974C26.5854 44.4056 26.9552 44.0048 27.2384 43.3929C27.4345 42.969 27.4354 42.9219 27.4629 30.5357C27.4811 22.3246 27.4569 17.7881 27.3918 17.1737C27.3375 16.6621 27.1849 15.9176 27.0529 15.5193C26.2408 13.0715 24.0048 11.1129 21.5272 10.6796L20.8941 10.5689V9.21403C20.8941 7.86536 20.8954 7.85704 21.1839 7.39097C21.3432 7.13345 21.5297 6.75841 21.5981 6.55752C21.7124 6.22201 21.754 6.18986 22.1075 6.1632C22.6683 6.12095 24.4496 6.38764 25.7713 6.71181C26.9694 7.00573 28.2902 7.46802 29.2935 7.94486C29.9858 8.27376 30.2381 8.29286 30.4941 8.03571C30.7476 7.78112 30.7347 7.36175 30.4656 7.10783C30.0039 6.6721 27.2756 5.63965 25.7553 5.32532C25.3076 5.23276 24.9413 5.13463 24.9415 5.10741C24.9416 5.08008 25.6934 4.84884 26.612 4.59359C30.8775 3.40809 31.7541 3.1378 31.8757 2.97076C31.9628 2.85107 32 2.45051 32 1.63201C32 0.518067 31.9894 0.453403 31.7689 0.23209L31.538 0H24.8H18.062L17.8311 0.23209ZM30.6824 1.69497C30.6824 2.06187 30.6762 2.0682 30.1882 2.20973C28.0224 2.83812 21.9009 4.53782 21.8037 4.53782C21.7366 4.53782 21.5842 4.30147 21.465 4.01266C21.1786 3.31875 20.4921 2.62182 19.7453 2.26692C19.4195 2.11207 19.1 1.98539 19.0353 1.98539C18.9636 1.98529 18.9176 1.85606 18.9176 1.65441V1.32353H24.8H30.6824V1.69497ZM19.2759 3.48854C19.9892 3.85412 20.4269 4.58187 20.4362 5.41796C20.4437 6.08691 20.199 6.64506 19.7078 7.07937C19.0104 7.69585 18.0758 7.81194 17.2468 7.38492C16.2098 6.85078 15.8031 5.53973 16.3391 4.45916C16.8818 3.36536 18.191 2.93256 19.2759 3.48854ZM14.7765 5.47232V6.12321L14 6.23505C13.0134 6.37714 11.4896 6.88405 10.5095 7.39626C7.99407 8.71071 5.98814 11.0718 5.08424 13.7819C4.54353 15.403 4.51765 15.7649 4.51765 21.7088V27.1324H3.85412H3.19068L3.22522 21.3419C3.26278 15.0592 3.25656 15.1409 3.82409 13.4306C4.59492 11.1079 6.22983 8.80724 8.14118 7.3557C9.76932 6.11924 11.905 5.21953 13.9165 4.92277C14.8449 4.78579 14.7765 4.74211 14.7765 5.47232ZM18.2588 8.93382C18.5953 8.93382 19.0311 8.8997 19.2271 8.858L19.5836 8.78209L19.5565 9.66158L19.5294 10.541L18.2824 10.5673L17.0353 10.5937V9.6854V8.77699L17.3412 8.85545C17.5095 8.89856 17.9224 8.93382 18.2588 8.93382ZM21.673 12.0603C23.7196 12.593 25.3707 14.259 25.9555 16.381C26.1053 16.9247 26.1176 17.9532 26.1176 29.8907C26.1176 42.8106 26.1176 42.8117 25.9227 43.0787C25.4677 43.7018 25.7961 43.6762 18.2793 43.6763C10.782 43.6765 11.0032 43.6934 10.6377 43.0913C10.4497 42.7815 10.4477 42.6503 10.4474 29.9127C10.4471 17.4092 10.4523 17.0265 10.6329 16.3168C10.9069 15.241 11.3231 14.5278 12.187 13.6539C12.995 12.8364 13.8466 12.3309 14.8706 12.0608C15.6529 11.8544 20.8805 11.854 21.673 12.0603ZM12.1412 21.271C11.9567 21.4563 11.9529 21.5861 11.9529 27.7887V34.1175L12.1622 34.2646C12.3461 34.394 13.0883 34.4118 18.32 34.4118H24.2687L24.4637 34.1627C24.6566 33.9165 24.6588 33.8426 24.6588 27.7298V21.546L24.4278 21.314L24.1968 21.0819H18.2631C12.4549 21.0819 12.3255 21.0859 12.1412 21.271ZM23.3412 27.7468V33.0882H18.3059H13.2706V27.7468V22.4055H18.3059H23.3412V27.7468ZM4.75454 29.1886C4.84019 29.5915 4.93064 29.9957 4.95558 30.0867C4.99699 30.2376 4.90137 30.2521 3.86513 30.2521C2.84574 30.2521 2.7296 30.2352 2.73082 30.0867C2.73214 29.9254 2.97318 28.8099 3.05769 28.5741C3.08668 28.4929 3.33515 28.4559 3.84941 28.4559H4.59896L4.75454 29.1886ZM6.30588 37.6261V43.6765H3.81176H1.31765V37.6261V31.5756H3.81176H6.30588V37.6261Z" fill="#762D36"/>
<path d="M23.3412 27.7468V33.0882H18.3059H13.2706V27.7468V22.4055H18.3059H23.3412V27.7468Z" fill="#762D36"/>
<path d="M19.2759 3.48854C19.9892 3.85412 20.4269 4.58187 20.4362 5.41796C20.4437 6.08691 20.199 6.64506 19.7078 7.07937C19.0104 7.69585 18.0758 7.81194 17.2468 7.38492C16.2098 6.85078 15.8031 5.53973 16.3391 4.45916C16.8818 3.36536 18.191 2.93256 19.2759 3.48854Z" fill="#762D36"/>
<path d="M6.30588 37.6261V43.6765H3.81176H1.31765V37.6261V31.5756H3.81176H6.30588V37.6261Z" fill="#762D36"/>
</svg>
