<svg width="45" height="46" viewBox="0 0 45 46" fill="none" xmlns="http://www.w3.org/2000/svg">
<path fill-rule="evenodd" clip-rule="evenodd" d="M2.57181 0.0922824C1.60732 0.321359 0.728736 1.05335 0.279113 2.00228L0 2.59155V22.5093V42.4271L0.279113 43.0164C0.634292 43.7661 1.21125 44.343 1.96091 44.6982L2.55018 44.9773H18.1151H33.68L34.2516 44.7051C35.5323 44.0955 36.2741 42.866 36.2741 41.3534V40.8003H37.2367H38.1992L38.226 42.7428L38.2527 44.6854L38.4694 44.8606C38.6732 45.0256 38.7952 45.0342 40.5359 45.0066L42.3858 44.9773L42.975 44.6982C43.7247 44.343 44.3017 43.7661 44.6568 43.0164L44.9359 42.4271L44.9613 37.2161L44.9865 32.0052L44.7674 31.786C44.4891 31.5078 44.1529 31.5066 43.8767 31.7828L43.6609 31.9986V36.9553C43.6609 42.5197 43.6707 42.4238 43.0334 43.0675C42.5174 43.5886 42.0997 43.7022 40.6993 43.7022H39.5278V22.5093V1.31646H40.6993C42.0997 1.31646 42.5174 1.43007 43.0334 1.95119C43.7076 2.63209 43.6609 1.55213 43.6609 16.4614V29.8161L43.8767 30.0319C44.1522 30.3075 44.4891 30.307 44.7654 30.0306L44.9826 29.8134L44.9593 16.2025L44.9359 2.59155L44.6568 2.00228C44.3017 1.25261 43.7247 0.675658 42.975 0.32048L42.3858 0.0413667L40.5359 0.0120836C38.7952 -0.0155287 38.6732 -0.00691088 38.4694 0.158059L38.2527 0.333318L38.226 2.27585L38.1992 4.21839H37.2367H36.2741V3.66526C36.2741 2.1428 35.5413 0.928302 34.2516 0.313708L33.68 0.0413667L18.291 0.0275605C9.52809 0.0197341 2.75982 0.0476102 2.57181 0.0922824ZM33.4726 1.41855C33.9136 1.55063 34.4698 2.03033 34.7162 2.49104L34.9111 2.85536L34.935 10.1945L34.959 17.5338L35.1483 17.7351C35.3998 18.0029 35.7822 17.9968 36.0582 17.7207L36.2741 17.5049V15.1705V12.8362H37.2414H38.2087V22.2455V31.6548H37.2432H36.2777L36.2539 25.6233L36.2302 19.5918L36.0225 19.4237C35.7585 19.2099 35.4707 19.2099 35.2067 19.4237L34.999 19.5918L34.9551 30.8775L34.9111 42.1633L34.7162 42.5276C34.4698 42.9883 33.9136 43.468 33.4726 43.6001C32.9762 43.7488 3.24585 43.7465 2.74927 43.5977C2.55739 43.5402 2.21013 43.3221 1.97753 43.113C1.20799 42.4211 1.27509 44.3901 1.27509 22.5093C1.27509 1.63356 1.25355 2.67438 1.6964 2.14966C1.91958 1.88515 2.42637 1.52733 2.72606 1.4226C3.12028 1.2848 33.0131 1.28084 33.4726 1.41855ZM4.19232 4.42187L4.00115 4.62545V17.0009V29.3764L4.21703 29.5922C4.4921 29.8674 4.82925 29.8674 5.10432 29.5922L5.32021 29.3764V22.5133V15.6502H18.1151H30.91V27.5657V39.4812H29.5093H28.1087L28.3671 38.9756C28.7872 38.1532 28.8188 37.753 28.7782 33.7682C28.7412 30.1461 28.739 30.1087 28.5065 29.2386C28.2039 28.107 27.5438 26.7717 26.8759 25.9403L26.3472 25.2822L26.3202 22.203C26.2907 18.8332 26.2973 18.8775 25.7449 18.3525C25.387 18.0124 25.0416 17.9366 23.8507 17.9366C22.4634 17.9366 22.0357 18.1125 21.6672 18.8344C21.5132 19.136 21.5007 19.3913 21.5007 22.2066V25.2524L21.1502 25.6505C20.3431 26.5675 19.6365 27.9103 19.2864 29.1926C19.0863 29.9255 19.0824 30.0211 19.0824 34.1171V38.2941L19.342 38.8217C19.4848 39.1119 19.6167 39.379 19.6351 39.4153C19.6535 39.4516 18.976 39.4812 18.1294 39.4812H16.5902L16.8448 38.9718C16.9868 38.6876 17.1384 38.1919 17.1878 37.8506C17.3066 37.0287 17.3055 29.0526 17.1866 28.3193C17.1121 27.8601 16.8454 27.0598 16.5176 26.3126C16.4889 26.2472 16.5356 26.2016 16.6327 26.1999C16.8558 26.1961 17.0803 26.0121 17.1792 25.752C17.2783 25.4915 17.1107 25.0268 16.8865 24.9408C16.6398 24.8461 7.96536 24.8737 7.78588 24.9697C7.32808 25.2147 7.45172 26.0706 7.95955 26.1722C8.11142 26.2025 8.21334 26.27 8.19004 26.3246C7.41997 28.1305 7.43395 28.0066 7.43272 33.0618C7.43219 35.4609 7.47001 37.6515 7.51705 37.9423C7.56401 38.2325 7.71922 38.6974 7.86194 38.9756L8.12145 39.4812H6.72087H5.32021V35.5201V31.5589L5.10432 31.3431C4.82925 31.0679 4.4921 31.0679 4.21703 31.3431L4.00115 31.5589V35.9884V40.4179L4.20463 40.6091L4.40821 40.8003H18.1364H31.8645L32.0467 40.5686L32.229 40.3369V22.5093V4.68182L32.0467 4.4501L31.8645 4.21839H18.124H4.38358L4.19232 4.42187ZM30.91 9.93431V14.3312H29.5469C28.7973 14.3312 28.1839 14.3115 28.1839 14.2874C28.1839 14.2634 28.3172 14.0556 28.4802 13.8257C29.6034 12.2412 29.4085 10.0254 28.0233 8.63161C26.2298 6.82696 23.3489 6.99756 21.7865 9.00086L21.5886 9.25455L21.3952 9.00086C20.0742 7.2677 17.6258 6.87216 15.7934 8.09581C15.4982 8.29287 15.1176 8.62404 14.9475 8.83166L14.6381 9.20918L14.0462 8.61974C13.1775 7.75452 12.3139 7.39072 11.1181 7.38624C9.59862 7.38061 8.11415 8.3043 7.44697 9.6705C6.71911 11.1609 6.88285 12.6901 7.92491 14.1333L8.06772 14.3312H6.69396H5.32021V9.93431V5.53745H18.1151H30.91V9.93431ZM38.2087 8.52731V11.5172H37.2414H36.2741V8.52731V5.53745H37.2414H38.2087V8.52731ZM12.1513 8.8926C12.8344 9.14815 13.4931 9.80689 13.7486 10.49C14.2734 11.8923 13.6607 13.4157 12.3112 14.0645C11.6622 14.3765 10.6467 14.3736 9.98088 14.0578C8.93768 13.5629 8.35562 12.6535 8.35466 11.5172C8.35431 11.146 8.409 10.7231 8.47979 10.5499C9.09271 9.04993 10.6695 8.33816 12.1513 8.8926ZM19.3557 8.99171C19.6027 9.1179 19.9858 9.42234 20.2068 9.66821C21.4565 11.0581 20.9615 13.3011 19.2298 14.0959C18.5908 14.3891 17.5699 14.3649 16.9101 14.041C15.1719 13.1874 14.7574 10.8834 16.1025 9.55196C16.7363 8.92453 17.3324 8.69747 18.247 8.73511C18.7468 8.75577 19.0153 8.81786 19.3557 8.99171ZM26.27 8.9626C26.8441 9.23618 27.3664 9.76916 27.6398 10.3604C27.9434 11.0165 27.9606 11.9704 27.6801 12.5915C27.4177 13.1729 26.7707 13.8332 26.2241 14.0777C25.597 14.3582 24.5394 14.3676 23.9522 14.098C23.3619 13.8269 22.8638 13.3366 22.5591 12.7269C22.0443 11.6967 22.2517 10.3999 23.0667 9.5531C23.3809 9.22668 23.8609 8.92945 24.3147 8.78022C24.7223 8.6462 25.8214 8.74865 26.27 8.9626ZM9.40929 10.9105C8.98077 11.1564 8.88536 11.6102 9.19287 11.9402C9.35151 12.1106 9.46275 12.1327 10.1602 12.1327C10.831 12.1327 10.9744 12.1065 11.1241 11.9569C11.361 11.72 11.3564 11.2438 11.1151 11.0254C10.8936 10.8249 9.69869 10.7445 9.40929 10.9105ZM16.391 10.9072C16.1715 10.992 15.9606 11.3087 15.9606 11.5534C15.9606 11.6172 16.0427 11.7736 16.1429 11.901C16.3163 12.1216 16.3644 12.1327 17.1406 12.1327C18.026 12.1327 18.1737 12.0637 18.2905 11.5955C18.3333 11.424 18.2931 11.3024 18.131 11.1141C17.9332 10.8841 17.8574 10.8601 17.2672 10.8403C16.9113 10.8284 16.5171 10.8585 16.391 10.9072ZM23.3882 10.8974C22.9612 11.0705 22.8247 11.6223 23.1264 11.9557C23.265 12.1089 23.3966 12.1327 24.102 12.1327C24.8782 12.1327 24.9263 12.1216 25.0997 11.901C25.3957 11.5248 25.3081 11.1493 24.8701 10.916C24.6523 10.8001 23.6592 10.7876 23.3882 10.8974ZM14.8901 14.0722L15.0946 14.3312H14.6456H14.1966L14.3916 14.0674C14.4989 13.9223 14.6089 13.8057 14.6361 13.8084C14.6633 13.8111 14.7776 13.9298 14.8901 14.0722ZM21.8385 14.0674L22.0336 14.3312H21.5846H21.1355L21.3401 14.0722C21.4526 13.9298 21.5669 13.8111 21.5941 13.8084C21.6212 13.8057 21.7312 13.9223 21.8385 14.0674ZM24.9308 19.4326C24.9829 19.5299 25.0139 19.9158 24.9999 20.29L24.9742 20.9704L23.897 20.9951L22.8197 21.0199V20.189C22.8197 19.6067 22.8526 19.345 22.9296 19.3139C22.9901 19.2895 23.4438 19.2664 23.9378 19.2626C24.7518 19.2563 24.845 19.2723 24.9308 19.4326ZM25.0182 24.0893V25.8451L25.5963 26.4856C26.2065 27.1617 26.9111 28.4466 27.1649 29.3465L27.295 29.8081H23.9072H20.5194L20.58 29.5223C20.7962 28.5039 21.5706 27.1094 22.4335 26.1845L22.8197 25.7706V24.052V22.3335H23.9189H25.0182V24.0893ZM15.3938 27.1041C15.8023 27.9663 15.8224 28.0445 15.8568 28.9068L15.8926 29.8081H12.3212H8.74976V29.3364C8.74976 28.5748 8.89811 28.0002 9.33393 27.0736L9.74363 26.2027H12.3552H14.9667L15.3938 27.1041ZM15.8727 33.3706V35.614L12.3332 35.591L8.79373 35.568L8.77025 33.3476L8.74677 31.1272H12.3097H15.8727V33.3706ZM27.4599 33.3476L27.4364 35.568L23.897 35.591L20.3575 35.614V33.3706V31.1272H23.9204H27.4834L27.4599 33.3476ZM38.2087 36.2276V39.4812H37.2414H36.2741V36.2276V32.9739H37.2414H38.2087V36.2276ZM15.8707 37.4367C15.8685 38.0396 15.6617 38.5326 15.2459 38.9271C14.7028 39.4425 14.5004 39.4812 12.3552 39.4812C10.2093 39.4812 10.0045 39.4419 9.4675 38.9271C9.05983 38.5363 8.86038 38.1096 8.78845 37.4742L8.72707 36.9311H12.2999H15.8727L15.8707 37.4367ZM27.4502 37.4597C27.3855 38.0784 27.1714 38.5353 26.7627 38.9271C26.229 39.4388 26.0135 39.4812 23.9539 39.4812C22.8137 39.4812 21.9629 39.4424 21.7576 39.3809C20.9688 39.1445 20.36 38.2795 20.3584 37.3927L20.3575 36.9311H23.9314H27.5055L27.4502 37.4597Z" fill="#762D36"/>
<path d="M4.21703 29.5922L4.00115 29.3764V31.5589L4.21703 31.3431C4.4921 31.0679 4.82925 31.0679 5.10432 31.3431L5.32021 31.5589V29.3764L5.10432 29.5922C4.82925 29.8674 4.4921 29.8674 4.21703 29.5922Z" fill="#762D36"/>
<path d="M35.1483 17.7351L34.959 17.5338L34.999 19.5918L35.2067 19.4237C35.4707 19.2099 35.7585 19.2099 36.0225 19.4237L36.2302 19.5918L36.2741 17.5049L36.0582 17.7207C35.7822 17.9968 35.3998 18.0029 35.1483 17.7351Z" fill="#762D36"/>
<path d="M44.7674 31.786L44.9865 32.0052L44.9826 29.8134L44.7654 30.0306C44.4891 30.307 44.1522 30.3075 43.8767 30.0319L43.6609 29.8161V31.9986L43.8767 31.7828C44.1529 31.5066 44.4891 31.5078 44.7674 31.786Z" fill="#762D36"/>
<path d="M15.8727 33.3706V35.614L12.3332 35.591L8.79373 35.568L8.77025 33.3476L8.74677 31.1272H12.3097H15.8727V33.3706Z" fill="#762D36"/>
<path d="M27.4599 33.3476L27.4364 35.568L23.897 35.591L20.3575 35.614V33.3706V31.1272H23.9204H27.4834L27.4599 33.3476Z" fill="#762D36"/>
<path d="M24.9308 19.4326C24.9829 19.5299 25.0139 19.9158 24.9999 20.29L24.9742 20.9704L23.897 20.9951L22.8197 21.0199V20.189C22.8197 19.6067 22.8526 19.345 22.9296 19.3139C22.9901 19.2895 23.4438 19.2664 23.9378 19.2626C24.7518 19.2563 24.845 19.2723 24.9308 19.4326Z" fill="#762D36"/>
<path fill-rule="evenodd" clip-rule="evenodd" d="M34.7162 2.49104C34.4698 2.03033 33.9136 1.55063 33.4726 1.41855C33.0131 1.28084 3.12028 1.2848 2.72606 1.4226C2.42637 1.52733 1.91958 1.88515 1.6964 2.14966C1.25355 2.67438 1.27509 1.63356 1.27509 22.5093C1.27509 44.3901 1.20799 42.4211 1.97753 43.113C2.21013 43.3221 2.55739 43.5402 2.74927 43.5977C3.24585 43.7465 32.9762 43.7488 33.4726 43.6001C33.9136 43.468 34.4698 42.9883 34.7162 42.5276L34.9111 42.1633L34.9551 30.8775L34.999 19.5918L34.959 17.5338L34.935 10.1945L34.9111 2.85536L34.7162 2.49104ZM4.00115 4.62545L4.19232 4.42187L4.38358 4.21839H18.124H31.8645L32.0467 4.4501L32.229 4.68182V22.5093V40.3369L32.0467 40.5686L31.8645 40.8003H18.1364H4.40821L4.20463 40.6091L4.00115 40.4179V35.9884V31.5589V29.3764V17.0009V4.62545Z" fill="#762D36"/>
<path d="M43.6609 36.9553V31.9986V29.8161V16.4614C43.6609 1.55213 43.7076 2.63209 43.0334 1.95119C42.5174 1.43007 42.0997 1.31646 40.6993 1.31646H39.5278V22.5093V43.7022H40.6993C42.0997 43.7022 42.5174 43.5886 43.0334 43.0675C43.6707 42.4238 43.6609 42.5197 43.6609 36.9553Z" fill="#762D36"/>
</svg>
