<svg width="34" height="45" viewBox="0 0 34 45" fill="none" xmlns="http://www.w3.org/2000/svg">
<path d="M0.70302 44.9828C0.889473 44.9828 1.06829 44.9087 1.20013 44.7769C1.33197 44.6451 1.40604 44.4662 1.40604 44.2798V36.5142C1.40604 34.9774 2.22576 33.5292 3.54463 32.739L9.04787 29.4362L12.068 33.2114C12.1299 33.2886 12.2074 33.3519 12.2953 33.3971C12.3832 33.4424 12.4797 33.4688 12.5784 33.4744L12.6178 33.4758C12.8034 33.4758 12.9834 33.4027 13.1155 33.2705L14.7648 31.6212V44.2798C14.7648 44.4662 14.8389 44.6451 14.9707 44.7769C15.1026 44.9087 15.2814 44.9828 15.4679 44.9828C15.6543 44.9828 15.8331 44.9087 15.965 44.7769C16.0968 44.6451 16.1709 44.4662 16.1709 44.2798V30.225L16.1695 30.2166L16.8725 29.5121L17.5769 30.2166L17.5755 30.225V44.2798C17.5755 44.4662 17.6496 44.6451 17.7814 44.7769C17.9133 44.9087 18.0921 44.9828 18.2785 44.9828C18.465 44.9828 18.6438 44.9087 18.7756 44.7769C18.9075 44.6451 18.9815 44.4662 18.9815 44.2798V31.6212L20.6308 33.2705C20.6962 33.3357 20.7739 33.3875 20.8593 33.4227C20.9447 33.4579 21.0362 33.4759 21.1286 33.4758L21.1679 33.4744C21.2667 33.4688 21.3632 33.4424 21.4511 33.3971C21.539 33.3519 21.6164 33.2886 21.6783 33.2114L24.6985 29.4362L30.2032 32.739C30.853 33.1323 31.3908 33.6861 31.7648 34.3473C32.1388 35.0084 32.3365 35.7546 32.3389 36.5142V44.2798C32.3389 44.4662 32.413 44.6451 32.5448 44.7769C32.6767 44.9087 32.8555 44.9828 33.042 44.9828C33.2284 44.9828 33.4072 44.9087 33.5391 44.7769C33.6709 44.6451 33.745 44.4662 33.745 44.2798V36.5142C33.745 34.4853 32.6637 32.5773 30.9245 31.534L24.9825 27.9697L22.7554 25.4951C22.6626 25.396 22.5427 25.3266 22.4106 25.2956C22.2784 25.2645 22.1401 25.2733 22.013 25.3207V22.8278C23.1132 22.0224 24.0082 20.9691 24.6255 19.7534C25.2428 18.5376 25.565 17.1935 25.566 15.83V12.5173L26.6613 6.41372C26.7637 5.85855 26.7539 5.28849 26.6324 4.73718C26.511 4.18587 26.2803 3.66447 25.9541 3.20373C25.6306 2.74099 25.2178 2.3477 24.7399 2.04706C24.262 1.74641 23.7287 1.54449 23.1715 1.45321L14.7944 0.0570125C14.1946 -0.0429937 13.5803 -0.0111528 12.9942 0.15032C12.408 0.311794 11.8641 0.599023 11.4002 0.992029C10.6087 1.66388 10.0968 2.60709 9.96461 3.63679C9.13504 3.79146 8.38422 4.23436 7.84289 4.90363C7.50675 5.31784 7.26782 5.80219 7.14372 6.32099C7.01962 6.83979 7.0135 7.37983 7.12581 7.90131L8.16066 12.7451C8.16207 12.755 8.1691 12.7592 8.1705 12.7662V15.8286C8.1705 18.6983 9.57373 21.2418 11.7236 22.8264V25.3179C11.5972 25.2727 11.4603 25.2653 11.3297 25.2965C11.1992 25.3277 11.0805 25.3962 10.9882 25.4937L8.76244 27.9669L2.82052 31.5326C1.96234 32.0511 1.25208 32.7817 0.758088 33.6542C0.264101 34.5267 0.00302766 35.5116 0 36.5142V44.2798C0 44.4662 0.0740681 44.6451 0.20591 44.7769C0.337752 44.9087 0.516568 44.9828 0.70302 44.9828ZM23.6102 28.5448L21.0695 31.721L18.0732 28.7248L22.0622 26.8252L23.6102 28.5448ZM8.93539 5.78944C9.1385 5.5372 9.39572 5.33384 9.68801 5.19439C9.9803 5.05494 10.3002 4.98296 10.624 4.98378C11.0121 4.98378 11.3271 4.57462 11.3271 4.18655C11.3263 3.82142 11.3977 3.45974 11.537 3.12224C11.6764 2.78474 11.881 2.47808 12.1391 2.21982C12.3972 1.96157 12.7038 1.75682 13.0412 1.6173C13.3786 1.47779 13.7403 1.40626 14.1054 1.40681C14.259 1.40693 14.4123 1.41963 14.5638 1.44477L22.941 2.84097C23.7002 2.96752 24.3611 3.3837 24.804 4.0122C25.2469 4.64211 25.4156 5.40559 25.2764 6.16345L24.4004 11.0438L22.9016 9.34531V7.83382C22.9016 7.64737 22.8275 7.46855 22.6957 7.33671C22.5638 7.20487 22.385 7.1308 22.1986 7.1308H11.538C11.3515 7.1308 11.1727 7.20487 11.0409 7.33671C10.909 7.46855 10.8349 7.64737 10.8349 7.83382V9.3411L9.24612 11.1057L8.49951 7.60885C8.36313 6.96489 8.52201 6.30124 8.93539 5.78944ZM9.57654 15.8286V12.8407L12.061 10.0807C12.1771 9.95182 12.2412 9.78448 12.241 9.61106V8.53684H21.4955V9.61106C21.4955 9.78259 21.5574 9.94851 21.6713 10.0765L24.16 12.8956V15.8286C24.1595 17.0224 23.8659 18.1979 23.305 19.2519C22.7441 20.3058 21.933 21.2059 20.943 21.8731L20.9402 21.8745C20.5952 22.1018 20.2316 22.2993 19.8533 22.4651C19.6803 22.5424 19.5004 22.6029 19.3218 22.6661C18.8965 22.8181 18.4584 22.9315 18.0128 23.005C17.8834 23.0261 17.7513 23.0317 17.6205 23.0444C17.1193 23.095 16.6144 23.095 16.1132 23.0444C15.9839 23.0303 15.8517 23.0261 15.7238 23.005C15.2791 22.9314 14.8419 22.818 14.4175 22.6661C14.2376 22.6029 14.0562 22.541 13.8804 22.4637C13.5041 22.2986 13.1424 22.102 12.7992 21.8759L12.7893 21.8703C11.8005 21.2029 10.9905 20.303 10.4304 19.2496C9.87023 18.1963 9.57705 17.0216 9.57654 15.8286ZM13.8565 23.978C13.9395 24.0075 14.0196 24.0412 14.1026 24.068C14.9935 24.3699 15.9276 24.5247 16.8683 24.5263C17.8085 24.5248 18.7422 24.37 19.6325 24.068C19.7169 24.0398 19.7985 24.0075 19.8828 23.9766C20.0754 23.9049 20.2667 23.8289 20.4537 23.7446C20.5043 23.7221 20.5577 23.7052 20.6083 23.6813V25.9591L16.8725 27.7391L13.1296 25.9563V23.6827C13.1788 23.7066 13.2308 23.7221 13.2801 23.7446C13.4685 23.8289 13.6611 23.9063 13.8565 23.978ZM11.6828 26.8252L15.6717 28.7248L12.6755 31.721L10.1347 28.5448L11.6828 26.8252Z" fill="#762D36"/>
<path d="M8.93539 5.78944C9.1385 5.5372 9.39572 5.33384 9.68801 5.19439C9.9803 5.05494 10.3002 4.98296 10.624 4.98378C11.0121 4.98378 11.3271 4.57462 11.3271 4.18655C11.3263 3.82142 11.3977 3.45974 11.537 3.12224C11.6764 2.78474 11.881 2.47808 12.1391 2.21982C12.3972 1.96157 12.7038 1.75682 13.0412 1.6173C13.3786 1.47779 13.7403 1.40626 14.1054 1.40681C14.259 1.40693 14.4123 1.41963 14.5638 1.44477L22.941 2.84097C23.7002 2.96752 24.3611 3.3837 24.804 4.0122C25.2469 4.64211 25.4156 5.40559 25.2764 6.16345L24.4004 11.0438L22.9016 9.34531V7.83382C22.9016 7.64737 22.8275 7.46855 22.6957 7.33671C22.5638 7.20487 22.385 7.1308 22.1986 7.1308H11.538C11.3515 7.1308 11.1727 7.20487 11.0409 7.33671C10.909 7.46855 10.8349 7.64737 10.8349 7.83382V9.3411L9.24612 11.1057L8.49951 7.60885C8.36313 6.96489 8.52201 6.30124 8.93539 5.78944Z" fill="#762D36"/>
<path d="M11.6828 26.8252L15.6717 28.7248L12.6755 31.721L10.1347 28.5448L11.6828 26.8252Z" fill="#762D36"/>
<path d="M23.6102 28.5448L21.0695 31.721L18.0732 28.7248L22.0622 26.8252L23.6102 28.5448Z" fill="#762D36"/>
<path d="M7.73335 44.9828C7.91981 44.9828 8.09862 44.9088 8.23047 44.7769C8.36231 44.6451 8.43637 44.4663 8.43637 44.2798V40.9869C8.43782 39.5369 7.89547 38.1391 6.91644 37.0696L5.85207 35.904C5.78975 35.8358 5.71461 35.7805 5.63093 35.7413C5.54724 35.7021 5.45666 35.6798 5.36436 35.6756C5.27205 35.6715 5.17982 35.6855 5.09294 35.717C5.00606 35.7484 4.92623 35.7967 4.858 35.859C4.78978 35.9213 4.73449 35.9965 4.69531 36.0802C4.65612 36.1639 4.6338 36.2544 4.62963 36.3467C4.62545 36.4391 4.63949 36.5313 4.67096 36.6182C4.70242 36.705 4.75069 36.7849 4.81301 36.8531L5.87738 38.0187C6.61988 38.8288 7.03133 39.888 7.03033 40.9869V44.2798C7.03033 44.4663 7.1044 44.6451 7.23624 44.7769C7.36809 44.9088 7.5469 44.9828 7.73335 44.9828ZM27.8932 35.904L26.8288 37.071C25.8499 38.14 25.3075 39.5373 25.3089 40.9869V44.2798C25.3089 44.4663 25.3829 44.6451 25.5148 44.7769C25.6466 44.9088 25.8254 44.9828 26.0119 44.9828C26.1983 44.9828 26.3771 44.9088 26.509 44.7769C26.6408 44.6451 26.7149 44.4663 26.7149 44.2798V40.9869C26.7149 39.8859 27.1241 38.8314 27.8664 38.0187L28.9308 36.8531C28.9931 36.785 29.0414 36.7052 29.0729 36.6184C29.1044 36.5316 29.1185 36.4395 29.1144 36.3472C29.1103 36.255 29.0881 36.1645 29.049 36.0808C29.0099 35.9972 28.9547 35.922 28.8865 35.8597C28.8184 35.7974 28.7387 35.7491 28.6519 35.7176C28.5651 35.6861 28.4729 35.672 28.3807 35.6761C28.2884 35.6803 28.1979 35.7025 28.1143 35.7416C28.0306 35.7807 27.9555 35.8359 27.8932 35.904V35.904Z" fill="#762D36"/>
</svg>
