<svg width="37" height="45" viewBox="0 0 37 45" fill="none" xmlns="http://www.w3.org/2000/svg">
<path fill-rule="evenodd" clip-rule="evenodd" d="M7.03402 4.60852C7.47955 5.11178 8.0749 6.27772 8.2808 7.05046C8.37299 7.39656 8.43777 8.09843 8.45729 8.96364C8.48937 10.3873 8.54325 10.6893 8.86791 11.2636C9.15252 11.7671 9.58082 12.0226 10.2393 12.082C10.5969 12.1142 10.7943 12.1728 10.7943 12.2465C10.7943 12.5627 10.3898 13.5946 10.0774 14.0752C9.2251 15.3862 7.73356 16.1445 5.75966 16.2705C3.62549 16.4068 2.05744 15.3251 1.3952 13.2598C1.10792 12.3641 1.00594 11.0328 1.16611 10.2689C1.31685 9.5497 1.4094 9.49814 2.00906 9.79933C2.95574 10.2747 4.1567 10.0718 4.96043 9.30081C5.71256 8.57909 5.97564 7.67352 5.98023 5.7905C5.98325 4.56033 5.99947 4.42777 6.16139 4.31007C6.45453 4.09688 6.63596 4.15893 7.03402 4.60852ZM4.00559 14.7389C3.18491 13.7088 3.18574 12.4032 4.00733 11.7158C4.3352 11.4415 4.95868 11.3771 5.32522 11.5796C5.4405 11.6433 5.88731 11.6916 6.37948 11.6935L7.2336 11.6967L7.58612 12.0724C8.30509 12.8385 8.29803 13.908 7.56816 14.7883C7.15214 15.2901 6.68297 15.4732 5.8063 15.4755C4.92799 15.478 4.43307 15.2755 4.00559 14.7389Z" fill="#762D36"/>
<path fill-rule="evenodd" clip-rule="evenodd" d="M2.27178 4.93376C2.04681 4.64934 2.07797 4.21313 2.33693 4.02127C2.73196 3.72864 3.18867 4.01434 3.18867 4.55404C3.18867 4.8074 3.13451 4.93686 2.98497 5.04099C2.69073 5.24588 2.49555 5.21655 2.27178 4.93376ZM8.2808 7.05046C8.0749 6.27772 7.47955 5.11178 7.03402 4.60852C6.63596 4.15893 6.45453 4.09688 6.16139 4.31007C5.99947 4.42777 5.98325 4.56033 5.98023 5.7905C5.97564 7.67352 5.71256 8.57909 4.96043 9.30081C4.1567 10.0718 2.95574 10.2747 2.00906 9.79933C1.4094 9.49814 1.31685 9.5497 1.16611 10.2689C1.00594 11.0328 1.10792 12.3641 1.3952 13.2598C2.05744 15.3251 3.62549 16.4068 5.75966 16.2705C7.73356 16.1445 9.2251 15.3862 10.0774 14.0752C10.3898 13.5946 10.7943 12.5627 10.7943 12.2465C10.7943 12.1728 10.5969 12.1142 10.2393 12.082C9.58082 12.0226 9.15252 11.7671 8.86791 11.2636C8.54325 10.6893 8.48937 10.3873 8.45729 8.96364C8.43777 8.09843 8.37299 7.39656 8.2808 7.05046ZM10.9619 8.6762C10.7352 8.47222 10.7436 7.96642 10.9776 7.73374C11.0784 7.63352 11.2434 7.55153 11.3441 7.55153C11.8061 7.55153 12.0736 8.29639 11.7423 8.66035C11.5534 8.86779 11.1832 8.87536 10.9619 8.6762ZM4.00559 14.7389C3.18491 13.7088 3.18574 12.4032 4.00733 11.7158C4.3352 11.4415 4.95868 11.3771 5.32522 11.5796C5.4405 11.6433 5.88731 11.6916 6.37948 11.6935L7.2336 11.6967L7.58612 12.0724C8.30509 12.8385 8.29803 13.908 7.56816 14.7883C7.15214 15.2901 6.68297 15.4732 5.8063 15.4755C4.92799 15.478 4.43307 15.2755 4.00559 14.7389ZM6.23075 12.792C5.87503 12.8298 5.56265 12.8024 5.25045 12.7058L5.23447 12.7009C4.86902 12.5879 4.74401 12.5493 4.67004 12.594C4.63158 12.6173 4.60693 12.6631 4.56945 12.7328L4.5664 12.7384C4.36874 13.1056 4.54761 13.7394 4.96638 14.1556C5.1656 14.3538 5.27739 14.3843 5.8031 14.3843C6.34814 14.3843 6.43657 14.3578 6.67106 14.1247C7.00956 13.7882 7.11219 13.2815 6.90537 12.9678C6.76315 12.7519 6.71807 12.7402 6.23075 12.792ZM22.8901 42.076C22.8901 41.8816 23.0884 41.6129 23.2855 41.54C23.5737 41.4335 23.6991 41.4992 24.2829 42.0623C24.9473 42.7031 25.2073 43.2731 25.2184 44.1137C25.2254 44.63 25.1965 44.7578 25.0489 44.8654C24.6231 45.1758 24.1734 44.9235 24.1724 44.3737C24.1715 43.7451 23.9927 43.3538 23.4329 42.7556C23.1343 42.4365 22.8901 42.1308 22.8901 42.076Z" fill="#762D36"/>
<path d="M24.9661 11.2712C24.6095 11.6629 24.9952 12.1978 25.634 12.1978C26.2642 12.1978 26.5475 11.7262 26.153 11.3339C25.8624 11.0449 25.2037 11.0102 24.9661 11.2712Z" fill="#762D36"/>
<path d="M28.7664 16.992C28.5038 17.1748 28.5317 17.4538 28.897 18.3017C29.0852 18.7386 29.1632 19.0936 29.1946 19.6555L29.2369 20.417L29.0187 20.3477C28.6701 20.2372 28.0685 20.2772 27.7695 20.431C26.9821 20.8358 26.5678 22.0449 27.0203 22.6169C27.3935 23.0886 27.8824 22.8349 27.9501 22.1343C28.0028 21.5891 28.1402 21.3993 28.482 21.3993C28.6758 21.3993 28.7818 21.4753 28.9258 21.7181C29.085 21.9862 29.1663 22.037 29.4368 22.037C29.6766 22.037 29.7957 21.9805 29.9048 21.815C30.1499 21.4431 30.3103 20.6658 30.3103 19.8505C30.3103 18.9859 30.1855 18.4245 29.8068 17.5853C29.4722 16.8442 29.2009 16.6894 28.7664 16.992Z" fill="#762D36"/>
<path fill-rule="evenodd" clip-rule="evenodd" d="M26.0973 0.0495194C25.9209 0.0662824 25.323 0.122767 24.7686 0.174969C24.2142 0.227171 23.268 0.351163 22.666 0.450557C21.3752 0.663648 20.9354 0.880657 20.5112 1.51401C20.0909 2.14135 19.1215 4.0947 18.7695 5.02341L18.4673 5.82056H17.534C16.2582 5.82056 15.769 5.9758 15.1467 6.57809C14.7314 6.97995 14.6489 7.11678 14.5929 7.49477C14.5078 8.06863 14.7434 8.65908 15.2053 9.02996C15.565 9.31885 16.2478 9.45587 17.3579 9.4617L19.0665 9.52032C19.051 9.239 19.0415 8.95207 19.0415 8.72066C19.0415 8.59849 19.0418 8.49276 19.0431 8.40086L16.8723 8.33867C16.1052 8.28701 15.9472 8.24893 15.807 8.08157C15.5745 7.80425 15.6425 7.56829 16.0486 7.24196L16.4005 6.95936L17.9379 6.93075L19.4753 6.90214L20.353 7.35584C21.0483 7.71524 22.4226 8.53399 22.6024 8.69588C22.6205 8.71219 22.4277 9.03424 22.174 9.41141C21.9202 9.78867 21.6595 10.2433 21.5946 10.4217C21.4857 10.7211 21.4552 10.7413 21.1983 10.6837C21.0452 10.6493 20.7756 10.6156 20.5992 10.6087C20.2925 10.5968 20.2759 10.5784 20.2166 10.1899C20.1825 9.96641 20.1516 9.38198 20.1479 8.89121C20.1416 8.06982 20.1232 7.98099 19.9161 7.77519C19.654 7.51454 19.5245 7.49878 19.2452 7.69338C19.0865 7.80382 19.0504 7.88217 19.0431 8.40086C19.0418 8.49276 19.0415 8.59849 19.0415 8.72066C19.0415 8.95207 19.051 9.239 19.0665 9.52032C19.0837 9.8311 19.1082 10.135 19.1352 10.3497L19.229 11.0932L18.9319 11.5123C18.5421 12.0621 18.4622 12.9472 18.745 13.5829C18.966 14.0796 19.5175 14.5566 20.0912 14.7473L20.5192 14.8897L19.8952 15.3886C19.0309 16.0796 17.2717 17.8625 16.7845 18.5413C16.2726 19.2544 15.865 20.1296 14.6698 23.0818C14.2967 24.0036 13.9626 24.8585 13.6881 25.59C13.5415 25.9807 13.4118 26.3361 13.3022 26.6478C13.0482 27.37 12.9019 27.8569 12.9019 28.0014C12.9019 28.4177 13.5566 28.6822 13.8165 28.3708C13.8783 28.2968 14.1057 27.7127 14.322 27.0726C14.8581 25.4861 16.4766 21.486 17.0784 20.2605C17.3491 19.7093 17.6761 19.1353 17.8052 18.985L18.0399 18.7117L17.9785 19.4149C17.9099 20.2008 18.0516 20.5793 18.4144 20.5793C19.1243 20.5793 19.7307 21.0492 19.8318 21.6777C19.9112 22.1715 20.0603 22.3406 20.416 22.3406C20.947 22.3406 21.0749 21.9782 20.831 21.1653C20.6468 20.5515 20.2102 20.0575 19.5969 19.7692L19.0852 19.5285L19.1532 19.0584C19.3047 18.0121 19.9246 16.8098 20.6222 16.2098C21.0161 15.8709 21.0158 15.8705 20.8168 16.5513C20.7083 16.9223 20.6796 17.2861 20.7113 17.8886C20.7488 18.6016 20.8075 18.8389 21.1353 19.6015L21.5158 20.4869L21.6057 25.2478C21.7216 31.3828 21.9253 36.0264 22.2164 39.1698L22.2718 39.7675L21.5776 39.7015C20.7259 39.6206 20.0043 39.418 19.2753 39.0549C18.4734 38.6554 17.5967 38.0121 17.4378 37.7067C17.3205 37.4812 17.3004 36.6975 17.3004 32.3504C17.3004 27.5328 17.2913 27.25 17.1328 27.1074C16.9115 26.9082 16.5413 26.9158 16.3524 27.1232C16.2206 27.2681 16.2008 27.5639 16.2008 29.3937V31.4976L15.899 31.8918C15.433 32.501 15.2775 32.4772 14.0657 31.6112C11.9379 30.0905 9.12201 27.812 9.00829 27.5189C8.93929 27.3412 9.14189 23.6616 9.22583 23.5685C9.2569 23.534 9.9152 24.0157 10.6887 24.639L13.3022 26.6478C13.4118 26.3361 13.5415 25.9807 13.6881 25.59L10.7485 23.2694C9.89174 22.5814 9.07427 21.8792 8.93196 21.7088C8.37665 21.0441 7.08259 20.5991 6.01349 20.7055L5.49365 20.7573L5.44426 20.1901C5.41704 19.878 5.3715 19.1206 5.343 18.5067L5.29113 17.3907L5.68315 17.3894C5.89876 17.3888 6.16799 17.3635 6.28134 17.3333C6.48742 17.2784 6.48752 17.2788 6.48752 18.4668C6.48752 19.7772 6.54827 19.9416 7.03265 19.9416C7.4724 19.9416 7.5371 19.7583 7.58713 18.3695L7.63295 17.0978L8.19485 16.8881C9.42211 16.4299 10.5418 15.5063 11.1474 14.4525C11.4844 13.8662 11.894 12.678 11.894 12.2866C11.894 11.5359 11.346 11.0144 10.5565 11.0138C10.0719 11.0135 9.93023 10.9256 9.69949 10.4826C9.63232 10.3537 9.57698 9.72881 9.55828 8.88829C9.53519 7.84989 9.47948 7.32468 9.33414 6.77715C8.99473 5.49806 8.27027 4.2042 7.51254 3.52357C6.80915 2.89177 5.78853 2.99317 5.16844 3.75643L4.88391 4.10663L4.87475 5.62405C4.86393 7.4156 4.74014 7.94364 4.20664 8.47404C3.83277 8.84575 3.2497 9.05055 2.84843 8.95106C2.70796 8.91626 2.41161 8.79209 2.18995 8.67511C1.71436 8.4243 1.48757 8.41173 0.993015 8.60842C0.266444 8.89749 -0.0690302 9.93762 0.0117915 11.6512C0.070346 12.8922 0.228232 13.5269 0.733414 14.551C1.22109 15.5399 1.98331 16.3233 2.90259 16.7806C3.26858 16.9626 3.70558 17.1372 3.87364 17.1685L4.17915 17.2255L4.2355 18.3785C4.26639 19.0128 4.31477 19.8641 4.34299 20.2705L4.39422 21.0093L4.0121 21.07C3.18436 21.2017 2.66846 21.6309 2.4665 22.3559C2.31081 22.9148 2.33509 25.4605 2.5015 26.0175C2.73224 26.79 3.57161 27.4098 4.38936 27.4116C4.62037 27.4121 4.62981 27.4342 4.68717 28.1091C4.71979 28.4925 4.74673 29.0767 4.74701 29.4074C4.74765 30.2337 4.87667 30.6266 5.25586 30.9577C5.51811 31.1866 5.6574 31.2384 6.00964 31.2381C6.54396 31.2377 6.99123 30.9839 7.17193 30.5786C7.25816 30.3854 7.32496 29.7815 7.36373 28.847L7.4232 27.4121H7.64257C7.7791 27.4121 7.86203 27.4651 7.86203 27.5524C7.86203 27.9207 8.28566 28.4446 9.25433 29.2743C10.5637 30.3958 14.2188 33.1356 14.6402 33.3115C14.9546 33.4426 15.7019 33.4325 16.0346 33.2927C16.1769 33.2328 16.1915 33.4117 16.2179 35.5355L16.2466 37.8435L16.4985 38.2695C16.6371 38.5039 16.8613 38.7823 16.9967 38.8881L17.2429 39.0807L17.1414 41.833C17.0288 44.885 17.0435 44.9951 17.5632 44.9951C18.0963 44.9951 18.1257 44.8766 18.2319 42.295C18.2852 40.9991 18.3443 39.9223 18.3633 39.902C18.3821 39.8818 18.6766 39.9927 19.0174 40.1485C19.8081 40.5099 20.5359 40.6977 21.5156 40.7933C22.8189 40.9205 23.4399 40.7725 23.4399 40.3347C23.4399 40.1804 23.5329 40.1666 24.5794 40.1666C25.8416 40.1666 26.1418 40.0958 26.2947 39.7622C26.3779 39.5806 26.3683 39.491 26.2457 39.3048C26.0936 39.0741 26.0887 39.0734 24.7305 39.0734C23.1988 39.0734 23.2566 39.1013 23.2567 38.3598L23.2568 37.9346L25.1114 37.9403L26.966 37.946L27.0675 38.8192C27.1859 39.8375 27.3692 40.2138 27.8893 40.5067C28.2142 40.6896 28.3775 40.7104 29.5047 40.7118C30.1945 40.7126 30.8703 40.671 31.0065 40.6196C31.1428 40.5681 31.279 40.5504 31.3091 40.5804C31.3393 40.6104 31.3969 41.5427 31.4373 42.6522C31.4976 44.3112 31.537 44.6985 31.6589 44.8323C31.8533 45.0459 32.2593 45.0399 32.459 44.8204C32.6069 44.658 32.6111 44.4743 32.5191 42.1866C32.4646 40.8341 32.4201 39.6178 32.4201 39.4839V39.2403L32.7734 39.5185C33.2342 39.8813 33.5232 39.9844 34.0791 39.9844C35.0347 39.9844 35.6985 39.369 36.1428 38.0712C36.3834 37.3688 36.3673 35.7292 36.111 34.8205L35.9264 34.1662L36.2463 33.8639C36.7053 33.43 37.0001 32.7596 37 32.1495C36.9998 31.0787 36.3564 27.6102 35.6651 24.9523C35.1949 23.1447 33.9258 19.2819 33.578 18.5995C33.1999 17.8578 31.0104 16.0018 29.6426 15.2638C29.1238 14.9838 29.1115 14.9683 29.1616 14.6576C29.1899 14.4822 29.2398 13.6008 29.2725 12.6989L29.332 11.059L30.2575 11.057C31.3453 11.0546 32.1487 10.8429 33.2765 10.2615C34.3067 9.73045 34.9481 9.12088 35.1294 8.50083C35.405 7.55818 35.0333 6.61681 34.1912 6.12467C33.7593 5.87231 33.709 5.86502 32.0839 5.82056L30.4189 5.77501L30.0232 5.49815C29.7591 5.31339 29.5357 5.0429 29.3515 4.68478C29.078 4.15328 29.075 4.13141 29.0296 2.33467L28.9838 0.521071L28.6845 0.255504C28.3907 -0.00532498 28.3678 -0.00978908 27.4016 0.00451418C26.8606 0.0125313 26.2737 0.0327563 26.0973 0.0495194ZM28.6421 5.66113C28.1257 5.07707 27.93 4.17742 27.93 2.38742V1.08318L27.2198 1.09566C25.5179 1.12573 22.1965 1.54981 21.779 1.79033C21.3857 2.01699 20.1019 4.41784 19.7336 5.61558L19.6705 5.82056H24.2269C28.5588 5.82056 28.7762 5.81273 28.6421 5.66113ZM8.2808 7.05046C8.0749 6.27772 7.47955 5.11178 7.03402 4.60852C6.63596 4.15893 6.45453 4.09688 6.16139 4.31007C5.99947 4.42777 5.98325 4.56033 5.98023 5.7905C5.97564 7.67352 5.71256 8.57909 4.96043 9.30081C4.1567 10.0718 2.95574 10.2747 2.00906 9.79933C1.4094 9.49814 1.31685 9.5497 1.16611 10.2689C1.00594 11.0328 1.10792 12.3641 1.3952 13.2598C2.05744 15.3251 3.62549 16.4068 5.75966 16.2705C7.73356 16.1445 9.2251 15.3862 10.0774 14.0752C10.3898 13.5946 10.7943 12.5627 10.7943 12.2465C10.7943 12.1728 10.5969 12.1142 10.2393 12.082C9.58082 12.0226 9.15252 11.7671 8.86791 11.2636C8.54325 10.6893 8.48937 10.3873 8.45729 8.96364C8.43777 8.09843 8.37299 7.39656 8.2808 7.05046ZM34.1135 8.10644C34.1953 7.7362 33.9584 7.22884 33.6231 7.05647C33.3797 6.93139 32.6422 6.91408 27.6368 6.91581C26.9939 6.91604 26.4189 6.9152 25.907 6.91444H25.906C23.2034 6.91047 22.2485 6.90907 22.2153 7.08222C22.1972 7.17683 22.4542 7.32353 22.8515 7.55038C22.9894 7.62908 23.1442 7.71749 23.3103 7.81664C25.3696 9.04672 27.6907 9.80953 29.8543 9.96751C30.4791 10.0131 30.7747 9.98755 31.348 9.83814C32.6304 9.50415 33.9933 8.65079 34.1135 8.10644ZM27.5928 10.7368C27.3008 10.6765 26.6054 10.4707 26.0476 10.2794C25.4897 10.0882 24.7157 9.78785 24.3275 9.61202L23.6217 9.29225L23.2663 9.76562C22.8642 10.3011 22.6103 10.7763 22.3341 11.5103C22.0895 12.16 21.8808 12.228 21.1928 11.882C20.7522 11.6603 20.6658 11.6453 20.3761 11.7403C19.6572 11.9762 19.4366 12.8319 19.9478 13.4008C20.1719 13.6501 20.2744 13.6948 20.6122 13.6906C20.8319 13.688 21.1672 13.6529 21.3573 13.6128C21.7826 13.5231 22.0654 13.7292 22.0654 14.1288C22.0654 15.0364 23.1028 15.7804 24.8144 16.1003C26.2886 16.3759 26.8725 16.3129 27.4409 15.8168C27.9007 15.4153 28.0096 15.0984 28.1127 13.8613L28.1223 13.7465C28.212 12.6715 28.2342 12.4055 28.1184 12.3159C28.0803 12.2865 28.0273 12.2761 27.9569 12.2623C27.9496 12.2609 27.9418 12.2594 27.9341 12.2578C27.7852 12.2282 27.5964 12.1023 27.5144 11.978C27.3864 11.7838 27.3827 11.7166 27.4874 11.5005C27.5545 11.3619 27.712 11.2249 27.8379 11.1955C27.9636 11.1662 28.0794 11.0756 28.0951 10.9942C28.1171 10.8808 28.0001 10.8209 27.5928 10.7368ZM32.6018 19.1194C32.333 18.5942 30.9404 17.3985 29.536 16.4871C29.1438 16.2324 28.7972 16.0276 28.7659 16.0319C28.7346 16.0361 28.5672 16.2033 28.3941 16.4032C28.2209 16.6033 27.9223 16.8561 27.7304 16.965C27.3958 17.1549 27.3816 17.1825 27.3809 17.6442C27.38 18.2235 27.1118 19.0534 26.6731 19.8337L26.3497 20.4092L26.3989 22.5669C26.4288 23.8797 26.506 25.0788 26.596 25.6291C26.8868 27.4078 27.4883 29.3887 28.2079 30.9372C28.6241 31.8329 28.6537 32.0818 28.3677 32.2809C28.0853 32.4776 27.9042 32.4586 27.6666 32.2072C27.4594 31.988 26.7159 30.326 26.4182 29.4164C26.328 29.1408 26.208 28.888 26.1517 28.8545C25.718 28.5975 24.0778 27.3011 23.4521 26.721L22.6854 26.0099L22.7453 27.9182C22.9073 33.0751 23.0923 36.6627 23.2017 36.7715C23.2402 36.8099 23.9426 36.8556 24.7625 36.8732L26.2532 36.905L26.3114 36.4829C26.383 35.9632 26.812 35.3168 27.8267 34.1993C28.6419 33.3017 29.6744 32.3641 30.5645 31.7132L31.1372 31.2944V29.7814C31.1372 28.1136 31.0243 26.3961 30.8049 24.7245C30.7259 24.1233 30.6401 23.4645 30.6143 23.2606C30.5798 22.9884 30.6082 22.8493 30.7214 22.7368C30.9219 22.5374 31.3454 22.5407 31.5262 22.743C31.7958 23.0446 32.127 25.8791 32.2076 28.5737C32.2394 29.6385 32.2777 30.5096 32.2926 30.5096C32.3076 30.5096 32.4218 30.4634 32.5465 30.4069C33.0319 30.1871 33.5697 30.6229 33.3399 31.0498C33.2915 31.1399 32.7863 31.5224 32.2174 31.9C31.2857 32.5181 29.4719 33.9674 29.4222 34.1334C29.4114 34.1696 29.6781 34.3838 30.0151 34.6093C30.3521 34.8348 30.8821 35.2555 31.1931 35.5441L31.7584 36.069L32.662 35.3688C34.3606 34.0525 35.6323 32.9508 35.7792 32.6684C35.9593 32.322 35.9164 31.6833 35.5852 29.7808C35.2044 27.594 34.7034 25.4564 34.101 23.4491C33.6669 22.0024 32.8081 19.5223 32.6018 19.1194ZM25.7655 17.3464C24.8064 17.2389 24.184 17.1134 23.4835 16.8861C23.1059 16.7635 22.6353 16.5618 22.4376 16.4377L22.0782 16.2121L21.9233 16.676C21.6709 17.4313 21.7694 18.3529 22.204 19.3039C22.4648 19.8744 22.5716 20.2462 22.6095 20.716C22.6609 21.3525 22.6618 21.3541 23.0276 21.5326C23.4776 21.7521 24.5385 21.7762 24.9519 21.5762C25.2153 21.4486 25.229 21.4128 25.2787 20.7152C25.3241 20.0785 25.3849 19.8832 25.7625 19.1584C26.0337 18.6378 26.2147 18.1581 26.2492 17.8682L26.3042 17.4067L25.7655 17.3464ZM8.10258 23.2865C8.1724 22.3832 8.12906 22.2871 7.53252 22.0241C7.08213 21.8256 5.97913 21.7267 5.67114 21.8572C5.28958 22.0189 5.21068 22.2162 5.20756 23.0164C5.20536 23.5867 5.23432 23.768 5.32788 23.768C5.50675 23.768 5.73016 23.4908 5.80539 23.1758C5.99938 22.3636 6.62772 22.3666 6.99022 23.1815C7.14179 23.5223 7.31516 23.7365 7.58108 23.9114C7.78809 24.0476 7.9763 24.1402 7.99949 24.1172C8.02267 24.0941 8.06904 23.7203 8.10258 23.2865ZM4.56319 25.6628C4.56319 25.0586 4.53826 24.9609 4.33658 24.7725C4.12078 24.5709 4.10877 24.5038 4.08458 23.3579C4.05929 22.1595 4.05847 22.1552 3.85953 22.2436C3.50783 22.3999 3.44506 22.7395 3.47833 24.3057C3.50848 25.7251 3.51617 25.7752 3.73848 25.9959C3.86448 26.121 4.10163 26.25 4.26538 26.2825L4.56319 26.3416V25.6628ZM25.0664 22.7092C24.953 22.7398 24.5922 22.7882 24.2646 22.8169C23.8797 22.8505 23.4988 22.8232 23.1879 22.7396L22.7068 22.6103V23.5325V24.4549L23.5545 25.2834C24.4828 26.1908 25.6341 27.1741 25.696 27.1126C25.7176 27.0911 25.673 26.7091 25.5969 26.2635C25.4041 25.1344 25.2743 23.9184 25.2733 23.2335C25.2726 22.6764 25.2645 22.6557 25.0664 22.7092ZM7.59483 25.1475C7.39296 25.0874 7.04026 24.8959 6.81108 24.722C6.58181 24.548 6.38434 24.4098 6.37215 24.4148C6.36005 24.4197 6.19548 24.5291 6.00643 24.6578C5.98108 24.675 5.95738 24.6903 5.93528 24.7045C5.88247 24.7384 5.83874 24.7665 5.80318 24.8026C5.6319 24.9763 5.65019 25.3348 5.75658 27.4197L5.75665 27.4212C5.76588 27.6019 5.77576 27.7956 5.78624 28.0033C5.87659 29.7936 5.91306 30.1017 6.03787 30.1253C6.16295 30.1491 6.19254 29.9854 6.24368 28.9876C6.27657 28.3465 6.3037 27.3609 6.30388 26.7972C6.30425 25.894 6.32606 25.7506 6.48752 25.59C6.86899 25.2108 7.40386 25.471 7.40386 26.036C7.40386 26.304 7.42686 26.3283 7.65586 26.3021C7.89337 26.2749 7.90941 26.2441 7.93488 25.7651L7.96192 25.2569L7.59483 25.1475ZM33.5036 38.6857C34.5102 39.5253 35.4926 37.826 35.1755 35.7939C35.1168 35.4182 35.0393 35.0815 35.0032 35.0456C34.9671 35.0097 34.7526 35.1275 34.5264 35.3073C34.3004 35.4872 33.6926 35.9603 33.1761 36.3586C32.6595 36.757 32.2368 37.1314 32.2368 37.1906C32.2368 37.3154 33.1429 38.3849 33.5036 38.6857ZM30.618 36.5069C30.324 36.2228 29.7771 35.7821 29.4028 35.5275C29.0284 35.2731 28.6714 35.0648 28.6095 35.0648C28.4139 35.0648 27.3802 36.3907 27.3802 36.6415C27.3802 36.7167 27.5234 36.8948 27.6984 37.0375C28.0128 37.2938 28.0178 37.309 28.1221 38.3445C28.1801 38.9208 28.2687 39.4435 28.3191 39.5061C28.4258 39.6389 30.5532 39.6676 30.7575 39.5389C30.9087 39.4437 31.0099 38.9292 31.0912 37.8435L31.1525 37.0235L30.618 36.5069Z" fill="#762D36"/>
</svg>
