<svg width="46" height="45" viewBox="0 0 46 45" fill="none" xmlns="http://www.w3.org/2000/svg">
<path d="M14.6325 4.52569L14.4363 4.3295L14.4258 11.3793C14.4338 8.84497 14.4642 7.29957 14.5098 7.21429C14.7132 6.83431 15.5354 6.86078 15.6856 7.25228C15.7171 7.33415 15.7428 9.00056 15.7428 10.9554V2.95619C15.7428 4.28369 15.7375 4.3222 15.5269 4.53273C15.2493 4.81043 14.9146 4.80771 14.6325 4.52569Z" fill="#762D36"/>
<path d="M43.9386 34.2012L43.7068 34.019V37.1223L43.9386 36.9401C44.2274 36.7128 44.5054 36.7081 44.7743 36.9258L44.9819 37.0939L45.0259 33.9518L44.81 34.1676C44.5463 34.4314 44.2459 34.443 43.9386 34.2012Z" fill="#762D36"/>
<path d="M37.8151 16.9883V25.183L37.5436 24.9247C37.0349 24.4408 36.4701 23.6127 36.048 22.7318C35.2315 21.0282 34.9013 19.3572 34.9013 16.9279C34.9013 13.7811 35.5811 11.3388 36.9206 9.6731C37.2342 9.28319 37.7127 8.79373 37.7804 8.79373C37.7995 8.79373 37.8151 12.4813 37.8151 16.9883Z" fill="#762D36"/>
<path d="M37.8674 30.9759C37.8435 31.1331 37.8001 31.4738 37.7712 31.733C37.61 33.1761 36.9789 33.9352 35.7222 34.1981C35.4035 34.2648 33.0178 34.2955 28.1718 34.2955H21.0874L21.145 33.9658C21.2337 33.458 21.6858 32.5959 22.0718 32.1981C22.519 31.7374 23.0068 31.4319 23.7311 31.1593C24.854 30.7366 25.3634 30.7078 31.8613 30.6986L37.911 30.6901L37.8674 30.9759Z" fill="#762D36"/>
<path fill-rule="evenodd" clip-rule="evenodd" d="M13.2598 30.3164L13.283 33.0644H7.30205H1.32108V30.2938V27.5231L7.27883 27.5457L13.2366 27.5683L13.2598 30.3164ZM4.41392 30.8C4.13446 30.5615 4.12716 30.0825 4.39889 29.8107C4.5672 29.6424 4.69198 29.6349 7.30477 29.6349H10.0349L10.2507 29.8507C10.5145 30.1145 10.5261 30.4149 10.2843 30.7222L10.1021 30.9539H7.34813C4.85273 30.9539 4.57731 30.9395 4.41392 30.8Z" fill="#762D36"/>
<path fill-rule="evenodd" clip-rule="evenodd" d="M13.2806 37.1535V39.9235H7.30082H1.32108V37.1535V34.3835H7.30082H13.2806V37.1535ZM4.41392 37.6591C4.13446 37.4207 4.12716 36.9416 4.39889 36.6698C4.5672 36.5015 4.69198 36.494 7.30477 36.494H10.0349L10.2507 36.7099C10.5145 36.9736 10.5261 37.274 10.2843 37.5813L10.1021 37.813H7.34813C4.85273 37.813 4.57731 37.7986 4.41392 37.6591Z" fill="#762D36"/>
<path fill-rule="evenodd" clip-rule="evenodd" d="M15.3829 0.20463C15.1697 0.317102 14.8766 0.57766 14.7315 0.783521L14.4677 1.15778L14.4387 2.73028L14.4096 4.30277L14.4363 4.3295L14.6325 4.52569C14.9146 4.80771 15.2493 4.81043 15.5269 4.53273C15.7375 4.3222 15.7428 4.28369 15.7428 2.95619C15.7428 1.83639 15.7672 1.571 15.8809 1.45721C16.0053 1.33295 17.2695 1.31906 28.4824 1.31906C38.0587 1.31906 40.9701 1.34351 41.0511 1.42458C41.1313 1.50478 41.1567 3.0895 41.1567 8.01988V14.5097H40.1454H39.1341V10.8603C39.1341 7.32808 39.1285 7.20523 38.9582 7.03498C38.6163 6.69308 38.0383 6.88303 37.0588 7.65934C35.4971 8.89688 34.2983 11.1034 33.8596 13.5474C33.8037 13.859 33.7401 14.2029 33.7183 14.3118L33.6787 14.5097H24.7107H15.7428V10.9554C15.7428 9.00056 15.7171 7.33415 15.6856 7.25228C15.5354 6.86078 14.7132 6.83431 14.5098 7.21429C14.4642 7.29957 14.4338 8.84497 14.4258 11.3793C14.4244 11.8161 14.4237 12.2822 14.4237 12.7753V18.1753L14.6284 18.5629C14.7408 18.7761 15.0015 19.0692 15.2074 19.2143L15.5819 19.4781L20.301 19.5221L25.0202 19.566L25.0447 20.7312L25.0692 21.8964H17.5846H10.1L10.3599 21.5666C10.7493 21.0725 11.1618 20.1981 11.3467 19.4749C11.5329 18.7473 11.7376 16.4743 11.652 16.085C11.5448 15.5966 11.4044 15.5649 9.34773 15.5649H7.47669V14.9493V14.3338H8.11916C10.0888 14.3338 11.7748 12.7768 11.8169 10.919C11.8288 10.3963 11.8123 10.3468 11.5474 10.1101C10.7687 9.41421 8.9499 9.43629 7.89905 10.1545C7.72028 10.2766 7.55205 10.3766 7.52532 10.3766C7.49859 10.3766 7.47669 10.1331 7.47669 9.83552C7.47669 9.30596 7.48628 9.28433 7.92113 8.82442C9.2466 7.42287 9.26718 5.18751 7.96729 3.79784C7.16012 2.93491 6.51747 2.87485 5.81432 3.59681C4.35861 5.09122 4.31499 7.3461 5.7132 8.82442C6.14945 9.28565 6.15763 9.30456 6.15763 9.84282C6.15763 10.1444 6.12791 10.3781 6.09168 10.3619C6.05536 10.3458 5.71205 10.1748 5.32865 9.98185C4.66947 9.65006 4.58822 9.63098 3.83371 9.6301C2.88936 9.62896 2.35267 9.77115 2.01069 10.1131C1.78706 10.3368 1.76077 10.4236 1.76077 10.9382C1.76077 11.7527 2.01508 12.3719 2.61684 13.0218C3.42744 13.8973 4.40311 14.3338 5.5499 14.3338H6.15763V14.9493V15.5649H4.09111C3.90331 15.5649 3.72975 15.5642 3.56938 15.5635C2.48643 15.5591 2.00491 15.5571 1.80186 15.7939C1.6393 15.9835 1.65523 16.3261 1.68391 16.9431C1.68922 17.0572 1.69496 17.1807 1.70009 17.3143C1.77695 19.3179 2.10513 20.4941 2.86508 21.4894L3.17585 21.8964H1.81854C0.613187 21.8964 0.437928 21.9152 0.253611 22.0645L0.0459912 22.2326L0.0230396 33.3513L0 44.4701L0.183261 44.703C0.41269 44.9946 0.882802 45.0225 1.14521 44.7601C1.30877 44.5965 1.32108 44.467 1.32108 42.9134V41.2426H7.30082H13.2806V42.9523C13.2806 44.6195 13.2854 44.6655 13.476 44.799C13.7559 44.9951 14.1876 44.9724 14.3881 44.7508C14.5501 44.5719 14.5564 44.2831 14.5789 36.0448L14.6022 27.5238L26.2306 27.546L37.859 27.5683L37.8841 28.4697L37.9091 29.3711L31.9923 29.3718C28.738 29.3721 25.7481 29.41 25.3481 29.456C24.3096 29.5754 23.5407 29.7819 22.7338 30.1582C21.827 30.581 21.1488 31.1425 20.6383 31.8929C20.0931 32.6946 19.87 33.3617 19.8113 34.3648C19.7665 35.1313 19.7761 35.1951 19.9669 35.3981L20.1703 35.6146H24.5518H28.9334V36.1862V36.7578H27.6714C26.2352 36.7578 25.9192 36.8317 25.7653 37.2032C25.6299 37.5299 25.7885 37.9703 26.0646 38.0346C26.1672 38.0586 26.8449 38.0877 27.5704 38.0995L28.8894 38.1208V40.8908V43.6609L24.5365 43.6822C20.2224 43.7033 20.1822 43.7052 20.0297 43.8898C19.828 44.1339 19.8342 44.5132 20.044 44.7723L20.212 44.9799H29.5929H38.9738L39.1418 44.7723C39.3454 44.5209 39.3582 44.1646 39.1731 43.9003L39.0362 43.7048H34.6443H30.2524V39.6671V35.6294L33.0884 35.5945C35.7057 35.5623 35.9687 35.5449 36.4997 35.3693C37.5646 35.0172 38.2076 34.4521 38.6549 33.4752C39.0451 32.6228 39.1414 31.943 39.1958 29.6568L39.2465 27.5244H41.4767H43.7068V30.7716V34.019L43.9386 34.2012C44.2459 34.443 44.5463 34.4314 44.81 34.1676L45.0259 33.9518V28.2275C45.0259 22.1718 45.0215 22.1027 44.6262 21.951C44.548 21.921 43.2802 21.8964 41.809 21.8964H39.1341V20.7092V19.5221H40.1042C41.4301 19.5221 41.9138 19.3057 42.3084 18.5363C42.4695 18.2223 42.4757 17.893 42.4757 9.76104C42.4757 1.62904 42.4695 1.2998 42.3084 0.985777C42.0969 0.573263 41.8147 0.309363 41.4001 0.136127C41.1112 0.015389 39.6431 0 28.4224 0H15.7705L15.3829 0.20463ZM7.45312 5.35714C7.77867 6.20046 7.57263 7.36985 7.00464 7.90345L6.7979 8.09762L6.52556 7.78737C6.23871 7.46069 5.98176 6.752 5.98176 6.28752C5.98176 5.83121 6.22332 5.16508 6.518 4.80876L6.79553 4.47328L7.04659 4.71388C7.18474 4.84614 7.36765 5.13563 7.45312 5.35714ZM37.8151 16.9883V25.183L37.5436 24.9247C37.0349 24.4408 36.4701 23.6127 36.048 22.7318C35.2315 21.0282 34.9013 19.3572 34.9013 16.9279C34.9013 13.7811 35.5811 11.3388 36.9206 9.6731C37.2342 9.28319 37.7127 8.79373 37.7804 8.79373C37.7995 8.79373 37.8151 12.4813 37.8151 16.9883ZM4.53633 11.0516C5.29725 11.3109 6.21189 12.4295 6.03654 12.8864C5.96918 13.0619 5.16728 13.0561 4.63931 12.8762C3.92455 12.6327 3.30257 11.9622 3.123 11.2419C3.07754 11.0592 3.10005 10.9988 3.22615 10.9663C3.57711 10.8757 4.1247 10.9113 4.53633 11.0516ZM10.3274 10.9576C10.6263 11.0723 10.3836 11.7727 9.86551 12.2908C9.40542 12.751 8.77007 13.0129 8.11151 13.0138C7.45374 13.0149 7.38902 12.9299 7.63172 12.3836C7.88639 11.8103 8.21809 11.4705 8.81334 11.1731C9.33823 10.9108 9.97086 10.8208 10.3274 10.9576ZM33.5824 17.0159V18.203H24.8008C16.9348 18.203 16.0048 18.1886 15.8809 18.0649C15.7708 17.9547 15.7428 17.714 15.7428 16.8777V15.8287H24.6625H33.5824V17.0159ZM41.1567 16.9103C41.1567 17.6343 41.1218 18.0269 41.0511 18.0975C40.9827 18.1659 40.6271 18.203 40.0399 18.203H39.1341V17.0159V15.8287H40.1454H41.1567V16.9103ZM10.2628 17.7413C10.1375 19.7155 9.53776 20.9031 8.37761 21.4743C7.80215 21.7576 7.76108 21.7645 6.64129 21.7645C5.52185 21.7645 5.48034 21.7575 4.90584 21.4747C4.56896 21.3089 4.20173 21.0456 4.04722 20.8592C3.47906 20.1734 3.13584 19.0939 3.02416 17.6418L2.96595 16.884H6.64164H10.3172L10.2628 17.7413ZM30.6042 20.7092V21.8964H28.4937H26.3832V20.7092V19.5221H28.4937H30.6042V20.7092ZM33.9294 20.512C34.0412 21.0558 34.1547 21.5897 34.1814 21.6985C34.23 21.8961 34.2286 21.8964 33.0767 21.8964H31.9233V20.7092V19.5221L32.8246 19.5227L33.726 19.5233L33.9294 20.512ZM34.9188 23.4931C35.129 24.0004 35.8933 25.0907 36.432 25.6517L36.9636 26.2053H19.1424H1.32108V24.7104V23.2154H18.0625H34.8038L34.9188 23.4931ZM43.7068 24.7104V26.2053H41.4205H39.1341V24.7104V23.2154H41.4205H43.7068V24.7104ZM13.2598 30.3164L13.283 33.0644H7.30205H1.32108V30.2938V27.5231L7.27883 27.5457L13.2366 27.5683L13.2598 30.3164ZM37.8674 30.9759C37.8435 31.1331 37.8001 31.4738 37.7712 31.733C37.61 33.1761 36.9789 33.9352 35.7222 34.1981C35.4035 34.2648 33.0178 34.2955 28.1718 34.2955H21.0874L21.145 33.9658C21.2337 33.458 21.6858 32.5959 22.0718 32.1981C22.519 31.7374 23.0068 31.4319 23.7311 31.1593C24.854 30.7366 25.3634 30.7078 31.8613 30.6986L37.911 30.6901L37.8674 30.9759ZM13.2806 37.1535V39.9235H7.30082H1.32108V37.1535V34.3835H7.30082H13.2806V37.1535ZM43.9386 36.9401L43.7068 37.1223V40.8533C43.7068 44.467 43.7124 44.5897 43.8827 44.7601C44.1461 45.0234 44.6152 44.9946 44.8464 44.7008C45.0286 44.469 45.031 44.4118 45.0066 40.7798L44.9819 37.0939L44.7743 36.9258C44.5054 36.7081 44.2274 36.7128 43.9386 36.9401Z" fill="#762D36"/>
<path d="M30.6042 20.7092V21.8964H28.4937H26.3832V20.7092V19.5221H28.4937H30.6042V20.7092Z" fill="#762D36"/>
</svg>
