<svg width="42" height="46" viewBox="0 0 42 46" fill="none" xmlns="http://www.w3.org/2000/svg">
<path fill-rule="evenodd" clip-rule="evenodd" d="M2.93821 0.215886L2.72232 0.431684V3.68941V6.94704L2.04081 6.95373C1.2266 6.96173 0.875903 7.07508 0.485814 7.45646C0.0667926 7.86616 -0.0267726 8.30541 0.00936962 9.69245C0.0381251 10.7917 0.0561523 10.8975 0.269752 11.2201C0.39603 11.4107 0.640232 11.6427 0.812589 11.7355L1.12582 11.9042L1.15458 12.9651C1.18025 13.9097 1.20593 14.0576 1.38867 14.3138C1.62012 14.6382 2.16357 14.9493 2.49896 14.9493H2.72232V27.4682V39.9871L1.94997 40.0311C1.14183 40.0771 0.792715 40.1998 0.462159 40.5539C0.084468 40.9585 -0.00399681 41.338 0.000136246 42.5368C0.00541248 44.0873 0.175571 44.5168 0.919608 44.8585C1.25755 45.0137 2.03711 45.02 20.8374 45.02C39.8707 45.02 40.4135 45.0154 40.7714 44.853C41.0027 44.7479 41.2312 44.5471 41.3869 44.3119C41.6216 43.9575 41.6361 43.8774 41.6647 42.7839C41.6984 41.4969 41.6142 41.0369 41.2701 40.6279C40.9195 40.2112 40.5791 40.0798 39.7248 40.0311L38.9525 39.9871V27.4682V14.9493H39.1758C39.5112 14.9493 40.0547 14.6382 40.2861 14.3138C40.4689 14.0576 40.4945 13.9097 40.5202 12.9651L40.549 11.9042L40.8622 11.7355C41.0346 11.6427 41.2788 11.4107 41.405 11.2201C41.6186 10.8975 41.6367 10.7917 41.6654 9.69245C41.7016 8.30541 41.608 7.86616 41.189 7.45646C40.7989 7.07508 40.4482 6.96173 39.634 6.95373L38.9525 6.94704V3.68941V0.431684L38.7366 0.215886L38.5208 0H34.84C31.2574 0 31.1541 0.00474861 30.9668 0.179304C30.7081 0.42034 30.7081 0.898719 30.9668 1.13975C31.112 1.27505 31.209 1.30837 32.7276 1.31648C33.1583 1.31878 33.7034 1.31906 34.3964 1.31906H37.6334V4.13305V6.94704H20.8374H4.04138V4.13305V1.31906H16.5119C21.5829 1.31906 24.5919 1.31896 26.3905 1.3067C29 1.28891 29.0613 1.24554 29.1748 1.13975C29.4368 0.895729 29.4315 0.442676 29.1638 0.191176L28.9603 0H16.0571H3.15401L2.93821 0.215886ZM40.2539 8.37163C40.399 8.51672 40.399 10.3898 40.2539 10.5349C40.1727 10.6161 36.7227 10.6404 25.2606 10.6404C18.7402 10.6404 15.0751 10.6407 13 10.656C10.3745 10.6754 10.2944 10.7188 10.197 10.8163C9.93511 11.0782 9.96246 11.5488 10.2528 11.7772L10.4845 11.9595H17.6691H24.8537H39.2229L39.1976 12.7729L39.1723 13.5863H20.8374H2.50248L2.47715 12.7729L2.45192 11.9595H5.30135C8.05079 11.9595 8.15887 11.953 8.3824 11.7772C8.67277 11.5488 8.70012 11.0782 8.43824 10.8163C8.31122 10.6893 8.21015 10.6539 6.80434 10.6441C6.33188 10.6408 5.71206 10.6404 4.89437 10.6404C2.39203 10.6404 1.49929 10.6133 1.42085 10.5349C1.27575 10.3898 1.27575 8.51672 1.42085 8.37163C1.57448 8.218 40.1003 8.218 40.2539 8.37163ZM37.6334 27.4804V40.0115H34.8662H32.0991L32.0742 31.2837L32.0494 22.5559L31.841 22.0949C31.6055 21.574 31.1048 21.0787 30.5665 20.8343C30.2396 20.6858 29.961 20.669 27.8128 20.6672L25.4229 20.6653L25.4216 20.6669L25.2407 20.897C25.0135 21.1858 25.0087 21.4637 25.2263 21.7327C25.3933 21.9392 25.4068 21.9406 27.7106 21.9843C30.1533 22.0307 30.2731 22.0509 30.542 22.4613C30.6734 22.6618 30.6864 23.4603 30.6864 31.3466V40.0115H28.7554H26.8244L27.1662 39.3739C27.7303 38.3216 27.9395 37.1867 27.7817 36.0346C27.574 34.5176 26.8744 32.9056 25.7962 31.4597C25.018 30.4163 24.8251 30.3803 23.9704 31.12C23.2569 31.7376 23.2596 31.7375 22.8735 31.1402C22.4736 30.5213 22.0387 29.2554 21.8883 28.2718C21.6979 27.0261 21.2464 26.8437 20.3035 27.6316C18.9612 28.7532 18.0986 30.2174 17.845 31.8051C17.7927 32.1323 17.7359 32.4139 17.7186 32.4313C17.7013 32.4485 17.4043 32.3606 17.0586 32.2359C15.8194 31.7889 15.4513 31.9654 15.3604 33.0503C15.3322 33.3864 15.1581 34.1899 14.9735 34.8358C14.662 35.9257 14.6378 36.0926 14.6378 37.1535C14.6378 38.4147 14.7435 38.867 15.2103 39.603L15.4694 40.0115H13.2289H10.9884V31.3466C10.9884 23.4456 11.0012 22.6621 11.1333 22.4604C11.4529 21.9727 11.2984 21.9843 17.4518 21.9843C22.2655 21.9843 23.1705 21.9647 23.3812 21.8557C23.7851 21.6468 23.8535 21.2738 23.557 20.897L23.376 20.6667L23.3748 20.6653L17.4234 20.6661L11.4721 20.667L11.0324 20.8752C10.4892 21.1324 10.0924 21.5412 9.82774 22.1162L9.6254 22.5559L9.6006 31.2837L9.57571 40.0115H6.80859H4.04138V27.4804V14.9493H20.8374H37.6334V27.4804ZM20.8281 29.6349C21.3188 31.4279 22.4661 33.1523 23.1684 33.1523C23.2765 33.1523 23.6681 32.9545 24.0386 32.7127C24.409 32.4708 24.725 32.273 24.7408 32.273C24.8108 32.273 25.4271 33.2779 25.7453 33.9108C26.3671 35.1475 26.6182 36.3709 26.4587 37.3858C26.3472 38.0956 25.8933 39.0558 25.4149 39.5938L25.0434 40.0115H21.1498H17.2561L16.8421 39.569C16.1996 38.882 15.9637 38.291 15.9307 37.2854C15.9065 36.5485 15.9402 36.3164 16.2167 35.3167C16.3892 34.6935 16.5547 34.0307 16.5846 33.8438C16.6145 33.657 16.675 33.5041 16.7191 33.5041C16.9451 33.5041 17.5887 33.9273 17.9646 34.3231C18.3197 34.697 18.4406 34.7704 18.7014 34.7704C19.1097 34.7704 19.3784 34.4644 19.3085 34.079C19.0533 32.6724 19.0431 32.4699 19.1933 31.774C19.275 31.3955 19.4597 30.8484 19.6036 30.5582C19.8926 29.9754 20.5841 29.0766 20.6671 29.1759C20.6961 29.2107 20.7685 29.4172 20.8281 29.6349ZM40.1894 41.4215C40.3415 41.503 40.3595 41.6134 40.3595 42.4696C40.3595 42.996 40.3355 43.4892 40.3061 43.5657C40.2576 43.692 38.4605 43.7048 20.8374 43.7048C3.21433 43.7048 1.41716 43.692 1.3687 43.5657C1.33933 43.4892 1.31533 42.9966 1.31533 42.4709C1.31533 41.6534 1.33757 41.5022 1.46922 41.4255C1.68554 41.2996 39.9541 41.2956 40.1894 41.4215Z" fill="#762D36"/>
<path d="M20.8281 29.6349C21.3188 31.4279 22.4661 33.1523 23.1684 33.1523C23.2765 33.1523 23.6681 32.9545 24.0386 32.7127C24.409 32.4708 24.725 32.273 24.7408 32.273C24.8108 32.273 25.4271 33.2779 25.7453 33.9108C26.3671 35.1475 26.6182 36.3709 26.4587 37.3858C26.3472 38.0956 25.8933 39.0558 25.4149 39.5938L25.0434 40.0115H21.1498H17.2561L16.8421 39.569C16.1996 38.882 15.9637 38.291 15.9307 37.2854C15.9065 36.5485 15.9402 36.3164 16.2167 35.3167C16.3892 34.6935 16.5547 34.0307 16.5846 33.8438C16.6145 33.657 16.675 33.5041 16.7191 33.5041C16.9451 33.5041 17.5887 33.9273 17.9646 34.3231C18.3197 34.697 18.4406 34.7704 18.7014 34.7704C19.1097 34.7704 19.3784 34.4644 19.3085 34.079C19.0533 32.6724 19.0431 32.4699 19.1933 31.774C19.275 31.3955 19.4597 30.8484 19.6036 30.5582C19.8926 29.9754 20.5841 29.0766 20.6671 29.1759C20.6961 29.2107 20.7685 29.4172 20.8281 29.6349Z" fill="#762D36"/>
<path d="M25.2407 20.897L25.4216 20.6669L23.376 20.6667L23.557 20.897C23.8535 21.2738 23.7851 21.6468 23.3812 21.8557C23.1705 21.9647 22.2655 21.9843 17.4518 21.9843H27.7106C25.4068 21.9406 25.3933 21.9392 25.2263 21.7327C25.0087 21.4637 25.0135 21.1858 25.2407 20.897Z" fill="#762D36"/>
<path d="M10.2528 11.7772C9.96246 11.5488 9.93511 11.0782 10.197 10.8163C10.2944 10.7188 10.3745 10.6754 13 10.656L6.80434 10.6441C8.21015 10.6539 8.31122 10.6893 8.43824 10.8163C8.70012 11.0782 8.67277 11.5488 8.3824 11.7772C8.15887 11.953 8.05079 11.9595 5.30135 11.9595H10.4845L10.2528 11.7772Z" fill="#762D36"/>
<path d="M30.9668 0.179304C31.1541 0.00474861 31.2574 0 34.84 0H28.9603L29.1638 0.191176C29.4315 0.442676 29.4368 0.895729 29.1748 1.13975C29.0613 1.24554 29 1.28891 26.3905 1.3067L32.7276 1.31648C31.209 1.30837 31.112 1.27505 30.9668 1.13975C30.7081 0.898719 30.7081 0.42034 30.9668 0.179304Z" fill="#762D36"/>
<path d="M40.2539 10.5349C40.399 10.3898 40.399 8.51672 40.2539 8.37163C40.1003 8.218 1.57448 8.218 1.42085 8.37163C1.27575 8.51672 1.27575 10.3898 1.42085 10.5349C1.49929 10.6133 2.39203 10.6404 4.89437 10.6404C5.71206 10.6404 6.33188 10.6408 6.80434 10.6441L13 10.656C15.0751 10.6407 18.7402 10.6404 25.2606 10.6404C36.7227 10.6404 40.1727 10.6161 40.2539 10.5349Z" fill="#762D36"/>
<path d="M40.1894 41.4215C40.3415 41.503 40.3595 41.6134 40.3595 42.4696C40.3595 42.996 40.3355 43.4892 40.3061 43.5657C40.2576 43.692 38.4605 43.7048 20.8374 43.7048C3.21433 43.7048 1.41716 43.692 1.3687 43.5657C1.33933 43.4892 1.31533 42.9966 1.31533 42.4709C1.31533 41.6534 1.33757 41.5022 1.46922 41.4255C1.68554 41.2996 39.9541 41.2956 40.1894 41.4215Z" fill="#762D36"/>
</svg>
