<svg width="38" height="45" viewBox="0 0 38 45" fill="none" xmlns="http://www.w3.org/2000/svg">
<path d="M0 9.57081V41.8627C0 43.2696 1.18391 44.9828 2.64154 44.9828H34.4339C35.8877 44.9828 37.3262 43.2696 37.3262 41.8627V9.57081H0ZM18.6248 35.1976C13.0163 35.1976 8.46921 30.8008 8.46921 25.3751C8.46921 19.9494 13.0163 15.5526 18.6248 15.5526C24.2333 15.5526 28.7804 19.9494 28.7804 25.3751C28.7804 30.8017 24.2333 35.1976 18.6248 35.1976V35.1976ZM34.4339 0H2.64154C1.18391 0 0 0.988665 0 2.39749V7.65665H37.3262V2.39749C37.3262 0.988665 35.8877 0 34.4339 0ZM12.4421 5.74249H1.91416V1.91416H12.4421V5.74249ZM30.7663 5.4745C29.5709 5.4745 28.6052 4.53752 28.6052 3.38041C28.6052 2.22521 29.5709 1.28823 30.7663 1.28823C31.9617 1.28823 32.9303 2.22521 32.9303 3.38041C32.9293 4.53657 31.9617 5.4745 30.7663 5.4745V5.4745Z" fill="#762D36"/>
</svg>
