<svg width="54" height="33" viewBox="0 0 54 33" fill="none" xmlns="http://www.w3.org/2000/svg">
<path fill-rule="evenodd" clip-rule="evenodd" d="M40.0944 0.438586C40.16 0.67986 40.5418 2.05135 40.9429 3.4864C41.3438 4.92145 41.672 6.1172 41.672 6.14372C41.672 6.17014 42.5744 6.19181 43.6774 6.19181H45.6828V7.79136V9.39091H44.1524C43.3106 9.39091 42.6227 9.42579 42.6236 9.4683C42.6244 9.51082 42.7361 9.94043 42.8716 10.4229L43.118 11.3L45.5878 11.3597C48.1144 11.4208 48.8185 11.512 50.4142 11.9848C51.1713 12.209 53.2747 13.1847 53.6993 13.5086L53.9582 13.7059L53.0777 15.0055C52.5934 15.7203 52.1854 16.3051 52.1709 16.3051C52.1565 16.3051 51.8216 16.1206 51.4268 15.895C49.7734 14.9503 48.0502 14.5507 45.6295 14.5507H44.0163L44.1485 14.9893L44.2805 15.4279L45.483 15.4922C46.8476 15.5652 47.4051 15.6849 48.5363 16.148C52.933 17.9482 55.1171 22.9404 53.4302 27.3342C52.6231 29.4365 50.7226 31.3841 48.6268 32.257C45.3999 33.601 41.9054 33.0901 39.1666 30.874C38.022 29.948 36.7652 27.9896 36.34 26.47C36.2422 26.1201 36.1439 25.2673 36.1142 24.5092C36.0669 23.304 36.089 23.0635 36.3324 22.1426C36.9399 19.8441 38.4278 17.8648 40.4218 16.7026L41.1241 16.2932L40.8171 15.1898C40.6481 14.5829 40.383 13.628 40.2281 13.0677C40.0076 12.2708 39.9214 12.0824 39.8317 12.2024C39.7685 12.2867 38.034 15.3804 35.977 19.0775L32.2369 25.7992H25.0317H17.8264L17.7108 26.2378C17.3745 27.5142 16.8815 28.5205 16.0756 29.5752C14.3626 31.8171 11.3321 33.1739 8.46608 32.982C6.10867 32.8242 4.11055 31.9115 2.4885 30.2516C0.738941 28.4611 -0.125286 26.2027 0.0146713 23.7869C0.246769 19.7809 3.13941 16.4575 7.11 15.6351C8.06141 15.438 9.89646 15.4377 10.8529 15.6345C12.424 15.9576 13.9481 16.7558 15.1594 17.8896C16.3539 19.0077 17.0508 20.1154 17.5552 21.6971L17.8431 22.6001H19.3659H20.8887L20.8217 22.2131C20.5418 20.5963 19.6153 18.5203 18.566 17.1589C17.4335 15.6894 16.0089 14.5373 14.2824 13.6946C12.3472 12.7501 10.9636 12.4868 7.9357 12.4868H5.7858V10.8873V9.28771L15.7337 9.2875L25.6815 9.28719L25.9957 8.69412C26.5929 7.5667 27.7497 6.67477 29.059 6.33226C29.4589 6.22772 30.6425 6.19397 33.9426 6.19304L38.2985 6.19181L38.2261 5.90802C38.1863 5.75198 38.0035 5.09018 37.8197 4.43746L37.4858 3.2507L34.6709 3.22325L31.8561 3.19569V1.5979V0H35.9155H39.9751L40.0944 0.438586ZM26.8533 16.9284C26.3968 17.2304 25.9454 18.0486 25.9454 18.5738C25.9454 19.0795 26.3367 19.7883 26.826 20.169C27.1949 20.4561 27.3014 20.4846 28.0036 20.4846C28.7058 20.4846 28.8123 20.4561 29.1812 20.169C29.6606 19.796 30.0618 19.082 30.0618 18.6018C30.0618 17.897 29.5085 17.0552 28.848 16.7553C28.352 16.5302 27.3198 16.6196 26.8533 16.9284ZM7.63288 18.8003C6.21222 19.0918 4.56979 20.3468 3.8927 21.6582C2.66814 24.0301 3.28063 26.8633 5.38229 28.5489C8.23641 30.838 12.6025 29.8413 14.1404 26.5496C14.3056 26.1962 14.4407 25.8827 14.4407 25.8531C14.4407 25.8234 12.8496 25.7992 10.9049 25.7992H7.36902V24.1996V22.6001H10.9002H14.4313L14.2842 22.1923C14.072 21.6046 13.4767 20.7331 12.9466 20.2343C11.5055 18.8787 9.66763 18.3827 7.63288 18.8003ZM45.3116 19.1688C45.5804 20.0765 46.5127 23.4755 46.5465 23.6709C46.5754 23.838 46.3735 23.9197 45.0644 24.2702C44.2309 24.4933 43.5233 24.6509 43.4921 24.6204C43.4608 24.5899 43.1337 23.4843 42.7653 22.1636C42.3968 20.8428 42.0715 19.7009 42.0424 19.6259C41.9387 19.3585 40.8615 20.2934 40.2428 21.1878C39.4313 22.3608 39.112 24.3507 39.5183 25.703C39.9056 26.9923 40.9995 28.3979 42.1113 29.0349C45.7889 31.1421 50.4533 28.7175 50.716 24.5623C50.8211 22.9008 50.2801 21.5251 49.0444 20.3106C48.0553 19.3386 46.7272 18.7111 45.6093 18.6878L45.1665 18.6786L45.3116 19.1688Z" fill="#762D36"/>
</svg>
