<svg width="44" height="45" viewBox="0 0 44 45" fill="none" xmlns="http://www.w3.org/2000/svg">
<path fill-rule="evenodd" clip-rule="evenodd" d="M38.977 0.0535179C38.8824 0.0768225 38.6989 0.198094 38.5692 0.323059L38.3332 0.550213L38.1337 0.3585C37.8603 0.0957299 37.4376 0.106283 37.1675 0.382596C36.9074 0.648619 36.8978 0.978752 37.1403 1.32691L37.324 1.59091L36.9825 1.94031L36.6409 2.28961L36.2809 2.09772C35.9663 1.92993 35.8884 1.91964 35.6616 2.01567C35.2139 2.20536 35.0895 2.76555 35.4045 3.17492L35.572 3.39284L35.211 3.75419L34.85 4.11554L34.6351 3.9459C34.201 3.6032 33.5995 3.80256 33.4695 4.33223C33.4143 4.55736 33.5864 4.98256 33.8093 5.17181C33.9245 5.26952 33.8734 5.4206 33.3939 6.3993L32.8471 7.51528L29.0933 11.2061C27.0287 13.2361 25.3056 14.9092 25.2641 14.9244C25.2227 14.9394 24.9843 14.8078 24.7343 14.6321C22.7865 13.2616 20.79 12.746 18.944 13.1366C18.0517 13.3254 16.7439 14.0298 16.005 14.7196C15.2145 15.4576 14.8538 16.026 14.2056 17.555C13.5493 19.103 13.3099 19.5248 12.7808 20.0661C12.197 20.6631 11.7191 20.8548 9.65836 21.3183C6.05785 22.1282 4.50895 22.8681 2.86513 24.5637C0.927442 26.5623 -0.13482 29.1204 0.0137508 31.43C0.162149 33.7352 1.08521 35.9713 2.80916 38.2015C4.54575 40.4481 6.82951 42.5024 8.80417 43.5942C12.511 45.6435 15.7418 45.4561 18.9279 43.0067C20.6597 41.6753 21.7398 40.1075 22.4659 37.8707C22.6267 37.3755 22.9369 36.1392 23.1553 35.1235C23.6085 33.0157 23.7959 32.5269 24.3797 31.9297C24.9088 31.3885 25.3212 31.1437 26.8347 30.4725C28.3295 29.8095 28.8853 29.4405 29.6067 28.6319C30.2811 27.8762 30.9698 26.5385 31.1544 25.6258C31.5379 23.7298 30.9316 21.3834 29.5813 19.5387C29.4674 19.383 29.3875 19.2169 29.4038 19.1695C29.42 19.1221 31.0568 17.3559 33.0409 15.2447L36.6486 11.406L37.7405 10.8464C38.698 10.3556 38.8458 10.3033 38.9414 10.4211C39.1264 10.6491 39.5421 10.8251 39.7622 10.7686C40.28 10.6356 40.475 10.0205 40.1399 9.57646L39.974 9.3566L40.3273 8.98734L40.6806 8.61816L40.8937 8.78947C41.2939 9.1116 41.8416 8.98444 42.027 8.52643C42.1209 8.29453 42.1109 8.21486 41.9468 7.89299L41.7592 7.52478L42.1007 7.17539L42.4423 6.82608L42.7004 7.01401C43.0388 7.26051 43.3273 7.25172 43.6072 6.9864C43.8949 6.7136 43.9123 6.28647 43.6472 5.99794L43.4598 5.79382L43.6953 5.5424C44.1618 5.0443 44.0848 3.74883 43.5183 2.56496C42.7966 1.05658 41.1035 -0.0381173 39.5531 0.00101676C39.3308 0.00664503 39.0715 0.0303013 38.977 0.0535179ZM40.9037 1.79784C41.4237 2.08735 42.0226 2.71419 42.2887 3.24782C42.3929 3.45669 42.4989 3.86183 42.5243 4.14799L42.5704 4.66843L40.5329 6.75379L38.4954 8.83924L37.4664 9.35959L36.4373 9.88003L35.388 8.80671L34.3386 7.73338L34.8072 6.74219L35.2757 5.751L37.3413 3.61076L39.4069 1.47052L39.9344 1.51124C40.2921 1.53876 40.6043 1.6311 40.9037 1.79784ZM34.3722 9.87915L35.2669 10.7975L33.2884 12.8912C32.2002 14.0428 29.5798 16.8251 27.4654 19.0742C25.351 21.3233 23.5935 23.1736 23.5598 23.1859C23.5261 23.1982 23.376 22.9987 23.2263 22.7427C22.9086 22.1993 22.195 21.484 21.6723 21.1848C21.4704 21.0692 21.3156 20.9449 21.3284 20.9086C21.3568 20.8271 33.3711 8.97388 33.4329 8.96632C33.4574 8.96333 33.8801 9.37411 34.3722 9.87915ZM22.0587 14.8275C22.7293 15.0765 24.1457 15.8745 24.1457 16.0034C24.1457 16.0365 23.1233 17.0774 21.8735 18.3164L19.6013 20.5692H19.1832C18.1912 20.5692 17.0116 21.0977 16.2351 21.8901C14.8365 23.3173 14.5014 25.3999 15.377 27.2233C16.582 29.7324 19.7739 30.5364 22.0205 28.8966C23.1346 28.0834 23.8878 26.6655 23.8878 25.3812V24.9535L26.0903 22.6295C27.3016 21.3511 28.3193 20.3053 28.3516 20.3053C28.4748 20.3053 29.256 21.7482 29.5074 22.44C29.7516 23.1121 29.7705 23.2477 29.7738 24.3507L29.7773 25.5379L29.3636 26.4023C28.6919 27.8061 27.922 28.4768 26.1662 29.1876C24.4791 29.8707 23.4617 30.6114 22.7833 31.6504C22.3539 32.3082 22.1646 32.8931 21.7745 34.7684C21.3608 36.7575 21.1145 37.6004 20.6595 38.5842C20.1937 39.5916 19.686 40.3315 18.9716 41.0439C16.6021 43.407 13.9347 44.0886 11.077 43.061C10.1416 42.7248 9.59629 42.4404 8.58364 41.7605C7.51243 41.0414 7.11676 40.7056 5.84609 39.4368C4.55616 38.1488 3.88587 37.3399 3.13236 36.1621C1.87724 34.2002 1.37135 32.5242 1.471 30.6578C1.54451 29.279 1.87561 28.3423 2.78337 26.9449C3.65536 25.6025 4.82578 24.5722 6.27495 23.8711C7.23679 23.4058 8.06089 23.1539 10.0055 22.7307C11.8389 22.3317 12.4109 22.138 13.0539 21.6989C14.1117 20.9763 14.717 20.0815 15.5902 17.9493C16.2608 16.3117 16.9405 15.55 18.3045 14.9071C19.124 14.521 19.1841 14.5103 20.3627 14.54C21.2073 14.5613 21.4544 14.6032 22.0587 14.8275ZM20.5669 22.2436C21.4479 22.5807 22.0936 23.3429 22.3886 24.394C22.515 24.8444 22.5224 25.0141 22.4392 25.561C22.3857 25.9129 22.2605 26.3641 22.1611 26.5634C21.8691 27.149 21.2739 27.732 20.6837 28.0108C20.2187 28.2305 20.0451 28.2641 19.3739 28.264C18.4262 28.264 17.8747 28.0359 17.2312 27.3777C16.5878 26.7195 16.3648 26.1555 16.3648 25.1861C16.3647 24.4995 16.3975 24.322 16.6123 23.8464C16.8722 23.2708 17.4407 22.6471 17.9633 22.3641C18.7112 21.9591 19.7037 21.9132 20.5669 22.2436ZM7.0423 29.9468C6.94429 30.0743 6.86407 30.3012 6.86407 30.4513C6.86407 30.6933 7.26387 31.133 10.4118 34.3529C13.5598 37.5727 13.9897 37.9816 14.2263 37.9816C14.6356 37.9816 14.946 37.6846 14.946 37.2933C14.946 36.984 14.7867 36.8065 11.3991 33.3423C8.0148 29.8815 7.8376 29.7151 7.53625 29.7151C7.29749 29.7151 7.17703 29.7717 7.0423 29.9468Z" fill="#762D36"/>
<path d="M40.9037 1.79784C41.4237 2.08735 42.0226 2.71419 42.2887 3.24782C42.3929 3.45669 42.4989 3.86183 42.5243 4.14799L42.5704 4.66843L40.5329 6.75379L38.4954 8.83924L37.4664 9.35959L36.4373 9.88003L35.388 8.80671L34.3386 7.73338L34.8072 6.74219L35.2757 5.751L37.3413 3.61076L39.4069 1.47052L39.9344 1.51124C40.2921 1.53876 40.6043 1.6311 40.9037 1.79784Z" fill="#762D36"/>
<path d="M20.5669 22.2436C21.4479 22.5807 22.0936 23.3429 22.3886 24.394C22.515 24.8444 22.5224 25.0141 22.4392 25.561C22.3857 25.9129 22.2605 26.3641 22.1611 26.5634C21.8691 27.149 21.2739 27.732 20.6837 28.0108C20.2187 28.2305 20.0451 28.2641 19.3739 28.264C18.4262 28.264 17.8747 28.0359 17.2312 27.3777C16.5878 26.7195 16.3648 26.1555 16.3648 25.1861C16.3647 24.4995 16.3975 24.322 16.6123 23.8464C16.8722 23.2708 17.4407 22.6471 17.9633 22.3641C18.7112 21.9591 19.7037 21.9132 20.5669 22.2436Z" fill="#762D36"/>
</svg>
