<svg width="45" height="45" viewBox="0 0 45 45" fill="none" xmlns="http://www.w3.org/2000/svg">
<path fill-rule="evenodd" clip-rule="evenodd" d="M6.93789 0.174655C5.97526 0.43304 5.3129 0.821451 4.55877 1.56961C3.8231 2.29949 3.32319 3.17724 3.13675 4.06633C3.03671 4.54328 3.01948 4.56552 2.67815 4.65739C0.966219 5.11851 -0.250109 7.03965 0.0522809 8.80508C0.33709 10.4681 1.6066 11.6972 3.28952 11.9395C3.62795 11.9882 4.86019 12.0289 6.02791 12.0298L8.15097 12.0316L8.24793 12.3096C8.3012 12.4625 8.33469 12.5961 8.32247 12.6066C8.31016 12.6169 8.06271 12.6932 7.77263 12.7761C7.02052 12.9909 6.00673 13.5402 5.37329 14.0762C3.80552 15.4029 2.97799 17.2017 2.97289 19.294C2.96964 20.641 3.29708 21.8443 3.96577 22.9429C4.10149 23.1658 4.21252 23.3697 4.21252 23.3961C4.21252 23.4224 4.02458 23.5534 3.79497 23.6871C2.45145 24.4696 1.23749 25.8753 0.615922 27.3686C0.161722 28.4598 0.0485011 29.0808 0.0460397 30.4939C0.0436663 31.8962 0.181148 32.5806 0.691607 33.7065C2.12761 36.8739 5.65335 38.7424 8.98931 38.1041C9.54522 37.9977 9.92813 37.8679 11.135 37.3772C11.2216 37.3419 11.2448 37.9846 11.2448 40.419V43.5054H5.87592H0.507009L0.250065 43.7624C-0.083355 44.0959 -0.083355 44.4096 0.250065 44.743L0.507009 45H22.4966H44.4861L44.7431 44.743C44.8979 44.5881 45 44.3934 45 44.2527C45 44.1121 44.8979 43.9173 44.7431 43.7624C44.5205 43.5398 44.4205 43.5054 43.9959 43.5054H43.5056V42.3625V41.2196H44.0331C44.6173 41.2196 44.8584 41.0687 44.9673 40.6345C45.0956 40.1235 44.6416 39.7286 43.9232 39.7264L43.5056 39.7251V39.3734V39.0217L43.9232 39.0204C44.6416 39.0182 45.0956 38.6233 44.9673 38.1122C44.8584 37.6781 44.6173 37.5272 44.0331 37.5272H43.5056V36.3843V35.2414H43.9959C44.4205 35.2414 44.5205 35.207 44.7431 34.9844C45.0765 34.6509 45.0765 34.3372 44.7431 34.0038C44.5219 33.7826 44.4194 33.7468 44.0065 33.7468C43.5552 33.7468 43.5205 33.731 43.4163 33.4797C43.2859 33.1647 43.0913 33.0435 42.7163 33.0435C42.4212 33.0435 42.0113 33.3734 42.0113 33.611C42.0113 33.7321 41.3624 33.7468 35.9898 33.7468C30.2187 33.7468 29.9684 33.7401 29.9684 33.5863C29.9684 33.334 29.5976 33.0435 29.2757 33.0435C28.8838 33.0435 28.685 33.1678 28.5757 33.4812C28.4879 33.7332 28.4586 33.7468 28.0001 33.7468C27.3647 33.7468 27.0324 34.0034 27.0324 34.4941C27.0324 34.9833 27.365 35.2414 27.9955 35.2414H28.474V36.3843V37.5272L27.9686 37.53C27.3986 37.5331 27.1971 37.6454 27.0612 38.0353C26.8682 38.5888 27.3397 39.0217 28.1355 39.0217C28.4718 39.0217 28.474 39.024 28.474 39.3734C28.474 39.7228 28.4718 39.7251 28.1355 39.7251C27.3397 39.7251 26.8682 40.158 27.0612 40.7115C27.1971 41.1014 27.3986 41.2136 27.9686 41.2168L28.474 41.2196V42.3625V43.5054H22.101H15.7279V40.4284C15.7279 38.695 15.7621 37.3513 15.806 37.3513C15.8489 37.3513 16.1377 37.47 16.4477 37.6152C17.3745 38.0489 18.5004 38.2557 19.6397 38.2013C20.7894 38.1465 21.4927 37.9777 22.4828 37.519C25.2727 36.2264 26.9797 33.5431 26.9797 30.4499C26.9797 27.658 25.5795 25.1507 23.1998 23.6812C22.9822 23.5469 22.793 23.4277 22.7792 23.4164C22.7654 23.4051 22.8922 23.1631 23.0612 22.8787C25.0882 19.4664 23.87 15.0801 20.3926 13.2708C20.0245 13.0792 19.4829 12.8556 19.1889 12.774L18.6544 12.6253L18.8756 11.9548C19.062 11.3904 19.0972 11.1174 19.0987 10.2293C19.1003 9.30488 19.0706 9.08729 18.8588 8.471C18.3403 6.96175 17.29 5.73752 15.9521 5.08264C15.158 4.69396 14.3807 4.47083 13.8212 4.47083C13.4832 4.47083 13.4404 4.44675 13.3922 4.22907C13.0962 2.89178 12.284 1.65199 11.2571 0.969941C9.87732 0.0535951 8.40141 -0.218152 6.93789 0.174655ZM8.977 1.57911C10.4592 1.88892 11.6326 3.07166 11.8764 4.50152C11.8973 4.62407 11.8001 4.70531 11.4816 4.83173C10.5215 5.21258 9.45907 6.0687 8.86844 6.93749C8.2845 7.79651 7.98729 8.6791 7.85632 9.94359L7.80393 10.4491H5.49803H3.19221L2.72782 10.2176C1.52749 9.61945 1.14141 8.03116 1.93114 6.94065C2.30342 6.4267 2.76403 6.15724 3.51429 6.0142C3.9474 5.93164 4.21252 5.83203 4.30596 5.71669C4.38323 5.6213 4.49258 5.21671 4.54901 4.81757C4.67788 3.90571 4.94027 3.32978 5.51068 2.70672C6.39245 1.74351 7.71127 1.31448 8.977 1.57911ZM14.5249 6.09675C15.5178 6.3554 16.5455 7.14048 17.0559 8.03037C17.8379 9.39359 17.799 11.1795 16.9576 12.5473C16.4038 13.4473 16.6698 13.9205 17.802 14.0496C19.1105 14.1988 20.1217 14.6743 21.0013 15.5537C22.0443 16.5964 22.5284 17.7997 22.5199 19.3286C22.5119 20.7865 22.1357 21.7477 21.0464 23.0939C20.4742 23.801 20.6187 24.0986 21.8159 24.6796C23.5305 25.5115 24.6154 26.7465 25.1858 28.5158C25.6792 30.0459 25.5486 31.6874 24.8122 33.2119C24.474 33.9122 24.2885 34.1645 23.6083 34.8497C22.9134 35.5497 22.6908 35.7139 21.9691 36.0585C21.0393 36.5026 20.1345 36.7359 19.3424 36.7359C17.6379 36.7359 15.7788 35.8232 14.7105 34.4618L14.3221 33.967L16.8886 31.3991C19.2786 29.0078 19.4551 28.81 19.4551 28.522C19.4551 28.0951 19.1398 27.7685 18.7275 27.7685C18.4401 27.7685 18.2641 27.9214 16.3255 29.854L14.2336 31.9397V28.1185V24.2973L16.0971 22.432C17.8462 20.6814 17.9607 20.5468 17.9607 20.244C17.9607 19.8452 17.6133 19.5044 17.2069 19.5044C16.9778 19.5044 16.7366 19.7029 15.5856 20.8392L14.2336 22.1738V20.3236V18.4734L14.0019 18.2416C13.7499 17.9897 13.3276 17.935 13.0832 18.1226C12.7747 18.3594 12.7392 18.5942 12.7392 20.3961V22.1785L11.3923 20.8415C9.98702 19.4465 9.84066 19.3559 9.38593 19.5993C9.1304 19.736 8.96101 20.1864 9.05919 20.468C9.10306 20.5938 9.94896 21.5061 10.939 22.4954L12.7392 24.2943V28.1169V31.9397L10.6473 29.854C8.80471 28.0171 8.52236 27.7685 8.27878 27.7685C7.80208 27.7685 7.51015 28.1333 7.54276 28.6882C7.54865 28.7889 8.61422 29.9243 10.1057 31.4191L12.6585 33.9776L12.4647 34.2359C11.3131 35.7697 9.48175 36.7307 7.70301 36.7346C5.39113 36.7396 3.18703 35.3646 2.15486 33.2733C1.66972 32.2903 1.53302 31.6622 1.54041 30.4499C1.5477 29.2457 1.68914 28.5927 2.15284 27.6223C2.77054 26.3295 3.74926 25.371 5.1472 24.6899C5.64623 24.4467 6.09498 24.1721 6.14438 24.0797C6.33575 23.7222 6.24653 23.4235 5.78767 22.8854C5.25225 22.2576 4.80534 21.4084 4.60589 20.6397C4.39905 19.8431 4.45891 18.2537 4.72289 17.5323C5.46805 15.4956 7.11739 14.2599 9.42804 14.0073C9.97964 13.947 10.234 13.7756 10.3281 13.4007C10.3678 13.2424 10.2865 13.0078 10.0302 12.5413C9.56332 11.6916 9.37679 11.0123 9.3804 10.1751C9.38541 9.02373 9.7394 8.13481 10.5429 7.25548C11.5093 6.19794 13.1173 5.73005 14.5249 6.09675ZM35.3306 6.96246C33.7034 7.44705 32.4921 8.54722 31.8789 10.0974C31.7545 10.4117 31.6266 10.8111 31.5945 10.9848C31.5413 11.2736 31.4968 11.3131 31.0758 11.4459C29.777 11.8553 28.8063 13.0088 28.5574 14.4385C28.2816 16.022 29.1803 17.6504 30.7368 18.3878L31.3309 18.6692L36.5825 18.6938C42.4694 18.7215 42.3606 18.7311 43.3095 18.0974C45.2435 16.8058 45.5469 14.1293 43.9509 12.4415C43.4869 11.9509 42.9166 11.5936 42.3132 11.4156C41.9726 11.3151 41.9511 11.2877 41.8552 10.8302C41.4721 9.00386 39.8539 7.37021 37.9621 6.90004C37.1503 6.69827 36.1366 6.72236 35.3306 6.96246ZM37.6442 8.38265C39.1637 8.77853 40.2049 9.94306 40.4352 11.5041C40.4888 11.8667 40.5729 12.2481 40.6223 12.3516C40.7253 12.5675 41.0442 12.7349 41.3529 12.7349C41.7894 12.7349 42.5175 13.0879 42.87 13.4704C43.7115 14.3834 43.6803 15.7117 42.7965 16.5956C42.188 17.2042 42.5014 17.172 36.9128 17.1998C31.2729 17.2279 31.4301 17.2426 30.7404 16.6194C30.3297 16.2483 30.1651 15.9516 30.0603 15.3931C29.9026 14.5534 30.2506 13.6807 30.9433 13.1789C31.257 12.9515 31.5028 12.8729 32.4945 12.6821C32.7889 12.6254 32.9494 12.3074 33.0374 11.6064C33.3246 9.31913 35.4716 7.81673 37.6442 8.38265ZM42.0113 36.3849V37.5284L36.0118 37.5058L30.0124 37.4832L29.9877 36.3623L29.9631 35.2414H35.9872H42.0113V36.3849ZM14.2336 39.8313V43.5054H13.4864H12.7392V39.8383V36.1711L13.1093 35.794L13.4794 35.4168L13.8565 35.787L14.2336 36.1571V39.8313ZM42.0113 39.3734V39.7251H35.9898H29.9684V39.3734V39.0217H35.9898H42.0113V39.3734ZM42.0113 42.3625V43.5054H35.9898H29.9684V42.4212C29.9684 41.8247 29.9948 41.3104 30.027 41.2783C30.0592 41.246 32.7689 41.2196 36.0485 41.2196H42.0113V42.3625Z" fill="#762D36"/>
</svg>
