<svg width="30" height="45" viewBox="0 0 30 45" fill="none" xmlns="http://www.w3.org/2000/svg">
<path fill-rule="evenodd" clip-rule="evenodd" d="M15 13.75C18.7968 13.75 21.8746 10.672 21.8746 6.875C21.8746 3.07804 18.7968 0 15 0C11.2032 0 8.12543 3.07804 8.12543 6.875C8.12543 10.672 11.2032 13.75 15 13.75ZM15 11.25C17.4161 11.25 19.3747 9.29125 19.3747 6.875C19.3747 4.45875 17.4161 2.5 15 2.5C12.5839 2.5 10.6253 4.45875 10.6253 6.875C10.6253 9.29125 12.5839 11.25 15 11.25ZM7.50047 28.6755C7.50047 28.8276 7.51422 28.9924 7.54159 29.1664C5.22498 31.1546 3.7507 34.0658 3.7507 37.3214C3.7507 38.5173 3.98731 40.3074 4.67139 41.8469C5.34798 43.3699 6.64865 45 8.88926 45C11.0704 45 12.9168 43.2835 12.9168 41.0714C12.9168 40.1303 12.5385 39.317 12.2823 38.7659L12.2456 38.6868C11.9504 38.0496 11.8057 37.6891 11.8057 37.3214C11.8057 36.9601 12.0131 36.3569 12.4637 35.6666C12.7255 35.2655 13.0234 34.9058 13.3061 34.6229C13.892 34.8491 14.467 35 15 35C15.5331 35 16.1082 34.8492 16.6939 34.623C16.9766 34.9057 17.2745 35.2656 17.5364 35.6666C17.9869 36.3569 18.1942 36.9601 18.1942 37.3214C18.1942 37.679 18.0488 38.047 17.7521 38.6953L17.7132 38.78C17.4592 39.332 17.0833 40.1498 17.0833 41.0714C17.0833 43.2835 18.9296 45 21.1108 45C23.3439 45 24.6322 43.2644 25.2972 41.7635C25.9838 40.214 26.2493 38.4303 26.2493 37.3214C26.2493 34.0659 24.775 31.1548 22.4585 29.1665C22.4859 28.9925 22.4995 28.8276 22.4995 28.6755V22.2514C22.9948 22.154 23.497 22.0474 24.0071 21.9319C25.0471 21.6966 26.1216 21.4242 27.2431 21.1159C29.24 20.567 30.4138 18.5033 29.865 16.5061C29.3161 14.5091 27.2524 13.3352 25.2555 13.8841C21.0508 15.0399 17.9826 15.5306 15.0156 15.518C12.0364 15.5055 8.95275 14.9851 4.70002 13.8721C2.69651 13.3479 0.64739 14.5471 0.123047 16.5508C-0.40117 18.5543 0.797881 20.6036 2.80138 21.1279C4.45516 21.5606 6.00794 21.927 7.50047 22.2185V28.6755ZM26.2838 18.7864C26.3823 18.7596 26.4812 18.7326 26.5805 18.7054C27.2461 18.5224 27.6375 17.8344 27.4545 17.1688C27.2716 16.5031 26.5837 16.1117 25.9181 16.2948C21.5875 17.485 18.2794 18.0319 15.005 18.018C11.7266 18.0041 8.41341 17.4281 4.06706 16.2908C3.39922 16.116 2.71626 16.5158 2.54152 17.1836C2.36666 17.8515 2.76639 18.5345 3.43422 18.7092C5.43097 19.2319 7.24573 19.6471 8.9655 19.9475C9.56384 20.052 10.0003 20.5714 10.0003 21.1789V25H19.9997V21.2121C19.9997 20.6044 20.4368 20.0847 21.0354 19.9806C22.6715 19.6959 24.3961 19.2981 26.2838 18.7864ZM6.25055 37.3214C6.25055 35.114 7.13924 33.097 8.6069 31.5912C9.10824 32.2689 9.80733 32.9293 10.7476 33.4248C10.8103 33.4578 10.874 33.4901 10.9389 33.5216C10.736 33.7711 10.5447 34.0331 10.3704 34.2999C9.8187 35.145 9.30586 36.2429 9.30586 37.3214C9.30586 38.2909 9.68921 39.1167 9.95007 39.6789L9.97707 39.7372C10.2777 40.3862 10.4169 40.7289 10.4169 41.0714C10.4169 41.818 9.77621 42.5 8.88926 42.5C8.11306 42.5 7.46935 41.9874 6.95588 40.8318C6.44978 39.6928 6.25055 38.2685 6.25055 37.3214ZM19.6296 34.2999C19.4554 34.0331 19.264 33.7711 19.0611 33.5216C20.0986 33.0174 20.8584 32.3141 21.3931 31.5914C22.8608 33.0971 23.7495 35.114 23.7495 37.3214C23.7495 38.1359 23.5365 39.5664 23.0118 40.7505C22.4657 41.983 21.8095 42.5 21.1108 42.5C20.2238 42.5 19.5831 41.818 19.5831 41.0714C19.5831 40.7444 19.722 40.3983 20.0252 39.7356L20.0526 39.676C20.3119 39.1106 20.694 38.2774 20.694 37.3214C20.694 36.2429 20.1813 35.145 19.6296 34.2999ZM17.6786 31.6909C19.4287 31.0251 19.9991 29.6357 19.9991 29.0949V27.4375H9.99969V29.0949C9.99969 29.6357 10.57 31.0251 12.3202 31.6909C12.5204 31.767 12.7455 31.8625 12.9478 31.9484L13.0669 31.9987C13.3155 32.1037 13.5561 32.203 13.7995 32.2911C14.3069 32.4748 14.7028 32.5625 14.9994 32.5625C15.296 32.5625 15.6918 32.4748 16.1993 32.2911C16.4427 32.203 16.6833 32.1037 16.9319 31.9987L17.0509 31.9484L17.6786 31.6909ZM17.6786 31.6909C17.4784 31.767 17.2532 31.8625 17.0509 31.9484L17.6786 31.6909Z" fill="#762D36"/>
<path d="M17.6786 31.6909C19.4287 31.0251 19.9991 29.6357 19.9991 29.0949V27.4375H9.99969V29.0949C9.99969 29.6357 10.57 31.0251 12.3202 31.6909C12.5204 31.767 12.7455 31.8625 12.9478 31.9484L13.0669 31.9987C13.3155 32.1037 13.5561 32.203 13.7995 32.2911C14.3069 32.4748 14.7028 32.5625 14.9994 32.5625C15.296 32.5625 15.6918 32.4748 16.1993 32.2911C16.4427 32.203 16.6833 32.1037 16.9319 31.9987L17.0509 31.9484C17.2532 31.8625 17.4784 31.767 17.6786 31.6909Z" fill="#762D36"/>
</svg>
