<svg width="45" height="40" viewBox="0 0 45 40" fill="none" xmlns="http://www.w3.org/2000/svg">
<path fill-rule="evenodd" clip-rule="evenodd" d="M14.6334 0.130139C12.6637 0.713973 11.1804 2.67298 10.5961 5.46239C10.3213 6.77433 10.3634 8.8951 10.6891 10.1547C11.2342 12.2617 12.4884 14.0451 13.9428 14.781C14.6567 15.1422 14.7169 15.1549 15.7118 15.1549C16.7113 15.1549 16.7641 15.1436 17.5016 14.7708C19.7703 13.6241 21.1785 10.5768 21.0224 7.15106C20.8738 3.88559 19.5949 1.4371 17.5081 0.422951C16.875 0.115225 16.6586 0.061634 15.9278 0.0319055C15.4095 0.010827 14.9075 0.0488083 14.6334 0.130139ZM28.2455 0.127554C27.5494 0.321436 26.9179 0.688917 26.3052 1.25625C24.0923 3.30563 23.3281 7.6988 24.5876 11.1303C25.2361 12.8973 26.2168 14.1095 27.5378 14.7772C28.2608 15.1427 28.3183 15.1549 29.3149 15.1549C30.3098 15.1549 30.37 15.1422 31.0839 14.781C32.5699 14.0291 33.8597 12.1535 34.3821 9.98472C34.6651 8.80999 34.6863 6.71557 34.4279 5.46239C33.7368 2.11122 31.7196 -0.0230775 29.2656 0.000188312C28.945 0.00327054 28.4859 0.0605405 28.2455 0.127554ZM2.74249 10.4981C1.46618 11.0459 0.637551 12.1169 0.221829 13.7562C-0.496044 16.5862 0.592666 20.6872 2.5615 22.5692C4.97966 24.8807 8.05566 23.8491 8.95599 20.4245C9.32955 19.0036 9.22384 16.7015 8.71194 15.1101C8.04633 13.0404 6.67432 11.2699 5.21992 10.6038C4.613 10.3259 3.27645 10.2688 2.74249 10.4981ZM40.0331 10.5201C39.3278 10.7868 38.7684 11.2063 38.031 12.0213C36.5546 13.6533 35.74 16.1833 35.8537 18.784C35.9356 20.659 36.4461 21.9445 37.4901 22.9051C38.1751 23.5354 38.8739 23.7812 39.8606 23.739C40.5315 23.7104 40.7481 23.6525 41.3782 23.3337C42.2125 22.9116 43.119 22.007 43.6849 21.0316C44.0895 20.3344 44.6287 18.8905 44.8382 17.9434C45.0603 16.9396 45.0522 14.6665 44.8235 13.8211C44.4182 12.3234 43.5744 11.1239 42.5757 10.6264C41.9148 10.2972 40.7514 10.2485 40.0331 10.5201ZM21.3718 18.6849C19.8881 18.8975 18.4576 19.4644 17.2805 20.3061C16.6112 20.7846 8.5016 28.5892 7.9109 29.3232C7.38024 29.9827 6.90536 31.0503 6.71892 32.0032C6.15688 34.8755 7.68521 38.0779 10.2304 39.3612C12.023 40.265 13.8639 40.2173 17.6071 39.1698C20.3399 38.405 21.6436 38.2354 23.6792 38.3794C24.9681 38.4706 25.6353 38.6003 28.2455 39.2676C30.5251 39.8502 31.2608 39.979 32.2605 39.9701C36.3798 39.9335 39.4475 35.3406 38.0989 31.2291C37.771 30.2295 37.4539 29.7041 36.6666 28.8557C35.4157 27.508 28.3534 20.7403 27.7404 20.3019C25.9688 19.035 23.4285 18.3901 21.3718 18.6849Z" fill="#762D36"/>
</svg>
