<svg width="47" height="45" viewBox="0 0 47 45" fill="none" xmlns="http://www.w3.org/2000/svg">
<path fill-rule="evenodd" clip-rule="evenodd" d="M12.0489 0.125922C10.2111 0.529646 8.60523 1.79875 7.77248 3.50554C7.09783 4.88814 7.11999 4.43756 7.1486 16.2277L7.17417 26.7533L7.39243 27.1027C7.51246 27.2949 7.77855 27.5626 7.98356 27.6976C8.29417 27.9022 8.45853 27.9432 8.96771 27.9432C9.47689 27.9432 9.64125 27.9022 9.95186 27.6976C10.1569 27.5626 10.423 27.2949 10.543 27.1027C10.7483 26.7741 10.7631 26.6542 10.7915 25.0829L10.8219 23.4126H19.0851H27.3484L27.3787 25.0829C27.4072 26.6542 27.422 26.7741 27.6273 27.1027C27.7473 27.2949 28.0134 27.5626 28.2184 27.6976C28.5279 27.9014 28.6939 27.9432 29.1958 27.9432C29.9203 27.9432 30.3681 27.711 30.7493 27.1377L30.9961 26.7668L31.0421 16.143L31.0881 5.51913L31.3027 5.08538C32.0424 3.59085 34.0457 3.18731 35.2945 4.28123C35.8206 4.74207 36.0826 5.29498 36.1958 6.18352C36.3519 7.40897 36.9428 7.99035 38.0323 7.99035C38.7498 7.99035 39.1994 7.75613 39.5791 7.18446C39.806 6.84288 39.825 6.74257 39.8159 5.93722C39.7984 4.3896 39.1831 2.97862 38.0217 1.82283C34.9837 -1.20021 29.8827 -0.34306 28.0078 3.50554C27.4305 4.69054 27.363 5.22185 27.363 8.58143V11.5141H19.0851H10.8072V8.69346C10.8072 5.31997 10.8367 5.15751 11.5831 4.41486C12.0972 3.90323 12.7042 3.64283 13.3826 3.64283C14.3071 3.64283 15.2905 4.25304 15.6739 5.06479C15.7827 5.29526 15.9119 5.79865 15.961 6.18352C16.1175 7.41199 16.7074 7.99035 17.8042 7.99035C18.3061 7.99035 18.4721 7.94861 18.7816 7.74478C18.9866 7.60978 19.2527 7.34207 19.3727 7.14986C19.565 6.84215 19.5898 6.69689 19.5811 5.931C19.545 2.76107 16.9073 0.148987 13.6125 0.0203922C12.9978 -0.00358776 12.4792 0.0314669 12.0489 0.125922ZM27.363 17.4634V19.7515H19.0851H10.8072V17.4634V15.1752H19.0851H27.363V17.4634ZM0.965753 30.0245C0.738112 30.146 0.427691 30.4208 0.27593 30.6352C0.0348591 30.9758 0 31.1037 0 31.6467C0 32.2184 0.0285127 32.3096 0.354018 32.7799C0.548732 33.0612 1.00907 33.576 1.37707 33.9238C2.81062 35.2789 4.28776 36.0272 6.49179 36.5148C7.74939 36.793 10.1505 36.8167 11.3476 36.5627C13.0566 36.2 14.385 35.6566 15.6206 34.8148C15.9589 34.5843 16.2603 34.3958 16.2905 34.3958C16.3207 34.3958 16.4962 34.5128 16.6805 34.656C17.7182 35.4615 19.3462 36.1731 20.9307 36.5138C22.3081 36.81 24.6919 36.81 26.0693 36.5138C27.6471 36.1746 29.0898 35.5562 30.1873 34.7483C30.4508 34.5544 30.6883 34.3958 30.7153 34.3958C30.7423 34.3958 31.0408 34.5841 31.3787 34.8143C35.0952 37.3463 40.5252 37.4179 44.3056 34.9849C45.1061 34.4697 46.174 33.4618 46.6536 32.7689C46.9696 32.3123 47 32.2147 47 31.655C47 31.1429 46.9593 30.9805 46.7532 30.6706C46.2897 29.9736 45.4981 29.6849 44.6633 29.9087C44.3678 29.9879 44.1468 30.1416 43.8365 30.4842C42.6582 31.7845 42.0409 32.2156 40.7406 32.646C38.5658 33.3658 36.2472 33.2307 34.2613 32.2687C33.6006 31.9486 33.3436 31.7513 32.6026 30.9957C31.6966 30.0713 31.2934 29.8195 30.7202 29.8195C30.1524 29.8195 29.7601 30.0662 28.8471 30.9978C28.095 31.7654 27.8426 31.9594 27.1791 32.2801C25.9097 32.8935 25.1666 33.0493 23.5 33.0519C21.8363 33.0545 21.1067 32.9013 19.8209 32.2801C19.1574 31.9594 18.905 31.7654 18.1529 30.9978C17.2399 30.0662 16.8476 29.8195 16.2798 29.8195C15.7066 29.8195 15.3034 30.0713 14.3974 30.9957C13.6584 31.7493 13.3976 31.9497 12.7387 32.2704C9.55562 33.8194 5.14075 33.0902 3.39816 30.7279C2.96919 30.1465 2.55768 29.9038 1.90621 29.8484C1.47034 29.8113 1.30837 29.8417 0.965753 30.0245ZM0.965753 38.2619C0.738112 38.3834 0.427691 38.6582 0.27593 38.8726C0.0348591 39.2132 0 39.3411 0 39.8841C0 40.4558 0.0285127 40.547 0.354018 41.0173C0.548732 41.2986 1.00907 41.8134 1.37707 42.1612C2.81062 43.5163 4.28776 44.2646 6.49179 44.7522C7.74939 45.0304 10.1505 45.0541 11.3476 44.8001C13.0644 44.4357 14.3845 43.8943 15.6374 43.0407C16.0511 42.7589 16.3075 42.638 16.3805 42.6905C18.665 44.3306 20.6392 44.96 23.5 44.96C26.1406 44.96 28.1967 44.3627 30.0897 43.0459C30.416 42.8189 30.7013 42.6332 30.7237 42.6332C30.7461 42.6332 31.0408 42.8215 31.3787 43.0517C35.0952 45.5837 40.5252 45.6553 44.3056 43.2223C45.1061 42.7071 46.174 41.6992 46.6536 41.0063C46.9708 40.548 47 40.4534 47 39.8841C47 39.3411 46.9651 39.2132 46.7241 38.8726C46.3772 38.3826 45.7771 38.0568 45.221 38.0568C44.6046 38.0568 44.0778 38.3535 43.5842 38.9787C41.6992 41.3662 37.4556 42.0622 34.2613 40.5078C33.6024 40.1871 33.3416 39.9867 32.6026 39.2331C31.6966 38.3087 31.2934 38.0568 30.7202 38.0568C30.1524 38.0568 29.7601 38.3036 28.8471 39.2352C28.095 40.0028 27.8426 40.1968 27.1791 40.5175C25.9047 41.1332 25.1662 41.2879 23.5 41.2879C21.8338 41.2879 21.0953 41.1332 19.8209 40.5175C19.1574 40.1968 18.905 40.0028 18.1529 39.2352C17.2399 38.3036 16.8476 38.0568 16.2798 38.0568C15.7066 38.0568 15.3034 38.3087 14.3974 39.2331C13.6584 39.9867 13.3976 40.1871 12.7387 40.5078C9.55562 42.0567 5.14075 41.3276 3.39816 38.9653C2.96919 38.3839 2.55768 38.1412 1.90621 38.0858C1.47034 38.0487 1.30837 38.0791 0.965753 38.2619Z" fill="#762D36"/>
</svg>
