<svg width="45" height="35" viewBox="0 0 45 35" fill="none" xmlns="http://www.w3.org/2000/svg">
<path fill-rule="evenodd" clip-rule="evenodd" d="M15.6413 0.0446176C15.4213 0.133756 15.2616 0.39393 15.2616 0.663135C15.2616 0.845346 15.2287 0.847849 12.8201 0.848386C11.4773 0.848654 10.1464 0.887546 9.86264 0.934753C8.66537 1.13395 7.74981 1.9041 7.26969 3.11557C7.1363 3.45218 7.11923 4.56333 7.0792 15.5102L7.03521 27.5351L6.54585 27.5972C5.21932 27.7655 4.01114 28.6424 3.39402 29.8847L3.13025 30.4158L2.6137 30.4634C1.62248 30.5547 0.714228 31.2485 0.242989 32.2744C0.0359644 32.725 -0.00283621 32.9253 0.000155222 33.5261C0.00420245 34.3269 0.139697 34.7105 0.480456 34.8856C0.652375 34.9739 2.28095 34.999 7.94144 35C14.1262 35.0011 15.2187 34.9823 15.4313 34.8705C15.8459 34.6526 15.919 34.1725 15.586 33.8546C15.423 33.6991 15.2755 33.6602 14.8482 33.6602H14.3141L14.2552 33.1808C14.081 31.7646 12.9491 30.6077 11.599 30.4661C11.1479 30.4187 11.1059 30.3936 10.9457 30.0744C10.7785 29.7413 10.7745 29.441 10.7745 17.1682V4.60294H13.0181H15.2616V6.82256V9.04217L14.6711 9.3483C12.9786 10.2257 12.6352 12.4142 13.9763 13.7769C15.5648 15.391 18.1847 14.5438 18.6074 12.2793C18.833 11.0702 18.1196 9.74965 16.9703 9.24906L16.5814 9.07963V6.84133V4.60294H19.8808H23.1801V6.83159V9.06014L22.7123 9.27776C20.9191 10.112 20.5411 12.5845 22.0064 13.8951C23.0661 14.8431 24.6139 14.8431 25.6737 13.8951C26.8386 12.8531 26.8836 10.9921 25.7719 9.84317C25.5868 9.65193 25.225 9.39748 24.9677 9.27776L24.4999 9.06014V6.83159V4.60294H26.8314H29.163V19.1316V33.6602H28.7231C28.4005 33.6602 28.2363 33.7078 28.1072 33.839C27.8849 34.0649 27.8814 34.4718 28.0994 34.7455L28.2676 34.9566L36.1718 34.9825C40.5193 34.9967 44.205 34.9848 44.3625 34.9561C44.7011 34.8941 45 34.5987 45 34.3259C45 34.2189 44.9179 34.0253 44.8176 33.8958C44.6481 33.6766 44.5865 33.6602 43.9378 33.6602H43.2403V26.9233C43.2403 24.6327 43.2325 22.9144 43.2167 21.751C43.2011 20.6114 43.1778 20.0043 43.1466 19.9133C42.9866 19.4468 42.292 19.3316 42.0391 19.7295C41.9981 19.7941 41.9448 22.9448 41.9206 26.7312L41.8766 33.6155L41.3707 33.6423L40.8648 33.6691V18.9097C40.8648 6.15362 40.8473 4.10763 40.736 3.8369C40.5016 3.26693 40.4602 3.26184 36.0766 3.26184C33.3387 3.26184 32.0967 3.29241 31.943 3.36358C31.8221 3.41955 31.6817 3.58647 31.6309 3.73453C31.5679 3.91835 31.5386 8.70976 31.5386 18.8364V33.6691L31.0327 33.6423L30.5267 33.6155L30.5045 18.6237L30.4822 3.63207L30.2507 3.44691C30.0277 3.26872 29.9171 3.26184 27.2595 3.26184H24.4999V2.72316V2.18439L32.4844 2.20907C40.4674 2.23366 40.4689 2.23366 40.8208 2.42615C41.2286 2.64913 41.4815 2.91163 41.7123 3.35124C41.8679 3.64763 41.8779 4.02394 41.9012 10.4562L41.926 17.2483L42.1146 17.4523C42.3454 17.702 42.7087 17.7158 42.9886 17.4854L43.1963 17.3145V10.4893C43.1963 5.10943 43.1718 3.57896 43.0806 3.26184C42.8219 2.3633 41.9379 1.40521 41.0408 1.05107C40.676 0.907037 40.0097 0.892731 32.5724 0.868234L24.4999 0.84168L24.4971 0.643554C24.4857 -0.159946 23.1946 -0.164058 23.183 0.639353C23.1802 0.826302 23.1402 0.834349 22.0723 0.86287C21.0319 0.890765 20.9544 0.905338 20.7966 1.10364C20.5691 1.38957 20.5838 1.7573 20.8322 1.99458C21.0183 2.17223 21.1284 2.18895 22.108 2.18895H23.1801V2.72539V3.26184H19.8808H16.5814V2.72539V2.18895H17.467C17.9541 2.18895 18.4311 2.14631 18.5271 2.09409C18.9348 1.87236 18.8953 1.14897 18.4645 0.949595C18.3476 0.895446 17.9009 0.850837 17.4578 0.847993C17.4429 0.847898 17.428 0.847849 17.4131 0.847849C16.648 0.847849 16.5814 0.833902 16.5814 0.674042C16.5814 0.460002 16.2475 0.0736749 16.0095 0.0122523C15.9127 -0.0127816 15.7471 0.00179167 15.6413 0.0446176ZM15.2616 2.72539V3.26184H12.7953C9.9984 3.26184 9.8058 3.29635 9.58356 3.8369C9.47261 4.10664 9.45475 5.8212 9.45475 16.1857C9.45475 22.8053 9.42501 28.2057 9.38876 28.1865C9.35251 28.1674 9.11426 28.0579 8.85928 27.943L8.39587 27.7342L8.41936 15.6991C8.44198 4.14661 8.44954 3.65165 8.60721 3.35124C8.91753 2.76 9.33492 2.42195 9.93866 2.27255C10.0838 2.23661 11.3409 2.20317 12.7321 2.19807L15.2616 2.18895V2.72539ZM39.545 6.25697V7.911H36.2017H32.8583V6.25697V4.60294H36.2017H39.545V6.25697ZM39.545 9.78854V10.325H36.2017H32.8583V9.78854V9.2521H36.2017H39.545V9.78854ZM16.5816 10.5501C17.5863 11.0712 17.5717 12.5831 16.557 13.1092C15.6655 13.5714 14.6047 12.9989 14.4934 11.9954C14.3627 10.8179 15.5344 10.007 16.5816 10.5501ZM24.5114 10.5561C25.3787 11.0062 25.5231 12.1933 24.7955 12.8907C24.1001 13.5571 22.9531 13.3238 22.5559 12.4349C22.3598 11.9961 22.3465 11.6706 22.5089 11.2832C22.8407 10.492 23.7511 10.1615 24.5114 10.5561ZM39.545 12.739V13.8119H36.2017H32.8583V12.739V11.6661H36.2017H39.545V12.739ZM39.545 15.6894V16.2258H36.2017H32.8583V15.6894V15.153H36.2017H39.545V15.6894ZM39.545 18.6398V19.7127H36.2017H32.8583V18.6398V17.5669H36.2017H39.545V18.6398ZM39.545 21.635V22.1267H36.2017H32.8583V21.635V21.1432H36.2017H39.545V21.635ZM39.5258 24.6077L39.5505 25.703H36.2044H32.8583V24.645C32.8583 24.0631 32.8851 23.5597 32.918 23.5264C32.9509 23.4929 34.4454 23.4762 36.2394 23.4891L39.501 23.5125L39.5258 24.6077ZM39.545 27.5805V28.117H36.2017H32.8583V27.5805V27.0441H36.2017H39.545V27.5805ZM8.34264 29.1585C9.09208 29.5434 9.57942 30.1393 9.85912 31.0133C10.0883 31.7293 10.1653 31.7826 10.9676 31.7826C12.0058 31.7826 12.6607 32.2041 12.8822 33.0148C13.0769 33.7272 13.6755 33.6602 7.12319 33.6602H1.27231V33.4338C1.27231 33.1307 1.49983 32.5939 1.73844 32.3339C2.10472 31.9349 2.53011 31.7826 3.27876 31.7826C4.09507 31.7826 4.16009 31.7337 4.40187 30.9367C4.71254 29.9123 5.63109 29.0949 6.64281 28.9426C7.1978 28.8591 7.94434 28.9539 8.34264 29.1585ZM39.545 31.5602V33.6623L36.2237 33.6389L32.9023 33.6155L32.8787 31.5368L32.855 29.4581H36.2001H39.545V31.5602Z" fill="#762D36"/>
<path d="M20.7966 1.10364C20.9544 0.905338 21.0319 0.890765 22.0723 0.86287L17.4578 0.847993C17.9009 0.850837 18.3476 0.895446 18.4645 0.949595C18.8953 1.14897 18.9348 1.87236 18.5271 2.09409C18.4311 2.14631 17.9541 2.18895 17.467 2.18895H22.108C21.1284 2.18895 21.0183 2.17223 20.8322 1.99458C20.5838 1.7573 20.5691 1.38957 20.7966 1.10364Z" fill="#762D36"/>
<path d="M43.1466 19.9133C43.1778 20.0043 43.2011 20.6114 43.2167 21.751L43.1963 17.3145L42.9886 17.4854C42.7087 17.7158 42.3454 17.702 42.1146 17.4523L41.926 17.2483L41.9206 26.7312C41.9448 22.9448 41.9981 19.7941 42.0391 19.7295C42.292 19.3316 42.9866 19.4468 43.1466 19.9133Z" fill="#762D36"/>
<path d="M8.34264 29.1585C9.09208 29.5434 9.57942 30.1393 9.85912 31.0133C10.0883 31.7293 10.1653 31.7826 10.9676 31.7826C12.0058 31.7826 12.6607 32.2041 12.8822 33.0148C13.0769 33.7272 13.6755 33.6602 7.12319 33.6602H1.27231V33.4338C1.27231 33.1307 1.49983 32.5939 1.73844 32.3339C2.10472 31.9349 2.53011 31.7826 3.27876 31.7826C4.09507 31.7826 4.16009 31.7337 4.40187 30.9367C4.71254 29.9123 5.63109 29.0949 6.64281 28.9426C7.1978 28.8591 7.94434 28.9539 8.34264 29.1585Z" fill="#762D36"/>
<path d="M39.545 21.635V22.1267H36.2017H32.8583V21.635V21.1432H36.2017H39.545V21.635Z" fill="#762D36"/>
<path d="M39.545 27.5805V28.117H36.2017H32.8583V27.5805V27.0441H36.2017H39.545V27.5805Z" fill="#762D36"/>
<path d="M39.545 15.6894V16.2258H36.2017H32.8583V15.6894V15.153H36.2017H39.545V15.6894Z" fill="#762D36"/>
<path d="M39.545 9.78854V10.325H36.2017H32.8583V9.78854V9.2521H36.2017H39.545V9.78854Z" fill="#762D36"/>
</svg>
