<svg width="45" height="45" viewBox="0 0 45 45" fill="none" xmlns="http://www.w3.org/2000/svg">
<path d="M25.6689 21.9279C25.6052 21.928 25.5429 21.9085 25.4899 21.8719C25.4369 21.8352 25.3956 21.7831 25.3711 21.7221C25.3467 21.6611 25.3403 21.594 25.3526 21.5292C25.365 21.4644 25.3956 21.4048 25.4406 21.3581C25.4856 21.3113 25.543 21.2795 25.6055 21.2666C25.6679 21.2536 25.7327 21.2602 25.7915 21.2855C25.8504 21.3107 25.9007 21.3535 25.9361 21.4085C25.9715 21.4634 25.9904 21.528 25.9904 21.594C25.9903 21.6824 25.9564 21.7672 25.8961 21.8298C25.8359 21.8924 25.7542 21.9277 25.6689 21.9279ZM29.0678 10L26.0867 11.7229C25.981 11.7836 25.8569 11.8002 25.7397 11.7694C25.7199 11.765 23.6532 11.2416 22.069 12.33C21.1069 12.9899 20.4989 14.1214 20.2619 15.693C19.9102 18.0166 19.8163 18.7549 19.771 19.1098C19.7238 19.4917 19.7195 19.5084 19.5538 20.3715C19.1828 22.3113 19.5321 23.1132 19.7728 23.4163C19.867 23.5346 19.9866 23.6285 20.122 23.6903C20.2574 23.7521 20.4049 23.7801 20.5527 23.7722C21.5015 23.7722 22.3536 23.5734 22.3536 21.1739C22.3536 18.516 22.3003 15.6558 22.2998 15.6269C22.2974 15.4971 22.3448 15.3717 22.4315 15.2781C22.5183 15.1845 22.6373 15.1306 22.7624 15.128H22.7719C22.8954 15.128 23.0141 15.1782 23.1024 15.2679C23.1906 15.3576 23.2415 15.4796 23.2439 15.6078C23.2439 15.6337 23.2869 17.9157 23.2959 20.3005L24.8612 20.7671C25.2176 18.2667 26.8142 16.8851 28.0207 15.8408C28.53 15.454 28.9806 14.9905 29.3576 14.4656C30.3022 12.846 30.205 11.3449 29.0664 10H29.0678ZM28.2431 33.2806C28.1625 33.2718 28.0854 33.2417 28.0192 33.1931C27.9531 33.1444 27.9001 33.079 27.8654 33.003C27.7418 32.7317 24.8442 26.3102 24.789 21.9211C24.789 21.8677 24.7928 21.8182 24.7928 21.7654L23.2944 21.3189C23.2609 23.6885 22.4126 24.7514 20.5527 24.7514C20.4871 24.7514 20.4271 24.7377 20.3639 24.7318C20.2514 25.2696 20.05 25.7831 19.7686 26.2495C19.6676 26.3964 17.8549 28.9912 17.0538 29.8725C16.5979 30.3982 16.2879 31.0422 16.1568 31.736C16.0258 32.4298 16.0784 33.1475 16.3093 33.8127C16.3376 33.8803 16.3697 33.9488 16.4066 34.0184H14.8157C14.4545 34.0348 14.0968 33.9376 13.7898 33.7395C13.4827 33.5415 13.2406 33.2518 13.095 32.9085C12.7419 32.0483 13.0266 30.9991 13.8569 30.1041C13.9438 30.0105 13.9912 29.885 13.9888 29.7552C13.9864 29.6254 13.9344 29.5019 13.8442 29.4118C13.754 29.3218 13.633 29.2726 13.5078 29.275C13.3826 29.2775 13.2635 29.3315 13.1767 29.425C12.0754 30.6138 11.7199 32.059 12.226 33.2928C12.4449 33.8122 12.8083 34.252 13.2696 34.5559C13.731 34.8598 14.2694 35.0139 14.8157 34.9985H24.6257C24.7045 34.5371 24.6149 34.0617 24.3745 33.6649C24.2875 33.5697 24.181 33.496 24.0629 33.4493C23.9447 33.4027 23.8179 33.3841 23.6919 33.3951H21.3642C21.2587 33.3948 21.1563 33.3579 21.0735 33.2902C20.9906 33.2226 20.9319 33.1281 20.9069 33.0218C20.8818 32.9155 20.8918 32.8036 20.9353 32.7039C20.9787 32.6042 21.0531 32.5225 21.1466 32.4718C21.4485 32.3081 21.7131 32.0792 21.9226 31.8005C22.132 31.5218 22.2814 31.1998 22.3607 30.8561C22.4829 30.3866 22.437 29.8871 22.2316 29.45C22.0262 29.0129 21.6751 28.6677 21.2433 28.4782C21.1858 28.4542 21.1333 28.4188 21.089 28.3739C21.0446 28.3289 21.0092 28.2754 20.9848 28.2162C20.9604 28.1571 20.9475 28.0936 20.9468 28.0293C20.9461 27.965 20.9576 27.9011 20.9806 27.8414C21.0037 27.7817 21.0379 27.7273 21.0812 27.6813C21.1245 27.6353 21.1762 27.5986 21.2332 27.5733C21.2902 27.548 21.3514 27.5346 21.4134 27.5339C21.4754 27.5331 21.537 27.5451 21.5945 27.569C22.2278 27.8415 22.7465 28.3393 23.0574 28.973C23.3683 29.6067 23.451 30.3347 23.2907 31.026C23.1838 31.5338 22.9666 32.0097 22.6557 32.4174H23.6943C23.9568 32.4056 24.2186 32.4545 24.4607 32.5604C24.7029 32.6663 24.9193 32.8267 25.0944 33.0299C25.4952 33.5969 25.6663 34.3039 25.5712 35H29.2609C29.3428 34.5672 29.2807 34.1185 29.0848 33.7271C28.9863 33.5913 28.8594 33.4805 28.7136 33.4032C28.5677 33.3258 28.4069 33.2839 28.2431 33.2806Z" fill="#762D36"/>
<path d="M33.3984 2.82254C33.3583 2.80246 33.3281 2.78237 33.298 2.76228C32.2031 2.1596 31.0379 1.6875 29.8426 1.27567L29.3002 1.09487C27.1507 0.41183 24.8705 0 22.5 0C10.0748 0 0 10.0748 0 22.5C0 30.9676 4.6808 38.3304 11.5915 42.1674C11.6317 42.1875 11.6618 42.2176 11.702 42.2377C12.7969 42.8404 13.9621 43.3125 15.1574 43.7243L15.6998 43.9051C17.8493 44.5882 20.1194 45 22.5 45C34.9252 45 45 34.9252 45 22.5C45 14.0324 40.3192 6.6596 33.3984 2.82254ZM22.5 39.6161C21.5658 39.6161 20.6518 39.5257 19.7679 39.375C18.7835 39.2143 17.8292 38.9632 16.9051 38.6417C16.7143 38.5815 16.5234 38.5212 16.3426 38.4509C15.6897 38.1998 15.0469 37.9185 14.4342 37.5871C9.05022 34.7042 5.38393 29.029 5.38393 22.49C5.38393 18.7533 6.62946 15.3181 8.66853 12.5056L32.4944 36.3315C29.6719 38.3705 26.2366 39.6161 22.5 39.6161ZM36.3415 32.4844L12.5156 8.65848C15.3281 6.62946 18.7533 5.38393 22.5 5.38393C23.4342 5.38393 24.3382 5.47433 25.2321 5.625C26.2165 5.78571 27.1708 6.03683 28.0949 6.35826C28.2757 6.41853 28.4665 6.47879 28.6574 6.54911C29.2801 6.79018 29.8828 7.05134 30.4654 7.36272C35.9096 10.2254 39.6261 15.9308 39.6261 22.51C39.6161 26.2467 38.3705 29.6719 36.3415 32.4844Z" fill="#762D36"/>
</svg>
