<svg width="45" height="45" viewBox="0 0 45 45" fill="none" xmlns="http://www.w3.org/2000/svg">
<path d="M32.9459 22.5H34.553V27.3214H32.9459V22.5ZM8.03516 27.3214H21.8566L17.0352 22.5H8.03516V27.3214Z" fill="#762D36"/>
<path d="M33.3984 2.82254C33.3583 2.80246 33.3281 2.78237 33.298 2.76228C32.2031 2.1596 31.0379 1.6875 29.8426 1.27567L29.3002 1.09487C27.1507 0.41183 24.8705 0 22.5 0C10.0748 0 0 10.0748 0 22.5C0 30.9676 4.6808 38.3304 11.5915 42.1674C11.6317 42.1875 11.6618 42.2176 11.702 42.2377C12.7969 42.8404 13.9621 43.3125 15.1574 43.7243L15.6998 43.9051C17.8493 44.5882 20.1194 45 22.5 45C34.9252 45 45 34.9252 45 22.5C45 14.0324 40.3192 6.6596 33.3984 2.82254ZM22.5 39.6161C21.5658 39.6161 20.6518 39.5257 19.7679 39.375C18.7835 39.2143 17.8292 38.9632 16.9051 38.6417C16.7143 38.5815 16.5234 38.5212 16.3426 38.4509C15.6897 38.1998 15.0469 37.9185 14.4342 37.5871C9.05022 34.7042 5.38393 29.029 5.38393 22.49C5.38393 18.7533 6.62946 15.3181 8.66853 12.5056L32.4944 36.3315C29.6719 38.3705 26.2366 39.6161 22.5 39.6161ZM36.3415 32.4844L12.5156 8.65848C15.3281 6.62946 18.7533 5.38393 22.5 5.38393C23.4342 5.38393 24.3382 5.47433 25.2321 5.625C26.2165 5.78571 27.1708 6.03683 28.0949 6.35826C28.2757 6.41853 28.4665 6.47879 28.6574 6.54911C29.2801 6.79018 29.8828 7.05134 30.4654 7.36272C35.9096 10.2254 39.6261 15.9308 39.6261 22.51C39.6161 26.2467 38.3705 29.6719 36.3415 32.4844Z" fill="#762D36"/>
<path d="M32.142 26.7187V22.5H27.9233L32.142 26.7187ZM35.3563 22.5H36.9634V27.3214H35.3563V22.5ZM32.9556 18.1506C32.0717 17.7388 30.7458 17.5781 28.3753 17.5781H28.0137C26.738 17.5881 26.4166 17.568 26.0047 16.9654C25.7235 16.5435 25.9043 15.4788 26.3764 14.7656C26.5371 14.5245 26.5572 14.2031 26.4166 13.9419C26.2759 13.6808 26.0047 13.5201 25.7134 13.51C25.7034 13.51 24.7693 13.5 23.8753 13.1183C22.8105 12.6663 22.3083 11.9029 22.3083 10.798C22.3083 8.20644 24.498 8.01559 24.5985 8.01559V6.40845C23.3931 6.40845 20.7012 7.51336 20.7012 10.798C20.7012 12.5558 21.6052 13.9118 23.2826 14.6149C23.7045 14.7857 24.1264 14.9062 24.488 14.9765C24.1565 15.9609 24.1264 17.0759 24.6588 17.8593C25.5628 19.1953 26.6978 19.1852 28.0036 19.1752H28.3552C30.9969 19.1752 31.8306 19.4062 32.2626 19.6071C32.8351 19.8683 32.9456 20.7622 32.9255 21.5859V21.6863H34.5326V21.5859C34.5326 20.8727 34.5628 18.8939 32.9556 18.1506Z" fill="#762D36"/>
<path d="M36.9648 21.6964C36.9648 19.115 36.6635 17.3571 36.0508 16.3125C35.1869 14.8661 33.8008 14.0625 32.1434 14.0625H30.3956C30.6869 13.2288 30.9381 12.0737 30.7472 10.9587C30.4258 9.07031 28.8287 7.94531 26.418 7.94531V9.55246C28.5273 9.55246 29.0396 10.4665 29.1702 11.2299C29.4213 12.6864 28.4872 14.4542 28.4771 14.4743C28.3365 14.7254 28.3465 15.0268 28.4872 15.2679C28.6278 15.5089 28.899 15.6596 29.1802 15.6596H32.1434C33.2383 15.6596 34.0921 16.1518 34.6646 17.1261C34.976 17.6585 35.3577 18.8839 35.3577 21.6864H36.9648V21.6964Z" fill="#762D36"/>
</svg>
