<svg width="45" height="45" viewBox="0 0 45 45" fill="none" xmlns="http://www.w3.org/2000/svg">
<path d="M33.9425 31.2849L33.5701 30.2233V30.2211L32.8836 28.2647V28.2625L31.1104 23.2127V23.2096L29.7928 19.4537C29.7919 19.4507 29.7909 19.4479 29.7897 19.4451L28.8777 16.8452H28.8988C29.0133 16.8448 29.1264 16.8193 29.2302 16.7705C29.334 16.7217 29.426 16.6507 29.4997 16.5626C29.5735 16.4744 29.6273 16.3712 29.6575 16.26C29.6876 16.1488 29.6933 16.0324 29.6742 15.9188L29.4909 14.8459C29.4879 14.8277 29.4893 14.809 29.495 14.7915C29.5007 14.7739 29.5106 14.758 29.5237 14.7451L30.2982 13.9859C30.4035 13.8828 30.4779 13.7521 30.5132 13.6086C30.5484 13.4652 30.543 13.3146 30.4976 13.1741C30.4522 13.0335 30.3686 12.9085 30.2563 12.8133C30.144 12.7181 30.0074 12.6563 29.862 12.6351L28.7905 12.4797C28.7724 12.477 28.7552 12.4699 28.7404 12.4591C28.7256 12.4482 28.7137 12.4339 28.7056 12.4173L28.2267 11.4412C28.1616 11.3087 28.061 11.1972 27.9363 11.1193C27.8115 11.0413 27.6676 11 27.5207 11C27.3739 11 27.2299 11.0413 27.1052 11.1193C26.9804 11.1972 26.8798 11.3087 26.8147 11.4412L26.3363 12.4173C26.3281 12.4338 26.3161 12.4482 26.3012 12.459C26.2863 12.4699 26.2691 12.477 26.2509 12.4797L25.1804 12.636C25.0351 12.6574 24.8986 12.7192 24.7864 12.8145C24.6741 12.9097 24.5906 13.0347 24.5453 13.1752C24.4999 13.3156 24.4945 13.4661 24.5296 13.6095C24.5648 13.753 24.6391 13.8836 24.7442 13.9868L25.5187 14.746C25.5319 14.7589 25.5418 14.7748 25.5475 14.7923C25.5532 14.8099 25.5546 14.8286 25.5514 14.8468L25.3686 15.9197C25.3491 16.035 25.3552 16.1533 25.3864 16.2659C25.4177 16.3786 25.4734 16.4829 25.5495 16.5714C25.6256 16.6599 25.7202 16.7303 25.8266 16.7777C25.9329 16.825 26.0484 16.8481 26.1647 16.8452L24.2042 22.4318L22.8155 26.3902L22.5011 27.2859L18.8379 16.8466H18.859C18.9735 16.8461 19.0866 16.8207 19.1904 16.7718C19.2941 16.723 19.3861 16.6521 19.4598 16.5639C19.5336 16.4758 19.5873 16.3725 19.6174 16.2613C19.6475 16.1502 19.6531 16.0337 19.634 15.9201L19.4511 14.8477C19.448 14.8295 19.4494 14.8108 19.455 14.7931C19.4606 14.7755 19.4704 14.7595 19.4835 14.7465L20.2584 13.9873C20.3637 13.8841 20.4381 13.7534 20.4733 13.6099C20.5086 13.4664 20.5032 13.3158 20.4577 13.1753C20.4123 13.0347 20.3286 12.9097 20.2162 12.8145C20.1038 12.7193 19.9672 12.6576 19.8217 12.6365L18.7516 12.4801C18.7335 12.4774 18.7162 12.4703 18.7014 12.4595C18.6865 12.4486 18.6745 12.4343 18.6663 12.4178L18.1883 11.4416C18.1238 11.3087 18.0234 11.1968 17.8986 11.1187C17.7737 11.0406 17.6295 10.9995 17.4825 11.0001C17.3356 10.9995 17.1914 11.0406 17.0666 11.1186C16.9418 11.1966 16.8413 11.3084 16.7767 11.4412L16.2969 12.4173C16.2888 12.4338 16.2767 12.4482 16.2619 12.459C16.247 12.4699 16.2298 12.477 16.2116 12.4797L15.1415 12.636C14.996 12.6572 14.8594 12.7188 14.747 12.8141C14.6346 12.9093 14.551 13.0342 14.5055 13.1748C14.4601 13.3154 14.4546 13.4659 14.4899 13.6094C14.5251 13.753 14.5995 13.8837 14.7048 13.9868L15.4798 14.746C15.4928 14.759 15.5025 14.7749 15.5082 14.7925C15.5138 14.81 15.5152 14.8286 15.5121 14.8468L15.3293 15.9197C15.3097 16.035 15.3158 16.1533 15.3471 16.2661C15.3784 16.3788 15.4342 16.4831 15.5103 16.5716C15.5865 16.6601 15.6811 16.7305 15.7875 16.7778C15.894 16.8251 16.0095 16.8481 16.1258 16.8452L13.0996 25.4705L13.0026 25.7462L11.7088 29.4343L11.0596 31.2849C11.0173 31.4045 10.9972 31.5308 11.0003 31.6577C11.0054 31.8455 11.0606 32.0285 11.1601 32.1875C11.2596 32.3465 11.3998 32.4757 11.5659 32.5615C11.6207 32.59 11.6773 32.618 11.7344 32.6465L11.7793 32.6696C11.8314 32.6953 11.8844 32.7211 11.9388 32.7468L11.9815 32.7667L12.1135 32.8277L12.1917 32.863L12.2816 32.9018C12.4074 32.9576 12.5343 33.0107 12.6625 33.0614L12.6832 33.0695C12.841 33.1328 12.9999 33.193 13.1598 33.2503H13.1666C14.5537 33.7449 16.0144 33.9985 17.4861 34C17.5849 34 17.6845 33.9989 17.7849 33.9968C19.4066 33.9554 21.0063 33.6098 22.502 32.9778C24.0893 33.6519 25.7948 33.9995 27.5178 34C27.6193 34 27.7209 33.9989 27.8224 33.9968C28.2732 33.986 28.723 33.9511 29.1701 33.8924L29.1984 33.8888C30.6756 33.6906 32.1085 33.241 33.4357 32.5593C33.6585 32.4438 33.8324 32.2513 33.9255 32.0172C34.0186 31.7831 34.0246 31.5231 33.9425 31.2849ZM32.8603 30.2373C32.754 30.3127 32.6319 30.3622 32.5034 30.3821C32.3749 30.402 32.2436 30.3916 32.1198 30.3519C31.996 30.3122 31.8829 30.2441 31.7896 30.1531C31.6963 30.062 31.6253 29.9505 31.582 29.8272C31.5387 29.7039 31.5245 29.5722 31.5403 29.4424C31.5561 29.3126 31.6016 29.1883 31.6732 29.0792C31.7449 28.97 31.8406 28.8791 31.953 28.8135C32.0654 28.7478 32.1915 28.7093 32.3212 28.7008L32.8603 30.2373ZM30.3894 23.1919C30.1273 23.3425 29.8305 23.4213 29.5286 23.4206C29.0911 23.4176 28.6706 23.2501 28.3497 22.9509C28.0288 22.6518 27.8307 22.2426 27.7945 21.804C27.7583 21.3654 27.8865 20.9291 28.154 20.5808C28.4214 20.2325 28.8088 19.9974 29.2398 19.9219L30.3894 23.1919ZM26.0766 16.1456C26.0591 16.1335 26.0455 16.1164 26.0375 16.0966C26.0295 16.0768 26.0275 16.055 26.0317 16.034L26.2145 14.9616C26.2363 14.8352 26.2273 14.7054 26.1882 14.5833C26.149 14.4612 26.081 14.3505 25.9899 14.2607L25.2141 13.501C25.1989 13.4862 25.1882 13.4674 25.1831 13.4467C25.1781 13.4261 25.1788 13.4044 25.1854 13.3842C25.1919 13.3639 25.204 13.346 25.2202 13.3323C25.2364 13.3186 25.256 13.3097 25.277 13.3067L26.3475 13.1503C26.4738 13.1319 26.5938 13.0828 26.697 13.0073C26.8003 12.9318 26.8837 12.8321 26.9401 12.7169L27.419 11.7412C27.4283 11.7222 27.4428 11.7061 27.4607 11.6949C27.4787 11.6837 27.4994 11.6777 27.5205 11.6777C27.5416 11.6777 27.5623 11.6837 27.5803 11.6949C27.5982 11.7061 27.6127 11.7222 27.622 11.7412L28.1005 12.7169C28.157 12.8321 28.2405 12.9318 28.3438 13.0073C28.4471 13.0828 28.5671 13.1319 28.6935 13.1503L29.7636 13.3067C29.7845 13.3097 29.8042 13.3186 29.8204 13.3323C29.8366 13.346 29.8486 13.3639 29.8552 13.3842C29.8617 13.4044 29.8625 13.4261 29.8574 13.4467C29.8524 13.4674 29.8416 13.4862 29.8265 13.501L29.052 14.2607C28.961 14.3505 28.893 14.4612 28.8538 14.5833C28.8147 14.7054 28.8056 14.8352 28.8274 14.9616L29.0102 16.034C29.0138 16.055 29.0115 16.0766 29.0036 16.0963C28.9956 16.116 28.9824 16.1331 28.9652 16.1457C28.9481 16.1582 28.9278 16.1656 28.9067 16.1671C28.8856 16.1686 28.8645 16.1642 28.8458 16.1542L27.8884 15.6481C27.7755 15.5881 27.6498 15.5568 27.5221 15.5568C27.3944 15.5568 27.2686 15.5881 27.1557 15.6481L26.1984 16.1542C26.1797 16.1651 26.1582 16.1701 26.1366 16.1685C26.1151 16.167 26.0945 16.159 26.0775 16.1456H26.0766ZM24.7172 23.0066C25.067 23.2142 25.3343 23.5376 25.4734 23.9215C25.6124 24.3054 25.6145 24.7259 25.4793 25.1112C25.3442 25.4965 25.0802 25.8226 24.7324 26.0337C24.3847 26.2448 23.9748 26.3279 23.573 26.2686L24.7172 23.0066ZM16.0386 16.1456C16.0212 16.1334 16.0077 16.1164 15.9997 16.0965C15.9917 16.0767 15.9896 16.055 15.9937 16.034L16.1765 14.9616C16.1983 14.8352 16.1892 14.7054 16.1501 14.5833C16.1109 14.4612 16.0429 14.3505 15.9519 14.2607L15.1752 13.501C15.1602 13.4861 15.1496 13.4673 15.1446 13.4467C15.1397 13.4261 15.1405 13.4045 15.147 13.3843C15.1536 13.3642 15.1655 13.3462 15.1816 13.3325C15.1977 13.3188 15.2172 13.3099 15.2381 13.3067L16.3086 13.1503C16.4349 13.1319 16.5549 13.0828 16.6582 13.0073C16.7614 12.9318 16.8448 12.8321 16.9012 12.7169L17.3796 11.7412C17.389 11.7222 17.4034 11.7061 17.4214 11.6949C17.4393 11.6837 17.46 11.6777 17.4812 11.6777C17.5023 11.6777 17.523 11.6837 17.5409 11.6949C17.5589 11.7061 17.5733 11.7222 17.5827 11.7412L18.062 12.7169C18.1184 12.8321 18.2018 12.9318 18.3051 13.0073C18.4083 13.0828 18.5283 13.1319 18.6546 13.1503L19.7252 13.3067C19.746 13.3098 19.7657 13.3187 19.7818 13.3324C19.7979 13.3461 19.8099 13.3641 19.8164 13.3843C19.8229 13.4045 19.8236 13.4262 19.8186 13.4468C19.8135 13.4674 19.8027 13.4862 19.7876 13.501L19.0131 14.2607C18.9221 14.3505 18.8541 14.4612 18.8149 14.5833C18.7758 14.7054 18.7667 14.8352 18.7885 14.9616L18.9713 16.034C18.9749 16.0549 18.9726 16.0764 18.9646 16.0961C18.9567 16.1158 18.9435 16.1328 18.9264 16.1453C18.9094 16.1578 18.8892 16.1653 18.8681 16.1668C18.8471 16.1684 18.826 16.164 18.8073 16.1542L17.8495 15.6481C17.7367 15.5881 17.611 15.5568 17.4834 15.5568C17.3558 15.5568 17.2301 15.5881 17.1173 15.6481L16.1595 16.1542C16.1408 16.1651 16.1193 16.1701 16.0977 16.1685C16.0762 16.167 16.0556 16.159 16.0386 16.1456ZM16.9636 16.4941L17.4286 16.2478C17.4449 16.2393 17.463 16.2349 17.4814 16.2349C17.4998 16.2349 17.5179 16.2393 17.5342 16.2478L18 16.4941L18.6411 18.3221C17.7107 19.4736 16.6285 20.3412 15.4146 20.9088L16.9636 16.4941ZM15.1114 21.7734C16.5422 21.2252 17.8145 20.3155 18.9012 19.0619L19.8132 21.6608C19.4834 22.0756 19.1202 22.4624 18.7274 22.8173C17.3491 24.0506 15.4501 25.0516 13.8306 25.4203L15.1114 21.7734ZM13.5709 26.1615C15.4034 25.8506 17.5786 24.7515 19.1739 23.3198C19.4921 23.0334 19.7922 22.7274 20.0724 22.4033L20.6245 23.976C19.9651 25.2717 18.1829 28.0668 14.774 28.9634C14.03 29.1574 13.2629 29.2474 12.4945 29.2309L13.5709 26.1615ZM12.6652 32.3297L12.6261 32.313C12.5929 32.299 12.5605 32.2845 12.5278 32.2701L12.4581 32.2393L12.3773 32.2027L12.2339 32.1358L12.189 32.1146L12.0713 32.0581L12.0264 32.0351C11.9752 32.0098 11.9244 31.984 11.8741 31.9582C11.8206 31.9306 11.7747 31.8902 11.7404 31.8406C11.7061 31.7909 11.6844 31.7336 11.6773 31.6735C11.6708 31.6185 11.677 31.5627 11.6953 31.5104L12.2582 29.8997C13.1621 29.941 14.0671 29.8456 14.9429 29.6168C18.182 28.7677 20.0477 26.3423 20.926 24.8342L21.5549 26.6319L21.7926 27.3098C21.2198 28.5133 20.4422 29.5382 19.4803 30.3584C17.4587 32.0839 15.1675 32.3699 13.3108 32.585C13.0848 32.5023 12.8687 32.4165 12.6652 32.3297ZM23.0914 31.9578C21.4408 32.8068 19.6219 33.2725 17.7687 33.3208C17.673 33.323 17.5791 33.3239 17.4852 33.3239C16.6266 33.3242 15.7704 33.2334 14.9308 33.0528C16.5283 32.7857 18.2862 32.2687 19.9174 30.8772C20.8009 30.1207 21.5409 29.2096 22.1017 28.1879L23.2697 31.5122C23.2982 31.5956 23.2958 31.6866 23.2631 31.7684C23.2303 31.8503 23.1694 31.9175 23.0914 31.9578ZM28.9356 33.2403C28.5731 33.2833 28.1971 33.3117 27.8071 33.3208C27.147 33.3365 26.4867 33.2982 25.8327 33.2064C25.6975 32.937 25.6336 32.637 25.6471 32.3355C25.6606 32.034 25.751 31.7411 25.9096 31.4849C26.0683 31.2287 26.2898 31.018 26.5529 30.8729C26.816 30.7278 27.1118 30.6534 27.4119 30.6566C27.7119 30.6599 28.006 30.7408 28.2659 30.8916C28.5258 31.0424 28.7428 31.258 28.8959 31.5175C29.0489 31.7771 29.133 32.072 29.14 32.3737C29.147 32.6754 29.0766 32.9739 28.9356 33.2403ZM33.1298 31.9578C32.052 32.5111 30.8999 32.9039 29.7097 33.1237C29.8192 32.7618 29.8435 32.3793 29.7806 32.0063C29.7176 31.6333 29.5692 31.2803 29.347 30.975C29.1248 30.6698 28.835 30.4208 28.5006 30.2478C28.1661 30.0749 27.7962 29.9826 27.4202 29.9784C27.0442 29.9742 26.6723 30.0581 26.3341 30.2236C25.9959 30.3891 25.7007 30.6315 25.4719 30.9317C25.243 31.2319 25.0868 31.5816 25.0156 31.953C24.9444 32.3245 24.9602 32.7075 25.0618 33.0718C24.4808 32.9511 23.9093 32.7886 23.3515 32.5855L23.3991 32.5611C23.6222 32.4454 23.7962 32.2526 23.8891 32.0181C23.9819 31.7835 23.9874 31.5231 23.9045 31.2849L22.8605 28.3049L23.3456 26.9162C23.9185 27.0319 24.5136 26.9358 25.0217 26.6455C25.5297 26.3552 25.9165 25.8901 26.111 25.3359C26.3055 24.7816 26.2946 24.1754 26.0803 23.6286C25.866 23.0818 25.4627 22.6311 24.9445 22.3595L27.0021 16.4941L27.4675 16.2478C27.4838 16.2393 27.5019 16.2349 27.5203 16.2349C27.5386 16.2349 27.5567 16.2393 27.5731 16.2478L28.0385 16.4941L29.0152 19.2756C28.6778 19.348 28.3598 19.492 28.0821 19.6979C27.8045 19.9038 27.5737 20.1668 27.4051 20.4695C27.2365 20.7722 27.1341 21.1076 27.1046 21.4533C27.075 21.799 27.1191 22.1471 27.2339 22.4743C27.3487 22.8014 27.5315 23.1003 27.7702 23.3508C28.0088 23.6013 28.2978 23.7977 28.6179 23.9269C28.938 24.0562 29.2818 24.1153 29.6264 24.1003C29.971 24.0853 30.3085 23.9965 30.6163 23.84L32.0929 28.0491C31.8781 28.0899 31.6745 28.1769 31.4962 28.3042C31.3179 28.4315 31.1691 28.5961 31.06 28.7866C30.9508 28.9772 30.884 29.1893 30.864 29.4083C30.8439 29.6273 30.8712 29.8481 30.944 30.0555C31.0168 30.2629 31.1332 30.4521 31.2855 30.6099C31.4377 30.7678 31.6221 30.8907 31.826 30.9702C32.0298 31.0496 32.2484 31.0838 32.4666 31.0703C32.6848 31.0569 32.8976 30.9961 33.0903 30.8922L33.3082 31.5117C33.3367 31.5952 33.3343 31.6863 33.3016 31.7682C33.2688 31.8501 33.2079 31.9174 33.1298 31.9578ZM28.1045 25.851C27.8044 25.8506 27.5108 25.9397 27.261 26.1071C27.0112 26.2746 26.8164 26.5128 26.7013 26.7917C26.5861 27.0705 26.5558 27.3775 26.6141 27.6737C26.6724 27.9699 26.8168 28.242 27.0289 28.4556C27.241 28.6693 27.5114 28.8148 27.8058 28.8738C28.1001 28.9329 28.4053 28.9027 28.6826 28.7872C28.96 28.6717 29.197 28.476 29.3638 28.2249C29.5305 27.9738 29.6195 27.6786 29.6194 27.3767C29.6192 26.9724 29.4595 26.5848 29.1755 26.2988C28.8916 26.0128 28.5064 25.8517 28.1045 25.851ZM28.1045 28.2249C27.9377 28.2254 27.7744 28.176 27.6354 28.0831C27.4965 27.9902 27.388 27.8578 27.3239 27.7029C27.2597 27.5479 27.2427 27.3773 27.275 27.2126C27.3073 27.0479 27.3874 26.8965 27.5052 26.7777C27.6231 26.6588 27.7733 26.5778 27.9369 26.5449C28.1006 26.512 28.2702 26.5287 28.4245 26.5928C28.5787 26.6569 28.7105 26.7657 28.8032 26.9052C28.896 27.0447 28.9455 27.2088 28.9455 27.3767C28.9455 27.6013 28.857 27.8167 28.6993 27.9757C28.5417 28.1347 28.3278 28.2243 28.1045 28.2249Z" fill="#762D36"/>
<path d="M33.3984 2.82254C33.3583 2.80246 33.3281 2.78237 33.298 2.76228C32.2031 2.1596 31.0379 1.6875 29.8426 1.27567L29.3002 1.09487C27.1507 0.41183 24.8705 0 22.5 0C10.0748 0 0 10.0748 0 22.5C0 30.9676 4.6808 38.3304 11.5915 42.1674C11.6317 42.1875 11.6618 42.2176 11.702 42.2377C12.7969 42.8404 13.9621 43.3125 15.1574 43.7243L15.6998 43.9051C17.8493 44.5882 20.1194 45 22.5 45C34.9252 45 45 34.9252 45 22.5C45 14.0324 40.3192 6.6596 33.3984 2.82254ZM22.5 39.6161C21.5658 39.6161 20.6518 39.5257 19.7679 39.375C18.7835 39.2143 17.8292 38.9632 16.9051 38.6417C16.7143 38.5815 16.5234 38.5212 16.3426 38.4509C15.6897 38.1998 15.0469 37.9185 14.4342 37.5871C9.05022 34.7042 5.38393 29.029 5.38393 22.49C5.38393 18.7533 6.62946 15.3181 8.66853 12.5056L32.4944 36.3315C29.6719 38.3705 26.2366 39.6161 22.5 39.6161ZM36.3415 32.4844L12.5156 8.65848C15.3281 6.62946 18.7533 5.38393 22.5 5.38393C23.4342 5.38393 24.3382 5.47433 25.2321 5.625C26.2165 5.78571 27.1708 6.03683 28.0949 6.35826C28.2757 6.41853 28.4665 6.47879 28.6574 6.54911C29.2801 6.79018 29.8828 7.05134 30.4654 7.36272C35.9096 10.2254 39.6261 15.9308 39.6261 22.51C39.6161 26.2467 38.3705 29.6719 36.3415 32.4844Z" fill="#762D36"/>
</svg>
