<svg width="45" height="41" viewBox="0 0 45 41" fill="none" xmlns="http://www.w3.org/2000/svg">
<path fill-rule="evenodd" clip-rule="evenodd" d="M29.6173 5.36071C29.3426 5.46871 28.9349 5.84633 28.7838 6.13275C28.6019 6.47707 24.9594 19.712 24.9594 20.0281C24.9594 20.3631 25.2089 20.8795 25.5013 21.1493C25.9373 21.5517 26.2521 21.6099 27.9886 21.6099H29.6173V23.3038V24.9977L29.3756 25.0507C27.7495 25.4079 26.1321 25.9436 25.0278 26.4908C24.7512 26.6278 24.4879 26.74 24.4425 26.74C24.3972 26.74 23.9937 26.4678 23.5459 26.1352C22.5954 25.429 20.64 24.4266 19.3787 23.9989L18.4998 23.7009L18.4744 22.9597L18.449 22.2186L19.2654 22.2167C20.3561 22.2141 20.7624 22.0413 21.0172 21.4715C21.1385 21.2001 21.1801 20.9786 21.1437 20.7981C21.1137 20.6501 20.6069 18.7892 20.0175 16.6628C19.0222 13.0727 18.9254 12.7766 18.6626 12.5166C18.1389 11.9985 17.2907 12.0657 16.8524 12.66C16.6639 12.9155 14.5009 20.6195 14.5014 21.0333C14.5017 21.3674 14.7632 21.8088 15.0837 22.0166C15.2633 22.133 15.5499 22.1801 16.2303 22.2051L17.1376 22.2383V22.8044V23.3707L16.8602 23.3158C14.1072 22.6307 11.0602 22.9707 9.88074 23.2264L9.43499 23.2825L9.00189 21.6956C8.76372 20.8228 8.49998 19.9961 8.41578 19.8586C7.94384 19.0871 6.69078 19.0577 6.1785 19.8061C6.06627 19.97 5.72431 21.0357 5.36239 22.349C5.01982 23.5924 4.71828 24.6787 4.69236 24.7632C4.66643 24.8475 4.33862 25.0916 3.96379 25.3055C2.68296 26.0364 1.21431 27.2183 0.433713 28.1463L0 28.6619V34.5629C0 37.8085 0.0246078 40.5273 0.0545766 40.6047C0.215494 41.0196 -0.904513 40.9999 22.4986 40.9999C45.9017 40.9999 44.7817 41.0196 44.9426 40.6047C45.0385 40.3574 45.0055 28.3091 44.9084 28.1296C44.7687 27.8714 43.187 26.8724 42.1561 26.3913C41.6402 26.1506 41.2181 25.9391 41.2181 25.9215C41.2181 25.9039 40.8619 24.6038 40.4266 23.0323C39.6507 20.2315 39.6284 20.169 39.2983 19.8592C38.8324 19.4218 38.3701 19.3486 37.8116 19.6237C37.5811 19.7373 37.3314 19.9429 37.2475 20.0883C37.1647 20.2318 36.8272 21.3262 36.4974 22.5204L35.8979 24.6916L34.0978 24.6709C33.1078 24.6596 31.9912 24.6821 31.6166 24.7211L30.9355 24.7919V23.2008V21.6099H32.5203C34.2097 21.6099 34.5299 21.5496 34.9637 21.1493C35.2618 20.8741 35.5056 20.361 35.5056 20.0085C35.5056 19.8413 35.1684 18.48 34.7563 16.9835L32.6479 9.3693C31.832 6.42299 31.7451 6.15196 31.52 5.8499C31.1574 5.3635 30.2217 5.12291 29.6173 5.36071ZM22.3958 26.9418C20.3634 25.6104 18.0483 24.776 15.4591 24.4416C13.3077 24.1702 11.5285 24.3228 10.9079 24.433C10.3575 24.5033 9.88927 24.5786 9.86729 24.6003C9.84532 24.6221 10.1526 25.8119 10.5502 27.2444C11.3207 30.0212 11.3367 30.1501 10.9835 30.723C10.6873 31.2036 10.2369 31.3443 8.98625 31.3464L7.90966 31.3484V32.1846C7.90966 32.94 7.92451 33.0163 8.06345 32.9759C9.28681 32.6191 11.0791 32.1748 12.1492 31.963C14.4258 31.5123 15.5258 31.3731 19.4805 31.0347L20.0218 30.9884L20.3594 30.4077C20.6902 29.8386 22.1447 28.2965 22.8792 27.736L23.2159 27.4791L22.3958 26.9418ZM34.1341 20.0806C34.16 20.0141 33.8459 18.7506 33.4362 17.2729L31.2896 9.52381C30.9007 8.11304 30.5443 6.8707 30.4973 6.76314C30.4087 6.55993 30.2691 6.5195 30.0757 6.64106C29.998 6.68975 26.2776 19.7918 26.2776 20.0166C26.2776 20.0252 26.3398 20.0938 26.4157 20.1691C26.5368 20.2888 26.9949 20.3055 30.1288 20.3044C32.0952 20.3038 33.7901 20.2804 33.8956 20.2524C34.001 20.2244 34.1084 20.1472 34.1341 20.0806ZM19.7515 20.7187C19.7286 20.6589 19.3054 19.1427 18.8112 17.3493C18.0479 14.5805 17.7528 13.6445 17.7528 13.9925C17.7528 14.0304 17.3375 15.5578 16.83 17.3867C16.3225 19.2156 15.9072 20.738 15.9072 20.7697C15.9072 20.8015 16.7815 20.8274 17.8501 20.8274C19.3679 20.8274 19.7839 20.8036 19.7515 20.7187ZM9.84313 29.8767C9.84313 29.8326 9.28884 27.7881 8.61133 25.3336C7.93382 22.879 7.35053 20.8019 7.31502 20.7175C7.27337 20.6186 6.80125 22.1886 5.98154 25.152C5.28365 27.6753 4.69614 29.7887 4.67584 29.8485C4.64701 29.9338 5.19849 29.9572 7.24111 29.9572C8.77603 29.9572 9.84313 29.9242 9.84313 29.8767ZM40.9546 30.1093C40.9548 30.0496 40.3943 27.966 39.7091 25.4792C39.024 22.9924 38.4403 20.9301 38.412 20.8963C38.3837 20.8625 37.79 22.8971 37.0927 25.4177C36.3953 27.9383 35.808 30.0496 35.7876 30.1093C35.7584 30.1946 36.3096 30.218 38.3524 30.218C40.3754 30.218 40.9545 30.1938 40.9546 30.1093ZM34.9746 27.9849C35.2626 26.9456 35.477 26.0739 35.4509 26.048C35.3961 25.9936 32.3835 25.9653 31.8583 26.0143C27.6632 26.4055 23.9515 28.0341 22.1068 30.293C21.8389 30.621 21.6197 30.9084 21.6197 30.9317C21.6197 30.955 22.7172 31.0001 24.0585 31.0319C25.5727 31.0929 29.0719 31.3 30.9548 31.6409C31.9047 31.739 34.5 32.2966 35.9331 32.7104C36.6888 32.9287 37.3961 33.1268 37.5049 33.1509C37.6993 33.1939 37.7027 33.1806 37.7027 32.3585V31.5223L36.5382 31.5219C35.2314 31.5216 34.9584 31.4317 34.6263 30.8927C34.3567 30.4553 34.4075 30.0315 34.9746 27.9849ZM42.9978 37.107C40.1922 35.3294 36.1923 33.9102 31.6837 33.0928C29.9621 32.7373 26.8936 32.4798 25.5746 32.3955C23.5541 32.2717 19.8576 32.3111 18.0164 32.4762C11.4686 33.0632 5.78389 34.7045 2.01643 37.0954L1.31828 37.5386V38.6171V39.6956H22.4986H43.6789V38.6171V37.5386L42.9978 37.107ZM3.70225 30.8814C3.19779 30.3665 3.1962 30.1139 3.68634 28.3395C3.92275 27.4838 4.1081 26.7757 4.09826 26.766C4.0399 26.7082 2.4773 27.9469 1.94824 28.4704L1.31828 29.0936V32.5178V35.9419L2.17516 35.4539C3.17581 34.884 4.6732 34.1889 5.79646 33.7726L6.58971 33.4786L6.5905 32.4135L6.59138 31.3484L5.60267 31.3478C4.40867 31.3473 4.07945 31.2665 3.70225 30.8814ZM43.4821 28.6362C43.3729 28.554 43.0066 28.3305 42.6682 28.1394C41.8285 27.6651 41.7049 27.6233 41.7638 27.8339C42.4506 30.2893 42.4685 30.4962 42.039 31.0011C41.6505 31.458 41.4258 31.5223 40.217 31.5223C39.6132 31.5223 39.0987 31.555 39.0737 31.5951C39.0486 31.6352 39.0519 32.1343 39.0809 32.7043L39.1335 33.7405L39.6704 33.9457C40.4464 34.242 42.3979 35.1886 43.0637 35.5916L43.6349 35.9374L43.6579 32.3615L43.6809 28.7856L43.4821 28.6362Z" fill="#762D36"/>
<path fill-rule="evenodd" clip-rule="evenodd" d="M10.9417 0.0472636C9.82766 0.198992 8.81382 0.676785 7.9565 1.45403C7.33779 2.01486 6.76522 2.81498 6.54041 3.43259C6.41288 3.783 6.34126 3.85256 5.91756 4.03716C4.37501 4.7092 3.38032 6.55237 3.68379 8.17652C3.80358 8.81725 4.19361 9.65137 4.54761 10.0238L4.81628 10.3064H7.75383H10.6913H13.1748H18.4861C18.8828 10.3064 19.252 10.3066 19.5955 10.3068C23.2391 10.3093 23.9977 10.3098 24.1774 9.99096C24.2247 9.90713 24.2319 9.80123 24.241 9.66747C24.2443 9.61949 24.2478 9.56792 24.2535 9.51251C24.3601 8.47693 24.0477 7.51439 23.3684 6.78522C22.9042 6.287 22.4428 6.01476 21.7339 5.82094C21.2189 5.68008 21.1719 5.64443 20.8772 5.17212C20.0905 3.91108 18.7421 3.13783 17.1891 3.05705L16.6692 3.03001L16.3032 2.47179C15.1752 0.751736 12.998 -0.232804 10.9417 0.0472636ZM5.38032 9.00211H7.99534L17.2755 9.0252C17.5139 9.02411 17.7659 9.02296 18.0308 9.02167L22.9606 8.99785L22.9117 8.63779C22.8031 7.83654 21.968 7.11911 21.0387 7.02886C20.7541 7.00121 20.4516 6.94321 20.3667 6.9C20.2817 6.85687 20.0979 6.57219 19.9583 6.26761C19.6328 5.55731 19.1238 5.01439 18.4817 4.6925C18.0354 4.46878 17.8639 4.43417 17.0936 4.41287L17.021 4.41087C16.3401 4.39215 16.0609 4.38447 15.8766 4.24972C15.7485 4.15604 15.6663 4.00095 15.5268 3.73805L15.5054 3.69761C15.3277 3.36312 15.0291 2.91723 14.8419 2.70673C13.212 0.874944 10.2144 0.862249 8.56229 2.68021C8.10019 3.18869 7.96555 3.42216 7.64943 4.2621L7.42075 4.86953L6.81944 5.08813C5.63273 5.51949 4.96366 6.41881 4.97693 7.56482C4.98203 8.00809 5.03845 8.28955 5.18214 8.5891L5.38032 9.00211Z" fill="#762D36"/>
<path d="M18.8112 17.3493C19.3054 19.1427 19.7286 20.6589 19.7515 20.7187C19.7839 20.8036 19.3679 20.8274 17.8501 20.8274C16.7815 20.8274 15.9072 20.8015 15.9072 20.7697C15.9072 20.738 16.3225 19.2156 16.83 17.3867C17.3375 15.5578 17.7528 14.0304 17.7528 13.9925C17.7528 13.6445 18.0479 14.5805 18.8112 17.3493Z" fill="#762D36"/>
<path d="M39.7091 25.4792C40.3943 27.966 40.9548 30.0496 40.9546 30.1093C40.9545 30.1938 40.3754 30.218 38.3524 30.218C36.3096 30.218 35.7584 30.1946 35.7876 30.1093C35.808 30.0496 36.3953 27.9383 37.0927 25.4177C37.79 22.8971 38.3837 20.8625 38.412 20.8963C38.4403 20.9301 39.024 22.9924 39.7091 25.4792Z" fill="#762D36"/>
<path d="M31.6837 33.0928C36.1923 33.9102 40.1922 35.3294 42.9978 37.107L43.6789 37.5386V38.6171V39.6956H22.4986H1.31828V38.6171V37.5386L2.01643 37.0954C5.78389 34.7045 11.4686 33.0632 18.0164 32.4762C19.8576 32.3111 23.5541 32.2717 25.5746 32.3955C26.8936 32.4798 29.9621 32.7373 31.6837 33.0928Z" fill="#762D36"/>
<path d="M7.99534 9.00211H5.38032L5.18214 8.5891C5.03845 8.28955 4.98203 8.00809 4.97693 7.56482C4.96366 6.41881 5.63273 5.51949 6.81944 5.08813L7.42075 4.86953L7.64943 4.2621C7.96555 3.42216 8.10019 3.18869 8.56229 2.68021C10.2144 0.862249 13.212 0.874944 14.8419 2.70673C15.0291 2.91723 15.3277 3.36312 15.5054 3.69761L15.5268 3.73805C15.6663 4.00095 15.7485 4.15604 15.8766 4.24972C16.0609 4.38447 16.3401 4.39215 17.021 4.41087L17.0936 4.41287C17.8639 4.43417 18.0354 4.46878 18.4817 4.6925C19.1238 5.01439 19.6328 5.55731 19.9583 6.26761C20.0979 6.57219 20.2817 6.85687 20.3667 6.9C20.4516 6.94321 20.7541 7.00121 21.0387 7.02886C21.968 7.11911 22.8031 7.83654 22.9117 8.63779L22.9606 8.99785L18.0308 9.02167C17.7659 9.02296 17.5139 9.02411 17.2755 9.0252L7.99534 9.00211Z" fill="#762D36"/>
</svg>
