<svg width="44" height="36" viewBox="0 0 44 36" fill="none" xmlns="http://www.w3.org/2000/svg">
<path fill-rule="evenodd" clip-rule="evenodd" d="M12.4869 15.3853C14.5151 13.0305 17.5429 11.4289 20.632 11.0769C22.3481 10.8813 22.91 11.1029 22.8851 11.9657C22.8685 12.5416 22.3512 12.8404 21.3686 12.8412C20.3076 12.8422 18.5541 13.3087 17.3165 13.9192C15.5016 14.8144 14.132 16.0377 12.9054 17.859C12.4814 18.4886 12.2716 18.7224 12.0484 18.8141C11.4285 19.0687 10.7689 18.5633 10.8514 17.897C10.8993 17.5105 11.6517 16.355 12.4869 15.3853ZM3.68499 28.176C3.68499 27.602 3.70262 27.5438 3.94957 27.301L4.21415 27.041H22H39.7859L40.0504 27.301C40.2974 27.5438 40.315 27.602 40.315 28.176V28.7908L40.8747 28.882C42.443 29.1375 43.6509 30.2903 43.9316 31.7995C43.9824 32.0727 44.0109 33.0018 43.9961 33.8984L43.9694 35.5071L43.6886 35.7535L43.4077 36H22H0.592251L0.311421 35.7535L0.0305912 35.5071L0.00393556 33.8984C-0.01094 33.0018 0.0176073 32.0727 0.068425 31.7995C0.349083 30.2903 1.55701 29.1375 3.12531 28.882L3.68499 28.7908V28.176ZM38.8352 30.346C38.5752 30.1176 38.5544 30.0583 38.5235 29.4585L38.4905 28.8159H22H5.50953L5.47651 29.4585C5.44564 30.0583 5.42483 30.1176 5.16481 30.346C4.91408 30.5662 4.82611 30.5908 4.28973 30.5908C3.28138 30.5908 2.85454 30.7229 2.39108 31.1783C1.89941 31.6616 1.7933 32.0458 1.7933 33.3418V34.2251H22H42.2067V33.3418C42.2067 32.0458 42.1006 31.6616 41.6089 31.1783C41.1455 30.7229 40.7186 30.5908 39.7103 30.5908C39.1739 30.5908 39.0859 30.5662 38.8352 30.346Z" fill="#762D36"/>
<path fill-rule="evenodd" clip-rule="evenodd" d="M20.0607 0.119816C19.445 0.310998 18.9715 0.594138 18.512 1.04581C17.7213 1.82296 17.4451 2.55912 17.4437 3.89242C17.4428 4.66915 17.4664 4.81917 17.6186 5.00942C17.8571 5.30735 18.2688 5.40303 19.3158 5.40353L20.2 5.40404L20.1756 6.35277L20.1513 7.3015L19.3344 7.43901C15.0658 8.15768 11.2642 10.5939 8.66177 14.2786C6.98152 16.6575 5.82725 19.8227 5.61048 22.6459L5.5533 23.3898L4.86919 23.4203C4.22284 23.4491 4.17124 23.4661 3.93504 23.7259C3.58224 24.1141 3.58766 24.5658 3.94957 24.9215L4.21415 25.1815H22H39.7859L40.0504 24.9215C40.4123 24.5658 40.4178 24.1141 40.065 23.7259C39.8288 23.4661 39.7772 23.4491 39.1308 23.4203L38.4467 23.3898L38.3895 22.6459C38.1728 19.8227 37.0185 16.6575 35.3382 14.2786C32.7358 10.5939 28.9342 8.15768 24.6656 7.43901L23.8487 7.3015L23.8244 6.35277L23.8 5.40404L24.6842 5.40353C25.7312 5.40303 26.1429 5.30735 26.3814 5.00942C26.5336 4.81917 26.5572 4.66915 26.5563 3.89242C26.5549 2.55912 26.2787 1.82296 25.488 1.04581C25.0135 0.579431 24.5536 0.309561 23.9019 0.115082C23.3791 -0.0408555 20.5669 -0.0373902 20.0607 0.119816ZM24.5479 2.82621C24.3104 2.32923 24.1524 2.17718 23.6322 1.94526C23.3019 1.79803 23.0684 1.77326 22 1.77242C20.8696 1.77149 20.713 1.78991 20.3233 1.96986C19.8177 2.2033 19.663 2.35864 19.427 2.86999C19.0917 3.59668 18.8932 3.54462 22 3.54462C25.1226 3.54462 24.9187 3.60209 24.5479 2.82621ZM36.3153 21.1669C35.1124 15.0342 30.3012 10.2111 24.3939 9.21645C22.0205 8.81676 19.8559 8.97827 17.5846 9.72449C12.0436 11.5449 7.98928 16.7623 7.42891 22.7939L7.37198 23.4066H22H36.628L36.5711 22.7939C36.5398 22.4568 36.4247 21.7247 36.3153 21.1669Z" fill="#762D36"/>
<path d="M38.5235 29.4585C38.5544 30.0583 38.5752 30.1176 38.8352 30.346C39.0859 30.5662 39.1739 30.5908 39.7103 30.5908C40.7186 30.5908 41.1455 30.7229 41.6089 31.1783C42.1006 31.6616 42.2067 32.0458 42.2067 33.3418V34.2251H22H1.7933V33.3418C1.7933 32.0458 1.89941 31.6616 2.39108 31.1783C2.85454 30.7229 3.28138 30.5908 4.28973 30.5908C4.82611 30.5908 4.91408 30.5662 5.16481 30.346C5.42483 30.1176 5.44564 30.0583 5.47651 29.4585L5.50953 28.8159H22H38.4905L38.5235 29.4585Z" fill="#762D36"/>
</svg>
