<svg width="45" height="45" viewBox="0 0 45 45" fill="none" xmlns="http://www.w3.org/2000/svg">
<path fill-rule="evenodd" clip-rule="evenodd" d="M10.9986 37.4717C7.04262 41.4291 5.18987 43.2237 4.9294 43.3505C3.22597 44.1795 1.22337 42.7926 1.41692 40.9178C1.44286 40.6664 1.5505 40.2875 1.65602 40.0758C1.78916 39.8088 3.59117 37.9448 7.53252 33.9968L13.217 28.3028L14.9549 30.0391L16.6929 31.7754L10.9986 37.4717ZM3.44792 41.6393C3.1404 41.3748 3.12633 40.9641 3.41442 40.6574C3.8359 40.2087 4.5569 40.5143 4.5569 41.1418C4.5569 41.4032 4.50396 41.5225 4.32518 41.663C4.0225 41.9011 3.74348 41.8936 3.44792 41.6393Z" fill="#762D36"/>
<path fill-rule="evenodd" clip-rule="evenodd" d="M37.2837 33.821C41.3871 37.9301 43.2054 39.8095 43.3459 40.0865C43.6488 40.6835 43.636 41.6443 43.3171 42.2531C42.6791 43.4712 41.1953 43.9407 40.0146 43.2981C39.7201 43.1378 37.7995 41.2763 33.7477 37.2242L27.9053 31.3814L29.6188 29.6662C30.5611 28.723 31.3524 27.9512 31.3771 27.9512C31.4019 27.9512 34.0599 30.5926 37.2837 33.821ZM41.3977 41.7594C40.7069 42.0455 40.1235 41.1818 40.6512 40.6542C40.7872 40.518 40.9675 40.4383 41.1388 40.4383C41.4528 40.4383 41.8423 40.7746 41.8423 41.0457C41.8423 41.3496 41.6529 41.6537 41.3977 41.7594Z" fill="#762D36"/>
<path fill-rule="evenodd" clip-rule="evenodd" d="M4.6961 0.191764C4.43167 0.456104 4.42332 0.593638 4.60087 1.74588C4.67165 2.20535 4.73031 2.61971 4.73119 2.66667C4.73207 2.71354 6.27405 4.29641 8.15784 6.18416C10.0416 8.07182 11.6245 9.72768 11.6753 9.86381C11.8278 10.2722 11.7852 10.7515 11.5678 11.0741C11.1551 11.6865 10.5021 11.9177 9.86083 11.6783C9.72471 11.6275 8.06885 10.0446 6.18119 8.16082C4.29344 6.27702 2.71057 4.73504 2.6637 4.73416C2.61674 4.73328 2.20238 4.67463 1.7429 4.60384C0.590662 4.4263 0.453128 4.43465 0.188789 4.69908C-0.0600739 4.94785 -0.0601618 4.95146 0.172344 6.56792L0.269251 7.24196L4.23777 11.2275C6.42046 13.4196 8.45094 15.4094 8.74992 15.6492C10.0795 16.7157 11.849 17.0587 13.3667 16.5441L13.8665 16.3748L16.9276 19.4367L19.9887 22.4988L18.0986 24.3905C16.7727 25.7176 16.1692 26.2651 16.0767 26.2249C15.6109 26.0225 15.4781 26.0716 14.8493 26.6786L14.2345 27.2722L13.8803 26.9521C13.6056 26.7041 13.4519 26.6321 13.1966 26.6321C12.8779 26.6321 12.6729 26.8269 6.78901 32.7218C1.23894 38.2822 0.68625 38.8619 0.429737 39.392C0.0413178 40.1945 -0.0813547 40.9685 0.0544205 41.7604C0.433342 43.9699 2.48641 45.3741 4.66251 44.9121C4.67764 44.9089 4.69256 44.9057 4.70728 44.9026C4.84585 44.8733 4.9669 44.8477 5.0852 44.8127C5.90294 44.5714 6.58953 43.8857 12.0207 38.4618L12.2734 38.2094C18.1682 32.3226 18.363 32.1175 18.363 31.7986C18.363 31.5433 18.2911 31.3895 18.043 31.1149L17.723 30.7607L18.3069 30.156C18.9064 29.5348 19.0403 29.1913 18.783 28.934C18.6983 28.8492 19.0795 28.4224 20.5855 26.9164L22.4955 25.0063L24.2088 26.718C25.3274 27.8356 25.8922 28.4595 25.836 28.5157C25.7886 28.5631 25.7498 28.7364 25.7498 28.9006C25.7498 29.1497 25.847 29.3001 26.3341 29.8047L26.9186 30.41L26.554 30.8055C26.157 31.2362 26.1254 31.3563 26.315 31.7149C26.3841 31.8455 29.2233 34.727 32.6245 38.1184C38.2692 43.7467 38.8591 44.3089 39.389 44.5654C40.1915 44.9539 40.9656 45.0765 41.7574 44.9408C43.4164 44.6563 44.6567 43.4012 44.9456 41.7147C45.073 40.971 44.9418 40.1757 44.5625 39.392C44.306 38.8621 43.7438 38.2722 38.1154 32.6275C34.724 29.2263 31.8425 26.387 31.7119 26.318C31.3533 26.1284 31.2332 26.16 30.8025 26.5569L30.407 26.9215L29.8018 26.3371C29.2972 25.85 29.1467 25.7528 28.8977 25.7528C28.7334 25.7528 28.5602 25.7915 28.5128 25.8389C28.4565 25.8952 27.8326 25.3304 26.715 24.2117L25.0034 22.4984L27.7457 19.7561L30.488 17.0137L31.2043 17.6981C31.689 18.1611 32.11 18.4722 32.5065 18.66C33.0492 18.917 33.1609 18.9375 34.0159 18.9365C34.0871 18.9364 34.1543 18.9368 34.2183 18.9372C34.4805 18.9388 34.6881 18.9401 34.8892 18.9045C35.653 18.7693 36.3225 18.1018 39.5353 14.8989C39.7416 14.6931 39.9585 14.4769 40.1866 14.2497C43.2241 11.2238 44.5366 9.8573 44.7076 9.54319C44.8872 9.21325 44.9591 8.93739 44.9897 8.46015C45.0897 6.90041 44.0818 5.10966 41.8709 2.9194C39.8252 0.892712 37.9837 -0.108366 36.5181 0.00929451L36.4957 0.0110846C36.3257 0.0246884 36.1835 0.0360703 36.0449 0.0651215C35.3353 0.213934 34.723 0.826377 30.9738 4.57602L30.8763 4.67349C26.9149 8.6355 26.6187 8.95304 26.3476 9.52833C26.0799 10.0965 26.0576 10.2115 26.0576 11.0233C26.0576 11.8277 26.0812 11.9526 26.3352 12.4886C26.523 12.8852 26.834 13.3062 27.2971 13.7909L27.9815 14.5072L25.239 17.2497L22.4964 19.9922L19.434 16.9308L16.3718 13.8694L16.5511 13.3697C16.8118 12.6433 16.8028 11.0597 16.5338 10.3257C16.1262 9.21386 15.9128 8.9687 11.5042 4.54695L7.23898 0.269149L6.56494 0.173737L6.53969 0.170164C5.28515 -0.00737089 5.0166 -0.0453743 4.84091 0.0647589C4.79306 0.0947556 4.75209 0.135742 4.69997 0.187891L4.6961 0.191764ZM37.6233 1.60034C39.3945 2.22567 42.2203 4.91189 43.2131 6.91395C43.6512 7.79746 43.7102 8.44881 43.3997 8.973C43.276 9.18168 41.4006 11.121 39.2321 13.2825C36.2837 16.2213 35.1898 17.2577 34.8945 17.3916C34.3693 17.6298 33.5785 17.6339 33.0972 17.401C32.8673 17.2897 31.8215 16.3035 30.1831 14.653C27.4668 11.9168 27.4206 11.856 27.4206 11.0233C27.4206 11.0081 27.4206 10.9933 27.4205 10.9787C27.4203 10.861 27.4202 10.7606 27.433 10.6618C27.5077 10.0865 28.0228 9.56847 31.5382 6.03291L31.7662 5.80366C34.0434 3.51333 36.0252 1.58575 36.1703 1.52023C36.5528 1.34744 36.9725 1.37056 37.6233 1.60034ZM10.6777 5.72504C14.4776 9.54222 14.8337 9.92519 15.0568 10.4346C15.684 11.8675 15.3479 13.4196 14.1789 14.488C13.4984 15.11 12.9057 15.3245 11.8557 15.3288C11.1172 15.3317 10.954 15.3024 10.4487 15.0752C9.92213 14.8385 9.54962 14.4921 5.72207 10.6805C2.0039 6.97771 1.56703 6.51375 1.56703 6.267C1.56703 5.65328 1.89688 5.92281 5.3923 9.39352C9.08127 13.0564 9.12269 13.0886 10.2196 13.1564C11.0796 13.2096 11.7314 12.9618 12.3451 12.348C12.9588 11.7344 13.2067 11.0826 13.1535 10.2226C13.0857 9.12566 13.0534 9.08425 9.39054 5.39528C5.91869 1.89871 5.65013 1.57001 6.26481 1.57001C6.51271 1.57001 6.9706 2.00116 10.6777 5.72504ZM33.16 7.39734C30.6471 9.91024 30.3225 10.2663 30.3225 10.5094C30.3225 10.8666 30.5569 11.1404 30.923 11.2113C31.2108 11.2669 31.2626 11.2209 34.0813 8.40598C36.6704 5.82037 36.9471 5.51645 36.9471 5.25792C36.9471 5.05549 36.8771 4.91145 36.7077 4.76582L36.7003 4.7594C36.5962 4.66988 36.5145 4.59956 36.4206 4.57404C36.0768 4.48055 35.5696 4.9877 33.2054 7.35196L33.16 7.39734ZM34.8748 9.11212C32.338 11.6489 32.0813 11.9324 32.0813 12.1957C32.0813 12.5868 32.2041 12.7903 32.5033 12.8946C32.6821 12.9569 32.8264 12.9496 33.0108 12.8691C33.1525 12.8072 34.4852 11.534 35.9725 10.0399C38.498 7.50269 38.6766 7.30281 38.6766 7.01218C38.6766 6.60749 38.3819 6.31862 37.9689 6.31862C37.6918 6.31862 37.4512 6.53573 34.8748 9.11212ZM36.6139 10.8875C33.947 13.5553 33.8048 13.714 33.8048 14.0206C33.8048 14.4253 34.0793 14.6727 34.5284 14.6727C34.8273 14.6727 35.0058 14.5123 37.6404 11.8777C40.2564 9.2617 40.4353 9.06288 40.4353 8.77128C40.4353 8.36527 40.1409 8.07736 39.7257 8.07736C39.4457 8.07736 39.2126 8.2878 36.6139 10.8875ZM21.2411 21.2438L20.9997 21.4853L18.0566 18.5432L15.1136 15.6012L15.3504 15.354L15.5872 15.1069L18.535 18.0546L21.4826 21.0023L21.2411 21.2438ZM29.2703 15.7752L29.48 15.9983L23.5943 21.8846L17.7084 27.7708L17.4614 27.5342L17.2145 27.2975L23.0867 21.4247C26.3164 18.1948 28.9819 15.552 29.0099 15.552C29.0378 15.552 29.1551 15.6525 29.2703 15.7752ZM25.731 25.2504L27.4254 26.9463L27.1784 27.1831L26.9314 27.4197L25.2232 25.7098L23.515 24L23.7244 23.7772C23.8395 23.6546 23.9569 23.5543 23.9852 23.5543C24.0135 23.5543 24.7992 24.3175 25.731 25.2504ZM28.675 28.674L27.9532 29.3958L27.685 29.139L27.4168 28.882L28.1424 28.1527L28.8679 27.4233L29.1324 27.6877L29.3968 27.9522L28.675 28.674ZM16.4485 28.5427C16.8244 28.9164 17.1319 29.2657 17.1319 29.3188C17.1319 29.372 17.0412 29.5007 16.9303 29.6048L16.7287 29.7943L15.9894 29.051L15.25 28.3078L15.4588 28.0856C15.5737 27.9632 15.6896 27.8633 15.7163 27.8633C15.7431 27.8633 16.0725 28.169 16.4485 28.5427ZM37.2837 33.821C41.3871 37.9301 43.2054 39.8095 43.3459 40.0865C43.6488 40.6835 43.636 41.6443 43.3171 42.2531C42.6791 43.4712 41.1953 43.9407 40.0146 43.2981C39.7201 43.1378 37.7995 41.2763 33.7477 37.2242L27.9053 31.3814L29.6188 29.6662C30.5611 28.723 31.3524 27.9512 31.3771 27.9512C31.4019 27.9512 34.0599 30.5926 37.2837 33.821ZM10.9986 37.4717C7.04262 41.4291 5.18987 43.2237 4.9294 43.3505C3.22597 44.1795 1.22337 42.7926 1.41692 40.9178C1.44286 40.6664 1.5505 40.2875 1.65602 40.0758C1.78916 39.8088 3.59117 37.9448 7.53252 33.9968L13.217 28.3028L14.9549 30.0391L16.6929 31.7754L10.9986 37.4717Z" fill="#762D36"/>
<path d="M28.675 28.674L27.9532 29.3958L27.685 29.139L27.4168 28.882L28.1424 28.1527L28.8679 27.4233L29.1324 27.6877L29.3968 27.9522L28.675 28.674Z" fill="#762D36"/>
<path d="M16.4485 28.5427C16.8244 28.9164 17.1319 29.2657 17.1319 29.3188C17.1319 29.372 17.0412 29.5007 16.9303 29.6048L16.7287 29.7943L15.9894 29.051L15.25 28.3078L15.4588 28.0856C15.5737 27.9632 15.6896 27.8633 15.7163 27.8633C15.7431 27.8633 16.0725 28.169 16.4485 28.5427Z" fill="#762D36"/>
</svg>
