<svg width="43" height="37" viewBox="0 0 43 37" fill="none" xmlns="http://www.w3.org/2000/svg">
<path fill-rule="evenodd" clip-rule="evenodd" d="M30.7347 0.573304C34.3911 0.816323 37.2451 2.11335 39.4966 4.55519C40.4241 5.56088 40.7031 5.7416 41.5068 5.85697C42.1772 5.95325 42.5143 6.20962 42.5143 6.6235C42.5143 6.96763 42.1082 7.38733 41.7753 7.38733C41.6191 7.38733 41.2765 7.45223 41.0139 7.53157C40.5909 7.6594 40.4149 7.80049 39.4711 8.7688C37.1956 11.1031 34.7695 12.2879 31.4783 12.6723C30.4126 12.7969 12.5962 12.7969 11.5305 12.6723C8.78501 12.3517 6.45686 11.3822 4.58214 9.77907C4.29205 9.53103 3.69867 8.95436 3.26353 8.49773C2.57609 7.7762 2.40977 7.649 1.99484 7.52735C1.73226 7.45035 1.38968 7.38733 1.23347 7.38733C0.900565 7.38733 0.494431 6.96763 0.494431 6.6235C0.494431 6.21285 0.832173 5.95316 1.48849 5.85894C1.81762 5.8117 2.20265 5.71202 2.3441 5.63744C2.48554 5.56285 3.08648 5.00546 3.67959 4.39886C5.99403 2.03178 8.67258 0.811124 12.0543 0.582537C13.5688 0.480166 29.2166 0.472457 30.7347 0.573304ZM8.06777 6.13253C7.96061 5.81932 8.00553 5.63475 8.25871 5.34798L8.43681 5.14629H21.5044H34.572L34.7501 5.34798C35.0032 5.63475 35.0481 5.81932 34.941 6.13253C34.7454 6.7048 35.6107 6.6702 21.5044 6.6702C7.39809 6.6702 8.26337 6.7048 8.06777 6.13253ZM4.9118 7.98937C4.3738 7.40464 4.31024 7.07377 4.66609 6.71099C4.81422 6.55985 4.97975 6.49092 5.19433 6.49092C5.45911 6.49092 5.60697 6.58558 6.1607 7.10909C7.29656 8.18299 8.6251 8.90739 10.2119 9.31786C11.031 9.52968 12.3904 9.71802 13.1008 9.71802C13.642 9.71802 13.9795 10.0107 13.9795 10.48C13.9795 10.7411 13.9217 10.8676 13.723 11.042C13.472 11.2621 13.4449 11.2658 12.4781 11.2095C9.38384 11.0292 6.63022 9.85741 4.9118 7.98937Z" fill="#762D36"/>
<path d="M41.851 14.4167C42.7046 14.7804 42.7119 16.0181 41.863 16.4372C41.4927 16.6201 41.4501 16.6204 22.3517 16.6204H3.21157L2.99585 16.8405C2.69968 17.1424 2.70443 17.5925 3.00683 17.8822L3.23372 18.0995L21.7971 18.1443L40.3606 18.1892L40.8251 18.4387C41.4461 18.7724 41.9549 19.3081 42.2357 19.9239C42.4285 20.3468 42.4663 20.5558 42.465 21.1922C42.4637 21.8365 42.4264 22.032 42.2239 22.4584C41.942 23.0521 41.2716 23.7245 40.6873 23.9998L40.2727 24.1952L20.8451 24.2179C2.47341 24.2395 1.40076 24.2323 1.10979 24.0835C0.217434 23.6274 0.384986 22.2775 1.3685 21.9989C1.56998 21.9418 8.46951 21.9101 20.7727 21.9098L39.8643 21.9093L40.0465 21.6731C40.3018 21.3422 40.2832 20.9171 40.0019 20.6475L39.775 20.4302L21.2116 20.3854L2.64817 20.3406L2.09136 20.0327C1.47548 19.6923 1.03884 19.2097 0.741013 18.5406C0.441599 17.8679 0.461378 16.7524 0.784879 16.0713C1.17255 15.2548 1.96864 14.5927 2.82399 14.3752C2.96903 14.3382 11.7424 14.304 22.3203 14.2989C38.7277 14.2911 41.5967 14.3084 41.851 14.4167Z" fill="#762D36"/>
<path fill-rule="evenodd" clip-rule="evenodd" d="M42.2574 26.0259L42.5143 26.2879V31.0966C42.5143 34.3697 42.484 35.963 42.4194 36.0861C42.4085 36.107 42.4002 36.1268 42.3923 36.1457C42.3851 36.1631 42.3782 36.1797 42.3698 36.1956C42.1974 36.5219 41.4073 36.5218 24.3383 36.521L21.5044 36.5209L18.6705 36.521C1.60147 36.5218 0.811315 36.5219 0.638942 36.1956C0.630576 36.1797 0.623665 36.1631 0.616418 36.1457C0.608559 36.1268 0.600305 36.107 0.589372 36.0861C0.52476 35.963 0.494431 34.3697 0.494431 31.0966V26.2879L0.751386 26.0259L1.00834 25.7639H21.5044H42.0004L42.2574 26.0259ZM3.51547 28.8117C2.74153 28.8117 2.49284 27.7721 3.17562 27.3913C3.60355 27.1526 4.14014 27.4428 4.23842 27.9662C4.31376 28.3675 3.934 28.8117 3.51547 28.8117ZM9.85265 28.7561C9.03308 29.0767 8.40454 28.172 9.01471 27.5498C9.16961 27.3919 9.36432 27.2878 9.50497 27.2878C9.78839 27.2878 10.2522 27.7314 10.2522 28.0025C10.2522 28.2623 10.0264 28.688 9.85265 28.7561ZM14.9553 28.5265C14.6696 28.1804 14.7038 27.7983 15.048 27.4895C15.7406 26.8679 16.6676 27.9253 16.0141 28.5917C15.6928 28.9194 15.2574 28.8926 14.9553 28.5265ZM20.7814 28.2386C20.7243 27.9339 20.9306 27.48 21.1711 27.3816C21.439 27.2719 21.538 27.2712 21.8103 27.3767C22.0743 27.4791 22.2872 27.9192 22.2273 28.2386C22.1741 28.5224 21.8091 28.8117 21.5044 28.8117C21.1997 28.8117 20.8346 28.5224 20.7814 28.2386ZM27.5143 28.8117C26.7432 28.8117 26.4982 27.7915 27.1744 27.3961C27.5962 27.1494 28.1384 27.4404 28.2372 27.9662C28.3126 28.3675 27.9328 28.8117 27.5143 28.8117ZM32.8852 28.4467C32.6944 28.0706 32.7271 27.8419 33.0135 27.5498C33.1684 27.3919 33.3631 27.2878 33.5038 27.2878C33.8355 27.2878 34.251 27.7349 34.251 28.0918C34.251 28.8301 33.216 29.0991 32.8852 28.4467ZM38.9541 28.5265C38.6685 28.1804 38.7026 27.7983 39.0468 27.4895C39.1704 27.3785 39.3504 27.2878 39.4468 27.2878C39.6916 27.2878 40.1087 27.5215 40.1741 27.6952C40.4963 28.5513 39.5222 29.215 38.9541 28.5265ZM6.86379 31.8039C6.02427 32.1324 5.3734 31.1391 6.04862 30.5597C6.26733 30.3721 6.38715 30.3312 6.59804 30.3724C6.90871 30.4331 7.26333 30.8008 7.26333 31.0622C7.26333 31.3118 7.03415 31.7372 6.86379 31.8039ZM12.4978 31.8595C11.7201 31.8595 11.4913 30.8149 12.1888 30.4481C12.4736 30.2983 12.7981 30.3779 13.0433 30.6577C13.465 31.139 13.1379 31.8595 12.4978 31.8595ZM17.7738 31.2589C17.6986 31.0055 17.9361 30.5308 18.1904 30.4263C18.468 30.3123 18.5809 30.3191 18.8608 30.4668C19.1454 30.6168 19.2188 30.7647 19.2188 31.188C19.2188 31.7757 18.4043 32.0932 18.0135 31.6578C17.914 31.5469 17.8061 31.3674 17.7738 31.2589ZM23.79 31.1531C23.79 30.7971 23.9001 30.5984 24.1856 30.4392C24.4137 30.3119 24.5231 30.3125 24.8034 30.4428C25.0916 30.5767 25.3131 30.9957 25.2349 31.2589C25.0648 31.8315 24.4712 32.0344 24.0216 31.6737C23.8452 31.5323 23.79 31.4081 23.79 31.1531ZM30.8626 31.8039C30.0339 32.1281 29.4154 31.219 30.0349 30.5872C30.2584 30.3593 30.3484 30.3237 30.5844 30.3699C30.9058 30.4327 31.2621 30.7968 31.2621 31.0622C31.2621 31.3118 31.033 31.7372 30.8626 31.8039ZM36.4966 31.8595C35.7193 31.8595 35.4894 30.8106 36.1876 30.4503C36.5075 30.2852 36.6684 30.3094 36.9694 30.5677C37.5035 31.026 37.1985 31.8595 36.4966 31.8595ZM3.47275 34.9074C2.65345 34.9074 2.52132 33.7398 3.30748 33.4467C3.38 33.4198 3.4505 33.3944 3.46413 33.3905C3.47776 33.3867 3.61929 33.439 3.77866 33.5069C4.16599 33.6719 4.34004 34.0812 4.18515 34.4626C4.05355 34.7865 3.85998 34.9074 3.47275 34.9074ZM8.97357 34.6873C8.6135 34.3202 8.75125 33.6655 9.22868 33.4745C9.67877 33.2946 10.2522 33.7007 10.2522 34.1993C10.2522 34.8311 9.42436 35.1471 8.97357 34.6873ZM15.5202 34.9074C14.7072 34.9074 14.459 33.843 15.1963 33.5181C15.9308 33.1945 16.5451 34.0265 16.0477 34.6712C15.9062 34.8547 15.7885 34.9074 15.5202 34.9074ZM21.0045 34.7125C20.6418 34.3649 20.7418 33.7097 21.1879 33.5112C21.3378 33.4445 21.5131 33.4087 21.5775 33.4315C21.6419 33.4544 21.7309 33.4731 21.7753 33.4731C21.9731 33.4731 22.2076 33.8468 22.2076 34.1621C22.2076 34.8291 21.4758 35.1639 21.0045 34.7125ZM26.9611 34.6712C26.626 34.2368 26.796 33.6344 27.3063 33.4476C27.6353 33.3272 28.1485 33.6358 28.2273 34.0014C28.292 34.3019 28.1003 34.763 27.8737 34.8517C27.5329 34.9851 27.1438 34.9081 26.9611 34.6712ZM32.7566 34.2064C32.7566 33.8894 33.0403 33.4987 33.3078 33.4475C33.6131 33.3892 33.8381 33.4682 34.0532 33.7095C34.478 34.1858 34.1471 34.9074 33.5038 34.9074C33.1056 34.9074 32.7566 34.58 32.7566 34.2064ZM38.8236 34.4626C38.6728 34.0915 38.8429 33.6737 39.2108 33.5114C39.7055 33.2931 40.2287 33.6356 40.2287 34.1777C40.2287 34.9938 39.1299 35.2165 38.8236 34.4626Z" fill="#762D36"/>
</svg>
