<svg width="53" height="43" viewBox="0 0 53 43" fill="none" xmlns="http://www.w3.org/2000/svg">
<path d="M15.7262 0.809431H38.2124C40.9744 0.809431 43.1593 2.97279 43.1593 5.59828C43.1596 5.65609 43.1655 5.71375 43.1769 5.77044C43.1154 5.48639 43.1152 5.50135 43.1699 5.84773C43.1697 5.89578 43.1671 5.955 43.1636 6.01735C43.1608 6.06579 43.1575 6.11685 43.1543 6.16528L43.1523 6.19556H41.3956V5.82665C41.3956 4.353 40.1815 3.13885 38.7078 3.13885C37.2341 3.13885 36.0232 4.35534 36.02 5.82665L36.0192 6.19556L36.0075 11.5922L35.9919 18.7878C35.9825 18.7877 35.9731 18.7877 35.9638 18.7878H10.8566C10.8595 14.3782 10.8444 9.97232 10.7793 5.59828C10.7793 2.97279 12.9642 0.809431 15.7262 0.809431Z" fill="#762D36"/>
<path d="M37.8048 11.5922H43.2155V41.3161C43.2155 41.8034 42.8386 42.1839 42.3161 42.1839H17.1316C16.6091 42.1839 16.2322 41.8034 16.2322 41.3161V33.2281L36.8632 33.1895C37.1005 33.1885 37.3279 33.0938 37.4957 32.926C37.6635 32.7582 37.7582 32.5309 37.7591 32.2935L37.8048 11.5922Z" fill="#762D36"/>
<path d="M10.8425 25.9693H35.9638H35.9743L35.9638 31.3941L10.832 31.4398C10.833 29.6218 10.8382 27.7931 10.8425 25.9693Z" fill="#762D36"/>
<path fill-rule="evenodd" clip-rule="evenodd" d="M44.9688 6.19556H49.3044C50.8255 6.19556 52.1432 7.3778 52.1432 8.8939C52.1432 10.4102 50.8255 11.5922 49.3044 11.5922H45.0144L44.9477 9.79335H49.3044C49.9286 9.79335 50.3444 9.37097 50.3444 8.8939C50.3444 8.41701 49.9286 7.99446 49.3044 7.99446H44.9582L44.9688 6.19556ZM43.2155 9.79335H37.8083L37.8048 11.5922H43.2155V9.79335ZM41.3956 6.19556H43.1523V7.99446H37.8154L37.8189 6.19556H39.5967H41.3956ZM9.005 9.79335L8.9804 11.5922H2.83536C1.31419 11.5922 0 10.4102 0 8.8939C0 7.3778 1.31419 6.19556 2.83536 6.19556H8.9804H8.98392L8.9804 7.99446H2.83536C2.21116 7.99446 1.79889 8.41701 1.79889 8.8939C1.79889 9.37097 2.21116 9.79335 2.83536 9.79335H8.9804H9.005ZM35.9638 18.7878H10.8566L10.8531 20.5867H14.3771V24.1704H10.846L10.8425 25.9693H35.9638H35.9743L35.9813 24.1704H35.9638H32.366V20.5867H35.9638V18.7878ZM16.176 20.5867H19.7737V24.1704H16.176V20.5867ZM21.5726 20.5867H25.1704V24.1704H21.5726V20.5867ZM26.9693 20.5867H30.5671V24.1704H26.9693V20.5867Z" fill="#762D36"/>
<path d="M39.5967 5.82665C39.5967 5.31846 39.216 4.93775 38.7078 4.93775C38.1996 4.93775 37.82 5.31946 37.8189 5.83016V6.19556H39.5967V5.82665Z" fill="#762D36"/>
</svg>
