<svg width="44" height="45" viewBox="0 0 44 45" fill="none" xmlns="http://www.w3.org/2000/svg">
<path fill-rule="evenodd" clip-rule="evenodd" d="M13.0205 0.0434363C10.8266 0.209022 8.46757 0.849909 6.6011 1.78741C5.75611 2.21179 4.43151 3.06215 3.93176 3.50095L3.59778 3.79422L3.11896 3.55934C2.03021 3.02539 1.31158 3.0807 0.620046 3.75158C0.348672 4.01486 0.165059 4.28483 0.102975 4.51162C-0.0409784 5.03801 -0.0309536 16.0638 0.113967 16.5488C0.248423 16.9989 0.832063 17.598 1.27993 17.7458C1.73703 17.8967 2.43683 17.8095 2.98063 17.5339C3.22756 17.4088 3.47625 17.3065 3.53332 17.3065C3.59039 17.3065 3.79942 17.4382 3.99789 17.5992C5.49714 18.8158 8.05954 20.0697 9.87413 20.4747L10.3771 20.587L10.4017 27.1468L10.4264 33.7068L10.6305 34.2122C10.8431 34.7388 11.5168 35.5568 11.912 35.7683C12.1187 35.8789 12.1411 35.9412 12.1411 36.4037V36.9165L11.7674 36.917C10.8177 36.9183 10.0973 37.4235 9.98589 38.1665C9.90754 38.6887 10.0417 39.0939 10.4118 39.4525C10.7404 39.7711 11.1249 39.9064 11.7014 39.9064C12.093 39.9064 12.101 39.9123 12.3034 40.3536C12.4398 40.651 12.6113 40.8615 12.8149 40.9817C13.0756 41.1355 13.1129 41.1967 13.0657 41.3918C12.8933 42.1041 12.1914 43.0448 11.5106 43.4765C9.25505 44.9062 6.28875 43.505 5.90173 40.827C5.85064 40.4735 5.81239 38.0913 5.81142 35.1982C5.80949 29.6181 5.81441 29.6729 5.21451 28.5266C4.40144 26.9729 2.57806 25.8364 0.898456 25.8364C0.423155 25.8364 0.269616 25.9454 0.269616 26.283C0.269616 26.6116 0.39053 26.6785 1.19296 26.794C2.84591 27.0319 4.04547 27.9895 4.67545 29.5737L4.88518 30.1014L4.93381 35.7293C4.97074 39.9979 5.01014 41.4423 5.09685 41.7091C5.82892 43.9611 8.18978 45.3675 10.4367 44.8902C12.0673 44.5438 13.4009 43.3566 13.9135 41.7952C14.0195 41.4724 14.1685 41.1859 14.2449 41.1586C14.5566 41.0469 14.8811 40.7514 15.0451 40.4301C15.204 40.1186 15.219 39.9076 15.219 37.9753C15.219 36.7481 15.2529 35.8613 15.2998 35.8613C15.525 35.8613 16.3791 34.9249 16.643 34.3889C16.9109 33.8449 16.9303 33.7411 16.9634 32.6785C17.0021 31.4347 16.9937 31.4523 17.6064 31.3417C18.0156 31.2679 18.3727 30.9869 18.5272 30.617C18.689 30.2301 18.689 28.7415 18.5272 28.3546C18.3727 27.9847 18.0156 27.7037 17.6064 27.6299C17.0153 27.5233 16.9775 27.4747 16.979 26.8226C16.9798 26.4979 17.0094 26.1884 17.045 26.135C17.0805 26.0816 17.3127 25.9897 17.5608 25.9308C18.0453 25.816 18.3967 25.5241 18.5549 25.1052C18.6979 24.727 18.6737 23.2382 18.5198 22.9405C18.332 22.5776 17.8995 22.2465 17.5248 22.179C17.0355 22.0909 16.9777 22.0087 16.9777 21.3998V20.854L17.7032 20.7025C18.9447 20.4432 20.0782 20.0557 22.0137 19.2288C26.5351 17.2973 30.2044 16.417 34.3013 16.2811L35.9282 16.2271L39.2913 17.91C41.1411 18.8355 42.7277 19.5929 42.8172 19.5929C42.9066 19.5929 43.0454 19.5205 43.1254 19.432C43.2588 19.2846 43.2709 18.5414 43.2709 10.5446C43.2709 4.69725 43.2409 1.76182 43.1799 1.64785C42.9899 1.29276 42.6321 1.42994 39.2331 3.16099L35.9282 4.84411L34.5652 4.79082C30.1037 4.61635 26.363 3.70875 21.6418 1.65515C20.8886 1.3275 19.8924 0.937758 19.4279 0.788968C17.4677 0.161008 15.1047 -0.113884 13.0205 0.0434363ZM17.0753 1.16217C18.3967 1.40893 19.6346 1.80297 21.1195 2.44966C25.8834 4.52437 29.3903 5.41526 33.9056 5.69798C34.6795 5.74643 35.3621 5.78627 35.4225 5.78636C35.5091 5.78662 35.5325 6.79262 35.5325 10.5223V15.2578L34.1914 15.3192C29.7928 15.5205 25.8671 16.4965 21.2424 18.5387C19.1027 19.4836 17.6276 19.8711 15.4995 20.0476C11.5867 20.372 7.26802 19.1089 4.55656 16.8471L4.13886 16.4987V10.5023V4.50608L4.7764 4.01803C6.72254 2.5281 9.2131 1.49062 11.7015 1.13333C12.0642 1.08127 12.4599 1.02174 12.5808 1.00107C13.1069 0.911025 16.3536 1.02745 17.0753 1.16217ZM14.0074 1.96645C13.8988 2.04243 13.812 2.19605 13.812 2.31187C13.812 2.64418 14.0365 2.79684 14.5252 2.79684C15.8787 2.79684 17.8562 3.17866 19.2963 3.71798C20.1879 4.05197 20.4016 4.08635 20.5655 3.92244C20.7434 3.74454 20.6917 3.34161 20.4732 3.20311C20.0921 2.96155 18.5954 2.45934 17.5933 2.23668C16.8249 2.06591 14.8885 1.82953 14.2584 1.82953C14.2279 1.82953 14.1149 1.89117 14.0074 1.96645ZM12.405 3.89746C10.2968 4.32818 8.53941 5.68294 7.61563 7.58942C7.12714 8.59762 7.00253 9.19331 6.99954 10.5353C6.99638 11.906 7.14816 12.5365 7.77207 13.745C8.2282 14.6285 9.34967 15.7941 10.2505 16.3208C12.3218 17.532 15.0341 17.549 17.0619 16.3635C18.1787 15.7105 19.3613 14.3875 19.8743 13.2174C20.5558 11.6628 20.5814 9.57962 19.9385 7.98822C19.4488 6.77574 18.4613 5.57091 17.3783 4.86442C15.9692 3.94539 14.0227 3.56691 12.405 3.89746ZM21.4414 3.87407C21.2704 4.0058 21.2301 4.18326 21.3148 4.43133C21.3914 4.6561 22.9121 5.28643 23.2739 5.24334C23.5679 5.20834 23.7045 5.00468 23.6308 4.71115C23.584 4.52472 23.425 4.42755 22.6725 4.12548C21.6716 3.72379 21.6438 3.71807 21.4414 3.87407ZM13.1617 20.997C13.7472 21.0385 14.6277 21.0505 15.1184 21.0234L16.0104 20.9743V21.4736C16.0104 21.7481 16.0644 22.102 16.1303 22.2599C16.2906 22.6435 16.7325 23.002 17.1341 23.0744C17.6488 23.1671 17.6812 23.2264 17.6812 24.0777C17.6812 24.9305 17.6473 24.992 17.134 25.0708C16.6918 25.1387 16.4017 25.3659 16.1769 25.8203C16.018 26.1415 15.9948 26.3121 16.0271 26.9267C16.0814 27.9607 16.3273 28.2831 17.2324 28.5065L17.6372 28.6064V29.4858V30.3652L17.2324 30.4651C16.683 30.6008 16.4975 30.7112 16.261 31.0433C16.0829 31.2934 16.0539 31.4632 16.0093 32.5164C15.9514 33.8839 15.8322 34.2167 15.2096 34.7496C14.0595 35.7341 12.3012 35.4027 11.5864 34.0669C11.3938 33.707 11.3937 33.7037 11.3695 27.2538L11.3453 20.8008L11.7212 20.8611C11.928 20.8942 12.5763 20.9554 13.1617 20.997ZM12.4551 29.5584C12.3363 29.6452 12.2844 29.8335 12.2512 30.298C12.1918 31.1272 12.2732 31.5196 12.541 31.695C12.7395 31.825 12.7743 31.8248 12.9766 31.6923C13.1875 31.5541 13.1964 31.5118 13.1964 30.6406C13.1964 29.8729 13.1716 29.7105 13.0356 29.5874C12.8412 29.4115 12.6678 29.4028 12.4551 29.5584ZM12.4709 32.6146C12.2558 32.7399 12.2678 33.3612 12.4925 33.7296C12.7506 34.1529 13.1617 34.3749 13.6344 34.3463C13.976 34.3255 14.0398 34.29 14.1136 34.0791C14.2156 33.7875 14.0614 33.592 13.616 33.4481C13.4105 33.3816 13.3032 33.2772 13.2403 33.0826C13.072 32.562 12.8221 32.4101 12.4709 32.6146Z" fill="#762D36"/>
</svg>
