<svg width="39" height="46" viewBox="0 0 39 46" fill="none" xmlns="http://www.w3.org/2000/svg">
<path d="M5.44121 12.7884C6.596 15.1737 9.02764 16.6929 11.6877 16.6911C13.3415 16.69 14.7248 16.2235 16.0031 15.2359L16.6426 14.7418L16.5827 15.0792C16.4718 15.7041 15.9448 16.6752 15.4135 17.2339C13.9671 18.7546 11.8015 19.6454 6.90308 20.7346C5.35538 21.0788 4.01988 21.381 3.93519 21.4063C3.79036 21.4495 3.7813 21.2351 3.7813 17.757V14.0619L4.09401 13.9134C4.56043 13.6922 4.83549 13.2727 4.94902 12.6097C5.00301 12.2944 5.06026 12.0496 5.07627 12.0656C5.09227 12.0816 5.25654 12.4068 5.44121 12.7884Z" fill="#762D36"/>
<path d="M8.45139 3.15932C8.54311 2.99554 8.7071 2.8821 9.00438 2.80285C7.52968 3.0527 6.51547 3.5151 6.13354 3.76494C6.40869 3.76494 6.77117 4.14078 6.77117 4.42605C6.77117 4.58614 6.68757 4.73469 6.44652 4.9419C7.36704 4.40412 8.33127 4.15572 9.02064 4.06315C8.69439 4.04497 8.54339 3.92189 8.43222 3.65352C8.34191 3.43535 8.34525 3.34882 8.45139 3.15932Z" fill="#762D36"/>
<path d="M19.1152 1.72603C18.9762 1.59605 18.7511 1.4477 18.615 1.39626C18.4477 1.33303 16.1959 1.30384 11.668 1.30621C5.7336 1.30938 4.93829 1.32565 4.70464 1.44885C3.91154 1.8669 3.76723 2.26218 3.8003 3.92613L3.82527 5.18653L4.25054 4.86169C4.95386 4.3244 5.9144 3.76494 6.13354 3.76494C6.51547 3.5151 7.52968 3.0527 9.00438 2.80285C9.30474 2.72277 9.74116 2.6776 10.3766 2.65069C13.325 2.5259 16.0851 3.56945 18.253 5.62868C18.8227 6.16994 18.9178 6.22718 19.2465 6.22718H19.61V4.37769C19.61 2.36252 19.5707 2.15191 19.1152 1.72603Z" fill="#762D36"/>
<path d="M27.6032 13.0507C27.4305 13.207 27.2259 13.22 24.5264 13.2447L33.3156 13.2182C30.1838 13.2182 29.9954 13.2091 29.8201 13.0507C29.6954 12.9379 29.6349 12.777 29.6349 12.5587C29.6349 12.4079 29.6307 12.2949 29.6773 12.2097C29.8209 11.9476 30.446 11.9491 33.1577 11.9262L19.2424 11.9431C26.7716 11.9431 27.4801 11.9554 27.6273 12.0886C27.855 12.2947 27.8415 12.8349 27.6032 13.0507Z" fill="#762D36"/>
<path d="M10.7396 11.8459C10.9354 11.9142 13.4648 11.9431 19.2424 11.9431L33.1577 11.9262C35.9355 11.9028 36.5085 11.9037 36.8014 11.6178C36.884 11.5372 36.9443 11.4339 37.0255 11.3008C37.1749 11.0557 37.1968 10.8532 37.1971 9.71829C37.1975 8.30681 37.1393 8.07255 36.7037 7.72986L36.4702 7.54624H23.5553C10.7576 7.54624 10.6388 7.54782 10.4645 7.72212C10.3247 7.86194 10.2887 8.01521 10.2887 8.46958V9.04118H17.0919C23.8415 9.04118 23.897 9.04258 24.1269 9.22347C24.4474 9.4755 24.4474 9.92591 24.1269 10.1779C23.897 10.3588 23.8415 10.3602 17.0919 10.3602H10.2887V10.8937C10.2887 11.5379 10.3742 11.7185 10.7396 11.8459Z" fill="#762D36"/>
<path fill-rule="evenodd" clip-rule="evenodd" d="M3.01414 1.20491C3.41399 0.683969 3.87408 0.337145 4.41489 0.149135C4.85387 -0.00352439 5.27764 -0.0116146 11.8276 0.00737982L18.7746 0.0276054L19.2143 0.229597C19.7894 0.493673 20.4289 1.13007 20.6821 1.69032C20.8693 2.10424 20.8878 2.29085 20.9288 4.16066L20.973 6.18321L28.9314 6.22718C36.2777 6.26775 37.0588 6.23727 37.4938 6.61036C37.5849 6.68852 37.6609 6.7844 37.7788 6.90237C38.401 7.52452 38.4726 7.81322 38.4726 9.70071C38.4726 11.2183 38.4554 11.4085 38.2859 11.7751C38.0476 12.2901 37.5445 12.7933 37.0294 13.0315C36.6407 13.2113 36.5043 13.2182 33.3156 13.2182C30.1838 13.2182 29.9954 13.2091 29.8201 13.0507C29.6954 12.9379 29.6349 12.777 29.6349 12.5587C29.6349 12.4079 29.6307 12.2949 29.6773 12.2097C29.8209 11.9476 30.446 11.9491 33.1577 11.9262C35.9355 11.9028 36.5085 11.9037 36.8014 11.6178C36.884 11.5372 36.9443 11.4339 37.0255 11.3008C37.1749 11.0557 37.1968 10.8532 37.1971 9.71829C37.1975 8.30681 37.1393 8.07255 36.7037 7.72986L36.4702 7.54624H23.5553C10.7576 7.54624 10.6388 7.54782 10.4645 7.72212C10.3247 7.86194 10.2887 8.01521 10.2887 8.46958V9.04118V10.3602V10.8937C10.2887 11.5379 10.3742 11.7185 10.7396 11.8459C10.9354 11.9142 13.4648 11.9431 19.2424 11.9431C26.7716 11.9431 27.4801 11.9554 27.6273 12.0886C27.855 12.2947 27.8415 12.8349 27.6032 13.0507C27.4305 13.207 27.2259 13.22 24.5264 13.2447L21.6346 13.271L21.6115 28.1061L21.5886 42.941L21.3468 43.3998C21.0253 44.0096 20.5676 44.4526 19.9693 44.7332L19.4781 44.9636L14.9408 44.9885C10.5895 45.0124 10.395 45.0066 10.1966 44.846C9.91053 44.6144 9.90859 44.0832 10.1929 43.853C10.3853 43.6972 10.6269 43.6885 14.7421 43.6885C18.2367 43.6885 19.1435 43.6647 19.371 43.5674C19.7133 43.421 20.0927 43.0303 20.2199 42.6935C20.2847 42.5221 20.3135 37.95 20.3135 27.854V13.2622H19.2273H18.1411L18.0428 14.2282C17.7641 16.9649 16.4848 18.6693 13.6846 20.0346C12.0744 20.8197 10.6243 21.253 6.52679 22.1739C2.46655 23.0864 2.23396 23.1679 1.77132 23.8404C1.39486 24.3876 1.32011 24.7734 1.31959 26.1728C1.31923 26.8909 1.27896 27.5065 1.22576 27.606C1.00002 28.0277 0.302592 27.9881 0.0993692 27.5419C0.0403633 27.4124 0 26.815 0 26.0714C0 24.6867 0.11511 24.0677 0.506255 23.349C0.792579 22.8229 1.56027 22.1187 2.08068 21.9047L2.46163 21.7481L2.46189 17.9578L2.46224 14.1673L1.78442 14.1101C0.967486 14.041 0.536505 13.7967 0.253875 13.2426C0.0893444 12.9201 0.0714929 12.7792 0.117396 12.1655C0.241652 10.506 1.06694 8.40539 2.15411 6.98107L2.46224 6.57744V4.52762C2.46224 2.23263 2.52767 1.83859 3.01414 1.20491ZM19.1152 1.72603C18.9762 1.59605 18.7511 1.4477 18.615 1.39626C18.4477 1.33303 16.1959 1.30384 11.668 1.30621C5.7336 1.30938 4.93829 1.32565 4.70464 1.44885C3.91154 1.8669 3.76723 2.26218 3.8003 3.92613L3.82527 5.18653L4.25054 4.86169C4.95386 4.3244 5.9144 3.76494 6.13354 3.76494C6.40869 3.76494 6.77117 4.14078 6.77117 4.42605C6.77117 4.58614 6.68757 4.73469 6.44652 4.9419C6.26359 5.09915 5.98998 5.29018 5.59343 5.54567C4.17975 6.45652 3.03199 7.7733 2.27828 9.34896C1.63889 10.6855 1.2116 12.5569 1.50346 12.7417C1.65173 12.8355 3.34355 12.847 3.48522 12.7552C3.54009 12.7197 3.63163 12.4531 3.68879 12.1629C4.22618 9.43364 6.06196 7.37221 8.74976 6.48009C9.34509 6.2825 9.48949 6.27432 13.1466 6.22947L16.9279 6.18321L16.3563 5.75637C15.5508 5.15488 14.1749 4.50739 13.1446 4.24499C12.0891 3.97617 10.6166 3.88031 9.65279 4.01758C9.38781 4.05534 9.18262 4.07217 9.02064 4.06315C8.69439 4.04497 8.54339 3.92189 8.43222 3.65352C8.34191 3.43535 8.34525 3.34882 8.45139 3.15932C8.54311 2.99554 8.7071 2.8821 9.00438 2.80285C9.30474 2.72277 9.74116 2.6776 10.3766 2.65069C13.325 2.5259 16.0851 3.56945 18.253 5.62868C18.8227 6.16994 18.9178 6.22718 19.2465 6.22718H19.61V4.37769C19.61 2.36252 19.5707 2.15191 19.1152 1.72603ZM9.06994 11.862C9.00847 11.6568 8.9696 10.8067 8.9696 9.66852C8.9696 8.64634 8.93988 7.81014 8.90365 7.81032C8.73692 7.81102 7.58564 8.45428 7.15097 8.78967C6.41845 9.35476 6.06767 9.82417 6.06767 10.2391C6.06767 10.731 6.38477 11.8087 6.71102 12.4261C7.08423 13.1322 8.23638 14.2893 8.9696 14.6945C9.9122 15.2153 10.7544 15.4006 11.9552 15.3515C12.7524 15.3188 13.0983 15.2623 13.5636 15.0886C14.3836 14.7826 15.0608 14.3595 15.6426 13.7898L16.1365 13.3061L13.3225 13.2622C10.5949 13.2195 10.4957 13.2119 10.0907 13.0124C9.60055 12.771 9.21073 12.3317 9.06994 11.862ZM11.6877 16.6911C9.02764 16.6929 6.596 15.1737 5.44121 12.7884C5.25654 12.4068 5.09227 12.0816 5.07627 12.0656C5.06026 12.0496 5.00301 12.2944 4.94902 12.6097C4.83549 13.2727 4.56043 13.6922 4.09401 13.9134L3.7813 14.0619V17.757C3.7813 21.2351 3.79036 21.4495 3.93519 21.4063C4.01988 21.381 5.35538 21.0788 6.90308 20.7346C11.8015 19.6454 13.9671 18.7546 15.4135 17.2339C15.9448 16.6752 16.4718 15.7041 16.5827 15.0792L16.6426 14.7418L16.0031 15.2359C14.7248 16.2235 13.3415 16.69 11.6877 16.6911ZM5.81863 25.2239C5.85592 24.5649 6.03056 24.218 6.42786 24.0138C6.58369 23.9337 7.45321 23.9049 9.73571 23.9039C12.6457 23.9027 12.8614 23.9135 13.3149 24.0832C14.276 24.4428 15.0711 25.4388 15.0711 26.2833C15.0711 26.8199 14.8377 27.1972 14.2107 27.6737C13.6374 28.1095 13.2318 28.6199 13.1109 29.0575C13.0378 29.3221 13.0786 29.4429 13.515 30.2546C14.5419 32.1647 15.574 34.3056 15.6986 34.784C15.8916 35.5249 15.8717 37.21 15.6646 37.6648C15.4587 38.1171 14.8792 38.6384 14.4499 38.7576C13.975 38.8896 7.99869 38.8843 7.55575 38.7516C7.10779 38.6173 6.63284 38.2128 6.39884 37.7662C6.13978 37.2719 6.07198 35.7091 6.27512 34.9162C6.39067 34.4652 8.57459 29.9697 8.89828 29.5168C9.01392 29.3549 8.89785 28.8271 8.68143 28.5312C8.57186 28.3813 8.54979 28.3918 8.34912 28.689C8.06657 29.1075 7.36061 29.5842 6.83035 29.7144C6.44853 29.8082 6.38231 29.8011 6.17082 29.6439C5.91026 29.4503 5.82048 29.0367 5.97595 28.7462C6.02871 28.6476 6.23414 28.5252 6.43973 28.4699C6.89965 28.346 7.47467 27.7969 7.47467 27.4815C7.47467 27.2846 7.40608 27.2357 6.88742 27.0631C5.94262 26.7487 5.7511 26.4192 5.81863 25.2239ZM13.6068 25.9403C13.4745 25.7405 13.2096 25.497 13.0181 25.3993C12.6906 25.2322 12.5055 25.2216 9.89646 25.2216H7.12292V25.4882C7.12292 25.6657 7.17436 25.7704 7.27681 25.8014C7.75765 25.9471 8.58822 26.4147 8.94234 26.7389C9.48957 27.24 9.96461 27.9915 10.1486 28.6471L10.2997 29.1858L11.004 29.1603L11.7083 29.1348L11.8573 28.694C12.1507 27.8258 12.708 27.1159 13.5887 26.4883L13.8474 26.3039L13.6068 25.9403ZM0.0192584 36.5149C-0.00545195 30.1875 -0.00518826 30.1764 0.17948 29.9416C0.410667 29.6478 0.879812 29.6189 1.14318 29.8823C1.31572 30.0548 1.31906 30.1767 1.32099 36.2358C1.32284 42.0417 1.3326 42.4346 1.48447 42.7651C1.67661 43.1835 1.87271 43.371 2.30871 43.5532C2.57472 43.6644 3.08572 43.6885 5.17361 43.6885C7.61123 43.6885 7.72423 43.6959 7.94645 43.8708C8.26962 44.1249 8.26689 44.5732 7.94074 44.8297C7.70841 45.0125 7.6443 45.016 4.92888 44.99L2.15446 44.9636L1.65832 44.72C1.07952 44.4357 0.503089 43.8466 0.234001 43.2643C0.0455514 42.8566 0.0437929 42.799 0.0192584 36.5149ZM14.4565 35.0266L13.3187 32.7623L12.1809 30.4979H11.0224H9.86384L8.80797 32.5547C8.22715 33.686 7.68959 34.7954 7.61335 35.02C7.52541 35.279 7.47467 35.7345 7.47467 36.2648C7.47467 37.0356 7.49164 37.1181 7.69055 37.317L7.90635 37.5329H10.9922H14.078L14.3029 37.3079C14.5234 37.0874 14.5271 37.0624 14.4922 36.0548L14.4565 35.0266ZM6.36666 40.5397C6.44202 40.394 6.55396 40.2546 6.61543 40.2298C6.6769 40.2051 8.59165 40.1817 10.8704 40.1779C14.9341 40.1712 15.018 40.1745 15.2452 40.3533C15.5657 40.6053 15.5657 41.0557 15.2452 41.3077C15.0184 41.4862 14.9286 41.49 10.8865 41.49C8.41278 41.49 6.69633 41.4562 6.60154 41.4054C6.51466 41.3589 6.39541 41.2047 6.33658 41.0627C6.24847 40.8499 6.25375 40.758 6.36666 40.5397Z" fill="#762D36"/>
<path d="M13.3187 32.7623L14.4565 35.0266L14.4922 36.0548C14.5271 37.0624 14.5234 37.0874 14.3029 37.3079L14.078 37.5329H10.9922H7.90635L7.69055 37.317C7.49164 37.1181 7.47467 37.0356 7.47467 36.2648C7.47467 35.7345 7.52541 35.279 7.61335 35.02C7.68959 34.7954 8.22715 33.686 8.80797 32.5547L9.86384 30.4979H11.0224H12.1809L13.3187 32.7623Z" fill="#762D36"/>
</svg>
