<svg width="40" height="46" viewBox="0 0 40 46" fill="none" xmlns="http://www.w3.org/2000/svg">
<path fill-rule="evenodd" clip-rule="evenodd" d="M22.8434 0.118412C22.0193 0.379058 21.4465 0.787527 21.0037 1.43061C20.7731 1.76539 20.501 2.45746 19.9943 3.99794C19.6128 5.15792 19.2506 6.33461 19.1894 6.61267C19.1281 6.89073 19.0537 7.11831 19.024 7.11831C18.9944 7.11831 18.7585 6.47522 18.5001 5.68933C17.9526 4.02423 17.6985 3.50883 17.2498 3.15357C16.6249 2.65866 16.4406 2.63351 13.4367 2.63351C12.7841 2.63351 12.2762 2.63287 11.8794 2.63755C10.4409 2.6545 10.4639 2.74123 10.3542 3.18092C10.3057 3.37482 10.3451 3.4712 10.5604 3.68655L10.8264 3.95257H13.4645H16.1028L16.3765 4.18296C16.6384 4.40333 16.9076 4.89376 16.9076 5.15045C16.9076 5.24911 16.598 5.27162 15.2397 5.27162H13.5719L13.1119 5.68018C12.4293 6.28642 11.8259 6.53344 11.0176 6.53757C10.2219 6.54162 9.57543 6.28123 8.8569 5.66743L8.39821 5.27549L6.72688 5.25157L5.05554 5.22766L5.22887 4.76335C5.49329 4.05466 5.61852 4.00427 7.24307 3.95257C8.43928 3.91449 8.64831 3.88626 8.80844 3.74108C9.05247 3.51991 9.05423 3.0462 8.81196 2.80393C8.71611 2.70808 8.64527 2.66318 8.3447 2.64672C8.10619 2.63367 7.72302 2.63852 7.0679 2.65004L5.50517 2.67747L5.07586 2.94313C4.33833 3.39962 4.13871 3.75893 3.45025 5.86942C1.52002 11.7869 0.545943 16.4337 0.101068 21.8478C-0.034883 23.5024 -0.033388 27.7421 0.103794 29.5423C0.42028 33.6948 1.09379 37.1118 2.3571 40.9742C3.17122 43.4635 3.42035 43.9095 4.31309 44.4763C5.17074 45.0209 5.15157 45.0193 11.0158 45.0193C16.9455 45.0193 16.8654 45.0263 17.7675 44.4276C18.5655 43.8979 18.8361 43.4102 19.5774 41.1657C19.9396 40.0688 20.3014 38.9142 20.3813 38.5998C20.4613 38.2855 20.5545 37.9993 20.5885 37.9641C20.6225 37.9287 20.8615 38.5421 21.1196 39.3271C21.6665 40.9904 21.9208 41.5059 22.3693 41.8611C22.993 42.3551 23.1821 42.3812 26.1424 42.3812C26.6588 42.3812 27.0786 42.3805 27.4209 42.3782C28.7016 42.3694 28.8996 42.3372 29.0295 42.2273C29.1295 42.1426 29.2369 41.9656 29.268 41.8337C29.3135 41.6417 29.272 41.5413 29.0587 41.3281L28.7927 41.0621H26.1546H23.5164L23.2426 40.8317C22.9808 40.6113 22.7115 40.1209 22.7115 39.8642C22.7115 39.7655 23.0211 39.743 24.3794 39.743H26.0472L26.5072 39.3345C27.1899 38.7282 27.7932 38.4812 28.6015 38.4771C29.3972 38.473 30.0437 38.7334 30.7622 39.3472L31.2209 39.7392L32.8923 39.7631L34.5636 39.787L34.3903 40.2513C34.1259 40.96 34.0006 41.0104 32.3761 41.0621C31.1799 41.1002 30.9708 41.1284 30.8107 41.2736C30.5659 41.4954 30.5649 41.9685 30.8088 42.2123C30.9028 42.3064 30.9711 42.3518 31.2491 42.3692C31.4849 42.3841 31.8716 42.3788 32.5527 42.3662L34.1138 42.3372L34.5433 42.0715C35.2808 41.6151 35.4805 41.2557 36.1674 39.1484C38.8124 31.0334 39.8851 24.2014 39.5976 17.3027C39.3804 12.0926 38.663 8.15474 37.0841 3.50576C36.3978 1.48487 36.1528 1.07596 35.3061 0.538401C34.4465 -0.00742596 34.474 -0.00522758 28.5653 0.00127977C24.4929 0.00576458 23.1101 0.0340804 22.8434 0.118412ZM34.1655 1.43993C34.6643 1.61792 35.0668 1.9658 35.2673 2.39229C35.8437 3.61867 36.9222 7.30702 37.3948 9.66849C38.0474 12.9295 38.296 15.6015 38.2986 19.3856C38.302 23.9671 37.8227 27.8066 36.6274 32.774L36.2201 34.4668H28.7528H21.2854L21.334 34.2689C21.4199 33.9183 21.7284 31.5562 21.848 30.3337C22.0039 28.7396 22.0048 22.6059 21.8494 21.0564C21.5723 18.2936 21.0171 14.7613 20.8087 14.4351C20.624 14.1461 20.2874 14.0375 20.0014 14.1746C19.6155 14.3595 19.5793 14.641 19.7926 15.7992C20.4661 19.4559 20.6437 21.5062 20.6444 25.6291C20.645 29.0946 20.5983 29.9751 20.2879 32.3563C19.8828 35.463 18.9714 39.1613 17.9183 41.9712C17.5685 42.9045 17.0963 43.4431 16.4829 43.6082C16.233 43.6756 14.49 43.6979 10.8208 43.6809L5.51976 43.6562L5.10778 43.4141C4.57716 43.1021 4.42714 42.8783 4.03274 41.8096C1.36587 34.5845 0.624295 26.0762 1.92102 17.5828C2.19881 15.7637 2.54995 14.0141 3.0285 12.0643L3.401 10.5469L11.0037 10.5694L18.6064 10.5918L18.8449 11.5096C19.0982 12.4839 19.2777 12.7463 19.6914 12.7463C19.9184 12.7463 20.2935 12.4261 20.3337 12.2122C20.336 12.1999 20.3372 12.1879 20.3372 12.1764C20.3372 12.1004 20.2123 11.5394 20.0597 10.9299L19.7821 9.82159L20.0224 8.7557C20.4395 6.9055 21.205 4.33791 21.8272 2.70227C22.0399 2.14326 22.6271 1.54625 23.0987 1.40933C23.2485 1.36589 25.7256 1.32852 28.6033 1.32623C32.7598 1.32298 33.9034 1.34637 34.1655 1.43993ZM8.18919 6.84087C9.88005 8.16107 11.973 8.21735 13.6082 6.98649L14.1342 6.59068H15.7847C16.6925 6.59068 17.4353 6.6066 17.4353 6.62595C17.4353 6.65444 17.8873 8.12264 18.1757 9.03094L18.2386 9.2288H11.0217C7.05251 9.2288 3.80499 9.19802 3.80499 9.16039C3.80499 9.12275 3.98438 8.52917 4.20361 7.84133L4.60231 6.59068H6.23548H7.86874L8.18919 6.84087ZM27.9768 11.9114C27.8499 11.9804 27.4881 12.3844 27.1727 12.8093C25.2688 15.3744 24.2286 17.5702 24.0695 19.3594C23.7929 22.4735 26.71 24.9887 29.706 24.2195C30.5853 23.9936 31.153 23.6648 31.8149 22.9978C33.3511 21.4495 33.5773 19.4798 32.5138 16.9107C31.8183 15.2306 29.8438 12.2341 29.2196 11.9112C28.8999 11.7459 28.2812 11.746 27.9768 11.9114ZM30.3599 15.6109C31.4073 17.341 31.9196 18.8841 31.8358 20.0561C31.6954 22.0176 29.7582 23.414 27.8217 22.9494C26.8471 22.7156 25.9272 21.8781 25.5608 20.8913C25.3492 20.3212 25.349 19.256 25.5604 18.4622C25.8743 17.2834 27.0671 15.1095 28.2296 13.5974L28.6231 13.0856L29.2233 13.9052C29.5535 14.3561 30.065 15.1236 30.3599 15.6109ZM4.03037 20.7599L3.79241 20.9471L3.82609 23.2881C3.85907 25.5778 3.86505 25.6439 4.10142 26.3024C4.65182 27.8364 5.67673 29.0563 7.05867 29.8224C7.49835 30.0662 10.792 31.3011 11.0025 31.3011C11.2372 31.3011 14.2912 30.1508 14.9028 29.8322C16.0386 29.2402 16.9771 28.2558 17.5685 27.0361C18.1265 25.8854 18.2267 25.2629 18.2267 22.9468V21.0044L18.0108 20.7886C17.8921 20.6699 17.7344 20.5727 17.6603 20.5727C17.4492 20.5727 14.379 21.6943 13.7719 21.9932C12.7937 22.4747 11.5528 23.6727 11.1669 24.5079C11.0457 24.7704 10.9963 24.7585 10.8007 24.42C10.2474 23.4629 9.23327 22.5018 8.25153 22.0043C7.75144 21.7509 4.57347 20.5727 4.39003 20.5727C4.32311 20.5727 4.16131 20.657 4.03037 20.7599ZM6.43545 22.6834C7.82829 23.2024 8.28266 23.4762 8.96752 24.2092C9.55907 24.8423 9.97598 25.5812 10.1731 26.3453C10.3253 26.9357 10.3767 29.6302 10.2358 29.6302C9.92665 29.6302 7.72505 28.6964 7.21924 28.3508C6.27365 27.7048 5.553 26.6673 5.25498 25.5233C5.11683 24.993 5.0624 22.2433 5.19 22.2437C5.22623 22.2438 5.78674 22.4416 6.43545 22.6834ZM16.8879 23.8044C16.8443 25.5296 16.7188 26.053 16.1279 26.9739C15.7855 27.5076 14.9757 28.2891 14.4454 28.5978C14.0407 28.8334 11.9588 29.6302 11.7481 29.6302C11.6017 29.6302 11.5853 27.768 11.7242 26.912C11.9778 25.349 12.8133 24.0945 14.1309 23.2981C14.4819 23.086 16.5891 22.2605 16.8076 22.2495C16.9057 22.2446 16.9201 22.5249 16.8879 23.8044ZM35.8142 35.8543C35.8142 35.8919 35.6348 36.4855 35.4155 37.1733L35.0168 38.424H33.3877H31.7585L31.35 38.1121C29.6121 36.7851 27.4327 36.8261 25.7606 38.2171C25.5189 38.4183 25.4659 38.424 23.8479 38.424C22.9327 38.424 22.1839 38.4081 22.1839 38.3887C22.1839 38.3602 21.7319 36.892 21.4434 35.9837L21.3806 35.7859H28.5974C32.5666 35.7859 35.8142 35.8166 35.8142 35.8543Z" fill="#762D36"/>
<path d="M20.0014 14.1746C20.2874 14.0375 20.624 14.1461 20.8087 14.4351L20.3337 12.2122C20.2935 12.4261 19.9184 12.7463 19.6914 12.7463C19.2777 12.7463 19.0982 12.4839 18.8449 11.5096L19.7926 15.7992C19.5793 14.641 19.6155 14.3595 20.0014 14.1746Z" fill="#762D36"/>
<path d="M10.3542 3.18092C10.4639 2.74123 10.4409 2.6545 11.8794 2.63755L8.3447 2.64672C8.64527 2.66318 8.71611 2.70808 8.81196 2.80393C9.05423 3.0462 9.05247 3.51991 8.80844 3.74108C8.64831 3.88626 8.43928 3.91449 7.24307 3.95257H10.8264L10.5604 3.68655C10.3451 3.4712 10.3057 3.37482 10.3542 3.18092Z" fill="#762D36"/>
<path d="M29.0295 42.2273C28.8996 42.3372 28.7016 42.3694 27.4209 42.3782L31.2491 42.3692C30.9711 42.3518 30.9028 42.3064 30.8088 42.2123C30.5649 41.9685 30.5659 41.4954 30.8107 41.2736C30.9708 41.1284 31.1799 41.1002 32.3761 41.0621H28.7927L29.0587 41.3281C29.272 41.5413 29.3135 41.6417 29.268 41.8337C29.2369 41.9656 29.1295 42.1426 29.0295 42.2273Z" fill="#762D36"/>
<path d="M26.1546 41.0621H28.7927H32.3761C34.0006 41.0104 34.1259 40.96 34.3903 40.2513L34.5636 39.787L32.8923 39.7631L31.2209 39.7392L30.7622 39.3472C30.0437 38.7334 29.3972 38.473 28.6015 38.4771C27.7932 38.4812 27.1899 38.7282 26.5072 39.3345L26.0472 39.743H24.3794C23.0211 39.743 22.7115 39.7655 22.7115 39.8642C22.7115 40.1209 22.9808 40.6113 23.2426 40.8317L23.5164 41.0621H26.1546Z" fill="#762D36"/>
<path d="M13.4645 3.95257H10.8264H7.24307C5.61852 4.00427 5.49329 4.05466 5.22887 4.76335L5.05554 5.22766L6.72688 5.25157L8.39821 5.27549L8.8569 5.66743C9.57543 6.28123 10.2219 6.54162 11.0176 6.53757C11.8259 6.53344 12.4293 6.28642 13.1119 5.68018L13.5719 5.27162H15.2397C16.598 5.27162 16.9076 5.24911 16.9076 5.15045C16.9076 4.89376 16.6384 4.40333 16.3765 4.18296L16.1028 3.95257H13.4645Z" fill="#762D36"/>
<path d="M30.3599 15.6109C31.4073 17.341 31.9196 18.8841 31.8358 20.0561C31.6954 22.0176 29.7582 23.414 27.8217 22.9494C26.8471 22.7156 25.9272 21.8781 25.5608 20.8913C25.3492 20.3212 25.349 19.256 25.5604 18.4622C25.8743 17.2834 27.0671 15.1095 28.2296 13.5974L28.6231 13.0856L29.2233 13.9052C29.5535 14.3561 30.065 15.1236 30.3599 15.6109Z" fill="#762D36"/>
<path d="M16.8879 23.8044C16.8443 25.5296 16.7188 26.053 16.1279 26.9739C15.7855 27.5076 14.9757 28.2891 14.4454 28.5978C14.0407 28.8334 11.9588 29.6302 11.7481 29.6302C11.6017 29.6302 11.5853 27.768 11.7242 26.912C11.9778 25.349 12.8133 24.0945 14.1309 23.2981C14.4819 23.086 16.5891 22.2605 16.8076 22.2495C16.9057 22.2446 16.9201 22.5249 16.8879 23.8044Z" fill="#762D36"/>
<path d="M6.43545 22.6834C7.82829 23.2024 8.28266 23.4762 8.96752 24.2092C9.55907 24.8423 9.97598 25.5812 10.1731 26.3453C10.3253 26.9357 10.3767 29.6302 10.2358 29.6302C9.92665 29.6302 7.72505 28.6964 7.21924 28.3508C6.27365 27.7048 5.553 26.6673 5.25498 25.5233C5.11683 24.993 5.0624 22.2433 5.19 22.2437C5.22623 22.2438 5.78674 22.4416 6.43545 22.6834Z" fill="#762D36"/>
</svg>
