<svg width="45" height="24" viewBox="0 0 45 24" fill="none" xmlns="http://www.w3.org/2000/svg">
<path fill-rule="evenodd" clip-rule="evenodd" d="M21.7555 0.199617C21.1636 0.594983 21.1421 0.715458 21.169 3.48926C21.1916 5.83473 21.2026 5.98017 21.3742 6.20987C21.6998 6.64568 21.9926 6.80502 22.468 6.80502C22.9434 6.80502 23.2361 6.64568 23.5617 6.20987C23.7334 5.98017 23.7444 5.83473 23.767 3.48926C23.7885 1.26181 23.7752 0.980325 23.6351 0.705257C23.411 0.265131 22.9722 0 22.468 0C22.1843 0 21.9604 0.062699 21.7555 0.199617ZM11.256 2.97764C10.7993 3.25975 10.6574 3.48698 10.6145 4.00528C10.5744 4.48832 10.5782 4.49738 11.5664 6.22429C13.1608 9.01076 13.2011 9.0578 13.9956 9.05719C14.7677 9.05657 15.285 8.53853 15.286 7.76495C15.2864 7.45242 15.114 7.09513 14.1617 5.43461C13.543 4.35606 12.9528 3.38075 12.8499 3.26731C12.4269 2.8008 11.7434 2.67655 11.256 2.97764ZM32.4489 2.97764C32.0542 3.22141 31.9916 3.31321 30.7746 5.43461C29.8219 7.09531 29.6495 7.45233 29.65 7.76495C29.651 8.53853 30.1683 9.05657 30.9404 9.05719C31.7348 9.0578 31.7752 9.01076 33.3696 6.22429C34.3589 4.49527 34.3617 4.48893 34.3214 4.00326C34.278 3.48126 34.0767 3.17603 33.6184 2.93754C33.2884 2.7658 32.7625 2.78383 32.4489 2.97764ZM3.6494 10.6463C3.29246 10.7959 2.9495 11.1797 2.85321 11.5375C2.73494 11.9766 2.86781 12.4681 3.18632 12.7699C3.41267 12.9843 6.16396 14.6166 7.09803 15.0906C7.58336 15.3369 7.94715 15.3564 8.3645 15.1584C9.01823 14.8481 9.28336 14.0218 8.93056 13.394C8.71353 13.0079 8.64529 12.9615 6.28945 11.6024C4.51866 10.5809 4.13631 10.4424 3.6494 10.6463ZM40.4072 10.6165C40.2554 10.6742 37.1173 12.4754 36.5655 12.8216C36.363 12.9486 36.111 13.2062 36.0054 13.394C35.6526 14.0218 35.9177 14.8481 36.5714 15.1584C36.9888 15.3564 37.3526 15.3369 37.8379 15.0906C38.772 14.6166 41.5233 12.9843 41.7496 12.7699C42.4157 12.1389 42.1483 10.982 41.2588 10.646C40.9958 10.5467 40.6248 10.5337 40.4072 10.6165ZM21.1929 12.7621C20.3693 12.865 19.2282 13.1965 18.4026 13.5728C16.427 14.473 14.7123 16.1329 13.724 18.1015C13.3548 18.837 12.935 20.0714 12.8455 20.6843L12.7849 21.0991L6.87617 21.124C1.14916 21.1481 0.958076 21.1544 0.668763 21.3248C0.187218 21.6084 0 21.9285 0 22.468C0 23.0075 0.187218 23.3276 0.668763 23.6112C0.965111 23.7857 1.12542 23.787 22.468 23.787C43.8105 23.787 43.9708 23.7857 44.2672 23.6112C44.7487 23.3276 44.9359 23.0075 44.9359 22.468C44.9359 21.9285 44.7487 21.6084 44.2672 21.3248C43.9779 21.1544 43.7868 21.1481 38.0598 21.124L32.151 21.0991L32.0904 20.6843C31.9312 19.5926 31.2431 17.971 30.4521 16.8238C29.9052 16.0304 28.6478 14.8114 27.832 14.2836C25.8562 13.0056 23.5236 12.471 21.1929 12.7621ZM24.3147 15.5651C26.2641 16.1091 27.881 17.4096 28.7889 19.1637C29.06 19.6877 29.503 20.8702 29.503 21.0702C29.503 21.0893 26.3372 21.1049 22.468 21.1049C18.5987 21.1049 15.433 21.0893 15.433 21.0702C15.433 21.0511 15.5167 20.7643 15.619 20.4327C16.4293 17.8058 18.6125 15.8797 21.3289 15.3951C22.0508 15.2663 23.55 15.3516 24.3147 15.5651Z" fill="#762D36"/>
<path d="M24.3147 15.5651C26.2641 16.1091 27.881 17.4096 28.7889 19.1637C29.06 19.6877 29.503 20.8702 29.503 21.0702C29.503 21.0893 26.3372 21.1049 22.468 21.1049C18.5987 21.1049 15.433 21.0893 15.433 21.0702C15.433 21.0511 15.5167 20.7643 15.619 20.4327C16.4293 17.8058 18.6125 15.8797 21.3289 15.3951C22.0508 15.2663 23.55 15.3516 24.3147 15.5651Z" fill="#762D36"/>
</svg>
