<svg width="48" height="45" viewBox="0 0 48 45" fill="none" xmlns="http://www.w3.org/2000/svg">
<path d="M42.8316 8.08867C44.1588 8.27743 45.3692 9.13689 45.9484 10.3017C46.8199 12.0546 46.2409 14.2363 44.6114 15.3395C44.3769 15.4983 42.1371 16.3783 39.3405 17.4104C36.6657 18.3975 34.4693 19.2052 34.4595 19.2052C34.4498 19.2052 34.5288 18.9614 34.635 18.6636C34.7644 18.301 34.8418 17.7932 34.8694 17.1266C34.917 15.9783 34.7747 15.2743 34.2994 14.3074C33.8868 13.4681 32.68 12.2808 31.8279 11.8758C30.5447 11.2658 31.1438 11.2937 19.2455 11.2906C12.402 11.2887 8.48305 11.255 8.58096 11.1987C8.88092 11.0261 16.7549 8.16694 17.1344 8.09263C17.6851 7.98497 42.0757 7.98111 42.8316 8.08867Z" fill="#762D36"/>
<path d="M44.0518 18.1215C46.1094 19.1344 46.9325 21.5294 45.9064 23.5175C45.5841 24.142 44.868 24.8834 44.3184 25.1616C43.9375 25.3545 34.6403 28.8123 34.5027 28.8123C34.463 28.8123 34.5189 28.5898 34.6268 28.3179C34.9064 27.6134 34.9694 25.9734 34.7489 25.139C34.4345 23.9488 33.476 22.5383 32.6329 22.0256C32.4456 21.9118 32.3279 21.784 32.3712 21.7419C32.5179 21.5993 42.8808 17.7996 43.1331 17.7959C43.2707 17.794 43.6842 17.9404 44.0518 18.1215Z" fill="#762D36"/>
<path d="M44.1434 27.8323C46.1102 28.7598 46.9178 31.1486 45.9343 33.1296C45.5957 33.8118 44.7983 34.5978 44.1526 34.8858C43.7455 35.0673 38.9574 36.8513 35.1608 38.2359L34.4258 38.504L34.6213 37.9672C34.8997 37.2023 34.9657 35.6514 34.7544 34.8392C34.4338 33.6066 33.7019 32.4708 32.7901 31.7903C32.5206 31.5891 32.3198 31.405 32.344 31.3813C32.3682 31.3575 34.7708 30.4559 37.6832 29.3778C41.2405 28.061 43.057 27.4326 43.2177 27.4631C43.3493 27.4882 43.7659 27.6543 44.1434 27.8323Z" fill="#762D36"/>
<path fill-rule="evenodd" clip-rule="evenodd" d="M30.507 13.0893C31.7543 13.5028 32.647 14.3863 33.0742 15.6298C33.2448 16.1268 33.2762 16.3952 33.2456 17.0956C33.2133 17.8328 33.1637 18.0415 32.8911 18.5866C32.3359 19.6963 31.2809 20.5315 30.0943 20.8006C29.8227 20.8623 25.194 20.8968 16.9886 20.8983C5.89497 20.9003 4.23215 20.8825 3.73952 20.7562C2.12513 20.3424 0.978395 19.1009 0.692214 17.4573C0.360856 15.5537 1.59641 13.6346 3.54474 13.0267C3.84576 12.9327 6.70595 12.9058 16.9237 12.9009C29.8152 12.8947 29.9243 12.8962 30.507 13.0893ZM3.56235 17.5886C3.0568 17.3236 2.954 16.7168 3.34901 16.3282L3.58389 16.097H16.97C30.2847 16.097 30.3572 16.098 30.5644 16.288C30.9852 16.6738 30.8983 17.3243 30.3922 17.5763C30.0581 17.7426 3.87916 17.7546 3.56235 17.5886Z" fill="#762D36"/>
<path fill-rule="evenodd" clip-rule="evenodd" d="M30.2525 22.647C31.4303 22.947 32.3671 23.7235 32.9181 24.8565C33.1954 25.4269 33.2157 25.5394 33.2157 26.5047C33.2157 27.4739 33.196 27.5817 32.9109 28.174C32.4872 29.0541 31.8622 29.6807 30.9801 30.1097L30.2586 30.4606H16.9495H3.64046L2.99707 30.1509C1.76602 29.5585 0.936282 28.4647 0.703221 27.1272C0.359133 25.1528 1.6749 23.1863 3.69836 22.6509C4.50111 22.4384 29.4192 22.4348 30.2525 22.647ZM3.34901 27.0741C2.95554 26.687 3.04981 26.0793 3.54474 25.8129C3.68066 25.7397 7.58689 25.709 17.011 25.707L30.2858 25.7041L30.5305 25.9161C30.9052 26.2405 30.9424 26.642 30.6315 27.0056L30.3752 27.3053H16.9796H3.58389L3.34901 27.0741Z" fill="#762D36"/>
<path fill-rule="evenodd" clip-rule="evenodd" d="M29.8179 32.2087C30.675 32.3444 31.3511 32.6702 31.9695 33.2458C32.9436 34.1523 33.3076 35.0466 33.2454 36.3807C33.2115 37.1059 33.1572 37.3402 32.9019 37.8626C32.344 39.0041 31.1812 39.8835 29.9245 40.1144C29.5958 40.1748 24.8861 40.2091 16.9264 40.2091C5.86004 40.2091 4.36806 40.1921 3.77474 40.0593C2.54445 39.7839 1.3757 38.7841 0.904888 37.6042C0.597362 36.8336 0.593247 35.4904 0.896082 34.7462C1.44595 33.3945 2.68409 32.4178 4.11902 32.2038C4.88692 32.0892 29.092 32.0939 29.8179 32.2087ZM3.36097 36.7313C3.04321 36.4374 3.0255 35.9342 3.32211 35.6234L3.53029 35.4055H16.9612C30.2069 35.4055 30.3948 35.408 30.5812 35.5915C31.0121 36.0155 30.8963 36.6445 30.3456 36.8709C30.0562 36.9899 28.2145 37.0053 16.8094 36.9841L3.60801 36.9596L3.36097 36.7313Z" fill="#762D36"/>
<path fill-rule="evenodd" clip-rule="evenodd" d="M6.79898 0.104659C6.419 0.319124 6.37449 0.476983 6.37133 1.61986C6.36846 2.67589 6.37995 2.74239 6.60325 2.96203C6.75974 3.11612 6.94341 3.19223 7.1536 3.19025C7.81899 3.18394 7.99539 2.83902 7.99539 1.54394C7.99539 0.561563 7.98974 0.536039 7.71562 0.266191C7.42188 -0.0228715 7.11943 -0.0761818 6.79898 0.104659ZM3.54474 3.30205C3.04981 3.56841 2.95554 4.17611 3.34901 4.56323C3.57202 4.78268 3.64151 4.79446 4.71876 4.79446C5.72652 4.79446 5.87698 4.77308 6.0619 4.60344C6.48274 4.21765 6.39584 3.5671 5.88971 3.31514C5.59223 3.16708 3.81398 3.1571 3.54474 3.30205ZM8.27516 3.46858C7.91815 3.8199 7.90102 4.23922 8.23036 4.56323C8.45347 4.78287 8.52238 4.79446 9.60758 4.79446C10.9157 4.79446 11.1201 4.70827 11.2165 4.11593C11.2655 3.81434 11.2337 3.72825 10.9816 3.48016C10.6915 3.19468 10.6847 3.19326 9.62251 3.19326C8.57015 3.19326 8.55091 3.19722 8.27516 3.46858ZM6.67283 5.02993L6.36827 5.28216V6.40827C6.36827 7.47843 6.37995 7.54596 6.60325 7.76561C6.83439 7.99317 7.22739 8.06409 7.56038 7.93835C7.87556 7.8193 7.99539 7.38424 7.99539 6.35844C7.99539 5.46762 7.97414 5.3463 7.78004 5.12929C7.45031 4.76055 7.04238 4.72391 6.67283 5.02993ZM41.7299 38.8391C41.5748 38.9916 41.4949 39.1766 41.4949 39.3826C41.4949 39.6501 41.6156 39.8132 42.3343 40.5171C43.0739 41.2415 43.2141 41.3393 43.5139 41.3393C43.9763 41.3393 44.2705 41.0266 44.2705 40.5352C44.2705 40.1982 44.2026 40.1013 43.4657 39.3876C42.7548 38.6989 42.6202 38.6079 42.3127 38.6079C42.0709 38.6079 41.8931 38.6783 41.7299 38.8391ZM45.9753 39.4378C45.2735 40.1283 45.132 40.3172 45.132 40.5627C45.132 41.0045 45.4998 41.377 45.9358 41.377C46.2469 41.377 46.3766 41.2884 47.1002 40.5811C47.5481 40.1434 47.9385 39.6929 47.9677 39.5801C48.0928 39.0959 47.6842 38.6079 47.1536 38.6079C46.8599 38.6079 46.7147 38.7102 45.9753 39.4378ZM43.1699 42.277C43.0646 42.3199 42.6446 42.6937 42.2367 43.1079C41.6427 43.7108 41.4949 43.9176 41.4949 44.1464C41.4949 44.5609 41.5799 44.7198 41.8846 44.8748C42.3723 45.123 42.5304 45.053 43.4215 44.195C44.1438 43.4994 44.2705 43.3319 44.2705 43.0725C44.2705 42.6382 44.1889 42.4815 43.8808 42.3248C43.5792 42.1714 43.4503 42.1626 43.1699 42.277ZM45.6105 42.3089C45.3065 42.4602 45.0969 42.8847 45.1751 43.1909C45.2516 43.491 46.7193 44.905 47.0351 44.9831C47.535 45.1065 48.0935 44.5312 47.9646 44.0258C47.888 43.7255 46.7546 42.5221 46.3571 42.3191C46.0409 42.1575 45.9181 42.1558 45.6105 42.3089Z" fill="#762D36"/>
</svg>
