<svg width="44" height="45" viewBox="0 0 44 45" fill="none" xmlns="http://www.w3.org/2000/svg">
<path fill-rule="evenodd" clip-rule="evenodd" d="M21.4314 0.214109C21.2185 0.427955 21.2167 0.444304 21.2167 2.09407C21.2167 3.97254 21.2523 4.0912 21.8444 4.18639C22.1123 4.22954 22.2034 4.20036 22.391 4.01192L22.616 3.78577V2.10778C22.616 0.443425 22.6143 0.428043 22.4013 0.214109C22.1173 -0.0713698 21.7154 -0.0713698 21.4314 0.214109ZM14.0856 4.12512C13.7673 4.25477 13.6566 4.48435 13.685 4.9559C13.6966 5.14891 15.5462 7.07124 15.8991 7.25705C16.242 7.43758 16.3888 7.41253 16.6754 7.1245C17.1932 6.60408 17.0818 6.40325 15.3858 4.79962C14.6011 4.05762 14.4472 3.97781 14.0856 4.12512ZM28.5504 5.42683C27.5274 6.44834 27.3389 6.67774 27.3389 6.90152C27.3389 7.43459 27.819 7.81095 28.2791 7.63851C28.559 7.53365 30.5275 5.60464 30.7123 5.25438C30.8869 4.92294 30.8704 4.79751 30.6109 4.48769C30.4361 4.27894 30.3134 4.21724 30.0732 4.21724C29.7902 4.21724 29.6517 4.32728 28.5504 5.42683ZM21.4172 5.57722C20.6867 5.89636 19.1585 7.08724 18.0509 8.20032C15.8168 10.4456 14.2899 13.1773 13.6788 16.0224C13.396 17.3388 13.3986 19.4964 13.6844 20.6094C14.2991 23.0039 15.7429 24.8393 17.8494 25.9047C18.5643 26.2662 19.672 26.6067 20.3496 26.6732C20.4535 26.6834 20.5462 26.6905 20.6289 26.6967C20.8965 26.717 21.0595 26.7293 21.1585 26.8158C21.3129 26.9508 21.311 27.2663 21.3062 28.0745C21.3052 28.2346 21.3041 28.4141 21.3041 28.6153C21.3041 29.6085 21.342 30.4922 21.3883 30.5792C21.5308 30.8468 21.9585 30.9771 22.2695 30.8477C22.4157 30.7869 22.5731 30.666 22.6194 30.5792C22.6656 30.4922 22.7035 29.6078 22.7035 28.6136C22.7035 27.5611 22.7374 26.806 22.7847 26.806C23.1544 26.806 24.3574 26.5744 24.9302 26.3929C27.1761 25.6813 28.8038 24.2481 29.7897 22.1141C30.2509 21.116 30.4858 20.1028 30.5463 18.8516C30.7589 14.4544 28.1859 9.61709 23.944 6.43902C22.697 5.50471 22.0714 5.2913 21.4172 5.57722ZM22.9328 7.49128C23.88 8.16139 25.804 10.0719 26.4957 11.0293C27.5929 12.5478 28.396 14.2362 28.8368 15.9511C29.0114 16.63 29.0405 16.9602 29.0423 18.2803C29.0447 20.08 28.9569 20.5133 28.3301 21.7957C27.9902 22.4912 27.7967 22.7559 27.1713 23.3811C26.0031 24.5489 24.6505 25.1586 22.9539 25.2818L22.1986 25.3366L22.4534 24.1157C22.5936 23.4441 22.717 22.867 22.7277 22.8332C22.7385 22.7993 23.8099 21.8105 25.1087 20.6358C27.3239 18.6323 27.4718 18.4797 27.4972 18.1716C27.5314 17.7569 27.2193 17.4013 26.8211 17.4013C26.812 17.4013 26.8032 17.4013 26.7947 17.4012C26.766 17.401 26.7406 17.4008 26.7155 17.4031C26.518 17.4206 26.3336 17.5865 24.7025 19.0542C24.6406 19.11 24.5765 19.1676 24.5103 19.2272C23.7433 19.9172 23.1069 20.4709 23.0959 20.4577C23.0851 20.4445 23.109 20.1766 23.149 19.8623C23.4574 17.4468 23.2704 14.2583 22.6568 11.4685C22.3824 10.2209 22.0871 9.91162 21.449 10.2037C21.035 10.3933 20.9924 10.6277 21.1993 11.5779C21.5737 13.2971 21.8755 15.6009 21.8145 16.2728L21.7852 16.5944L20.3531 15.3279C18.7944 13.9495 18.6433 13.8753 18.212 14.2769C17.9102 14.558 17.8943 15.0392 18.1777 15.3178C18.2859 15.4244 19.1507 16.199 20.0993 17.0392L21.8238 18.5669L21.7746 19.1047C21.6752 20.1912 21.3774 22.1382 21.1143 23.4221C20.9657 24.1472 20.8251 24.8493 20.8018 24.9822C20.7681 25.175 20.7122 25.2239 20.5255 25.2239C20.0784 25.2239 19.2442 24.9569 18.4182 24.5496C17.3204 24.0082 16.2778 22.9901 15.7334 21.9279C15.0696 20.6326 14.9629 20.1314 14.9659 18.3242C14.968 16.9876 14.9985 16.6218 15.1624 15.9669C15.5709 14.3347 16.3532 12.6716 17.4436 11.1169C18.4233 9.72019 21.4579 6.94195 22.0038 6.94195C22.0877 6.94195 22.5057 7.18919 22.9328 7.49128ZM10.1356 11.0291C9.76404 11.2907 9.83541 12.0912 10.2443 12.2489C10.3221 12.2789 11.1125 12.3035 12.0007 12.3035C13.5986 12.3035 13.6178 12.3012 13.8302 12.0877C14.1142 11.8023 14.1198 11.3501 13.8425 11.0883C13.6493 10.906 13.564 10.8972 11.9815 10.8972C10.6483 10.8972 10.2863 10.923 10.1356 11.0291ZM30.7031 11.4203C30.4563 11.5208 30.323 11.7018 30.2591 12.0227C30.2139 12.25 30.2498 12.3417 30.4705 12.5636L30.7364 12.8308H32.2781C34.1672 12.8308 34.4232 12.7417 34.4232 12.0837C34.4232 11.4295 34.1601 11.3353 32.3504 11.3422C31.5423 11.3453 30.8009 11.3804 30.7031 11.4203ZM0.969531 14.3164C0.777117 14.4062 0.526805 14.5691 0.413281 14.6785C0.408855 14.6827 0.404471 14.6869 0.400129 14.6911C0.339739 14.7492 0.28757 14.7994 0.242734 14.8555C-0.041812 15.2116 -0.0309621 15.8061 0.0487472 20.1736L0.0514566 20.322C0.100172 22.9938 0.179674 25.6226 0.22804 26.1637C0.431385 28.4387 1.26742 30.5096 2.70886 32.3089C3.72043 33.5716 5.00899 34.5546 7.1118 35.6679C7.83598 36.0512 8.61044 36.4907 8.83285 36.6445C9.3061 36.9717 10.0751 37.716 10.3568 38.1193L10.5541 38.402L9.90293 38.7125C9.37791 38.9629 9.23351 39.0755 9.15777 39.2938C9.04521 39.6183 9.06803 39.6785 10.4076 42.5829C11.3398 44.6045 11.596 45.0001 11.9726 44.9999C12.1173 44.9999 18.7499 41.9176 21.1426 40.7384C21.4513 40.5861 21.654 40.3025 21.654 40.0224C21.654 39.7629 19.3555 34.8849 19.1726 34.7562C18.933 34.5875 18.5819 34.5947 18.2033 34.7761C18.034 34.8573 17.8792 34.9067 17.8594 34.886C17.8395 34.8652 17.3812 33.4837 16.8407 31.8159C16.3003 30.1481 15.7603 28.5858 15.6408 28.3441C15.0419 27.1335 13.9492 25.9928 12.8377 25.4177C11.7834 24.8722 8.31167 23.5452 7.80318 23.4932C7.48806 23.4611 7.2046 23.4984 6.85266 23.6184C6.40285 23.7717 6.34713 23.7749 6.31119 23.6496C6.28923 23.5728 5.94963 22.1454 5.55658 20.4776C4.80039 17.2688 4.60815 16.7072 3.94721 15.7764C2.95908 14.3848 1.91734 13.874 0.969531 14.3164ZM41.595 14.32C40.8169 14.7344 39.8979 15.8176 39.4166 16.8875C39.2661 17.2219 38.8794 18.6596 38.451 20.4776C38.058 22.1454 37.7184 23.5728 37.6964 23.6496C37.6605 23.7749 37.6048 23.7717 37.155 23.6184C36.8081 23.5001 36.5186 23.4613 36.2162 23.4921C35.7112 23.5438 31.994 24.9717 31.0739 25.4675C29.9992 26.0466 28.9663 27.1449 28.3685 28.3441C28.248 28.5858 27.7073 30.1481 27.1669 31.8159C26.6264 33.4837 26.1681 34.8652 26.1482 34.886C26.1284 34.9067 25.9736 34.8573 25.8043 34.7761C25.4257 34.5947 25.0746 34.5875 24.835 34.7562C24.6521 34.8849 22.3536 39.7629 22.3536 40.0224C22.3536 40.4527 22.5437 40.5899 24.2673 41.404C28.1907 43.2569 31.9894 45 32.1042 45C32.1717 45 32.3263 44.9111 32.4476 44.8022C32.7188 44.5591 34.8885 39.8737 34.8892 39.5297C34.8898 39.193 34.6433 38.9496 34.0037 38.6556L33.4531 38.4025L33.6507 38.1196C33.9325 37.716 34.7013 36.9718 35.1748 36.6445C35.3972 36.4907 36.1663 36.054 36.884 35.6741C38.3794 34.8824 39.008 34.4745 39.9371 33.6926C41.8259 32.1032 43.1704 29.7603 43.6491 27.2244C43.8196 26.3209 43.8536 25.5323 43.9586 20.0381C44.0143 17.1211 44.0138 15.4927 43.957 15.288C43.7131 14.408 42.4227 13.8792 41.595 14.32ZM2.31555 16.0873C3.18832 16.9644 3.34242 17.3769 4.30003 21.4005C4.86048 23.7551 5.16047 25.1986 5.20831 25.7713C5.29446 26.8016 5.57503 27.393 6.18323 27.8267C6.65718 28.1645 11.4003 29.9701 11.814 29.9701C12.355 29.9701 12.6696 29.263 12.3175 28.8381C12.2205 28.7209 11.3034 28.3296 9.81031 27.7682C8.51546 27.2815 7.34698 26.8264 7.21361 26.7572C6.71473 26.4979 6.55529 25.9324 6.83027 25.3979C6.99198 25.0838 7.26057 24.9299 7.62318 24.9435C7.9404 24.9555 11.4609 26.326 12.2463 26.7432C12.961 27.1229 13.8424 28.0313 14.2334 28.7911C14.6171 29.5369 16.5492 35.4894 16.4403 35.5902C16.3976 35.6296 15.4574 36.0868 14.351 36.6059C13.2446 37.125 12.2381 37.6018 12.1145 37.6654C11.8968 37.7773 11.877 37.764 11.5076 37.2541C10.7067 36.1489 9.80471 35.4493 7.84533 34.4134C6.12463 33.5038 5.4532 33.0326 4.46192 32.0393C3.1438 30.7184 2.39514 29.3872 1.91769 27.5156C1.75466 26.8766 1.68478 26.2934 1.62723 25.092C1.52132 22.8804 1.41715 15.7689 1.48905 15.652C1.60511 15.4633 1.79323 15.5624 2.31555 16.0873ZM42.4866 19.5125C42.451 24.729 42.3666 26.4309 42.0899 27.5156C41.6126 29.3867 40.864 30.7179 39.5457 32.0399C38.5412 33.0472 37.9073 33.4928 36.1819 34.4038C35.5103 34.7584 34.6624 35.2558 34.2979 35.5091C33.6169 35.9822 32.7504 36.8444 32.3598 37.4378L32.1389 37.7731L29.892 36.7173C28.6561 36.1366 27.61 35.6293 27.5674 35.5899C27.4584 35.4894 29.3906 29.5366 29.7742 28.7911C30.1641 28.0333 31.0462 27.1231 31.7557 26.7464C32.6236 26.2855 36.0726 24.9602 36.4041 24.9602C36.8002 24.9602 37.0145 25.0815 37.1773 25.3979C37.4507 25.9292 37.2929 26.4979 36.8011 26.7535C36.6716 26.8207 35.5032 27.2765 34.2045 27.7664C32.7331 28.3213 31.7854 28.7259 31.6901 28.8399C31.3354 29.2637 31.6532 29.9701 32.1985 29.9701C32.615 29.9701 37.3456 28.1676 37.8244 27.8265C38.4326 27.3932 38.7132 26.8017 38.7993 25.7713C38.9085 24.4651 40.4474 18.0831 40.8536 17.2519C41.1936 16.5563 42.1257 15.5265 42.3715 15.575C42.5002 15.6004 42.5109 15.964 42.4866 19.5125ZM19.2168 38.0409C19.7241 39.1414 19.9406 39.7013 19.8736 39.7396C19.3957 40.013 12.437 43.2456 12.3728 43.224C12.2414 43.18 10.7942 39.9695 10.8713 39.8929C11.0012 39.764 18.3677 36.3067 18.4139 36.353C18.4393 36.3785 18.8006 37.1381 19.2168 38.0409ZM29.6109 38.1809C31.5099 39.0819 33.0955 39.8511 33.1343 39.8901C33.2108 39.967 31.7702 43.1787 31.6396 43.2224C31.5743 43.2443 28.1159 41.6414 24.7866 40.0462L24.0272 39.6824L24.6825 38.2761C25.043 37.5027 25.3931 36.7401 25.4604 36.5815C25.4757 36.5455 25.4837 36.511 25.4908 36.4804C25.4999 36.4409 25.5075 36.4081 25.5275 36.3873C25.6254 36.2857 26.0212 36.4739 28.3553 37.5843C28.3565 37.5848 28.3576 37.5853 28.3587 37.5859C28.726 37.7606 29.1413 37.9581 29.6109 38.1809Z" fill="#762D36"/>
<path fill-rule="evenodd" clip-rule="evenodd" d="M29.6109 38.1809C31.5099 39.0819 33.0955 39.8511 33.1343 39.8901C33.2108 39.967 31.7702 43.1787 31.6396 43.2224C31.5743 43.2443 28.1159 41.6414 24.7866 40.0462L24.0272 39.6824L24.6825 38.2761C25.043 37.5027 25.3931 36.7401 25.4604 36.5815C25.4757 36.5455 25.4837 36.511 25.4908 36.4804C25.4999 36.4409 25.5075 36.4081 25.5275 36.3873C25.6254 36.2857 26.0212 36.4739 28.3553 37.5843L28.3587 37.5859C28.726 37.7606 29.1413 37.9581 29.6109 38.1809ZM30.3933 41.4031C30.0347 41.0428 30.0399 40.6157 30.4068 40.3055C30.5547 40.1803 30.7542 40.0779 30.8497 40.0779C31.5687 40.0779 31.9018 40.9704 31.3554 41.4325C31.0027 41.7307 30.7103 41.7217 30.3933 41.4031Z" fill="#762D36"/>
<path fill-rule="evenodd" clip-rule="evenodd" d="M19.2168 38.0409C19.7241 39.1414 19.9406 39.7013 19.8736 39.7396C19.3957 40.013 12.437 43.2456 12.3728 43.224C12.2414 43.18 10.7942 39.9695 10.8713 39.8929C11.0012 39.764 18.3677 36.3067 18.4139 36.353C18.4393 36.3785 18.8006 37.1381 19.2168 38.0409ZM12.3859 40.8831C12.3889 40.5386 12.4969 40.3453 12.7767 40.1841C13.0557 40.0233 13.3118 40.061 13.6009 40.3055C13.9677 40.6157 13.9729 41.0428 13.6143 41.4031C13.2973 41.7217 13.0049 41.7307 12.6523 41.4325C12.4404 41.2533 12.3838 41.1364 12.3859 40.8831Z" fill="#762D36"/>
</svg>
