<svg width="54" height="45" viewBox="0 0 54 45" fill="none" xmlns="http://www.w3.org/2000/svg">
<path d="M49.9877 0.790009H3.9514C2.20597 0.790009 0.791016 2.20496 0.791016 3.95039V31.6564C0.791016 33.4019 2.20597 34.8168 3.9514 34.8168H49.9877C51.7331 34.8168 53.1481 33.4019 53.1481 31.6564V3.95039C53.1481 2.20496 51.7331 0.790009 49.9877 0.790009Z" fill="white"/>
<path d="M37.7268 44.1926H16.2097C16.0428 44.1926 15.8783 44.153 15.7297 44.0769C15.5811 44.0008 15.4527 43.8906 15.3551 43.7551C15.2575 43.6197 15.1935 43.4631 15.1683 43.298C15.1431 43.133 15.1575 42.9644 15.2103 42.806L16.0882 40.1724C16.1581 39.9626 16.2923 39.7802 16.4716 39.6509C16.651 39.5216 16.8665 39.4521 17.0876 39.4521H36.8489C37.07 39.4521 37.2855 39.5216 37.4649 39.6509C37.6443 39.7802 37.7784 39.9626 37.8483 40.1724L38.7262 42.806C38.779 42.9644 38.7934 43.133 38.7682 43.298C38.7431 43.4631 38.679 43.6197 38.5814 43.7551C38.4838 43.8906 38.3555 44.0008 38.2069 44.0769C38.0583 44.153 37.8937 44.1926 37.7268 44.1926V44.1926Z" fill="white"/>
<path d="M51.5669 22.1753H46.8263C45.9536 22.1753 45.2461 22.8827 45.2461 23.7555V42.6124C45.2461 43.4851 45.9536 44.1926 46.8263 44.1926H51.5669C52.4396 44.1926 53.1471 43.4851 53.1471 42.6124V23.7555C53.1471 22.8827 52.4396 22.1753 51.5669 22.1753Z" fill="white"/>
<path d="M49.1963 26.0204C49.6327 26.0204 49.9864 25.6666 49.9864 25.2303C49.9864 24.7939 49.6327 24.4402 49.1963 24.4402C48.76 24.4402 48.4062 24.7939 48.4062 25.2303C48.4062 25.6666 48.76 26.0204 49.1963 26.0204Z" fill="white"/>
<path d="M44.4561 23.7556V30.8664H4.74058V4.74058H49.1967V21.3853H46.8264C46.198 21.386 45.5955 21.6359 45.1511 22.0803C44.7067 22.5247 44.4568 23.1271 44.4561 23.7556Z" fill="#762D36"/>
<path d="M36.8493 40.2422C36.9046 40.2422 36.9585 40.2596 37.0033 40.2919C37.0482 40.3242 37.0817 40.3699 37.0991 40.4223L37.977 43.056C37.9902 43.0956 37.9938 43.1377 37.9875 43.179C37.9812 43.2202 37.9652 43.2594 37.9408 43.2932C37.9164 43.3271 37.8844 43.3547 37.8472 43.3737C37.8101 43.3927 37.7689 43.4026 37.7272 43.4026H16.21C16.1683 43.4026 16.1272 43.3927 16.09 43.3737C16.0529 43.3547 16.0208 43.3271 15.9964 43.2932C15.972 43.2594 15.956 43.2202 15.9497 43.179C15.9434 43.1377 15.947 43.0956 15.9602 43.056L16.8381 40.4224C16.8555 40.3699 16.889 40.3242 16.9339 40.2919C16.9787 40.2596 17.0326 40.2422 17.0879 40.2422L36.8493 40.2422Z" fill="#762D36"/>
<path fill-rule="evenodd" clip-rule="evenodd" d="M52.3571 42.6125C52.3568 42.822 52.2735 43.0228 52.1254 43.171C51.9773 43.3191 51.7764 43.4024 51.567 43.4026H46.8264C46.6169 43.4024 46.4161 43.3191 46.2679 43.171C46.1198 43.0228 46.0365 42.822 46.0363 42.6125V23.7556C46.0365 23.5461 46.1198 23.3453 46.2679 23.1971C46.4161 23.049 46.6169 22.9657 46.8264 22.9655H51.567C51.7764 22.9657 51.9773 23.049 52.1254 23.1971C52.2735 23.3453 52.3568 23.5461 52.3571 23.7556V42.6125ZM48.5393 25.6686C48.5107 25.6258 48.4864 25.5802 48.4666 25.5327C48.4472 25.4851 48.4324 25.4357 48.4224 25.3852C48.4013 25.2831 48.4013 25.1777 48.4224 25.0755C48.4324 25.0251 48.4472 24.9757 48.4666 24.9281C48.4864 24.8805 48.5107 24.835 48.5393 24.7922C48.5976 24.7057 48.672 24.6313 48.7584 24.573C48.8013 24.5445 48.8468 24.5201 48.8943 24.5003C48.942 24.481 48.9913 24.4662 49.0418 24.4561C49.1439 24.435 49.2493 24.435 49.3515 24.4561C49.4019 24.4662 49.4513 24.481 49.499 24.5003C49.5465 24.5201 49.592 24.5445 49.6349 24.573C49.7213 24.6313 49.7957 24.7057 49.854 24.7922C49.8825 24.835 49.9069 24.8805 49.9267 24.9281C49.946 24.9757 49.9608 25.0251 49.9709 25.0755C49.992 25.1777 49.992 25.2831 49.9709 25.3852C49.9609 25.4357 49.946 25.4851 49.9267 25.5327C49.9069 25.5802 49.8825 25.6258 49.854 25.6686C49.7957 25.755 49.7213 25.8294 49.6349 25.8877C49.592 25.9163 49.5465 25.9406 49.499 25.9604C49.4513 25.9798 49.4019 25.9946 49.3515 26.0047C49.2493 26.0258 49.1439 26.0258 49.0418 26.0047C48.9913 25.9946 48.942 25.9798 48.8943 25.9604C48.8468 25.9406 48.8013 25.9163 48.7584 25.8877C48.672 25.8294 48.5976 25.755 48.5393 25.6686ZM48.4066 37.0819H49.9868C50.1963 37.0819 50.3973 37.1651 50.5454 37.3133C50.6936 37.4614 50.7769 37.6624 50.7769 37.872C50.7769 38.0815 50.6936 38.2825 50.5454 38.4306C50.3973 38.5788 50.1963 38.662 49.9868 38.662H48.4066C48.197 38.662 47.9961 38.5788 47.8479 38.4306C47.6997 38.2825 47.6165 38.0815 47.6165 37.872C47.6165 37.6624 47.6997 37.4614 47.8479 37.3133C47.9961 37.1651 48.197 37.0819 48.4066 37.0819ZM48.4066 40.2422H49.9868C50.1963 40.2422 50.3973 40.3255 50.5454 40.4737C50.6936 40.6218 50.7769 40.8228 50.7769 41.0323C50.7769 41.2419 50.6936 41.4428 50.5454 41.591C50.3973 41.7392 50.1963 41.8224 49.9868 41.8224H48.4066C48.197 41.8224 47.9961 41.7392 47.8479 41.591C47.6997 41.4428 47.6165 41.2419 47.6165 41.0323C47.6165 40.8228 47.6997 40.6218 47.8479 40.4737C47.9961 40.3255 48.197 40.2422 48.4066 40.2422Z" fill="#762D36"/>
<path fill-rule="evenodd" clip-rule="evenodd" d="M49.9868 0H3.95048C2.90311 0.00117861 1.89897 0.417767 1.15837 1.15837C0.417767 1.89897 0.00117861 2.90311 0 3.95048L0 31.6565C0.00117833 32.7039 0.417767 33.708 1.15837 34.4486C1.89897 35.1892 2.90311 35.6058 3.95048 35.607H22.7548V38.662H17.0879C16.7009 38.6617 16.3236 38.7833 16.0097 39.0096C15.6957 39.2359 15.461 39.5554 15.339 39.9227L14.4611 42.5563C14.3687 42.8334 14.3435 43.1285 14.3876 43.4173C14.4317 43.7061 14.5437 43.9802 14.7145 44.2172C14.8853 44.4542 15.11 44.6472 15.37 44.7803C15.63 44.9134 15.9179 44.9828 16.21 44.9828H37.7272C38.0193 44.9828 38.3072 44.9134 38.5673 44.7803C38.8273 44.6472 39.0519 44.4542 39.2227 44.2172C39.3935 43.9802 39.5056 43.7061 39.5496 43.4173C39.5937 43.1285 39.5685 42.8334 39.4762 42.5563L38.5983 39.9226C38.4762 39.5553 38.2415 39.2359 37.9276 39.0096C37.6136 38.7833 37.2363 38.6617 36.8493 38.662H31.1825V35.607H44.4561V34.0268H3.95048C3.32206 34.0261 2.71957 33.7762 2.27521 33.3318C1.83085 32.8874 1.5809 32.2849 1.58019 31.6565V3.95048C1.5809 3.32206 1.83085 2.71957 2.27521 2.27521C2.71957 1.83085 3.32206 1.5809 3.95048 1.58019H49.9868C50.6152 1.5809 51.2177 1.83085 51.662 2.27521C52.1064 2.71957 52.3563 3.32206 52.3571 3.95048V21.5212C52.8838 21.6044 53.9372 22.073 53.9372 23.2815V3.95048C53.9361 2.90311 53.5195 1.89897 52.7789 1.15837C52.0383 0.417767 51.0341 0.00117833 49.9868 0ZM4.74058 30.8664H44.4561V32.4466H3.95048C3.74094 32.4466 3.53997 32.3634 3.3918 32.2152C3.24363 32.067 3.16039 31.8661 3.16039 31.6565V3.95048C3.16039 3.74094 3.24363 3.53997 3.3918 3.3918C3.53997 3.24363 3.74094 3.16039 3.95048 3.16039H49.9868C50.1963 3.16039 50.3973 3.24363 50.5454 3.3918C50.6936 3.53997 50.7769 3.74094 50.7769 3.95048V21.3853H49.1967V4.74058H4.74058V30.8664ZM36.8493 40.2422C36.9046 40.2422 36.9585 40.2596 37.0033 40.2919C37.0482 40.3242 37.0817 40.3699 37.0991 40.4223L37.977 43.056C37.9902 43.0956 37.9938 43.1377 37.9875 43.179C37.9812 43.2202 37.9652 43.2594 37.9408 43.2932C37.9164 43.3271 37.8844 43.3547 37.8472 43.3737C37.8101 43.3927 37.7689 43.4026 37.7272 43.4026H16.21C16.1683 43.4026 16.1272 43.3927 16.09 43.3737C16.0529 43.3547 16.0208 43.3271 15.9964 43.2932C15.972 43.2594 15.956 43.2202 15.9497 43.179C15.9434 43.1377 15.947 43.0956 15.9602 43.056L16.8381 40.4224C16.8555 40.3699 16.889 40.3242 16.9339 40.2919C16.9787 40.2596 17.0326 40.2422 17.0879 40.2422L36.8493 40.2422ZM24.335 38.662V35.607H29.6023V38.662H24.335Z" fill="#762D36"/>
</svg>
