<svg width="49" height="23" viewBox="0 0 49 23" fill="none" xmlns="http://www.w3.org/2000/svg">
<path fill-rule="evenodd" clip-rule="evenodd" d="M14.0149 0.146651C12.7422 0.48377 12.5229 0.68374 9.18249 4.55049L6.86258 7.23594L4.76334 7.28389C2.71424 7.3307 2.6498 7.33837 2.06924 7.6027C1.32484 7.94164 0.662999 8.59689 0.308275 9.34593L0.0357109 9.92139L0.00572874 12.5887C-0.0131561 14.2616 0.0152685 15.4438 0.0818521 15.7599C0.512212 17.8023 2.27853 19.1766 4.47316 19.1766H5.12186L5.07611 18.3374C4.88639 14.8572 7.74063 11.8909 11.279 11.8909C14.8174 11.8909 17.6716 14.8572 17.4819 18.3374L17.4361 19.1766H25.2966H33.1571L33.1113 18.3374C32.9216 14.8572 35.7758 11.8909 39.3142 11.8909C42.8587 11.8909 45.707 14.8569 45.5164 18.3494L45.47 19.2007L45.9527 19.1443C47.0982 19.0107 48.226 18.1892 48.7251 17.1251L49 16.5391V13.9975V11.4559L48.7445 10.9284C48.3883 10.1933 47.8959 9.67164 47.2265 9.32004C46.7169 9.05245 46.13 8.92547 41.8155 8.14957L36.9761 7.2791L33.0102 4.03767C30.829 2.25482 28.8473 0.682877 28.6063 0.544385C27.6607 0.000773663 27.5674 -0.00574825 20.774 0.00115718C15.6478 0.00633626 14.4467 0.0321355 14.0149 0.146651ZM16.753 2.37039L17.071 2.68392V4.6464V6.60889L16.7529 6.92241L16.4348 7.23594L13.5203 7.26395C10.696 7.29109 10.5996 7.28591 10.407 7.09611C10.2977 6.9884 10.2082 6.81548 10.2082 6.71189C10.2082 6.49572 13.562 2.55569 14.034 2.21732C14.322 2.01093 14.4236 1.99654 15.3902 2.0255C16.4231 2.05648 16.4387 2.06041 16.753 2.37039ZM27.3485 2.29472C27.5852 2.45191 28.874 3.43565 30.2125 4.48086C32.3556 6.15447 32.6496 6.41659 32.6757 6.6767C32.7401 7.31861 33.0328 7.29109 26.4574 7.26203L20.5304 7.23594L20.2122 6.92241L19.894 6.60889V4.65225C19.894 2.69802 19.8943 2.69543 20.1374 2.43772C20.2712 2.29587 20.4683 2.14405 20.5754 2.10041C20.6825 2.05677 22.1534 2.01831 23.8441 2.01495L26.9181 2.00891L27.3485 2.29472ZM23.7619 9.56355C24.0354 9.83334 24.0798 9.94354 24.0798 10.353C24.0798 10.7625 24.0355 10.8725 23.7616 11.1424L23.4434 11.4559H22.1816H20.9198L20.6016 11.1424C20.3287 10.8736 20.2834 10.7617 20.2834 10.3588C20.2834 9.99025 20.3358 9.83325 20.5267 9.63088C20.8931 9.24254 21.0611 9.20437 22.3017 9.22816L23.4439 9.25002L23.7619 9.56355ZM10.0752 13.1905C8.30026 13.6139 6.78928 15.1188 6.367 16.8837C5.51124 20.4605 8.80772 23.7084 12.4381 22.8652C14.2532 22.4437 15.7632 20.956 16.191 19.1677C16.5958 17.4757 16.0965 15.7664 14.8342 14.5229C13.571 13.2782 11.7939 12.7807 10.0752 13.1905ZM38.1105 13.1905C36.3355 13.6139 34.8245 15.1188 34.4022 16.8837C33.7681 19.5342 35.4663 22.2408 38.1551 22.8652C41.7855 23.7084 45.082 20.4605 44.2262 16.8837C43.5903 14.2253 40.8105 12.5467 38.1105 13.1905ZM11.9978 15.8405C12.8344 16.084 13.6153 17.139 13.6153 18.0257C13.6153 18.9124 12.8344 19.9674 11.9978 20.2109C11.0851 20.4765 10.3574 20.2892 9.66951 19.6114C8.68467 18.6411 8.68467 17.4113 9.66951 16.4389C10.3524 15.7646 11.0879 15.5756 11.9978 15.8405ZM40.033 15.8405C40.8696 16.084 41.6505 17.139 41.6505 18.0257C41.6505 19.2141 40.5204 20.3275 39.3142 20.3275C38.7019 20.3275 38.2089 20.1081 37.7047 19.6114C36.7199 18.6411 36.7199 17.4113 37.7047 16.4389C38.3876 15.7646 39.1231 15.5756 40.033 15.8405Z" fill="#762D36"/>
</svg>
