<svg width="45" height="45" viewBox="0 0 45 45" fill="none" xmlns="http://www.w3.org/2000/svg">
<path fill-rule="evenodd" clip-rule="evenodd" d="M16.9845 0.243421C16.1495 0.659477 15.75 1.36815 15.75 2.43336C15.75 3.05412 15.7377 3.09254 15.5391 3.09348C15.0618 3.09573 12.7211 3.37954 11.6719 3.5624C8.52216 4.11127 5.631 5.17057 3.89091 6.4133L3.42244 6.74782H1.94137C0.493781 6.74782 0.454969 6.75307 0.230156 6.97792L0 7.20792V18.7303C0 29.9306 0.00496879 30.2588 0.178969 30.4739C0.351188 30.6867 0.417938 30.6969 1.93678 30.742L3.51562 30.7889L4.17188 31.2221C4.53281 31.4603 5.09175 31.7878 5.41406 31.9499L6 32.2444V38.3718C6 44.2628 6.00694 44.5077 6.17906 44.7204C6.35419 44.9369 6.39647 44.9424 8.14931 44.9709L9.9405 45L10.2203 44.7203L10.5 44.4406V42.4651V40.4897H18.75H27V42.4944C27 45.1543 26.8077 44.9328 29.1493 44.9709L30.9405 45L31.2202 44.7203L31.5 44.4406V38.3427V32.2448L31.9922 31.9974C32.2628 31.8613 32.8339 31.5231 33.261 31.246L34.0377 30.742H35.4948H36.9519L37.226 30.468L37.5 30.1941V27.0939V23.9936H39H40.5V24.8736C40.5 26.2288 40.4374 26.1894 42.6493 26.2254L44.4405 26.2545L44.7202 25.9749L45 25.6952V24.3335C45 23.5846 44.9526 22.7484 44.8946 22.4752C44.5165 20.6939 43.0085 19.4947 41.1463 19.4947H40.5142L40.4837 18.174C40.4437 16.4454 40.4951 16.4955 38.7577 16.4955H37.5051L37.4791 11.8008L37.4531 7.10604L37.2318 6.92693C37.0347 6.76741 36.8478 6.74782 35.5253 6.74782H34.0403L33.4498 6.33598C31.1155 4.70765 27.0365 3.51113 22.5349 3.13407L21.7728 3.07024L21.73 2.35491C21.6796 1.51071 21.4659 1.03157 20.9197 0.538193C20.4217 0.0883959 20.0514 0.000573486 18.6512 1.11224e-05C17.5707 -0.000551242 17.4342 0.0194127 16.9845 0.243421ZM19.9748 1.67258C20.1447 1.81017 20.1978 1.96557 20.2309 2.42239L20.2725 2.99872H18.7612H17.25V2.47901C17.25 2.05208 17.2912 1.91805 17.4802 1.72919C17.6963 1.51296 17.7719 1.49909 18.7354 1.49909C19.5934 1.49909 19.7954 1.52739 19.9748 1.67258ZM21.7969 4.59078C22.4156 4.63998 23.1644 4.70672 23.4609 4.73915L24 4.79791V7.04737V9.29682L23.4609 9.23843C20.6235 8.93082 16.7861 8.93101 14.0643 9.23881L13.5 9.30264V7.05065V4.79857L14.1797 4.72837C15.768 4.56444 16.5673 4.52526 18.5625 4.51364C19.7227 4.50689 21.1781 4.54157 21.7969 4.59078ZM11.9783 7.283L11.9531 9.50518L11.3906 9.62206C10.3999 9.82788 10.4932 10.0531 10.5217 7.52304L10.5469 5.29898L11.0625 5.19035C11.3461 5.13065 11.6738 5.07703 11.7908 5.07122L12.0034 5.06072L11.9783 7.283ZM26.6484 5.25558L27 5.34912V7.54815C27 9.0312 26.9678 9.74709 26.9009 9.74709C26.8463 9.74709 26.5088 9.69873 26.1509 9.63959L25.5 9.53217V7.2845V5.03673L25.8984 5.09943C26.1175 5.13383 26.4551 5.20413 26.6484 5.25558ZM8.99888 7.94284L8.99775 10.1689L7.89731 10.5212C7.29206 10.715 6.28003 11.124 5.64844 11.4302L4.5 11.9869V9.88956V7.79213L5.18062 7.36801C5.55497 7.13482 6.15609 6.80996 6.51656 6.64631C7.14994 6.35866 8.78625 5.73172 8.92969 5.72169C8.96831 5.71907 8.99944 6.71857 8.99888 7.94284ZM30.2134 6.33214C31.1192 6.68999 32.0555 7.17118 32.6465 7.58237L32.996 7.82568L32.998 9.91889C32.9991 11.0702 32.9684 11.9963 32.9297 11.9769C31.2986 11.1584 30.5012 10.8097 29.6027 10.5217L28.5023 10.1689L28.5011 7.95203L28.5 5.73519L28.9243 5.86284C29.1577 5.93304 29.7378 6.14421 30.2134 6.33214ZM3 18.7449V29.2424H2.25H1.5V18.7449V8.24745H2.25H3V18.7449ZM36 18.7449V29.2424H35.25H34.5V18.7449V8.24745H35.25H36V18.7449ZM21.5156 10.5907C22.1859 10.6394 23.0192 10.7069 23.3672 10.7407L24 10.8023V14.3987V17.9951H18.75H13.5V14.3976V10.8001L14.2266 10.7305C16.6507 10.4983 19.4895 10.4439 21.5156 10.5907ZM12 14.5272V17.9951H11.25H10.5V14.6696V11.344L10.7109 11.295C11.3798 11.1394 11.6899 11.0771 11.8359 11.0686C11.9894 11.0598 12 11.2833 12 14.5272ZM26.1562 11.1561C26.3883 11.2068 26.673 11.2698 26.7891 11.2961L27 11.344V14.6696V17.9951H26.25H25.5V14.5272C25.5 11.8142 25.5255 11.0597 25.6172 11.0615C25.6817 11.0628 25.9242 11.1054 26.1562 11.1561ZM9 14.8552V17.9951H6.75H4.5V15.9063V13.8175L5.03906 13.4621C5.769 12.9808 6.78628 12.4999 7.96875 12.0771C8.51016 11.8834 8.96362 11.7229 8.97656 11.7202C8.9895 11.7175 9 13.1283 9 14.8552ZM31.0312 12.7126C31.5211 12.9429 32.1641 13.2872 32.4601 13.4778L32.9984 13.8242L32.9992 15.9097L33 17.9951H30.75H28.5V14.8579V11.7206L29.3203 12.0073C29.7715 12.165 30.5414 12.4824 31.0312 12.7126ZM39 18.7449V19.4947H38.25H37.5V18.7449V17.9951H38.25H39V18.7449ZM9 22.6314V25.7682L8.03906 25.4355C6.96263 25.063 5.61647 24.4245 4.9455 23.9682L4.50037 23.6656L4.50019 21.5802L4.5 19.4947H6.75H9V22.6314ZM12 22.9626C12 25.6757 11.9745 26.4301 11.8828 26.4283C11.7796 26.4262 11.4045 26.3512 10.7109 26.1937L10.5 26.1458V22.8203V19.4947H11.25H12V22.9626ZM24 23.0911V26.6876L23.3672 26.7491C20.0944 27.0677 17.4474 27.0675 14.1328 26.7485L13.5 26.6876V23.0911V19.4947H18.75H24V23.0911ZM27 22.8203V26.1458L26.7891 26.1937C26.0955 26.3512 25.7204 26.4262 25.6172 26.4283C25.5255 26.4301 25.5 25.6757 25.5 22.9626V19.4947H26.25H27V22.8203ZM32.9992 21.5802L32.9984 23.6656L32.4601 24.012C31.7601 24.4627 30.3535 25.1214 29.3203 25.4825L28.5 25.7692V22.632V19.4947H30.75H33L32.9992 21.5802ZM41.9363 21.0948C42.3809 21.2183 42.9803 21.749 43.2448 22.2533C43.4049 22.5587 43.4523 22.8445 43.4825 23.689L43.5202 24.7435H42.7689H42.0175L41.9854 23.7978C41.9391 22.4406 42.0408 22.494 39.5052 22.494H37.5V21.7442V20.9944L39.5391 20.9949C40.6872 20.9952 41.7346 21.0389 41.9363 21.0948ZM7.89731 26.9686L8.99775 27.321L8.99888 28.2817L9 29.2424H7.73016C6.50681 29.2424 6.45178 29.2508 6.23016 29.4725C6.05278 29.6497 6 29.801 6 30.1318C6 30.626 6.02578 30.6294 5.03991 30.005L4.50159 29.6641L4.50084 27.5835L4.5 25.5029L5.64844 26.0596C6.28003 26.3658 7.29206 26.7748 7.89731 26.9686ZM33 27.5505V29.6077L32.6953 29.8342C32.5277 29.9587 32.1957 30.1725 31.9574 30.3094L31.5242 30.5582L31.4773 30.0703C31.4037 29.3049 31.2737 29.2424 29.7552 29.2424H28.5L28.5015 28.2817L28.5029 27.321L29.6095 26.9617C30.2182 26.7642 31.1984 26.3603 31.7878 26.0642C32.3771 25.7681 32.891 25.5185 32.9297 25.5096C32.9684 25.5006 33 26.419 33 27.5505ZM11.3906 27.8678L11.9531 27.9846L11.9783 30.2147L12.0035 32.4448L11.697 32.3856C11.5285 32.3531 11.1903 32.282 10.9453 32.2279L10.5 32.1293V29.936C10.5 27.4439 10.4056 27.6632 11.3906 27.8678ZM27 29.9387V32.1346L26.4609 32.2429C26.1644 32.3024 25.827 32.3731 25.7109 32.4002L25.5 32.4494V30.205V27.9606L26.0391 27.8652C26.3356 27.8128 26.673 27.7638 26.7891 27.7563L27 27.7427V29.9387ZM15.8906 28.3995C18.0662 28.5558 21.0607 28.4966 23.4158 28.2506L24.0035 28.1892L23.9783 30.4263L23.9531 32.6634L23.4844 32.7239C23.2266 32.7571 22.0551 32.8393 20.881 32.9066C18.8426 33.0232 16.4162 32.9635 14.0391 32.7382L13.5 32.687V30.4383V28.1895L14.0859 28.2507C14.4082 28.2844 15.2203 28.3513 15.8906 28.3995ZM9 37.1155V43.4889H8.25H7.5V37.1155V30.742H8.25H9V37.1155ZM30 37.1155V43.4889H29.25H28.5V37.1155V30.742H29.25H30V37.1155ZM13.4062 34.1588C17.3027 34.6621 22.5014 34.5329 26.1328 33.8425L27 33.6776V34.8341V35.9907H18.75H10.5V34.8341V33.6776L11.3672 33.8425C11.8442 33.9331 12.7617 34.0755 13.4062 34.1588ZM27 38.2402V38.99H18.75H10.5V38.2402V37.4904H18.75H27V38.2402Z" fill="#762D36"/>
<path d="M9 37.1155V43.4889H8.25H7.5V37.1155V30.742H8.25H9V37.1155Z" fill="#762D36"/>
<path d="M30 37.1155V43.4889H29.25H28.5V37.1155V30.742H29.25H30V37.1155Z" fill="#762D36"/>
<path d="M27 38.2402V38.99H18.75H10.5V38.2402V37.4904H18.75H27V38.2402Z" fill="#762D36"/>
</svg>
