<svg width="33" height="45" viewBox="0 0 33 45" fill="none" xmlns="http://www.w3.org/2000/svg">
<path fill-rule="evenodd" clip-rule="evenodd" d="M13.5521 0.0203686C10.2908 0.393914 8.07841 1.26435 5.71755 3.10269C2.71952 5.43721 0.693055 8.947 0.110031 12.8149C-0.0357255 13.7814 -0.0369304 16.3619 0.107965 17.2136C0.292807 18.3008 0.69779 19.7721 1.06515 20.6911C1.25525 21.1668 2.77695 24.0877 4.44664 27.182C7.61161 33.0474 7.668 33.1366 8.21426 33.1366C8.5836 33.1366 8.97111 32.829 9.06719 32.4595C9.12091 32.2529 9.15922 29.8153 9.16766 26.0688L9.18135 20.0119L8.73728 19.362C8.16941 18.5309 7.74815 17.6198 7.52018 16.7298C7.28772 15.8223 7.27094 14.2899 7.48324 13.3535C8.12722 10.5131 10.2686 8.32501 13.0461 7.66951C14.3359 7.36511 16.1284 7.51018 17.3509 8.0178C18.5639 8.52146 19.898 9.59864 20.599 10.6403C21.2095 11.5476 21.7268 12.8626 21.8562 13.8361C21.9864 14.8154 22.3052 15.0129 23.7576 15.0137C25.1507 15.0145 26.176 15.3893 27.0778 16.2273C27.3332 16.4648 27.6269 16.7046 27.7303 16.7604C27.9895 16.9001 28.4924 16.8873 28.7833 16.7336C29.1998 16.5135 29.3071 16.1359 29.3071 14.8904C29.3071 7.63168 24.0796 1.38549 16.9958 0.179957C16.2619 0.055119 14.1167 -0.0443815 13.5521 0.0203686ZM19.2773 16.9806C18.7362 17.1403 18.4469 17.3342 17.6884 18.0458L16.9812 18.7092H15.3645C13.6253 18.7092 13.0215 18.7847 12.478 19.07C11.9726 19.3353 11.4383 19.9029 11.211 20.416L11.0123 20.8646L10.9853 26.891C10.966 31.186 10.9866 33.0563 11.0571 33.4012C11.1729 33.9684 11.6112 34.6963 12.0362 35.0275C12.2014 35.1563 12.533 35.3379 12.7731 35.4311C13.1936 35.5944 13.5298 35.6006 21.9892 35.6006C30.4486 35.6006 30.7849 35.5944 31.2053 35.4311C31.4454 35.3379 31.777 35.1563 31.9422 35.0275C32.3673 34.6963 32.8055 33.9684 32.9213 33.4012C32.9918 33.0563 33.0124 31.186 32.9931 26.891L32.9661 20.8646L32.7674 20.416C32.5401 19.9029 32.0058 19.3353 31.5005 19.07C30.9569 18.7846 30.353 18.7092 28.6118 18.7092H26.9929L26.3484 18.0986C25.5717 17.3628 25.1766 17.1002 24.6415 16.9643C24.1 16.8268 19.7537 16.84 19.2773 16.9806ZM23.2376 21.7162C23.4743 21.7688 23.9077 21.9218 24.2007 22.056C26.1281 22.9395 27.3367 24.7268 27.4702 26.891C27.569 28.4943 26.9992 29.9772 25.8296 31.1597C24.7255 32.2761 23.5268 32.7827 21.9892 32.7827C20.4516 32.7827 19.2529 32.2761 18.1488 31.1597C16.9793 29.9772 16.4094 28.4943 16.5082 26.891C16.6828 24.0599 18.6761 21.9452 21.5157 21.5783C21.8694 21.5326 22.7174 21.6005 23.2376 21.7162ZM20.9991 23.5785C19.8357 23.9728 18.8357 24.9321 18.5353 25.9422C18.1094 27.374 18.4404 28.8193 19.4244 29.8234C21.2007 31.6362 24.2109 31.1025 25.2714 28.7867C25.6793 27.8959 25.7387 26.9343 25.4463 25.9533C25.1941 25.1076 24.3982 24.2279 23.4958 23.7977C22.9782 23.551 22.7838 23.507 22.1183 23.486C21.6416 23.4711 21.211 23.5067 20.9991 23.5785ZM10.7426 37.0761C10.4998 37.2771 10.3666 37.5557 10.3666 37.8627C10.3666 38.1369 13.6868 44.3788 14.0219 44.7346C14.1335 44.8532 14.3575 44.9587 14.5547 44.9857C14.8346 45.0241 14.9419 44.992 15.1601 44.8044C15.3295 44.6586 15.9856 43.5356 16.977 41.694C17.8304 40.1087 18.5536 38.7256 18.584 38.6202C18.6573 38.3657 18.4374 37.8462 18.1868 37.682C18.0235 37.575 17.5182 37.5441 15.4892 37.5173L12.9924 37.4842L12.2074 37.2023C11.3211 36.8839 11.0075 36.8569 10.7426 37.0761Z" fill="#762D36"/>
</svg>
