<svg width="44" height="27" viewBox="0 0 44 27" fill="none" xmlns="http://www.w3.org/2000/svg">
<path d="M17.6751 19.3482L21.0596 22.7334L19.6093 24.1934L18.159 25.6533L16.8535 25.5982C13.9485 25.4757 9.86999 24.9971 7.39781 24.4889C6.70258 24.3459 6.08939 24.2289 6.03513 24.2289C5.98088 24.2289 7.79599 22.3691 10.0688 20.0959C12.3416 17.8227 14.2213 15.9628 14.2459 15.9628C14.2705 15.9628 15.8137 17.4863 17.6751 19.3482Z" fill="#762D36"/>
<path d="M33.8746 20.0896C36.0802 22.3176 37.8582 24.157 37.8257 24.1771C37.7023 24.2534 35.6097 24.6634 34.4714 24.8344C30.5593 25.4219 26.3238 25.7224 21.9406 25.7233L19.7425 25.7239L24.6609 20.8049C28.5662 16.8992 29.6086 15.9017 29.7217 15.9623C29.8002 16.0042 31.6689 17.8616 33.8746 20.0896Z" fill="#762D36"/>
<path d="M22.3649 14.0602C23.3182 14.4585 23.1221 15.8859 22.0952 16.0237C21.4533 16.1098 20.9291 15.6763 20.9291 15.0595C20.9291 14.6066 21.1231 14.2604 21.4741 14.0874C21.8312 13.9113 21.9966 13.9063 22.3649 14.0602Z" fill="#762D36"/>
<path fill-rule="evenodd" clip-rule="evenodd" d="M31.8992 0.0966582C31.7663 0.168679 31.6485 0.236303 31.6377 0.246855C31.6269 0.257408 31.5972 2.02697 31.5718 4.17923L31.5255 8.09244L30.4369 8.19498C27.5836 8.46363 25.9702 8.52738 22.0283 8.52712C18.1015 8.52685 16.2777 8.45114 13.0147 8.15277L12.3552 8.09244L12.3112 4.1941C12.3084 3.9453 12.3059 3.71137 12.3036 3.49143C12.2754 0.85467 12.2688 0.227759 12.002 0.0841752C11.9187 0.0393886 11.8102 0.0416268 11.6678 0.044563C11.6298 0.0453477 11.5893 0.0461824 11.5463 0.0461824C11.0178 0.0461824 8.81079 0.363636 7.53139 0.623667C4.14633 1.31178 1.91132 2.15597 0.810078 3.16241C0.742939 3.22378 0.681355 3.2752 0.624868 3.32237C0.542563 3.39109 0.471079 3.45078 0.409 3.51902C-0.00108376 3.96983 -0.000773119 4.79396 0.00158964 11.0622C0.00183508 11.7133 0.00210268 12.4232 0.00193465 13.1976L0 22.0839L0.231099 22.5477C0.76822 23.6256 2.57911 24.5681 5.57522 25.3293C13.1053 27.2425 26.3416 27.5125 35.4387 25.9387C39.1755 25.2923 41.9412 24.3387 43.0747 23.306C43.1414 23.2452 43.2027 23.1943 43.2588 23.1476C43.3399 23.0803 43.4103 23.0217 43.4717 22.9547C43.8817 22.5067 43.8814 21.683 43.8791 15.3501C43.8789 14.694 43.8786 13.9787 43.8788 13.1986C43.8807 4.28441 43.8796 4.2327 43.6969 3.85519C42.9571 2.32684 39.3817 0.996785 33.9438 0.22707C33.2425 0.127789 32.55 0.028331 32.4049 0.00608289C32.2598 -0.0161652 32.0322 0.0245496 31.8992 0.0966582ZM11.0801 4.61672V7.95614L10.8383 7.91384C10.7053 7.89054 9.98308 7.7713 9.23341 7.6488C6.38741 7.1837 3.7777 6.47642 2.53083 5.83219C1.82918 5.46963 1.23112 4.91668 1.23112 4.63053C1.23112 4.01057 2.8052 3.12451 5.05639 2.47721C6.40948 2.08817 9.21486 1.52731 11.0141 1.28619C11.0504 1.28126 11.0801 2.78006 11.0801 4.61672ZM35.087 1.64084C38.6642 2.23784 41.3942 3.13656 42.2997 4.01532C42.7228 4.42599 42.7455 4.68004 42.3945 5.07751C41.8054 5.7446 40.2302 6.41689 37.9306 6.98267C36.6234 7.30426 34.4483 7.70684 33.3062 7.83848L32.8006 7.89678V4.59544V1.29401L33.1743 1.33904C33.3798 1.36375 34.2406 1.49952 35.087 1.64084ZM42.3642 22.2733C41.9757 22.6752 41.3358 23.0287 40.2567 23.4376L39.3519 23.7805L37.8257 24.1771C37.7023 24.2534 35.6097 24.6634 34.4714 24.8344C30.5593 25.4219 26.3238 25.7224 21.9406 25.7233L19.7425 25.7239L18.159 25.6533L16.8535 25.5982C13.9485 25.4757 9.86999 24.9971 7.39781 24.4889C6.70258 24.3459 6.08939 24.2289 6.03513 24.2289L4.52877 23.7768L3.85869 23.5296C2.86104 23.1615 1.79524 22.579 1.4959 22.2379L1.23112 21.9364V14.2377C1.23112 10.0033 1.26084 6.5524 1.29707 6.56902C1.33339 6.58555 1.68294 6.76406 2.07391 6.9657C4.08222 8.00134 7.29396 8.75479 11.9155 9.27458C21.6478 10.3691 34.1524 9.66441 40.0482 7.68907C40.8773 7.41137 42.1285 6.84716 42.4297 6.61518C42.6053 6.48003 42.6057 6.49498 42.628 14.2284L42.6505 21.9771L42.3642 22.2733Z" fill="#762D36"/>
</svg>
