<svg width="55" height="45" viewBox="0 0 55 45" fill="none" xmlns="http://www.w3.org/2000/svg">
<path d="M27.2395 29.9942C25.7573 29.9942 24.3083 30.4337 23.0759 31.2572C21.8435 32.0807 20.8829 33.2512 20.3157 34.6206C19.7485 35.99 19.6001 37.4968 19.8892 38.9506C20.1784 40.4043 20.8922 41.7397 21.9403 42.7878C22.9884 43.8359 24.3237 44.5496 25.7775 44.8388C27.2312 45.128 28.7381 44.9796 30.1075 44.4123C31.4769 43.8451 32.6473 42.8846 33.4708 41.6521C34.2943 40.4197 34.7338 38.9707 34.7338 37.4885C34.7338 35.5009 33.9443 33.5947 32.5388 32.1892C31.1334 30.7838 29.2271 29.9942 27.2395 29.9942ZM27.2395 39.9866C26.7455 39.9866 26.2625 39.8401 25.8517 39.5656C25.4408 39.2911 25.1207 38.901 24.9316 38.4445C24.7425 37.988 24.693 37.4857 24.7894 37.0011C24.8858 36.5166 25.1237 36.0714 25.4731 35.7221C25.8225 35.3727 26.2676 35.1348 26.7522 35.0384C27.2368 34.942 27.739 34.9915 28.1955 35.1806C28.652 35.3696 29.0421 35.6898 29.3166 36.1006C29.5911 36.5114 29.7376 36.9944 29.7376 37.4885C29.7376 38.151 29.4744 38.7864 29.006 39.2549C28.5375 39.7234 27.9021 39.9866 27.2395 39.9866ZM27.2395 20.0018C22.6049 20.0178 18.1628 21.8574 14.8739 25.1229C14.4087 25.591 14.1475 26.2241 14.1475 26.8841C14.1475 27.544 14.4087 28.1772 14.8739 28.6452C15.342 29.1105 15.9751 29.3717 16.6351 29.3717C17.2951 29.3717 17.9282 29.1105 18.3963 28.6452C19.5565 27.482 20.9349 26.5592 22.4523 25.9295C23.9698 25.2998 25.5966 24.9757 27.2395 24.9757C28.8825 24.9757 30.5093 25.2998 32.0267 25.9295C33.5442 26.5592 34.9226 27.482 36.0828 28.6452C36.544 29.1159 37.1726 29.3853 37.8315 29.3947C38.3383 29.4238 38.842 29.2979 39.2755 29.0336C39.709 28.7693 40.0516 28.3792 40.2578 27.9153C40.464 27.4513 40.524 26.9356 40.4297 26.4367C40.3354 25.9379 40.0913 25.4796 39.73 25.1229C38.0864 23.4909 36.1373 22.1987 33.9942 21.32C31.851 20.4413 29.5558 19.9934 27.2395 20.0018ZM27.2395 10.0094C19.955 10.0287 12.9718 12.919 7.8043 18.0533C7.57138 18.2862 7.38662 18.5627 7.26056 18.867C7.13451 19.1714 7.06963 19.4975 7.06963 19.8269C7.06963 20.4922 7.3339 21.1302 7.8043 21.6006C8.2747 22.071 8.9127 22.3353 9.57795 22.3353C10.2432 22.3353 10.8812 22.071 11.3516 21.6006C15.5672 17.3903 21.2815 15.0254 27.2395 15.0254C33.1975 15.0254 38.9119 17.3903 43.1275 21.6006C43.3609 21.8321 43.6377 22.0153 43.9421 22.1396C44.2464 22.2639 44.5723 22.3269 44.9011 22.325C45.2299 22.3269 45.5558 22.2639 45.8601 22.1396C46.1645 22.0153 46.4413 21.8321 46.6748 21.6006C46.9089 21.3684 47.0947 21.0921 47.2216 20.7876C47.3484 20.4832 47.4137 20.1567 47.4137 19.8269C47.4137 19.4971 47.3484 19.1706 47.2216 18.8662C47.0947 18.5618 46.9089 18.2855 46.6748 18.0533C41.5072 12.919 34.524 10.0287 27.2395 10.0094ZM53.7444 10.9836C50.2645 7.50155 46.1326 4.73927 41.5848 2.85465C37.037 0.970025 32.1624 0 27.2395 0C22.3167 0 17.4421 0.970025 12.8943 2.85465C8.34643 4.73927 4.21454 7.50155 0.734671 10.9836C0.264269 11.454 0 12.0921 0 12.7573C0 13.4225 0.264269 14.0606 0.734671 14.531C1.20507 15.0014 1.84307 15.2656 2.50832 15.2656C3.17357 15.2656 3.81157 15.0014 4.28198 14.531C10.3718 8.4443 18.6295 5.02511 27.2395 5.02511C35.8496 5.02511 44.1073 8.4443 50.1971 14.531C50.4293 14.7651 50.7056 14.9509 51.01 15.0778C51.3144 15.2046 51.641 15.2699 51.9707 15.2699C52.3005 15.2699 52.627 15.2046 52.9314 15.0778C53.2359 14.9509 53.5122 14.7651 53.7444 14.531C53.9785 14.2987 54.1644 14.0224 54.2912 13.718C54.418 13.4136 54.4833 13.0871 54.4833 12.7573C54.4833 12.4275 54.418 12.101 54.2912 11.7966C54.1644 11.4922 53.9785 11.2159 53.7444 10.9836V10.9836Z" fill="#762D36"/>
</svg>
